%TF.GenerationSoftware,KiCad,Pcbnew,(6.0.11)*%
%TF.CreationDate,2023-07-15T23:52:58-05:00*%
%TF.ProjectId,SchottkyNoiseSource,5363686f-7474-46b7-994e-6f697365536f,rev?*%
%TF.SameCoordinates,Original*%
%TF.FileFunction,Legend,Bot*%
%TF.FilePolarity,Positive*%
%FSLAX46Y46*%
G04 Gerber Fmt 4.6, Leading zero omitted, Abs format (unit mm)*
G04 Created by KiCad (PCBNEW (6.0.11)) date 2023-07-15 23:52:58*
%MOMM*%
%LPD*%
G01*
G04 APERTURE LIST*
%ADD10C,0.150000*%
%ADD11C,1.440000*%
%ADD12R,1.700000X1.700000*%
%ADD13O,1.700000X1.700000*%
%ADD14R,5.080000X1.500000*%
%ADD15R,3.000000X3.000000*%
%ADD16C,3.000000*%
G04 APERTURE END LIST*
D10*
X136500000Y-77000000D02*
X90410000Y-77000000D01*
X137000000Y-109000000D02*
X89782500Y-109000000D01*
X130309523Y-62452380D02*
X130880952Y-62452380D01*
X130595238Y-62452380D02*
X130595238Y-61452380D01*
X130690476Y-61595238D01*
X130785714Y-61690476D01*
X130880952Y-61738095D01*
X129690476Y-61452380D02*
X129595238Y-61452380D01*
X129500000Y-61500000D01*
X129452380Y-61547619D01*
X129404761Y-61642857D01*
X129357142Y-61833333D01*
X129357142Y-62071428D01*
X129404761Y-62261904D01*
X129452380Y-62357142D01*
X129500000Y-62404761D01*
X129595238Y-62452380D01*
X129690476Y-62452380D01*
X129785714Y-62404761D01*
X129833333Y-62357142D01*
X129880952Y-62261904D01*
X129928571Y-62071428D01*
X129928571Y-61833333D01*
X129880952Y-61642857D01*
X129833333Y-61547619D01*
X129785714Y-61500000D01*
X129690476Y-61452380D01*
X127738095Y-62452380D02*
X127738095Y-61452380D01*
X127738095Y-62404761D02*
X127833333Y-62452380D01*
X128023809Y-62452380D01*
X128119047Y-62404761D01*
X128166666Y-62357142D01*
X128214285Y-62261904D01*
X128214285Y-61976190D01*
X128166666Y-61880952D01*
X128119047Y-61833333D01*
X128023809Y-61785714D01*
X127833333Y-61785714D01*
X127738095Y-61833333D01*
X126928571Y-61928571D02*
X126785714Y-61976190D01*
X126738095Y-62023809D01*
X126690476Y-62119047D01*
X126690476Y-62261904D01*
X126738095Y-62357142D01*
X126785714Y-62404761D01*
X126880952Y-62452380D01*
X127261904Y-62452380D01*
X127261904Y-61452380D01*
X126928571Y-61452380D01*
X126833333Y-61500000D01*
X126785714Y-61547619D01*
X126738095Y-61642857D01*
X126738095Y-61738095D01*
X126785714Y-61833333D01*
X126833333Y-61880952D01*
X126928571Y-61928571D01*
X127261904Y-61928571D01*
X125071428Y-62452380D02*
X125071428Y-61928571D01*
X125119047Y-61833333D01*
X125214285Y-61785714D01*
X125404761Y-61785714D01*
X125500000Y-61833333D01*
X125071428Y-62404761D02*
X125166666Y-62452380D01*
X125404761Y-62452380D01*
X125500000Y-62404761D01*
X125547619Y-62309523D01*
X125547619Y-62214285D01*
X125500000Y-62119047D01*
X125404761Y-62071428D01*
X125166666Y-62071428D01*
X125071428Y-62023809D01*
X124738095Y-61785714D02*
X124357142Y-61785714D01*
X124595238Y-61452380D02*
X124595238Y-62309523D01*
X124547619Y-62404761D01*
X124452380Y-62452380D01*
X124357142Y-62452380D01*
X124166666Y-61785714D02*
X123785714Y-61785714D01*
X124023809Y-61452380D02*
X124023809Y-62309523D01*
X123976190Y-62404761D01*
X123880952Y-62452380D01*
X123785714Y-62452380D01*
X123071428Y-62404761D02*
X123166666Y-62452380D01*
X123357142Y-62452380D01*
X123452380Y-62404761D01*
X123500000Y-62309523D01*
X123500000Y-61928571D01*
X123452380Y-61833333D01*
X123357142Y-61785714D01*
X123166666Y-61785714D01*
X123071428Y-61833333D01*
X123023809Y-61928571D01*
X123023809Y-62023809D01*
X123500000Y-62119047D01*
X122595238Y-61785714D02*
X122595238Y-62452380D01*
X122595238Y-61880952D02*
X122547619Y-61833333D01*
X122452380Y-61785714D01*
X122309523Y-61785714D01*
X122214285Y-61833333D01*
X122166666Y-61928571D01*
X122166666Y-62452380D01*
X130240357Y-98489761D02*
X130097500Y-98537380D01*
X129859404Y-98537380D01*
X129764166Y-98489761D01*
X129716547Y-98442142D01*
X129668928Y-98346904D01*
X129668928Y-98251666D01*
X129716547Y-98156428D01*
X129764166Y-98108809D01*
X129859404Y-98061190D01*
X130049880Y-98013571D01*
X130145119Y-97965952D01*
X130192738Y-97918333D01*
X130240357Y-97823095D01*
X130240357Y-97727857D01*
X130192738Y-97632619D01*
X130145119Y-97585000D01*
X130049880Y-97537380D01*
X129811785Y-97537380D01*
X129668928Y-97585000D01*
X128811785Y-98489761D02*
X128907023Y-98537380D01*
X129097500Y-98537380D01*
X129192738Y-98489761D01*
X129240357Y-98442142D01*
X129287976Y-98346904D01*
X129287976Y-98061190D01*
X129240357Y-97965952D01*
X129192738Y-97918333D01*
X129097500Y-97870714D01*
X128907023Y-97870714D01*
X128811785Y-97918333D01*
X128383214Y-98537380D02*
X128383214Y-97537380D01*
X127954642Y-98537380D02*
X127954642Y-98013571D01*
X128002261Y-97918333D01*
X128097500Y-97870714D01*
X128240357Y-97870714D01*
X128335595Y-97918333D01*
X128383214Y-97965952D01*
X127335595Y-98537380D02*
X127430833Y-98489761D01*
X127478452Y-98442142D01*
X127526071Y-98346904D01*
X127526071Y-98061190D01*
X127478452Y-97965952D01*
X127430833Y-97918333D01*
X127335595Y-97870714D01*
X127192738Y-97870714D01*
X127097500Y-97918333D01*
X127049880Y-97965952D01*
X127002261Y-98061190D01*
X127002261Y-98346904D01*
X127049880Y-98442142D01*
X127097500Y-98489761D01*
X127192738Y-98537380D01*
X127335595Y-98537380D01*
X126716547Y-97870714D02*
X126335595Y-97870714D01*
X126573690Y-97537380D02*
X126573690Y-98394523D01*
X126526071Y-98489761D01*
X126430833Y-98537380D01*
X126335595Y-98537380D01*
X126145119Y-97870714D02*
X125764166Y-97870714D01*
X126002261Y-97537380D02*
X126002261Y-98394523D01*
X125954642Y-98489761D01*
X125859404Y-98537380D01*
X125764166Y-98537380D01*
X125430833Y-98537380D02*
X125430833Y-97537380D01*
X125335595Y-98156428D02*
X125049880Y-98537380D01*
X125049880Y-97870714D02*
X125430833Y-98251666D01*
X124716547Y-97870714D02*
X124478452Y-98537380D01*
X124240357Y-97870714D02*
X124478452Y-98537380D01*
X124573690Y-98775476D01*
X124621309Y-98823095D01*
X124716547Y-98870714D01*
X128002261Y-100147380D02*
X128002261Y-99147380D01*
X127764166Y-99147380D01*
X127621309Y-99195000D01*
X127526071Y-99290238D01*
X127478452Y-99385476D01*
X127430833Y-99575952D01*
X127430833Y-99718809D01*
X127478452Y-99909285D01*
X127526071Y-100004523D01*
X127621309Y-100099761D01*
X127764166Y-100147380D01*
X128002261Y-100147380D01*
X127002261Y-100147380D02*
X127002261Y-99480714D01*
X127002261Y-99147380D02*
X127049880Y-99195000D01*
X127002261Y-99242619D01*
X126954642Y-99195000D01*
X127002261Y-99147380D01*
X127002261Y-99242619D01*
X126383214Y-100147380D02*
X126478452Y-100099761D01*
X126526071Y-100052142D01*
X126573690Y-99956904D01*
X126573690Y-99671190D01*
X126526071Y-99575952D01*
X126478452Y-99528333D01*
X126383214Y-99480714D01*
X126240357Y-99480714D01*
X126145119Y-99528333D01*
X126097500Y-99575952D01*
X126049880Y-99671190D01*
X126049880Y-99956904D01*
X126097500Y-100052142D01*
X126145119Y-100099761D01*
X126240357Y-100147380D01*
X126383214Y-100147380D01*
X125192738Y-100147380D02*
X125192738Y-99147380D01*
X125192738Y-100099761D02*
X125287976Y-100147380D01*
X125478452Y-100147380D01*
X125573690Y-100099761D01*
X125621309Y-100052142D01*
X125668928Y-99956904D01*
X125668928Y-99671190D01*
X125621309Y-99575952D01*
X125573690Y-99528333D01*
X125478452Y-99480714D01*
X125287976Y-99480714D01*
X125192738Y-99528333D01*
X124335595Y-100099761D02*
X124430833Y-100147380D01*
X124621309Y-100147380D01*
X124716547Y-100099761D01*
X124764166Y-100004523D01*
X124764166Y-99623571D01*
X124716547Y-99528333D01*
X124621309Y-99480714D01*
X124430833Y-99480714D01*
X124335595Y-99528333D01*
X124287976Y-99623571D01*
X124287976Y-99718809D01*
X124764166Y-99814047D01*
X127954642Y-101757380D02*
X127954642Y-100757380D01*
X127383214Y-101757380D01*
X127383214Y-100757380D01*
X126764166Y-101757380D02*
X126859404Y-101709761D01*
X126907023Y-101662142D01*
X126954642Y-101566904D01*
X126954642Y-101281190D01*
X126907023Y-101185952D01*
X126859404Y-101138333D01*
X126764166Y-101090714D01*
X126621309Y-101090714D01*
X126526071Y-101138333D01*
X126478452Y-101185952D01*
X126430833Y-101281190D01*
X126430833Y-101566904D01*
X126478452Y-101662142D01*
X126526071Y-101709761D01*
X126621309Y-101757380D01*
X126764166Y-101757380D01*
X126002261Y-101757380D02*
X126002261Y-101090714D01*
X126002261Y-100757380D02*
X126049880Y-100805000D01*
X126002261Y-100852619D01*
X125954642Y-100805000D01*
X126002261Y-100757380D01*
X126002261Y-100852619D01*
X125573690Y-101709761D02*
X125478452Y-101757380D01*
X125287976Y-101757380D01*
X125192738Y-101709761D01*
X125145119Y-101614523D01*
X125145119Y-101566904D01*
X125192738Y-101471666D01*
X125287976Y-101424047D01*
X125430833Y-101424047D01*
X125526071Y-101376428D01*
X125573690Y-101281190D01*
X125573690Y-101233571D01*
X125526071Y-101138333D01*
X125430833Y-101090714D01*
X125287976Y-101090714D01*
X125192738Y-101138333D01*
X124335595Y-101709761D02*
X124430833Y-101757380D01*
X124621309Y-101757380D01*
X124716547Y-101709761D01*
X124764166Y-101614523D01*
X124764166Y-101233571D01*
X124716547Y-101138333D01*
X124621309Y-101090714D01*
X124430833Y-101090714D01*
X124335595Y-101138333D01*
X124287976Y-101233571D01*
X124287976Y-101328809D01*
X124764166Y-101424047D01*
X129002261Y-103319761D02*
X128859404Y-103367380D01*
X128621309Y-103367380D01*
X128526071Y-103319761D01*
X128478452Y-103272142D01*
X128430833Y-103176904D01*
X128430833Y-103081666D01*
X128478452Y-102986428D01*
X128526071Y-102938809D01*
X128621309Y-102891190D01*
X128811785Y-102843571D01*
X128907023Y-102795952D01*
X128954642Y-102748333D01*
X129002261Y-102653095D01*
X129002261Y-102557857D01*
X128954642Y-102462619D01*
X128907023Y-102415000D01*
X128811785Y-102367380D01*
X128573690Y-102367380D01*
X128430833Y-102415000D01*
X127859404Y-103367380D02*
X127954642Y-103319761D01*
X128002261Y-103272142D01*
X128049880Y-103176904D01*
X128049880Y-102891190D01*
X128002261Y-102795952D01*
X127954642Y-102748333D01*
X127859404Y-102700714D01*
X127716547Y-102700714D01*
X127621309Y-102748333D01*
X127573690Y-102795952D01*
X127526071Y-102891190D01*
X127526071Y-103176904D01*
X127573690Y-103272142D01*
X127621309Y-103319761D01*
X127716547Y-103367380D01*
X127859404Y-103367380D01*
X126668928Y-102700714D02*
X126668928Y-103367380D01*
X127097500Y-102700714D02*
X127097500Y-103224523D01*
X127049880Y-103319761D01*
X126954642Y-103367380D01*
X126811785Y-103367380D01*
X126716547Y-103319761D01*
X126668928Y-103272142D01*
X126192738Y-103367380D02*
X126192738Y-102700714D01*
X126192738Y-102891190D02*
X126145119Y-102795952D01*
X126097500Y-102748333D01*
X126002261Y-102700714D01*
X125907023Y-102700714D01*
X125145119Y-103319761D02*
X125240357Y-103367380D01*
X125430833Y-103367380D01*
X125526071Y-103319761D01*
X125573690Y-103272142D01*
X125621309Y-103176904D01*
X125621309Y-102891190D01*
X125573690Y-102795952D01*
X125526071Y-102748333D01*
X125430833Y-102700714D01*
X125240357Y-102700714D01*
X125145119Y-102748333D01*
X124335595Y-103319761D02*
X124430833Y-103367380D01*
X124621309Y-103367380D01*
X124716547Y-103319761D01*
X124764166Y-103224523D01*
X124764166Y-102843571D01*
X124716547Y-102748333D01*
X124621309Y-102700714D01*
X124430833Y-102700714D01*
X124335595Y-102748333D01*
X124287976Y-102843571D01*
X124287976Y-102938809D01*
X124764166Y-103034047D01*
X130428571Y-127452380D02*
X129809523Y-127452380D01*
X130142857Y-127833333D01*
X130000000Y-127833333D01*
X129904761Y-127880952D01*
X129857142Y-127928571D01*
X129809523Y-128023809D01*
X129809523Y-128261904D01*
X129857142Y-128357142D01*
X129904761Y-128404761D01*
X130000000Y-128452380D01*
X130285714Y-128452380D01*
X130380952Y-128404761D01*
X130428571Y-128357142D01*
X129190476Y-127452380D02*
X129095238Y-127452380D01*
X129000000Y-127500000D01*
X128952380Y-127547619D01*
X128904761Y-127642857D01*
X128857142Y-127833333D01*
X128857142Y-128071428D01*
X128904761Y-128261904D01*
X128952380Y-128357142D01*
X129000000Y-128404761D01*
X129095238Y-128452380D01*
X129190476Y-128452380D01*
X129285714Y-128404761D01*
X129333333Y-128357142D01*
X129380952Y-128261904D01*
X129428571Y-128071428D01*
X129428571Y-127833333D01*
X129380952Y-127642857D01*
X129333333Y-127547619D01*
X129285714Y-127500000D01*
X129190476Y-127452380D01*
X127238095Y-128452380D02*
X127238095Y-127452380D01*
X127238095Y-128404761D02*
X127333333Y-128452380D01*
X127523809Y-128452380D01*
X127619047Y-128404761D01*
X127666666Y-128357142D01*
X127714285Y-128261904D01*
X127714285Y-127976190D01*
X127666666Y-127880952D01*
X127619047Y-127833333D01*
X127523809Y-127785714D01*
X127333333Y-127785714D01*
X127238095Y-127833333D01*
X126428571Y-127928571D02*
X126285714Y-127976190D01*
X126238095Y-128023809D01*
X126190476Y-128119047D01*
X126190476Y-128261904D01*
X126238095Y-128357142D01*
X126285714Y-128404761D01*
X126380952Y-128452380D01*
X126761904Y-128452380D01*
X126761904Y-127452380D01*
X126428571Y-127452380D01*
X126333333Y-127500000D01*
X126285714Y-127547619D01*
X126238095Y-127642857D01*
X126238095Y-127738095D01*
X126285714Y-127833333D01*
X126333333Y-127880952D01*
X126428571Y-127928571D01*
X126761904Y-127928571D01*
X124571428Y-128452380D02*
X124571428Y-127928571D01*
X124619047Y-127833333D01*
X124714285Y-127785714D01*
X124904761Y-127785714D01*
X125000000Y-127833333D01*
X124571428Y-128404761D02*
X124666666Y-128452380D01*
X124904761Y-128452380D01*
X125000000Y-128404761D01*
X125047619Y-128309523D01*
X125047619Y-128214285D01*
X125000000Y-128119047D01*
X124904761Y-128071428D01*
X124666666Y-128071428D01*
X124571428Y-128023809D01*
X124238095Y-127785714D02*
X123857142Y-127785714D01*
X124095238Y-127452380D02*
X124095238Y-128309523D01*
X124047619Y-128404761D01*
X123952380Y-128452380D01*
X123857142Y-128452380D01*
X123666666Y-127785714D02*
X123285714Y-127785714D01*
X123523809Y-127452380D02*
X123523809Y-128309523D01*
X123476190Y-128404761D01*
X123380952Y-128452380D01*
X123285714Y-128452380D01*
X122571428Y-128404761D02*
X122666666Y-128452380D01*
X122857142Y-128452380D01*
X122952380Y-128404761D01*
X123000000Y-128309523D01*
X123000000Y-127928571D01*
X122952380Y-127833333D01*
X122857142Y-127785714D01*
X122666666Y-127785714D01*
X122571428Y-127833333D01*
X122523809Y-127928571D01*
X122523809Y-128023809D01*
X123000000Y-128119047D01*
X122095238Y-127785714D02*
X122095238Y-128452380D01*
X122095238Y-127880952D02*
X122047619Y-127833333D01*
X121952380Y-127785714D01*
X121809523Y-127785714D01*
X121714285Y-127833333D01*
X121666666Y-127928571D01*
X121666666Y-128452380D01*
X130865357Y-65189761D02*
X130722500Y-65237380D01*
X130484404Y-65237380D01*
X130389166Y-65189761D01*
X130341547Y-65142142D01*
X130293928Y-65046904D01*
X130293928Y-64951666D01*
X130341547Y-64856428D01*
X130389166Y-64808809D01*
X130484404Y-64761190D01*
X130674880Y-64713571D01*
X130770119Y-64665952D01*
X130817738Y-64618333D01*
X130865357Y-64523095D01*
X130865357Y-64427857D01*
X130817738Y-64332619D01*
X130770119Y-64285000D01*
X130674880Y-64237380D01*
X130436785Y-64237380D01*
X130293928Y-64285000D01*
X129436785Y-65189761D02*
X129532023Y-65237380D01*
X129722500Y-65237380D01*
X129817738Y-65189761D01*
X129865357Y-65142142D01*
X129912976Y-65046904D01*
X129912976Y-64761190D01*
X129865357Y-64665952D01*
X129817738Y-64618333D01*
X129722500Y-64570714D01*
X129532023Y-64570714D01*
X129436785Y-64618333D01*
X129008214Y-65237380D02*
X129008214Y-64237380D01*
X128579642Y-65237380D02*
X128579642Y-64713571D01*
X128627261Y-64618333D01*
X128722500Y-64570714D01*
X128865357Y-64570714D01*
X128960595Y-64618333D01*
X129008214Y-64665952D01*
X127960595Y-65237380D02*
X128055833Y-65189761D01*
X128103452Y-65142142D01*
X128151071Y-65046904D01*
X128151071Y-64761190D01*
X128103452Y-64665952D01*
X128055833Y-64618333D01*
X127960595Y-64570714D01*
X127817738Y-64570714D01*
X127722500Y-64618333D01*
X127674880Y-64665952D01*
X127627261Y-64761190D01*
X127627261Y-65046904D01*
X127674880Y-65142142D01*
X127722500Y-65189761D01*
X127817738Y-65237380D01*
X127960595Y-65237380D01*
X127341547Y-64570714D02*
X126960595Y-64570714D01*
X127198690Y-64237380D02*
X127198690Y-65094523D01*
X127151071Y-65189761D01*
X127055833Y-65237380D01*
X126960595Y-65237380D01*
X126770119Y-64570714D02*
X126389166Y-64570714D01*
X126627261Y-64237380D02*
X126627261Y-65094523D01*
X126579642Y-65189761D01*
X126484404Y-65237380D01*
X126389166Y-65237380D01*
X126055833Y-65237380D02*
X126055833Y-64237380D01*
X125960595Y-64856428D02*
X125674880Y-65237380D01*
X125674880Y-64570714D02*
X126055833Y-64951666D01*
X125341547Y-64570714D02*
X125103452Y-65237380D01*
X124865357Y-64570714D02*
X125103452Y-65237380D01*
X125198690Y-65475476D01*
X125246309Y-65523095D01*
X125341547Y-65570714D01*
X128627261Y-66847380D02*
X128627261Y-65847380D01*
X128389166Y-65847380D01*
X128246309Y-65895000D01*
X128151071Y-65990238D01*
X128103452Y-66085476D01*
X128055833Y-66275952D01*
X128055833Y-66418809D01*
X128103452Y-66609285D01*
X128151071Y-66704523D01*
X128246309Y-66799761D01*
X128389166Y-66847380D01*
X128627261Y-66847380D01*
X127627261Y-66847380D02*
X127627261Y-66180714D01*
X127627261Y-65847380D02*
X127674880Y-65895000D01*
X127627261Y-65942619D01*
X127579642Y-65895000D01*
X127627261Y-65847380D01*
X127627261Y-65942619D01*
X127008214Y-66847380D02*
X127103452Y-66799761D01*
X127151071Y-66752142D01*
X127198690Y-66656904D01*
X127198690Y-66371190D01*
X127151071Y-66275952D01*
X127103452Y-66228333D01*
X127008214Y-66180714D01*
X126865357Y-66180714D01*
X126770119Y-66228333D01*
X126722500Y-66275952D01*
X126674880Y-66371190D01*
X126674880Y-66656904D01*
X126722500Y-66752142D01*
X126770119Y-66799761D01*
X126865357Y-66847380D01*
X127008214Y-66847380D01*
X125817738Y-66847380D02*
X125817738Y-65847380D01*
X125817738Y-66799761D02*
X125912976Y-66847380D01*
X126103452Y-66847380D01*
X126198690Y-66799761D01*
X126246309Y-66752142D01*
X126293928Y-66656904D01*
X126293928Y-66371190D01*
X126246309Y-66275952D01*
X126198690Y-66228333D01*
X126103452Y-66180714D01*
X125912976Y-66180714D01*
X125817738Y-66228333D01*
X124960595Y-66799761D02*
X125055833Y-66847380D01*
X125246309Y-66847380D01*
X125341547Y-66799761D01*
X125389166Y-66704523D01*
X125389166Y-66323571D01*
X125341547Y-66228333D01*
X125246309Y-66180714D01*
X125055833Y-66180714D01*
X124960595Y-66228333D01*
X124912976Y-66323571D01*
X124912976Y-66418809D01*
X125389166Y-66514047D01*
X128579642Y-68457380D02*
X128579642Y-67457380D01*
X128008214Y-68457380D01*
X128008214Y-67457380D01*
X127389166Y-68457380D02*
X127484404Y-68409761D01*
X127532023Y-68362142D01*
X127579642Y-68266904D01*
X127579642Y-67981190D01*
X127532023Y-67885952D01*
X127484404Y-67838333D01*
X127389166Y-67790714D01*
X127246309Y-67790714D01*
X127151071Y-67838333D01*
X127103452Y-67885952D01*
X127055833Y-67981190D01*
X127055833Y-68266904D01*
X127103452Y-68362142D01*
X127151071Y-68409761D01*
X127246309Y-68457380D01*
X127389166Y-68457380D01*
X126627261Y-68457380D02*
X126627261Y-67790714D01*
X126627261Y-67457380D02*
X126674880Y-67505000D01*
X126627261Y-67552619D01*
X126579642Y-67505000D01*
X126627261Y-67457380D01*
X126627261Y-67552619D01*
X126198690Y-68409761D02*
X126103452Y-68457380D01*
X125912976Y-68457380D01*
X125817738Y-68409761D01*
X125770119Y-68314523D01*
X125770119Y-68266904D01*
X125817738Y-68171666D01*
X125912976Y-68124047D01*
X126055833Y-68124047D01*
X126151071Y-68076428D01*
X126198690Y-67981190D01*
X126198690Y-67933571D01*
X126151071Y-67838333D01*
X126055833Y-67790714D01*
X125912976Y-67790714D01*
X125817738Y-67838333D01*
X124960595Y-68409761D02*
X125055833Y-68457380D01*
X125246309Y-68457380D01*
X125341547Y-68409761D01*
X125389166Y-68314523D01*
X125389166Y-67933571D01*
X125341547Y-67838333D01*
X125246309Y-67790714D01*
X125055833Y-67790714D01*
X124960595Y-67838333D01*
X124912976Y-67933571D01*
X124912976Y-68028809D01*
X125389166Y-68124047D01*
X129627261Y-70019761D02*
X129484404Y-70067380D01*
X129246309Y-70067380D01*
X129151071Y-70019761D01*
X129103452Y-69972142D01*
X129055833Y-69876904D01*
X129055833Y-69781666D01*
X129103452Y-69686428D01*
X129151071Y-69638809D01*
X129246309Y-69591190D01*
X129436785Y-69543571D01*
X129532023Y-69495952D01*
X129579642Y-69448333D01*
X129627261Y-69353095D01*
X129627261Y-69257857D01*
X129579642Y-69162619D01*
X129532023Y-69115000D01*
X129436785Y-69067380D01*
X129198690Y-69067380D01*
X129055833Y-69115000D01*
X128484404Y-70067380D02*
X128579642Y-70019761D01*
X128627261Y-69972142D01*
X128674880Y-69876904D01*
X128674880Y-69591190D01*
X128627261Y-69495952D01*
X128579642Y-69448333D01*
X128484404Y-69400714D01*
X128341547Y-69400714D01*
X128246309Y-69448333D01*
X128198690Y-69495952D01*
X128151071Y-69591190D01*
X128151071Y-69876904D01*
X128198690Y-69972142D01*
X128246309Y-70019761D01*
X128341547Y-70067380D01*
X128484404Y-70067380D01*
X127293928Y-69400714D02*
X127293928Y-70067380D01*
X127722500Y-69400714D02*
X127722500Y-69924523D01*
X127674880Y-70019761D01*
X127579642Y-70067380D01*
X127436785Y-70067380D01*
X127341547Y-70019761D01*
X127293928Y-69972142D01*
X126817738Y-70067380D02*
X126817738Y-69400714D01*
X126817738Y-69591190D02*
X126770119Y-69495952D01*
X126722500Y-69448333D01*
X126627261Y-69400714D01*
X126532023Y-69400714D01*
X125770119Y-70019761D02*
X125865357Y-70067380D01*
X126055833Y-70067380D01*
X126151071Y-70019761D01*
X126198690Y-69972142D01*
X126246309Y-69876904D01*
X126246309Y-69591190D01*
X126198690Y-69495952D01*
X126151071Y-69448333D01*
X126055833Y-69400714D01*
X125865357Y-69400714D01*
X125770119Y-69448333D01*
X124960595Y-70019761D02*
X125055833Y-70067380D01*
X125246309Y-70067380D01*
X125341547Y-70019761D01*
X125389166Y-69924523D01*
X125389166Y-69543571D01*
X125341547Y-69448333D01*
X125246309Y-69400714D01*
X125055833Y-69400714D01*
X124960595Y-69448333D01*
X124912976Y-69543571D01*
X124912976Y-69638809D01*
X125389166Y-69734047D01*
X130240357Y-131489761D02*
X130097500Y-131537380D01*
X129859404Y-131537380D01*
X129764166Y-131489761D01*
X129716547Y-131442142D01*
X129668928Y-131346904D01*
X129668928Y-131251666D01*
X129716547Y-131156428D01*
X129764166Y-131108809D01*
X129859404Y-131061190D01*
X130049880Y-131013571D01*
X130145119Y-130965952D01*
X130192738Y-130918333D01*
X130240357Y-130823095D01*
X130240357Y-130727857D01*
X130192738Y-130632619D01*
X130145119Y-130585000D01*
X130049880Y-130537380D01*
X129811785Y-130537380D01*
X129668928Y-130585000D01*
X128811785Y-131489761D02*
X128907023Y-131537380D01*
X129097500Y-131537380D01*
X129192738Y-131489761D01*
X129240357Y-131442142D01*
X129287976Y-131346904D01*
X129287976Y-131061190D01*
X129240357Y-130965952D01*
X129192738Y-130918333D01*
X129097500Y-130870714D01*
X128907023Y-130870714D01*
X128811785Y-130918333D01*
X128383214Y-131537380D02*
X128383214Y-130537380D01*
X127954642Y-131537380D02*
X127954642Y-131013571D01*
X128002261Y-130918333D01*
X128097500Y-130870714D01*
X128240357Y-130870714D01*
X128335595Y-130918333D01*
X128383214Y-130965952D01*
X127335595Y-131537380D02*
X127430833Y-131489761D01*
X127478452Y-131442142D01*
X127526071Y-131346904D01*
X127526071Y-131061190D01*
X127478452Y-130965952D01*
X127430833Y-130918333D01*
X127335595Y-130870714D01*
X127192738Y-130870714D01*
X127097500Y-130918333D01*
X127049880Y-130965952D01*
X127002261Y-131061190D01*
X127002261Y-131346904D01*
X127049880Y-131442142D01*
X127097500Y-131489761D01*
X127192738Y-131537380D01*
X127335595Y-131537380D01*
X126716547Y-130870714D02*
X126335595Y-130870714D01*
X126573690Y-130537380D02*
X126573690Y-131394523D01*
X126526071Y-131489761D01*
X126430833Y-131537380D01*
X126335595Y-131537380D01*
X126145119Y-130870714D02*
X125764166Y-130870714D01*
X126002261Y-130537380D02*
X126002261Y-131394523D01*
X125954642Y-131489761D01*
X125859404Y-131537380D01*
X125764166Y-131537380D01*
X125430833Y-131537380D02*
X125430833Y-130537380D01*
X125335595Y-131156428D02*
X125049880Y-131537380D01*
X125049880Y-130870714D02*
X125430833Y-131251666D01*
X124716547Y-130870714D02*
X124478452Y-131537380D01*
X124240357Y-130870714D02*
X124478452Y-131537380D01*
X124573690Y-131775476D01*
X124621309Y-131823095D01*
X124716547Y-131870714D01*
X128002261Y-133147380D02*
X128002261Y-132147380D01*
X127764166Y-132147380D01*
X127621309Y-132195000D01*
X127526071Y-132290238D01*
X127478452Y-132385476D01*
X127430833Y-132575952D01*
X127430833Y-132718809D01*
X127478452Y-132909285D01*
X127526071Y-133004523D01*
X127621309Y-133099761D01*
X127764166Y-133147380D01*
X128002261Y-133147380D01*
X127002261Y-133147380D02*
X127002261Y-132480714D01*
X127002261Y-132147380D02*
X127049880Y-132195000D01*
X127002261Y-132242619D01*
X126954642Y-132195000D01*
X127002261Y-132147380D01*
X127002261Y-132242619D01*
X126383214Y-133147380D02*
X126478452Y-133099761D01*
X126526071Y-133052142D01*
X126573690Y-132956904D01*
X126573690Y-132671190D01*
X126526071Y-132575952D01*
X126478452Y-132528333D01*
X126383214Y-132480714D01*
X126240357Y-132480714D01*
X126145119Y-132528333D01*
X126097500Y-132575952D01*
X126049880Y-132671190D01*
X126049880Y-132956904D01*
X126097500Y-133052142D01*
X126145119Y-133099761D01*
X126240357Y-133147380D01*
X126383214Y-133147380D01*
X125192738Y-133147380D02*
X125192738Y-132147380D01*
X125192738Y-133099761D02*
X125287976Y-133147380D01*
X125478452Y-133147380D01*
X125573690Y-133099761D01*
X125621309Y-133052142D01*
X125668928Y-132956904D01*
X125668928Y-132671190D01*
X125621309Y-132575952D01*
X125573690Y-132528333D01*
X125478452Y-132480714D01*
X125287976Y-132480714D01*
X125192738Y-132528333D01*
X124335595Y-133099761D02*
X124430833Y-133147380D01*
X124621309Y-133147380D01*
X124716547Y-133099761D01*
X124764166Y-133004523D01*
X124764166Y-132623571D01*
X124716547Y-132528333D01*
X124621309Y-132480714D01*
X124430833Y-132480714D01*
X124335595Y-132528333D01*
X124287976Y-132623571D01*
X124287976Y-132718809D01*
X124764166Y-132814047D01*
X127954642Y-134757380D02*
X127954642Y-133757380D01*
X127383214Y-134757380D01*
X127383214Y-133757380D01*
X126764166Y-134757380D02*
X126859404Y-134709761D01*
X126907023Y-134662142D01*
X126954642Y-134566904D01*
X126954642Y-134281190D01*
X126907023Y-134185952D01*
X126859404Y-134138333D01*
X126764166Y-134090714D01*
X126621309Y-134090714D01*
X126526071Y-134138333D01*
X126478452Y-134185952D01*
X126430833Y-134281190D01*
X126430833Y-134566904D01*
X126478452Y-134662142D01*
X126526071Y-134709761D01*
X126621309Y-134757380D01*
X126764166Y-134757380D01*
X126002261Y-134757380D02*
X126002261Y-134090714D01*
X126002261Y-133757380D02*
X126049880Y-133805000D01*
X126002261Y-133852619D01*
X125954642Y-133805000D01*
X126002261Y-133757380D01*
X126002261Y-133852619D01*
X125573690Y-134709761D02*
X125478452Y-134757380D01*
X125287976Y-134757380D01*
X125192738Y-134709761D01*
X125145119Y-134614523D01*
X125145119Y-134566904D01*
X125192738Y-134471666D01*
X125287976Y-134424047D01*
X125430833Y-134424047D01*
X125526071Y-134376428D01*
X125573690Y-134281190D01*
X125573690Y-134233571D01*
X125526071Y-134138333D01*
X125430833Y-134090714D01*
X125287976Y-134090714D01*
X125192738Y-134138333D01*
X124335595Y-134709761D02*
X124430833Y-134757380D01*
X124621309Y-134757380D01*
X124716547Y-134709761D01*
X124764166Y-134614523D01*
X124764166Y-134233571D01*
X124716547Y-134138333D01*
X124621309Y-134090714D01*
X124430833Y-134090714D01*
X124335595Y-134138333D01*
X124287976Y-134233571D01*
X124287976Y-134328809D01*
X124764166Y-134424047D01*
X129002261Y-136319761D02*
X128859404Y-136367380D01*
X128621309Y-136367380D01*
X128526071Y-136319761D01*
X128478452Y-136272142D01*
X128430833Y-136176904D01*
X128430833Y-136081666D01*
X128478452Y-135986428D01*
X128526071Y-135938809D01*
X128621309Y-135891190D01*
X128811785Y-135843571D01*
X128907023Y-135795952D01*
X128954642Y-135748333D01*
X129002261Y-135653095D01*
X129002261Y-135557857D01*
X128954642Y-135462619D01*
X128907023Y-135415000D01*
X128811785Y-135367380D01*
X128573690Y-135367380D01*
X128430833Y-135415000D01*
X127859404Y-136367380D02*
X127954642Y-136319761D01*
X128002261Y-136272142D01*
X128049880Y-136176904D01*
X128049880Y-135891190D01*
X128002261Y-135795952D01*
X127954642Y-135748333D01*
X127859404Y-135700714D01*
X127716547Y-135700714D01*
X127621309Y-135748333D01*
X127573690Y-135795952D01*
X127526071Y-135891190D01*
X127526071Y-136176904D01*
X127573690Y-136272142D01*
X127621309Y-136319761D01*
X127716547Y-136367380D01*
X127859404Y-136367380D01*
X126668928Y-135700714D02*
X126668928Y-136367380D01*
X127097500Y-135700714D02*
X127097500Y-136224523D01*
X127049880Y-136319761D01*
X126954642Y-136367380D01*
X126811785Y-136367380D01*
X126716547Y-136319761D01*
X126668928Y-136272142D01*
X126192738Y-136367380D02*
X126192738Y-135700714D01*
X126192738Y-135891190D02*
X126145119Y-135795952D01*
X126097500Y-135748333D01*
X126002261Y-135700714D01*
X125907023Y-135700714D01*
X125145119Y-136319761D02*
X125240357Y-136367380D01*
X125430833Y-136367380D01*
X125526071Y-136319761D01*
X125573690Y-136272142D01*
X125621309Y-136176904D01*
X125621309Y-135891190D01*
X125573690Y-135795952D01*
X125526071Y-135748333D01*
X125430833Y-135700714D01*
X125240357Y-135700714D01*
X125145119Y-135748333D01*
X124335595Y-136319761D02*
X124430833Y-136367380D01*
X124621309Y-136367380D01*
X124716547Y-136319761D01*
X124764166Y-136224523D01*
X124764166Y-135843571D01*
X124716547Y-135748333D01*
X124621309Y-135700714D01*
X124430833Y-135700714D01*
X124335595Y-135748333D01*
X124287976Y-135843571D01*
X124287976Y-135938809D01*
X124764166Y-136034047D01*
X130380952Y-93547619D02*
X130333333Y-93500000D01*
X130238095Y-93452380D01*
X130000000Y-93452380D01*
X129904761Y-93500000D01*
X129857142Y-93547619D01*
X129809523Y-93642857D01*
X129809523Y-93738095D01*
X129857142Y-93880952D01*
X130428571Y-94452380D01*
X129809523Y-94452380D01*
X129190476Y-93452380D02*
X129095238Y-93452380D01*
X129000000Y-93500000D01*
X128952380Y-93547619D01*
X128904761Y-93642857D01*
X128857142Y-93833333D01*
X128857142Y-94071428D01*
X128904761Y-94261904D01*
X128952380Y-94357142D01*
X129000000Y-94404761D01*
X129095238Y-94452380D01*
X129190476Y-94452380D01*
X129285714Y-94404761D01*
X129333333Y-94357142D01*
X129380952Y-94261904D01*
X129428571Y-94071428D01*
X129428571Y-93833333D01*
X129380952Y-93642857D01*
X129333333Y-93547619D01*
X129285714Y-93500000D01*
X129190476Y-93452380D01*
X127238095Y-94452380D02*
X127238095Y-93452380D01*
X127238095Y-94404761D02*
X127333333Y-94452380D01*
X127523809Y-94452380D01*
X127619047Y-94404761D01*
X127666666Y-94357142D01*
X127714285Y-94261904D01*
X127714285Y-93976190D01*
X127666666Y-93880952D01*
X127619047Y-93833333D01*
X127523809Y-93785714D01*
X127333333Y-93785714D01*
X127238095Y-93833333D01*
X126428571Y-93928571D02*
X126285714Y-93976190D01*
X126238095Y-94023809D01*
X126190476Y-94119047D01*
X126190476Y-94261904D01*
X126238095Y-94357142D01*
X126285714Y-94404761D01*
X126380952Y-94452380D01*
X126761904Y-94452380D01*
X126761904Y-93452380D01*
X126428571Y-93452380D01*
X126333333Y-93500000D01*
X126285714Y-93547619D01*
X126238095Y-93642857D01*
X126238095Y-93738095D01*
X126285714Y-93833333D01*
X126333333Y-93880952D01*
X126428571Y-93928571D01*
X126761904Y-93928571D01*
X124571428Y-94452380D02*
X124571428Y-93928571D01*
X124619047Y-93833333D01*
X124714285Y-93785714D01*
X124904761Y-93785714D01*
X125000000Y-93833333D01*
X124571428Y-94404761D02*
X124666666Y-94452380D01*
X124904761Y-94452380D01*
X125000000Y-94404761D01*
X125047619Y-94309523D01*
X125047619Y-94214285D01*
X125000000Y-94119047D01*
X124904761Y-94071428D01*
X124666666Y-94071428D01*
X124571428Y-94023809D01*
X124238095Y-93785714D02*
X123857142Y-93785714D01*
X124095238Y-93452380D02*
X124095238Y-94309523D01*
X124047619Y-94404761D01*
X123952380Y-94452380D01*
X123857142Y-94452380D01*
X123666666Y-93785714D02*
X123285714Y-93785714D01*
X123523809Y-93452380D02*
X123523809Y-94309523D01*
X123476190Y-94404761D01*
X123380952Y-94452380D01*
X123285714Y-94452380D01*
X122571428Y-94404761D02*
X122666666Y-94452380D01*
X122857142Y-94452380D01*
X122952380Y-94404761D01*
X123000000Y-94309523D01*
X123000000Y-93928571D01*
X122952380Y-93833333D01*
X122857142Y-93785714D01*
X122666666Y-93785714D01*
X122571428Y-93833333D01*
X122523809Y-93928571D01*
X122523809Y-94023809D01*
X123000000Y-94119047D01*
X122095238Y-93785714D02*
X122095238Y-94452380D01*
X122095238Y-93880952D02*
X122047619Y-93833333D01*
X121952380Y-93785714D01*
X121809523Y-93785714D01*
X121714285Y-93833333D01*
X121666666Y-93928571D01*
X121666666Y-94452380D01*
%LPC*%
D11*
%TO.C,RV1*%
X114770000Y-61800000D03*
X112230000Y-61800000D03*
X109690000Y-61800000D03*
%TD*%
D12*
%TO.C,J12*%
X95300800Y-137312400D03*
D13*
X97840800Y-137312400D03*
%TD*%
D12*
%TO.C,J7*%
X95504000Y-66802000D03*
D13*
X98044000Y-66802000D03*
%TD*%
D11*
%TO.C,RV2*%
X114270000Y-93600000D03*
X111730000Y-93600000D03*
X109190000Y-93600000D03*
%TD*%
D12*
%TO.C,J8*%
X96000000Y-100700000D03*
D13*
X98540000Y-100700000D03*
%TD*%
D11*
%TO.C,RV3*%
X113692500Y-127450000D03*
X111152500Y-127450000D03*
X108612500Y-127450000D03*
%TD*%
D12*
%TO.C,J9*%
X95300800Y-133451600D03*
D13*
X97840800Y-133451600D03*
%TD*%
D12*
%TO.C,J11*%
X96000000Y-104575000D03*
D13*
X98540000Y-104575000D03*
%TD*%
D14*
%TO.C,J1*%
X134290000Y-53910000D03*
X134290000Y-62410000D03*
%TD*%
D15*
%TO.C,J3*%
X98410000Y-89590000D03*
D16*
X98410000Y-94670000D03*
%TD*%
D15*
%TO.C,J2*%
X99000000Y-56780000D03*
D16*
X99000000Y-61860000D03*
%TD*%
D14*
%TO.C,J6*%
X134000000Y-119500000D03*
X134000000Y-128000000D03*
%TD*%
%TO.C,J4*%
X133637500Y-94250000D03*
X133637500Y-85750000D03*
%TD*%
D12*
%TO.C,J10*%
X95504000Y-70612000D03*
D13*
X98044000Y-70612000D03*
%TD*%
D15*
%TO.C,J5*%
X98782500Y-122210000D03*
D16*
X98782500Y-127290000D03*
%TD*%
M02*
