%TF.GenerationSoftware,KiCad,Pcbnew,(6.0.11)*%
%TF.CreationDate,2023-07-19T09:13:22-05:00*%
%TF.ProjectId,SchottkyNoiseSource,5363686f-7474-46b7-994e-6f697365536f,rev?*%
%TF.SameCoordinates,Original*%
%TF.FileFunction,Legend,Top*%
%TF.FilePolarity,Positive*%
%FSLAX46Y46*%
G04 Gerber Fmt 4.6, Leading zero omitted, Abs format (unit mm)*
G04 Created by KiCad (PCBNEW (6.0.11)) date 2023-07-19 09:13:22*
%MOMM*%
%LPD*%
G01*
G04 APERTURE LIST*
G04 Aperture macros list*
%AMRoundRect*
0 Rectangle with rounded corners*
0 $1 Rounding radius*
0 $2 $3 $4 $5 $6 $7 $8 $9 X,Y pos of 4 corners*
0 Add a 4 corners polygon primitive as box body*
4,1,4,$2,$3,$4,$5,$6,$7,$8,$9,$2,$3,0*
0 Add four circle primitives for the rounded corners*
1,1,$1+$1,$2,$3*
1,1,$1+$1,$4,$5*
1,1,$1+$1,$6,$7*
1,1,$1+$1,$8,$9*
0 Add four rect primitives between the rounded corners*
20,1,$1+$1,$2,$3,$4,$5,0*
20,1,$1+$1,$4,$5,$6,$7,0*
20,1,$1+$1,$6,$7,$8,$9,0*
20,1,$1+$1,$8,$9,$2,$3,0*%
G04 Aperture macros list end*
%ADD10C,0.150000*%
%ADD11C,0.120000*%
%ADD12RoundRect,0.237500X-0.250000X-0.237500X0.250000X-0.237500X0.250000X0.237500X-0.250000X0.237500X0*%
%ADD13RoundRect,0.155000X-0.212500X-0.155000X0.212500X-0.155000X0.212500X0.155000X-0.212500X0.155000X0*%
%ADD14RoundRect,0.250000X0.350000X0.450000X-0.350000X0.450000X-0.350000X-0.450000X0.350000X-0.450000X0*%
%ADD15RoundRect,0.250000X-0.400000X-0.625000X0.400000X-0.625000X0.400000X0.625000X-0.400000X0.625000X0*%
%ADD16RoundRect,0.250000X0.625000X-0.400000X0.625000X0.400000X-0.625000X0.400000X-0.625000X-0.400000X0*%
%ADD17C,1.440000*%
%ADD18R,1.700000X1.700000*%
%ADD19O,1.700000X1.700000*%
%ADD20RoundRect,0.237500X0.237500X-0.250000X0.237500X0.250000X-0.237500X0.250000X-0.237500X-0.250000X0*%
%ADD21RoundRect,0.155000X0.155000X-0.212500X0.155000X0.212500X-0.155000X0.212500X-0.155000X-0.212500X0*%
%ADD22RoundRect,0.155000X0.212500X0.155000X-0.212500X0.155000X-0.212500X-0.155000X0.212500X-0.155000X0*%
%ADD23RoundRect,0.150000X-0.587500X-0.150000X0.587500X-0.150000X0.587500X0.150000X-0.587500X0.150000X0*%
%ADD24RoundRect,0.237500X0.250000X0.237500X-0.250000X0.237500X-0.250000X-0.237500X0.250000X-0.237500X0*%
%ADD25RoundRect,0.155000X-0.155000X0.212500X-0.155000X-0.212500X0.155000X-0.212500X0.155000X0.212500X0*%
%ADD26R,5.080000X1.500000*%
%ADD27RoundRect,0.150000X0.587500X0.150000X-0.587500X0.150000X-0.587500X-0.150000X0.587500X-0.150000X0*%
G04 APERTURE END LIST*
D10*
%TO.C,R11*%
X130302380Y-89642857D02*
X129826190Y-89976190D01*
X130302380Y-90214285D02*
X129302380Y-90214285D01*
X129302380Y-89833333D01*
X129350000Y-89738095D01*
X129397619Y-89690476D01*
X129492857Y-89642857D01*
X129635714Y-89642857D01*
X129730952Y-89690476D01*
X129778571Y-89738095D01*
X129826190Y-89833333D01*
X129826190Y-90214285D01*
X130302380Y-88690476D02*
X130302380Y-89261904D01*
X130302380Y-88976190D02*
X129302380Y-88976190D01*
X129445238Y-89071428D01*
X129540476Y-89166666D01*
X129588095Y-89261904D01*
X130302380Y-87738095D02*
X130302380Y-88309523D01*
X130302380Y-88023809D02*
X129302380Y-88023809D01*
X129445238Y-88119047D01*
X129540476Y-88214285D01*
X129588095Y-88309523D01*
%TO.C,C6*%
X122343333Y-89087142D02*
X122295714Y-89134761D01*
X122152857Y-89182380D01*
X122057619Y-89182380D01*
X121914761Y-89134761D01*
X121819523Y-89039523D01*
X121771904Y-88944285D01*
X121724285Y-88753809D01*
X121724285Y-88610952D01*
X121771904Y-88420476D01*
X121819523Y-88325238D01*
X121914761Y-88230000D01*
X122057619Y-88182380D01*
X122152857Y-88182380D01*
X122295714Y-88230000D01*
X122343333Y-88277619D01*
X123200476Y-88182380D02*
X123010000Y-88182380D01*
X122914761Y-88230000D01*
X122867142Y-88277619D01*
X122771904Y-88420476D01*
X122724285Y-88610952D01*
X122724285Y-88991904D01*
X122771904Y-89087142D01*
X122819523Y-89134761D01*
X122914761Y-89182380D01*
X123105238Y-89182380D01*
X123200476Y-89134761D01*
X123248095Y-89087142D01*
X123295714Y-88991904D01*
X123295714Y-88753809D01*
X123248095Y-88658571D01*
X123200476Y-88610952D01*
X123105238Y-88563333D01*
X122914761Y-88563333D01*
X122819523Y-88610952D01*
X122771904Y-88658571D01*
X122724285Y-88753809D01*
%TO.C,R1*%
X108422380Y-58016666D02*
X107946190Y-58350000D01*
X108422380Y-58588095D02*
X107422380Y-58588095D01*
X107422380Y-58207142D01*
X107470000Y-58111904D01*
X107517619Y-58064285D01*
X107612857Y-58016666D01*
X107755714Y-58016666D01*
X107850952Y-58064285D01*
X107898571Y-58111904D01*
X107946190Y-58207142D01*
X107946190Y-58588095D01*
X108422380Y-57064285D02*
X108422380Y-57635714D01*
X108422380Y-57350000D02*
X107422380Y-57350000D01*
X107565238Y-57445238D01*
X107660476Y-57540476D01*
X107708095Y-57635714D01*
%TO.C,R41*%
X127332142Y-102602380D02*
X126998809Y-102126190D01*
X126760714Y-102602380D02*
X126760714Y-101602380D01*
X127141666Y-101602380D01*
X127236904Y-101650000D01*
X127284523Y-101697619D01*
X127332142Y-101792857D01*
X127332142Y-101935714D01*
X127284523Y-102030952D01*
X127236904Y-102078571D01*
X127141666Y-102126190D01*
X126760714Y-102126190D01*
X128189285Y-101935714D02*
X128189285Y-102602380D01*
X127951190Y-101554761D02*
X127713095Y-102269047D01*
X128332142Y-102269047D01*
X129236904Y-102602380D02*
X128665476Y-102602380D01*
X128951190Y-102602380D02*
X128951190Y-101602380D01*
X128855952Y-101745238D01*
X128760714Y-101840476D01*
X128665476Y-101888095D01*
%TO.C,R33*%
X120457142Y-130242380D02*
X120123809Y-129766190D01*
X119885714Y-130242380D02*
X119885714Y-129242380D01*
X120266666Y-129242380D01*
X120361904Y-129290000D01*
X120409523Y-129337619D01*
X120457142Y-129432857D01*
X120457142Y-129575714D01*
X120409523Y-129670952D01*
X120361904Y-129718571D01*
X120266666Y-129766190D01*
X119885714Y-129766190D01*
X120790476Y-129242380D02*
X121409523Y-129242380D01*
X121076190Y-129623333D01*
X121219047Y-129623333D01*
X121314285Y-129670952D01*
X121361904Y-129718571D01*
X121409523Y-129813809D01*
X121409523Y-130051904D01*
X121361904Y-130147142D01*
X121314285Y-130194761D01*
X121219047Y-130242380D01*
X120933333Y-130242380D01*
X120838095Y-130194761D01*
X120790476Y-130147142D01*
X121742857Y-129242380D02*
X122361904Y-129242380D01*
X122028571Y-129623333D01*
X122171428Y-129623333D01*
X122266666Y-129670952D01*
X122314285Y-129718571D01*
X122361904Y-129813809D01*
X122361904Y-130051904D01*
X122314285Y-130147142D01*
X122266666Y-130194761D01*
X122171428Y-130242380D01*
X121885714Y-130242380D01*
X121790476Y-130194761D01*
X121742857Y-130147142D01*
%TO.C,R26*%
X111457142Y-97552380D02*
X111123809Y-97076190D01*
X110885714Y-97552380D02*
X110885714Y-96552380D01*
X111266666Y-96552380D01*
X111361904Y-96600000D01*
X111409523Y-96647619D01*
X111457142Y-96742857D01*
X111457142Y-96885714D01*
X111409523Y-96980952D01*
X111361904Y-97028571D01*
X111266666Y-97076190D01*
X110885714Y-97076190D01*
X111838095Y-96647619D02*
X111885714Y-96600000D01*
X111980952Y-96552380D01*
X112219047Y-96552380D01*
X112314285Y-96600000D01*
X112361904Y-96647619D01*
X112409523Y-96742857D01*
X112409523Y-96838095D01*
X112361904Y-96980952D01*
X111790476Y-97552380D01*
X112409523Y-97552380D01*
X113266666Y-96552380D02*
X113076190Y-96552380D01*
X112980952Y-96600000D01*
X112933333Y-96647619D01*
X112838095Y-96790476D01*
X112790476Y-96980952D01*
X112790476Y-97361904D01*
X112838095Y-97457142D01*
X112885714Y-97504761D01*
X112980952Y-97552380D01*
X113171428Y-97552380D01*
X113266666Y-97504761D01*
X113314285Y-97457142D01*
X113361904Y-97361904D01*
X113361904Y-97123809D01*
X113314285Y-97028571D01*
X113266666Y-96980952D01*
X113171428Y-96933333D01*
X112980952Y-96933333D01*
X112885714Y-96980952D01*
X112838095Y-97028571D01*
X112790476Y-97123809D01*
%TO.C,R32*%
X108323142Y-136596380D02*
X107989809Y-136120190D01*
X107751714Y-136596380D02*
X107751714Y-135596380D01*
X108132666Y-135596380D01*
X108227904Y-135644000D01*
X108275523Y-135691619D01*
X108323142Y-135786857D01*
X108323142Y-135929714D01*
X108275523Y-136024952D01*
X108227904Y-136072571D01*
X108132666Y-136120190D01*
X107751714Y-136120190D01*
X108656476Y-135596380D02*
X109275523Y-135596380D01*
X108942190Y-135977333D01*
X109085047Y-135977333D01*
X109180285Y-136024952D01*
X109227904Y-136072571D01*
X109275523Y-136167809D01*
X109275523Y-136405904D01*
X109227904Y-136501142D01*
X109180285Y-136548761D01*
X109085047Y-136596380D01*
X108799333Y-136596380D01*
X108704095Y-136548761D01*
X108656476Y-136501142D01*
X109656476Y-135691619D02*
X109704095Y-135644000D01*
X109799333Y-135596380D01*
X110037428Y-135596380D01*
X110132666Y-135644000D01*
X110180285Y-135691619D01*
X110227904Y-135786857D01*
X110227904Y-135882095D01*
X110180285Y-136024952D01*
X109608857Y-136596380D01*
X110227904Y-136596380D01*
%TO.C,R36*%
X129077380Y-66892857D02*
X128601190Y-67226190D01*
X129077380Y-67464285D02*
X128077380Y-67464285D01*
X128077380Y-67083333D01*
X128125000Y-66988095D01*
X128172619Y-66940476D01*
X128267857Y-66892857D01*
X128410714Y-66892857D01*
X128505952Y-66940476D01*
X128553571Y-66988095D01*
X128601190Y-67083333D01*
X128601190Y-67464285D01*
X128077380Y-66559523D02*
X128077380Y-65940476D01*
X128458333Y-66273809D01*
X128458333Y-66130952D01*
X128505952Y-66035714D01*
X128553571Y-65988095D01*
X128648809Y-65940476D01*
X128886904Y-65940476D01*
X128982142Y-65988095D01*
X129029761Y-66035714D01*
X129077380Y-66130952D01*
X129077380Y-66416666D01*
X129029761Y-66511904D01*
X128982142Y-66559523D01*
X128077380Y-65083333D02*
X128077380Y-65273809D01*
X128125000Y-65369047D01*
X128172619Y-65416666D01*
X128315476Y-65511904D01*
X128505952Y-65559523D01*
X128886904Y-65559523D01*
X128982142Y-65511904D01*
X129029761Y-65464285D01*
X129077380Y-65369047D01*
X129077380Y-65178571D01*
X129029761Y-65083333D01*
X128982142Y-65035714D01*
X128886904Y-64988095D01*
X128648809Y-64988095D01*
X128553571Y-65035714D01*
X128505952Y-65083333D01*
X128458333Y-65178571D01*
X128458333Y-65369047D01*
X128505952Y-65464285D01*
X128553571Y-65511904D01*
X128648809Y-65559523D01*
%TO.C,RV1*%
X111634761Y-60452380D02*
X111301428Y-59976190D01*
X111063333Y-60452380D02*
X111063333Y-59452380D01*
X111444285Y-59452380D01*
X111539523Y-59500000D01*
X111587142Y-59547619D01*
X111634761Y-59642857D01*
X111634761Y-59785714D01*
X111587142Y-59880952D01*
X111539523Y-59928571D01*
X111444285Y-59976190D01*
X111063333Y-59976190D01*
X111920476Y-59452380D02*
X112253809Y-60452380D01*
X112587142Y-59452380D01*
X113444285Y-60452380D02*
X112872857Y-60452380D01*
X113158571Y-60452380D02*
X113158571Y-59452380D01*
X113063333Y-59595238D01*
X112968095Y-59690476D01*
X112872857Y-59738095D01*
%TO.C,RV2*%
X110904761Y-92452380D02*
X110571428Y-91976190D01*
X110333333Y-92452380D02*
X110333333Y-91452380D01*
X110714285Y-91452380D01*
X110809523Y-91500000D01*
X110857142Y-91547619D01*
X110904761Y-91642857D01*
X110904761Y-91785714D01*
X110857142Y-91880952D01*
X110809523Y-91928571D01*
X110714285Y-91976190D01*
X110333333Y-91976190D01*
X111190476Y-91452380D02*
X111523809Y-92452380D01*
X111857142Y-91452380D01*
X112142857Y-91547619D02*
X112190476Y-91500000D01*
X112285714Y-91452380D01*
X112523809Y-91452380D01*
X112619047Y-91500000D01*
X112666666Y-91547619D01*
X112714285Y-91642857D01*
X112714285Y-91738095D01*
X112666666Y-91880952D01*
X112095238Y-92452380D01*
X112714285Y-92452380D01*
%TO.C,R43*%
X126791980Y-132672057D02*
X126315790Y-133005390D01*
X126791980Y-133243485D02*
X125791980Y-133243485D01*
X125791980Y-132862533D01*
X125839600Y-132767295D01*
X125887219Y-132719676D01*
X125982457Y-132672057D01*
X126125314Y-132672057D01*
X126220552Y-132719676D01*
X126268171Y-132767295D01*
X126315790Y-132862533D01*
X126315790Y-133243485D01*
X126125314Y-131814914D02*
X126791980Y-131814914D01*
X125744361Y-132053009D02*
X126458647Y-132291104D01*
X126458647Y-131672057D01*
X125791980Y-131386342D02*
X125791980Y-130767295D01*
X126172933Y-131100628D01*
X126172933Y-130957771D01*
X126220552Y-130862533D01*
X126268171Y-130814914D01*
X126363409Y-130767295D01*
X126601504Y-130767295D01*
X126696742Y-130814914D01*
X126744361Y-130862533D01*
X126791980Y-130957771D01*
X126791980Y-131243485D01*
X126744361Y-131338723D01*
X126696742Y-131386342D01*
%TO.C,R15*%
X122494880Y-118812857D02*
X122018690Y-119146190D01*
X122494880Y-119384285D02*
X121494880Y-119384285D01*
X121494880Y-119003333D01*
X121542500Y-118908095D01*
X121590119Y-118860476D01*
X121685357Y-118812857D01*
X121828214Y-118812857D01*
X121923452Y-118860476D01*
X121971071Y-118908095D01*
X122018690Y-119003333D01*
X122018690Y-119384285D01*
X122494880Y-117860476D02*
X122494880Y-118431904D01*
X122494880Y-118146190D02*
X121494880Y-118146190D01*
X121637738Y-118241428D01*
X121732976Y-118336666D01*
X121780595Y-118431904D01*
X121494880Y-116955714D02*
X121494880Y-117431904D01*
X121971071Y-117479523D01*
X121923452Y-117431904D01*
X121875833Y-117336666D01*
X121875833Y-117098571D01*
X121923452Y-117003333D01*
X121971071Y-116955714D01*
X122066309Y-116908095D01*
X122304404Y-116908095D01*
X122399642Y-116955714D01*
X122447261Y-117003333D01*
X122494880Y-117098571D01*
X122494880Y-117336666D01*
X122447261Y-117431904D01*
X122399642Y-117479523D01*
%TO.C,C11*%
X99077142Y-94277142D02*
X99029523Y-94324761D01*
X98886666Y-94372380D01*
X98791428Y-94372380D01*
X98648571Y-94324761D01*
X98553333Y-94229523D01*
X98505714Y-94134285D01*
X98458095Y-93943809D01*
X98458095Y-93800952D01*
X98505714Y-93610476D01*
X98553333Y-93515238D01*
X98648571Y-93420000D01*
X98791428Y-93372380D01*
X98886666Y-93372380D01*
X99029523Y-93420000D01*
X99077142Y-93467619D01*
X100029523Y-94372380D02*
X99458095Y-94372380D01*
X99743809Y-94372380D02*
X99743809Y-93372380D01*
X99648571Y-93515238D01*
X99553333Y-93610476D01*
X99458095Y-93658095D01*
X100981904Y-94372380D02*
X100410476Y-94372380D01*
X100696190Y-94372380D02*
X100696190Y-93372380D01*
X100600952Y-93515238D01*
X100505714Y-93610476D01*
X100410476Y-93658095D01*
%TO.C,C20*%
X114127142Y-131177142D02*
X114079523Y-131224761D01*
X113936666Y-131272380D01*
X113841428Y-131272380D01*
X113698571Y-131224761D01*
X113603333Y-131129523D01*
X113555714Y-131034285D01*
X113508095Y-130843809D01*
X113508095Y-130700952D01*
X113555714Y-130510476D01*
X113603333Y-130415238D01*
X113698571Y-130320000D01*
X113841428Y-130272380D01*
X113936666Y-130272380D01*
X114079523Y-130320000D01*
X114127142Y-130367619D01*
X114508095Y-130367619D02*
X114555714Y-130320000D01*
X114650952Y-130272380D01*
X114889047Y-130272380D01*
X114984285Y-130320000D01*
X115031904Y-130367619D01*
X115079523Y-130462857D01*
X115079523Y-130558095D01*
X115031904Y-130700952D01*
X114460476Y-131272380D01*
X115079523Y-131272380D01*
X115698571Y-130272380D02*
X115793809Y-130272380D01*
X115889047Y-130320000D01*
X115936666Y-130367619D01*
X115984285Y-130462857D01*
X116031904Y-130653333D01*
X116031904Y-130891428D01*
X115984285Y-131081904D01*
X115936666Y-131177142D01*
X115889047Y-131224761D01*
X115793809Y-131272380D01*
X115698571Y-131272380D01*
X115603333Y-131224761D01*
X115555714Y-131177142D01*
X115508095Y-131081904D01*
X115460476Y-130891428D01*
X115460476Y-130653333D01*
X115508095Y-130462857D01*
X115555714Y-130367619D01*
X115603333Y-130320000D01*
X115698571Y-130272380D01*
%TO.C,C26*%
X101769142Y-103642857D02*
X101816761Y-103690476D01*
X101864380Y-103833333D01*
X101864380Y-103928571D01*
X101816761Y-104071428D01*
X101721523Y-104166666D01*
X101626285Y-104214285D01*
X101435809Y-104261904D01*
X101292952Y-104261904D01*
X101102476Y-104214285D01*
X101007238Y-104166666D01*
X100912000Y-104071428D01*
X100864380Y-103928571D01*
X100864380Y-103833333D01*
X100912000Y-103690476D01*
X100959619Y-103642857D01*
X100959619Y-103261904D02*
X100912000Y-103214285D01*
X100864380Y-103119047D01*
X100864380Y-102880952D01*
X100912000Y-102785714D01*
X100959619Y-102738095D01*
X101054857Y-102690476D01*
X101150095Y-102690476D01*
X101292952Y-102738095D01*
X101864380Y-103309523D01*
X101864380Y-102690476D01*
X100864380Y-101833333D02*
X100864380Y-102023809D01*
X100912000Y-102119047D01*
X100959619Y-102166666D01*
X101102476Y-102261904D01*
X101292952Y-102309523D01*
X101673904Y-102309523D01*
X101769142Y-102261904D01*
X101816761Y-102214285D01*
X101864380Y-102119047D01*
X101864380Y-101928571D01*
X101816761Y-101833333D01*
X101769142Y-101785714D01*
X101673904Y-101738095D01*
X101435809Y-101738095D01*
X101340571Y-101785714D01*
X101292952Y-101833333D01*
X101245333Y-101928571D01*
X101245333Y-102119047D01*
X101292952Y-102214285D01*
X101340571Y-102261904D01*
X101435809Y-102309523D01*
%TO.C,R19*%
X127614880Y-118922857D02*
X127138690Y-119256190D01*
X127614880Y-119494285D02*
X126614880Y-119494285D01*
X126614880Y-119113333D01*
X126662500Y-119018095D01*
X126710119Y-118970476D01*
X126805357Y-118922857D01*
X126948214Y-118922857D01*
X127043452Y-118970476D01*
X127091071Y-119018095D01*
X127138690Y-119113333D01*
X127138690Y-119494285D01*
X127614880Y-117970476D02*
X127614880Y-118541904D01*
X127614880Y-118256190D02*
X126614880Y-118256190D01*
X126757738Y-118351428D01*
X126852976Y-118446666D01*
X126900595Y-118541904D01*
X127614880Y-117494285D02*
X127614880Y-117303809D01*
X127567261Y-117208571D01*
X127519642Y-117160952D01*
X127376785Y-117065714D01*
X127186309Y-117018095D01*
X126805357Y-117018095D01*
X126710119Y-117065714D01*
X126662500Y-117113333D01*
X126614880Y-117208571D01*
X126614880Y-117399047D01*
X126662500Y-117494285D01*
X126710119Y-117541904D01*
X126805357Y-117589523D01*
X127043452Y-117589523D01*
X127138690Y-117541904D01*
X127186309Y-117494285D01*
X127233928Y-117399047D01*
X127233928Y-117208571D01*
X127186309Y-117113333D01*
X127138690Y-117065714D01*
X127043452Y-117018095D01*
%TO.C,RV3*%
X110904761Y-126452380D02*
X110571428Y-125976190D01*
X110333333Y-126452380D02*
X110333333Y-125452380D01*
X110714285Y-125452380D01*
X110809523Y-125500000D01*
X110857142Y-125547619D01*
X110904761Y-125642857D01*
X110904761Y-125785714D01*
X110857142Y-125880952D01*
X110809523Y-125928571D01*
X110714285Y-125976190D01*
X110333333Y-125976190D01*
X111190476Y-125452380D02*
X111523809Y-126452380D01*
X111857142Y-125452380D01*
X112095238Y-125452380D02*
X112714285Y-125452380D01*
X112380952Y-125833333D01*
X112523809Y-125833333D01*
X112619047Y-125880952D01*
X112666666Y-125928571D01*
X112714285Y-126023809D01*
X112714285Y-126261904D01*
X112666666Y-126357142D01*
X112619047Y-126404761D01*
X112523809Y-126452380D01*
X112238095Y-126452380D01*
X112142857Y-126404761D01*
X112095238Y-126357142D01*
%TO.C,R6*%
X128952380Y-52656666D02*
X128476190Y-52990000D01*
X128952380Y-53228095D02*
X127952380Y-53228095D01*
X127952380Y-52847142D01*
X128000000Y-52751904D01*
X128047619Y-52704285D01*
X128142857Y-52656666D01*
X128285714Y-52656666D01*
X128380952Y-52704285D01*
X128428571Y-52751904D01*
X128476190Y-52847142D01*
X128476190Y-53228095D01*
X127952380Y-51799523D02*
X127952380Y-51990000D01*
X128000000Y-52085238D01*
X128047619Y-52132857D01*
X128190476Y-52228095D01*
X128380952Y-52275714D01*
X128761904Y-52275714D01*
X128857142Y-52228095D01*
X128904761Y-52180476D01*
X128952380Y-52085238D01*
X128952380Y-51894761D01*
X128904761Y-51799523D01*
X128857142Y-51751904D01*
X128761904Y-51704285D01*
X128523809Y-51704285D01*
X128428571Y-51751904D01*
X128380952Y-51799523D01*
X128333333Y-51894761D01*
X128333333Y-52085238D01*
X128380952Y-52180476D01*
X128428571Y-52228095D01*
X128523809Y-52275714D01*
%TO.C,C27*%
X101559142Y-137548857D02*
X101606761Y-137596476D01*
X101654380Y-137739333D01*
X101654380Y-137834571D01*
X101606761Y-137977428D01*
X101511523Y-138072666D01*
X101416285Y-138120285D01*
X101225809Y-138167904D01*
X101082952Y-138167904D01*
X100892476Y-138120285D01*
X100797238Y-138072666D01*
X100702000Y-137977428D01*
X100654380Y-137834571D01*
X100654380Y-137739333D01*
X100702000Y-137596476D01*
X100749619Y-137548857D01*
X100749619Y-137167904D02*
X100702000Y-137120285D01*
X100654380Y-137025047D01*
X100654380Y-136786952D01*
X100702000Y-136691714D01*
X100749619Y-136644095D01*
X100844857Y-136596476D01*
X100940095Y-136596476D01*
X101082952Y-136644095D01*
X101654380Y-137215523D01*
X101654380Y-136596476D01*
X100654380Y-136263142D02*
X100654380Y-135596476D01*
X101654380Y-136025047D01*
%TO.C,R45*%
X129230380Y-132621257D02*
X128754190Y-132954590D01*
X129230380Y-133192685D02*
X128230380Y-133192685D01*
X128230380Y-132811733D01*
X128278000Y-132716495D01*
X128325619Y-132668876D01*
X128420857Y-132621257D01*
X128563714Y-132621257D01*
X128658952Y-132668876D01*
X128706571Y-132716495D01*
X128754190Y-132811733D01*
X128754190Y-133192685D01*
X128563714Y-131764114D02*
X129230380Y-131764114D01*
X128182761Y-132002209D02*
X128897047Y-132240304D01*
X128897047Y-131621257D01*
X128230380Y-130764114D02*
X128230380Y-131240304D01*
X128706571Y-131287923D01*
X128658952Y-131240304D01*
X128611333Y-131145066D01*
X128611333Y-130906971D01*
X128658952Y-130811733D01*
X128706571Y-130764114D01*
X128801809Y-130716495D01*
X129039904Y-130716495D01*
X129135142Y-130764114D01*
X129182761Y-130811733D01*
X129230380Y-130906971D01*
X129230380Y-131145066D01*
X129182761Y-131240304D01*
X129135142Y-131287923D01*
%TO.C,C13*%
X108197142Y-67142857D02*
X108244761Y-67190476D01*
X108292380Y-67333333D01*
X108292380Y-67428571D01*
X108244761Y-67571428D01*
X108149523Y-67666666D01*
X108054285Y-67714285D01*
X107863809Y-67761904D01*
X107720952Y-67761904D01*
X107530476Y-67714285D01*
X107435238Y-67666666D01*
X107340000Y-67571428D01*
X107292380Y-67428571D01*
X107292380Y-67333333D01*
X107340000Y-67190476D01*
X107387619Y-67142857D01*
X108292380Y-66190476D02*
X108292380Y-66761904D01*
X108292380Y-66476190D02*
X107292380Y-66476190D01*
X107435238Y-66571428D01*
X107530476Y-66666666D01*
X107578095Y-66761904D01*
X107292380Y-65857142D02*
X107292380Y-65238095D01*
X107673333Y-65571428D01*
X107673333Y-65428571D01*
X107720952Y-65333333D01*
X107768571Y-65285714D01*
X107863809Y-65238095D01*
X108101904Y-65238095D01*
X108197142Y-65285714D01*
X108244761Y-65333333D01*
X108292380Y-65428571D01*
X108292380Y-65714285D01*
X108244761Y-65809523D01*
X108197142Y-65857142D01*
%TO.C,C15*%
X121023142Y-69081142D02*
X120975523Y-69128761D01*
X120832666Y-69176380D01*
X120737428Y-69176380D01*
X120594571Y-69128761D01*
X120499333Y-69033523D01*
X120451714Y-68938285D01*
X120404095Y-68747809D01*
X120404095Y-68604952D01*
X120451714Y-68414476D01*
X120499333Y-68319238D01*
X120594571Y-68224000D01*
X120737428Y-68176380D01*
X120832666Y-68176380D01*
X120975523Y-68224000D01*
X121023142Y-68271619D01*
X121975523Y-69176380D02*
X121404095Y-69176380D01*
X121689809Y-69176380D02*
X121689809Y-68176380D01*
X121594571Y-68319238D01*
X121499333Y-68414476D01*
X121404095Y-68462095D01*
X122880285Y-68176380D02*
X122404095Y-68176380D01*
X122356476Y-68652571D01*
X122404095Y-68604952D01*
X122499333Y-68557333D01*
X122737428Y-68557333D01*
X122832666Y-68604952D01*
X122880285Y-68652571D01*
X122927904Y-68747809D01*
X122927904Y-68985904D01*
X122880285Y-69081142D01*
X122832666Y-69128761D01*
X122737428Y-69176380D01*
X122499333Y-69176380D01*
X122404095Y-69128761D01*
X122356476Y-69081142D01*
%TO.C,C14*%
X114617142Y-65677142D02*
X114569523Y-65724761D01*
X114426666Y-65772380D01*
X114331428Y-65772380D01*
X114188571Y-65724761D01*
X114093333Y-65629523D01*
X114045714Y-65534285D01*
X113998095Y-65343809D01*
X113998095Y-65200952D01*
X114045714Y-65010476D01*
X114093333Y-64915238D01*
X114188571Y-64820000D01*
X114331428Y-64772380D01*
X114426666Y-64772380D01*
X114569523Y-64820000D01*
X114617142Y-64867619D01*
X115569523Y-65772380D02*
X114998095Y-65772380D01*
X115283809Y-65772380D02*
X115283809Y-64772380D01*
X115188571Y-64915238D01*
X115093333Y-65010476D01*
X114998095Y-65058095D01*
X116426666Y-65105714D02*
X116426666Y-65772380D01*
X116188571Y-64724761D02*
X115950476Y-65439047D01*
X116569523Y-65439047D01*
%TO.C,R29*%
X120944642Y-96422380D02*
X120611309Y-95946190D01*
X120373214Y-96422380D02*
X120373214Y-95422380D01*
X120754166Y-95422380D01*
X120849404Y-95470000D01*
X120897023Y-95517619D01*
X120944642Y-95612857D01*
X120944642Y-95755714D01*
X120897023Y-95850952D01*
X120849404Y-95898571D01*
X120754166Y-95946190D01*
X120373214Y-95946190D01*
X121325595Y-95517619D02*
X121373214Y-95470000D01*
X121468452Y-95422380D01*
X121706547Y-95422380D01*
X121801785Y-95470000D01*
X121849404Y-95517619D01*
X121897023Y-95612857D01*
X121897023Y-95708095D01*
X121849404Y-95850952D01*
X121277976Y-96422380D01*
X121897023Y-96422380D01*
X122373214Y-96422380D02*
X122563690Y-96422380D01*
X122658928Y-96374761D01*
X122706547Y-96327142D01*
X122801785Y-96184285D01*
X122849404Y-95993809D01*
X122849404Y-95612857D01*
X122801785Y-95517619D01*
X122754166Y-95470000D01*
X122658928Y-95422380D01*
X122468452Y-95422380D01*
X122373214Y-95470000D01*
X122325595Y-95517619D01*
X122277976Y-95612857D01*
X122277976Y-95850952D01*
X122325595Y-95946190D01*
X122373214Y-95993809D01*
X122468452Y-96041428D01*
X122658928Y-96041428D01*
X122754166Y-95993809D01*
X122801785Y-95946190D01*
X122849404Y-95850952D01*
%TO.C,C10*%
X99289642Y-60197142D02*
X99242023Y-60244761D01*
X99099166Y-60292380D01*
X99003928Y-60292380D01*
X98861071Y-60244761D01*
X98765833Y-60149523D01*
X98718214Y-60054285D01*
X98670595Y-59863809D01*
X98670595Y-59720952D01*
X98718214Y-59530476D01*
X98765833Y-59435238D01*
X98861071Y-59340000D01*
X99003928Y-59292380D01*
X99099166Y-59292380D01*
X99242023Y-59340000D01*
X99289642Y-59387619D01*
X100242023Y-60292380D02*
X99670595Y-60292380D01*
X99956309Y-60292380D02*
X99956309Y-59292380D01*
X99861071Y-59435238D01*
X99765833Y-59530476D01*
X99670595Y-59578095D01*
X100861071Y-59292380D02*
X100956309Y-59292380D01*
X101051547Y-59340000D01*
X101099166Y-59387619D01*
X101146785Y-59482857D01*
X101194404Y-59673333D01*
X101194404Y-59911428D01*
X101146785Y-60101904D01*
X101099166Y-60197142D01*
X101051547Y-60244761D01*
X100956309Y-60292380D01*
X100861071Y-60292380D01*
X100765833Y-60244761D01*
X100718214Y-60197142D01*
X100670595Y-60101904D01*
X100622976Y-59911428D01*
X100622976Y-59673333D01*
X100670595Y-59482857D01*
X100718214Y-59387619D01*
X100765833Y-59340000D01*
X100861071Y-59292380D01*
%TO.C,C1*%
X109693333Y-55267142D02*
X109645714Y-55314761D01*
X109502857Y-55362380D01*
X109407619Y-55362380D01*
X109264761Y-55314761D01*
X109169523Y-55219523D01*
X109121904Y-55124285D01*
X109074285Y-54933809D01*
X109074285Y-54790952D01*
X109121904Y-54600476D01*
X109169523Y-54505238D01*
X109264761Y-54410000D01*
X109407619Y-54362380D01*
X109502857Y-54362380D01*
X109645714Y-54410000D01*
X109693333Y-54457619D01*
X110645714Y-55362380D02*
X110074285Y-55362380D01*
X110360000Y-55362380D02*
X110360000Y-54362380D01*
X110264761Y-54505238D01*
X110169523Y-54600476D01*
X110074285Y-54648095D01*
%TO.C,R25*%
X120515142Y-64871380D02*
X120181809Y-64395190D01*
X119943714Y-64871380D02*
X119943714Y-63871380D01*
X120324666Y-63871380D01*
X120419904Y-63919000D01*
X120467523Y-63966619D01*
X120515142Y-64061857D01*
X120515142Y-64204714D01*
X120467523Y-64299952D01*
X120419904Y-64347571D01*
X120324666Y-64395190D01*
X119943714Y-64395190D01*
X120896095Y-63966619D02*
X120943714Y-63919000D01*
X121038952Y-63871380D01*
X121277047Y-63871380D01*
X121372285Y-63919000D01*
X121419904Y-63966619D01*
X121467523Y-64061857D01*
X121467523Y-64157095D01*
X121419904Y-64299952D01*
X120848476Y-64871380D01*
X121467523Y-64871380D01*
X122372285Y-63871380D02*
X121896095Y-63871380D01*
X121848476Y-64347571D01*
X121896095Y-64299952D01*
X121991333Y-64252333D01*
X122229428Y-64252333D01*
X122324666Y-64299952D01*
X122372285Y-64347571D01*
X122419904Y-64442809D01*
X122419904Y-64680904D01*
X122372285Y-64776142D01*
X122324666Y-64823761D01*
X122229428Y-64871380D01*
X121991333Y-64871380D01*
X121896095Y-64823761D01*
X121848476Y-64776142D01*
%TO.C,R9*%
X125062380Y-86349166D02*
X124586190Y-86682500D01*
X125062380Y-86920595D02*
X124062380Y-86920595D01*
X124062380Y-86539642D01*
X124110000Y-86444404D01*
X124157619Y-86396785D01*
X124252857Y-86349166D01*
X124395714Y-86349166D01*
X124490952Y-86396785D01*
X124538571Y-86444404D01*
X124586190Y-86539642D01*
X124586190Y-86920595D01*
X125062380Y-85872976D02*
X125062380Y-85682500D01*
X125014761Y-85587261D01*
X124967142Y-85539642D01*
X124824285Y-85444404D01*
X124633809Y-85396785D01*
X124252857Y-85396785D01*
X124157619Y-85444404D01*
X124110000Y-85492023D01*
X124062380Y-85587261D01*
X124062380Y-85777738D01*
X124110000Y-85872976D01*
X124157619Y-85920595D01*
X124252857Y-85968214D01*
X124490952Y-85968214D01*
X124586190Y-85920595D01*
X124633809Y-85872976D01*
X124681428Y-85777738D01*
X124681428Y-85587261D01*
X124633809Y-85492023D01*
X124586190Y-85444404D01*
X124490952Y-85396785D01*
%TO.C,R42*%
X124556780Y-132747657D02*
X124080590Y-133080990D01*
X124556780Y-133319085D02*
X123556780Y-133319085D01*
X123556780Y-132938133D01*
X123604400Y-132842895D01*
X123652019Y-132795276D01*
X123747257Y-132747657D01*
X123890114Y-132747657D01*
X123985352Y-132795276D01*
X124032971Y-132842895D01*
X124080590Y-132938133D01*
X124080590Y-133319085D01*
X123890114Y-131890514D02*
X124556780Y-131890514D01*
X123509161Y-132128609D02*
X124223447Y-132366704D01*
X124223447Y-131747657D01*
X123652019Y-131414323D02*
X123604400Y-131366704D01*
X123556780Y-131271466D01*
X123556780Y-131033371D01*
X123604400Y-130938133D01*
X123652019Y-130890514D01*
X123747257Y-130842895D01*
X123842495Y-130842895D01*
X123985352Y-130890514D01*
X124556780Y-131461942D01*
X124556780Y-130842895D01*
%TO.C,D3*%
X117744404Y-121932380D02*
X117744404Y-120932380D01*
X117982500Y-120932380D01*
X118125357Y-120980000D01*
X118220595Y-121075238D01*
X118268214Y-121170476D01*
X118315833Y-121360952D01*
X118315833Y-121503809D01*
X118268214Y-121694285D01*
X118220595Y-121789523D01*
X118125357Y-121884761D01*
X117982500Y-121932380D01*
X117744404Y-121932380D01*
X118649166Y-120932380D02*
X119268214Y-120932380D01*
X118934880Y-121313333D01*
X119077738Y-121313333D01*
X119172976Y-121360952D01*
X119220595Y-121408571D01*
X119268214Y-121503809D01*
X119268214Y-121741904D01*
X119220595Y-121837142D01*
X119172976Y-121884761D01*
X119077738Y-121932380D01*
X118792023Y-121932380D01*
X118696785Y-121884761D01*
X118649166Y-121837142D01*
%TO.C,R28*%
X108057142Y-103152380D02*
X107723809Y-102676190D01*
X107485714Y-103152380D02*
X107485714Y-102152380D01*
X107866666Y-102152380D01*
X107961904Y-102200000D01*
X108009523Y-102247619D01*
X108057142Y-102342857D01*
X108057142Y-102485714D01*
X108009523Y-102580952D01*
X107961904Y-102628571D01*
X107866666Y-102676190D01*
X107485714Y-102676190D01*
X108438095Y-102247619D02*
X108485714Y-102200000D01*
X108580952Y-102152380D01*
X108819047Y-102152380D01*
X108914285Y-102200000D01*
X108961904Y-102247619D01*
X109009523Y-102342857D01*
X109009523Y-102438095D01*
X108961904Y-102580952D01*
X108390476Y-103152380D01*
X109009523Y-103152380D01*
X109580952Y-102580952D02*
X109485714Y-102533333D01*
X109438095Y-102485714D01*
X109390476Y-102390476D01*
X109390476Y-102342857D01*
X109438095Y-102247619D01*
X109485714Y-102200000D01*
X109580952Y-102152380D01*
X109771428Y-102152380D01*
X109866666Y-102200000D01*
X109914285Y-102247619D01*
X109961904Y-102342857D01*
X109961904Y-102390476D01*
X109914285Y-102485714D01*
X109866666Y-102533333D01*
X109771428Y-102580952D01*
X109580952Y-102580952D01*
X109485714Y-102628571D01*
X109438095Y-102676190D01*
X109390476Y-102771428D01*
X109390476Y-102961904D01*
X109438095Y-103057142D01*
X109485714Y-103104761D01*
X109580952Y-103152380D01*
X109771428Y-103152380D01*
X109866666Y-103104761D01*
X109914285Y-103057142D01*
X109961904Y-102961904D01*
X109961904Y-102771428D01*
X109914285Y-102676190D01*
X109866666Y-102628571D01*
X109771428Y-102580952D01*
%TO.C,R10*%
X126842380Y-84870357D02*
X126366190Y-85203690D01*
X126842380Y-85441785D02*
X125842380Y-85441785D01*
X125842380Y-85060833D01*
X125890000Y-84965595D01*
X125937619Y-84917976D01*
X126032857Y-84870357D01*
X126175714Y-84870357D01*
X126270952Y-84917976D01*
X126318571Y-84965595D01*
X126366190Y-85060833D01*
X126366190Y-85441785D01*
X126842380Y-83917976D02*
X126842380Y-84489404D01*
X126842380Y-84203690D02*
X125842380Y-84203690D01*
X125985238Y-84298928D01*
X126080476Y-84394166D01*
X126128095Y-84489404D01*
X125842380Y-83298928D02*
X125842380Y-83203690D01*
X125890000Y-83108452D01*
X125937619Y-83060833D01*
X126032857Y-83013214D01*
X126223333Y-82965595D01*
X126461428Y-82965595D01*
X126651904Y-83013214D01*
X126747142Y-83060833D01*
X126794761Y-83108452D01*
X126842380Y-83203690D01*
X126842380Y-83298928D01*
X126794761Y-83394166D01*
X126747142Y-83441785D01*
X126651904Y-83489404D01*
X126461428Y-83537023D01*
X126223333Y-83537023D01*
X126032857Y-83489404D01*
X125937619Y-83441785D01*
X125890000Y-83394166D01*
X125842380Y-83298928D01*
%TO.C,R27*%
X117457142Y-98152380D02*
X117123809Y-97676190D01*
X116885714Y-98152380D02*
X116885714Y-97152380D01*
X117266666Y-97152380D01*
X117361904Y-97200000D01*
X117409523Y-97247619D01*
X117457142Y-97342857D01*
X117457142Y-97485714D01*
X117409523Y-97580952D01*
X117361904Y-97628571D01*
X117266666Y-97676190D01*
X116885714Y-97676190D01*
X117838095Y-97247619D02*
X117885714Y-97200000D01*
X117980952Y-97152380D01*
X118219047Y-97152380D01*
X118314285Y-97200000D01*
X118361904Y-97247619D01*
X118409523Y-97342857D01*
X118409523Y-97438095D01*
X118361904Y-97580952D01*
X117790476Y-98152380D01*
X118409523Y-98152380D01*
X118742857Y-97152380D02*
X119409523Y-97152380D01*
X118980952Y-98152380D01*
%TO.C,R34*%
X126727380Y-66992857D02*
X126251190Y-67326190D01*
X126727380Y-67564285D02*
X125727380Y-67564285D01*
X125727380Y-67183333D01*
X125775000Y-67088095D01*
X125822619Y-67040476D01*
X125917857Y-66992857D01*
X126060714Y-66992857D01*
X126155952Y-67040476D01*
X126203571Y-67088095D01*
X126251190Y-67183333D01*
X126251190Y-67564285D01*
X125727380Y-66659523D02*
X125727380Y-66040476D01*
X126108333Y-66373809D01*
X126108333Y-66230952D01*
X126155952Y-66135714D01*
X126203571Y-66088095D01*
X126298809Y-66040476D01*
X126536904Y-66040476D01*
X126632142Y-66088095D01*
X126679761Y-66135714D01*
X126727380Y-66230952D01*
X126727380Y-66516666D01*
X126679761Y-66611904D01*
X126632142Y-66659523D01*
X126060714Y-65183333D02*
X126727380Y-65183333D01*
X125679761Y-65421428D02*
X126394047Y-65659523D01*
X126394047Y-65040476D01*
%TO.C,C12*%
X99147142Y-127537142D02*
X99099523Y-127584761D01*
X98956666Y-127632380D01*
X98861428Y-127632380D01*
X98718571Y-127584761D01*
X98623333Y-127489523D01*
X98575714Y-127394285D01*
X98528095Y-127203809D01*
X98528095Y-127060952D01*
X98575714Y-126870476D01*
X98623333Y-126775238D01*
X98718571Y-126680000D01*
X98861428Y-126632380D01*
X98956666Y-126632380D01*
X99099523Y-126680000D01*
X99147142Y-126727619D01*
X100099523Y-127632380D02*
X99528095Y-127632380D01*
X99813809Y-127632380D02*
X99813809Y-126632380D01*
X99718571Y-126775238D01*
X99623333Y-126870476D01*
X99528095Y-126918095D01*
X100480476Y-126727619D02*
X100528095Y-126680000D01*
X100623333Y-126632380D01*
X100861428Y-126632380D01*
X100956666Y-126680000D01*
X101004285Y-126727619D01*
X101051904Y-126822857D01*
X101051904Y-126918095D01*
X101004285Y-127060952D01*
X100432857Y-127632380D01*
X101051904Y-127632380D01*
%TO.C,C2*%
X115013333Y-55737142D02*
X114965714Y-55784761D01*
X114822857Y-55832380D01*
X114727619Y-55832380D01*
X114584761Y-55784761D01*
X114489523Y-55689523D01*
X114441904Y-55594285D01*
X114394285Y-55403809D01*
X114394285Y-55260952D01*
X114441904Y-55070476D01*
X114489523Y-54975238D01*
X114584761Y-54880000D01*
X114727619Y-54832380D01*
X114822857Y-54832380D01*
X114965714Y-54880000D01*
X115013333Y-54927619D01*
X115394285Y-54927619D02*
X115441904Y-54880000D01*
X115537142Y-54832380D01*
X115775238Y-54832380D01*
X115870476Y-54880000D01*
X115918095Y-54927619D01*
X115965714Y-55022857D01*
X115965714Y-55118095D01*
X115918095Y-55260952D01*
X115346666Y-55832380D01*
X115965714Y-55832380D01*
%TO.C,C22*%
X101449142Y-67444857D02*
X101496761Y-67492476D01*
X101544380Y-67635333D01*
X101544380Y-67730571D01*
X101496761Y-67873428D01*
X101401523Y-67968666D01*
X101306285Y-68016285D01*
X101115809Y-68063904D01*
X100972952Y-68063904D01*
X100782476Y-68016285D01*
X100687238Y-67968666D01*
X100592000Y-67873428D01*
X100544380Y-67730571D01*
X100544380Y-67635333D01*
X100592000Y-67492476D01*
X100639619Y-67444857D01*
X100639619Y-67063904D02*
X100592000Y-67016285D01*
X100544380Y-66921047D01*
X100544380Y-66682952D01*
X100592000Y-66587714D01*
X100639619Y-66540095D01*
X100734857Y-66492476D01*
X100830095Y-66492476D01*
X100972952Y-66540095D01*
X101544380Y-67111523D01*
X101544380Y-66492476D01*
X100639619Y-66111523D02*
X100592000Y-66063904D01*
X100544380Y-65968666D01*
X100544380Y-65730571D01*
X100592000Y-65635333D01*
X100639619Y-65587714D01*
X100734857Y-65540095D01*
X100830095Y-65540095D01*
X100972952Y-65587714D01*
X101544380Y-66159142D01*
X101544380Y-65540095D01*
%TO.C,R17*%
X123919642Y-125725180D02*
X123586309Y-125248990D01*
X123348214Y-125725180D02*
X123348214Y-124725180D01*
X123729166Y-124725180D01*
X123824404Y-124772800D01*
X123872023Y-124820419D01*
X123919642Y-124915657D01*
X123919642Y-125058514D01*
X123872023Y-125153752D01*
X123824404Y-125201371D01*
X123729166Y-125248990D01*
X123348214Y-125248990D01*
X124872023Y-125725180D02*
X124300595Y-125725180D01*
X124586309Y-125725180D02*
X124586309Y-124725180D01*
X124491071Y-124868038D01*
X124395833Y-124963276D01*
X124300595Y-125010895D01*
X125205357Y-124725180D02*
X125872023Y-124725180D01*
X125443452Y-125725180D01*
%TO.C,R21*%
X129554880Y-118812857D02*
X129078690Y-119146190D01*
X129554880Y-119384285D02*
X128554880Y-119384285D01*
X128554880Y-119003333D01*
X128602500Y-118908095D01*
X128650119Y-118860476D01*
X128745357Y-118812857D01*
X128888214Y-118812857D01*
X128983452Y-118860476D01*
X129031071Y-118908095D01*
X129078690Y-119003333D01*
X129078690Y-119384285D01*
X128650119Y-118431904D02*
X128602500Y-118384285D01*
X128554880Y-118289047D01*
X128554880Y-118050952D01*
X128602500Y-117955714D01*
X128650119Y-117908095D01*
X128745357Y-117860476D01*
X128840595Y-117860476D01*
X128983452Y-117908095D01*
X129554880Y-118479523D01*
X129554880Y-117860476D01*
X129554880Y-116908095D02*
X129554880Y-117479523D01*
X129554880Y-117193809D02*
X128554880Y-117193809D01*
X128697738Y-117289047D01*
X128792976Y-117384285D01*
X128840595Y-117479523D01*
%TO.C,R5*%
X130500380Y-57824666D02*
X130024190Y-58158000D01*
X130500380Y-58396095D02*
X129500380Y-58396095D01*
X129500380Y-58015142D01*
X129548000Y-57919904D01*
X129595619Y-57872285D01*
X129690857Y-57824666D01*
X129833714Y-57824666D01*
X129928952Y-57872285D01*
X129976571Y-57919904D01*
X130024190Y-58015142D01*
X130024190Y-58396095D01*
X129500380Y-56919904D02*
X129500380Y-57396095D01*
X129976571Y-57443714D01*
X129928952Y-57396095D01*
X129881333Y-57300857D01*
X129881333Y-57062761D01*
X129928952Y-56967523D01*
X129976571Y-56919904D01*
X130071809Y-56872285D01*
X130309904Y-56872285D01*
X130405142Y-56919904D01*
X130452761Y-56967523D01*
X130500380Y-57062761D01*
X130500380Y-57300857D01*
X130452761Y-57396095D01*
X130405142Y-57443714D01*
%TO.C,C23*%
X101449142Y-134500857D02*
X101496761Y-134548476D01*
X101544380Y-134691333D01*
X101544380Y-134786571D01*
X101496761Y-134929428D01*
X101401523Y-135024666D01*
X101306285Y-135072285D01*
X101115809Y-135119904D01*
X100972952Y-135119904D01*
X100782476Y-135072285D01*
X100687238Y-135024666D01*
X100592000Y-134929428D01*
X100544380Y-134786571D01*
X100544380Y-134691333D01*
X100592000Y-134548476D01*
X100639619Y-134500857D01*
X100639619Y-134119904D02*
X100592000Y-134072285D01*
X100544380Y-133977047D01*
X100544380Y-133738952D01*
X100592000Y-133643714D01*
X100639619Y-133596095D01*
X100734857Y-133548476D01*
X100830095Y-133548476D01*
X100972952Y-133596095D01*
X101544380Y-134167523D01*
X101544380Y-133548476D01*
X100544380Y-133215142D02*
X100544380Y-132596095D01*
X100925333Y-132929428D01*
X100925333Y-132786571D01*
X100972952Y-132691333D01*
X101020571Y-132643714D01*
X101115809Y-132596095D01*
X101353904Y-132596095D01*
X101449142Y-132643714D01*
X101496761Y-132691333D01*
X101544380Y-132786571D01*
X101544380Y-133072285D01*
X101496761Y-133167523D01*
X101449142Y-133215142D01*
%TO.C,J1*%
X133332380Y-56383333D02*
X134046666Y-56383333D01*
X134189523Y-56430952D01*
X134284761Y-56526190D01*
X134332380Y-56669047D01*
X134332380Y-56764285D01*
X134332380Y-55383333D02*
X134332380Y-55954761D01*
X134332380Y-55669047D02*
X133332380Y-55669047D01*
X133475238Y-55764285D01*
X133570476Y-55859523D01*
X133618095Y-55954761D01*
%TO.C,D6*%
X117761904Y-130352380D02*
X117761904Y-129352380D01*
X118000000Y-129352380D01*
X118142857Y-129400000D01*
X118238095Y-129495238D01*
X118285714Y-129590476D01*
X118333333Y-129780952D01*
X118333333Y-129923809D01*
X118285714Y-130114285D01*
X118238095Y-130209523D01*
X118142857Y-130304761D01*
X118000000Y-130352380D01*
X117761904Y-130352380D01*
X119190476Y-129352380D02*
X119000000Y-129352380D01*
X118904761Y-129400000D01*
X118857142Y-129447619D01*
X118761904Y-129590476D01*
X118714285Y-129780952D01*
X118714285Y-130161904D01*
X118761904Y-130257142D01*
X118809523Y-130304761D01*
X118904761Y-130352380D01*
X119095238Y-130352380D01*
X119190476Y-130304761D01*
X119238095Y-130257142D01*
X119285714Y-130161904D01*
X119285714Y-129923809D01*
X119238095Y-129828571D01*
X119190476Y-129780952D01*
X119095238Y-129733333D01*
X118904761Y-129733333D01*
X118809523Y-129780952D01*
X118761904Y-129828571D01*
X118714285Y-129923809D01*
%TO.C,R22*%
X111630078Y-65952380D02*
X111296745Y-65476190D01*
X111058650Y-65952380D02*
X111058650Y-64952380D01*
X111439602Y-64952380D01*
X111534840Y-65000000D01*
X111582459Y-65047619D01*
X111630078Y-65142857D01*
X111630078Y-65285714D01*
X111582459Y-65380952D01*
X111534840Y-65428571D01*
X111439602Y-65476190D01*
X111058650Y-65476190D01*
X112011031Y-65047619D02*
X112058650Y-65000000D01*
X112153888Y-64952380D01*
X112391983Y-64952380D01*
X112487221Y-65000000D01*
X112534840Y-65047619D01*
X112582459Y-65142857D01*
X112582459Y-65238095D01*
X112534840Y-65380952D01*
X111963412Y-65952380D01*
X112582459Y-65952380D01*
X112963412Y-65047619D02*
X113011031Y-65000000D01*
X113106269Y-64952380D01*
X113344364Y-64952380D01*
X113439602Y-65000000D01*
X113487221Y-65047619D01*
X113534840Y-65142857D01*
X113534840Y-65238095D01*
X113487221Y-65380952D01*
X112915793Y-65952380D01*
X113534840Y-65952380D01*
%TO.C,C4*%
X109333333Y-86977142D02*
X109285714Y-87024761D01*
X109142857Y-87072380D01*
X109047619Y-87072380D01*
X108904761Y-87024761D01*
X108809523Y-86929523D01*
X108761904Y-86834285D01*
X108714285Y-86643809D01*
X108714285Y-86500952D01*
X108761904Y-86310476D01*
X108809523Y-86215238D01*
X108904761Y-86120000D01*
X109047619Y-86072380D01*
X109142857Y-86072380D01*
X109285714Y-86120000D01*
X109333333Y-86167619D01*
X110190476Y-86405714D02*
X110190476Y-87072380D01*
X109952380Y-86024761D02*
X109714285Y-86739047D01*
X110333333Y-86739047D01*
%TO.C,C16*%
X108297142Y-99542857D02*
X108344761Y-99590476D01*
X108392380Y-99733333D01*
X108392380Y-99828571D01*
X108344761Y-99971428D01*
X108249523Y-100066666D01*
X108154285Y-100114285D01*
X107963809Y-100161904D01*
X107820952Y-100161904D01*
X107630476Y-100114285D01*
X107535238Y-100066666D01*
X107440000Y-99971428D01*
X107392380Y-99828571D01*
X107392380Y-99733333D01*
X107440000Y-99590476D01*
X107487619Y-99542857D01*
X108392380Y-98590476D02*
X108392380Y-99161904D01*
X108392380Y-98876190D02*
X107392380Y-98876190D01*
X107535238Y-98971428D01*
X107630476Y-99066666D01*
X107678095Y-99161904D01*
X107392380Y-97733333D02*
X107392380Y-97923809D01*
X107440000Y-98019047D01*
X107487619Y-98066666D01*
X107630476Y-98161904D01*
X107820952Y-98209523D01*
X108201904Y-98209523D01*
X108297142Y-98161904D01*
X108344761Y-98114285D01*
X108392380Y-98019047D01*
X108392380Y-97828571D01*
X108344761Y-97733333D01*
X108297142Y-97685714D01*
X108201904Y-97638095D01*
X107963809Y-97638095D01*
X107868571Y-97685714D01*
X107820952Y-97733333D01*
X107773333Y-97828571D01*
X107773333Y-98019047D01*
X107820952Y-98114285D01*
X107868571Y-98161904D01*
X107963809Y-98209523D01*
%TO.C,R4*%
X127002380Y-52676666D02*
X126526190Y-53010000D01*
X127002380Y-53248095D02*
X126002380Y-53248095D01*
X126002380Y-52867142D01*
X126050000Y-52771904D01*
X126097619Y-52724285D01*
X126192857Y-52676666D01*
X126335714Y-52676666D01*
X126430952Y-52724285D01*
X126478571Y-52771904D01*
X126526190Y-52867142D01*
X126526190Y-53248095D01*
X126335714Y-51819523D02*
X127002380Y-51819523D01*
X125954761Y-52057619D02*
X126669047Y-52295714D01*
X126669047Y-51676666D01*
%TO.C,C18*%
X120757142Y-100617142D02*
X120709523Y-100664761D01*
X120566666Y-100712380D01*
X120471428Y-100712380D01*
X120328571Y-100664761D01*
X120233333Y-100569523D01*
X120185714Y-100474285D01*
X120138095Y-100283809D01*
X120138095Y-100140952D01*
X120185714Y-99950476D01*
X120233333Y-99855238D01*
X120328571Y-99760000D01*
X120471428Y-99712380D01*
X120566666Y-99712380D01*
X120709523Y-99760000D01*
X120757142Y-99807619D01*
X121709523Y-100712380D02*
X121138095Y-100712380D01*
X121423809Y-100712380D02*
X121423809Y-99712380D01*
X121328571Y-99855238D01*
X121233333Y-99950476D01*
X121138095Y-99998095D01*
X122280952Y-100140952D02*
X122185714Y-100093333D01*
X122138095Y-100045714D01*
X122090476Y-99950476D01*
X122090476Y-99902857D01*
X122138095Y-99807619D01*
X122185714Y-99760000D01*
X122280952Y-99712380D01*
X122471428Y-99712380D01*
X122566666Y-99760000D01*
X122614285Y-99807619D01*
X122661904Y-99902857D01*
X122661904Y-99950476D01*
X122614285Y-100045714D01*
X122566666Y-100093333D01*
X122471428Y-100140952D01*
X122280952Y-100140952D01*
X122185714Y-100188571D01*
X122138095Y-100236190D01*
X122090476Y-100331428D01*
X122090476Y-100521904D01*
X122138095Y-100617142D01*
X122185714Y-100664761D01*
X122280952Y-100712380D01*
X122471428Y-100712380D01*
X122566666Y-100664761D01*
X122614285Y-100617142D01*
X122661904Y-100521904D01*
X122661904Y-100331428D01*
X122614285Y-100236190D01*
X122566666Y-100188571D01*
X122471428Y-100140952D01*
%TO.C,R3*%
X125112380Y-54326666D02*
X124636190Y-54660000D01*
X125112380Y-54898095D02*
X124112380Y-54898095D01*
X124112380Y-54517142D01*
X124160000Y-54421904D01*
X124207619Y-54374285D01*
X124302857Y-54326666D01*
X124445714Y-54326666D01*
X124540952Y-54374285D01*
X124588571Y-54421904D01*
X124636190Y-54517142D01*
X124636190Y-54898095D01*
X124112380Y-53993333D02*
X124112380Y-53374285D01*
X124493333Y-53707619D01*
X124493333Y-53564761D01*
X124540952Y-53469523D01*
X124588571Y-53421904D01*
X124683809Y-53374285D01*
X124921904Y-53374285D01*
X125017142Y-53421904D01*
X125064761Y-53469523D01*
X125112380Y-53564761D01*
X125112380Y-53850476D01*
X125064761Y-53945714D01*
X125017142Y-53993333D01*
%TO.C,R18*%
X125914880Y-118982857D02*
X125438690Y-119316190D01*
X125914880Y-119554285D02*
X124914880Y-119554285D01*
X124914880Y-119173333D01*
X124962500Y-119078095D01*
X125010119Y-119030476D01*
X125105357Y-118982857D01*
X125248214Y-118982857D01*
X125343452Y-119030476D01*
X125391071Y-119078095D01*
X125438690Y-119173333D01*
X125438690Y-119554285D01*
X125914880Y-118030476D02*
X125914880Y-118601904D01*
X125914880Y-118316190D02*
X124914880Y-118316190D01*
X125057738Y-118411428D01*
X125152976Y-118506666D01*
X125200595Y-118601904D01*
X125343452Y-117459047D02*
X125295833Y-117554285D01*
X125248214Y-117601904D01*
X125152976Y-117649523D01*
X125105357Y-117649523D01*
X125010119Y-117601904D01*
X124962500Y-117554285D01*
X124914880Y-117459047D01*
X124914880Y-117268571D01*
X124962500Y-117173333D01*
X125010119Y-117125714D01*
X125105357Y-117078095D01*
X125152976Y-117078095D01*
X125248214Y-117125714D01*
X125295833Y-117173333D01*
X125343452Y-117268571D01*
X125343452Y-117459047D01*
X125391071Y-117554285D01*
X125438690Y-117601904D01*
X125533928Y-117649523D01*
X125724404Y-117649523D01*
X125819642Y-117601904D01*
X125867261Y-117554285D01*
X125914880Y-117459047D01*
X125914880Y-117268571D01*
X125867261Y-117173333D01*
X125819642Y-117125714D01*
X125724404Y-117078095D01*
X125533928Y-117078095D01*
X125438690Y-117125714D01*
X125391071Y-117173333D01*
X125343452Y-117268571D01*
%TO.C,R12*%
X128702380Y-84670357D02*
X128226190Y-85003690D01*
X128702380Y-85241785D02*
X127702380Y-85241785D01*
X127702380Y-84860833D01*
X127750000Y-84765595D01*
X127797619Y-84717976D01*
X127892857Y-84670357D01*
X128035714Y-84670357D01*
X128130952Y-84717976D01*
X128178571Y-84765595D01*
X128226190Y-84860833D01*
X128226190Y-85241785D01*
X128702380Y-83717976D02*
X128702380Y-84289404D01*
X128702380Y-84003690D02*
X127702380Y-84003690D01*
X127845238Y-84098928D01*
X127940476Y-84194166D01*
X127988095Y-84289404D01*
X127797619Y-83337023D02*
X127750000Y-83289404D01*
X127702380Y-83194166D01*
X127702380Y-82956071D01*
X127750000Y-82860833D01*
X127797619Y-82813214D01*
X127892857Y-82765595D01*
X127988095Y-82765595D01*
X128130952Y-82813214D01*
X128702380Y-83384642D01*
X128702380Y-82765595D01*
%TO.C,C17*%
X114857142Y-97357142D02*
X114809523Y-97404761D01*
X114666666Y-97452380D01*
X114571428Y-97452380D01*
X114428571Y-97404761D01*
X114333333Y-97309523D01*
X114285714Y-97214285D01*
X114238095Y-97023809D01*
X114238095Y-96880952D01*
X114285714Y-96690476D01*
X114333333Y-96595238D01*
X114428571Y-96500000D01*
X114571428Y-96452380D01*
X114666666Y-96452380D01*
X114809523Y-96500000D01*
X114857142Y-96547619D01*
X115809523Y-97452380D02*
X115238095Y-97452380D01*
X115523809Y-97452380D02*
X115523809Y-96452380D01*
X115428571Y-96595238D01*
X115333333Y-96690476D01*
X115238095Y-96738095D01*
X116142857Y-96452380D02*
X116809523Y-96452380D01*
X116380952Y-97452380D01*
%TO.C,R7*%
X107772380Y-89696666D02*
X107296190Y-90030000D01*
X107772380Y-90268095D02*
X106772380Y-90268095D01*
X106772380Y-89887142D01*
X106820000Y-89791904D01*
X106867619Y-89744285D01*
X106962857Y-89696666D01*
X107105714Y-89696666D01*
X107200952Y-89744285D01*
X107248571Y-89791904D01*
X107296190Y-89887142D01*
X107296190Y-90268095D01*
X106772380Y-89363333D02*
X106772380Y-88696666D01*
X107772380Y-89125238D01*
%TO.C,C21*%
X120547142Y-134387142D02*
X120499523Y-134434761D01*
X120356666Y-134482380D01*
X120261428Y-134482380D01*
X120118571Y-134434761D01*
X120023333Y-134339523D01*
X119975714Y-134244285D01*
X119928095Y-134053809D01*
X119928095Y-133910952D01*
X119975714Y-133720476D01*
X120023333Y-133625238D01*
X120118571Y-133530000D01*
X120261428Y-133482380D01*
X120356666Y-133482380D01*
X120499523Y-133530000D01*
X120547142Y-133577619D01*
X120928095Y-133577619D02*
X120975714Y-133530000D01*
X121070952Y-133482380D01*
X121309047Y-133482380D01*
X121404285Y-133530000D01*
X121451904Y-133577619D01*
X121499523Y-133672857D01*
X121499523Y-133768095D01*
X121451904Y-133910952D01*
X120880476Y-134482380D01*
X121499523Y-134482380D01*
X122451904Y-134482380D02*
X121880476Y-134482380D01*
X122166190Y-134482380D02*
X122166190Y-133482380D01*
X122070952Y-133625238D01*
X121975714Y-133720476D01*
X121880476Y-133768095D01*
%TO.C,R14*%
X116324880Y-122262857D02*
X115848690Y-122596190D01*
X116324880Y-122834285D02*
X115324880Y-122834285D01*
X115324880Y-122453333D01*
X115372500Y-122358095D01*
X115420119Y-122310476D01*
X115515357Y-122262857D01*
X115658214Y-122262857D01*
X115753452Y-122310476D01*
X115801071Y-122358095D01*
X115848690Y-122453333D01*
X115848690Y-122834285D01*
X116324880Y-121310476D02*
X116324880Y-121881904D01*
X116324880Y-121596190D02*
X115324880Y-121596190D01*
X115467738Y-121691428D01*
X115562976Y-121786666D01*
X115610595Y-121881904D01*
X115658214Y-120453333D02*
X116324880Y-120453333D01*
X115277261Y-120691428D02*
X115991547Y-120929523D01*
X115991547Y-120310476D01*
%TO.C,J3*%
X96006666Y-94732380D02*
X96006666Y-95446666D01*
X95959047Y-95589523D01*
X95863809Y-95684761D01*
X95720952Y-95732380D01*
X95625714Y-95732380D01*
X96387619Y-94732380D02*
X97006666Y-94732380D01*
X96673333Y-95113333D01*
X96816190Y-95113333D01*
X96911428Y-95160952D01*
X96959047Y-95208571D01*
X97006666Y-95303809D01*
X97006666Y-95541904D01*
X96959047Y-95637142D01*
X96911428Y-95684761D01*
X96816190Y-95732380D01*
X96530476Y-95732380D01*
X96435238Y-95684761D01*
X96387619Y-95637142D01*
%TO.C,R13*%
X112444880Y-123712857D02*
X111968690Y-124046190D01*
X112444880Y-124284285D02*
X111444880Y-124284285D01*
X111444880Y-123903333D01*
X111492500Y-123808095D01*
X111540119Y-123760476D01*
X111635357Y-123712857D01*
X111778214Y-123712857D01*
X111873452Y-123760476D01*
X111921071Y-123808095D01*
X111968690Y-123903333D01*
X111968690Y-124284285D01*
X112444880Y-122760476D02*
X112444880Y-123331904D01*
X112444880Y-123046190D02*
X111444880Y-123046190D01*
X111587738Y-123141428D01*
X111682976Y-123236666D01*
X111730595Y-123331904D01*
X111444880Y-122427142D02*
X111444880Y-121808095D01*
X111825833Y-122141428D01*
X111825833Y-121998571D01*
X111873452Y-121903333D01*
X111921071Y-121855714D01*
X112016309Y-121808095D01*
X112254404Y-121808095D01*
X112349642Y-121855714D01*
X112397261Y-121903333D01*
X112444880Y-121998571D01*
X112444880Y-122284285D01*
X112397261Y-122379523D01*
X112349642Y-122427142D01*
%TO.C,J2*%
X96186666Y-60472380D02*
X96186666Y-61186666D01*
X96139047Y-61329523D01*
X96043809Y-61424761D01*
X95900952Y-61472380D01*
X95805714Y-61472380D01*
X96615238Y-60567619D02*
X96662857Y-60520000D01*
X96758095Y-60472380D01*
X96996190Y-60472380D01*
X97091428Y-60520000D01*
X97139047Y-60567619D01*
X97186666Y-60662857D01*
X97186666Y-60758095D01*
X97139047Y-60900952D01*
X96567619Y-61472380D01*
X97186666Y-61472380D01*
%TO.C,R30*%
X111130078Y-131452380D02*
X110796745Y-130976190D01*
X110558650Y-131452380D02*
X110558650Y-130452380D01*
X110939602Y-130452380D01*
X111034840Y-130500000D01*
X111082459Y-130547619D01*
X111130078Y-130642857D01*
X111130078Y-130785714D01*
X111082459Y-130880952D01*
X111034840Y-130928571D01*
X110939602Y-130976190D01*
X110558650Y-130976190D01*
X111463412Y-130452380D02*
X112082459Y-130452380D01*
X111749126Y-130833333D01*
X111891983Y-130833333D01*
X111987221Y-130880952D01*
X112034840Y-130928571D01*
X112082459Y-131023809D01*
X112082459Y-131261904D01*
X112034840Y-131357142D01*
X111987221Y-131404761D01*
X111891983Y-131452380D01*
X111606269Y-131452380D01*
X111511031Y-131404761D01*
X111463412Y-131357142D01*
X112701507Y-130452380D02*
X112796745Y-130452380D01*
X112891983Y-130500000D01*
X112939602Y-130547619D01*
X112987221Y-130642857D01*
X113034840Y-130833333D01*
X113034840Y-131071428D01*
X112987221Y-131261904D01*
X112939602Y-131357142D01*
X112891983Y-131404761D01*
X112796745Y-131452380D01*
X112701507Y-131452380D01*
X112606269Y-131404761D01*
X112558650Y-131357142D01*
X112511031Y-131261904D01*
X112463412Y-131071428D01*
X112463412Y-130833333D01*
X112511031Y-130642857D01*
X112558650Y-130547619D01*
X112606269Y-130500000D01*
X112701507Y-130452380D01*
%TO.C,R8*%
X112653333Y-90352380D02*
X112320000Y-89876190D01*
X112081904Y-90352380D02*
X112081904Y-89352380D01*
X112462857Y-89352380D01*
X112558095Y-89400000D01*
X112605714Y-89447619D01*
X112653333Y-89542857D01*
X112653333Y-89685714D01*
X112605714Y-89780952D01*
X112558095Y-89828571D01*
X112462857Y-89876190D01*
X112081904Y-89876190D01*
X113224761Y-89780952D02*
X113129523Y-89733333D01*
X113081904Y-89685714D01*
X113034285Y-89590476D01*
X113034285Y-89542857D01*
X113081904Y-89447619D01*
X113129523Y-89400000D01*
X113224761Y-89352380D01*
X113415238Y-89352380D01*
X113510476Y-89400000D01*
X113558095Y-89447619D01*
X113605714Y-89542857D01*
X113605714Y-89590476D01*
X113558095Y-89685714D01*
X113510476Y-89733333D01*
X113415238Y-89780952D01*
X113224761Y-89780952D01*
X113129523Y-89828571D01*
X113081904Y-89876190D01*
X113034285Y-89971428D01*
X113034285Y-90161904D01*
X113081904Y-90257142D01*
X113129523Y-90304761D01*
X113224761Y-90352380D01*
X113415238Y-90352380D01*
X113510476Y-90304761D01*
X113558095Y-90257142D01*
X113605714Y-90161904D01*
X113605714Y-89971428D01*
X113558095Y-89876190D01*
X113510476Y-89828571D01*
X113415238Y-89780952D01*
%TO.C,J6*%
X133239880Y-122068333D02*
X133954166Y-122068333D01*
X134097023Y-122115952D01*
X134192261Y-122211190D01*
X134239880Y-122354047D01*
X134239880Y-122449285D01*
X133239880Y-121163571D02*
X133239880Y-121354047D01*
X133287500Y-121449285D01*
X133335119Y-121496904D01*
X133477976Y-121592142D01*
X133668452Y-121639761D01*
X134049404Y-121639761D01*
X134144642Y-121592142D01*
X134192261Y-121544523D01*
X134239880Y-121449285D01*
X134239880Y-121258809D01*
X134192261Y-121163571D01*
X134144642Y-121115952D01*
X134049404Y-121068333D01*
X133811309Y-121068333D01*
X133716071Y-121115952D01*
X133668452Y-121163571D01*
X133620833Y-121258809D01*
X133620833Y-121449285D01*
X133668452Y-121544523D01*
X133716071Y-121592142D01*
X133811309Y-121639761D01*
%TO.C,R24*%
X108357142Y-70810380D02*
X108023809Y-70334190D01*
X107785714Y-70810380D02*
X107785714Y-69810380D01*
X108166666Y-69810380D01*
X108261904Y-69858000D01*
X108309523Y-69905619D01*
X108357142Y-70000857D01*
X108357142Y-70143714D01*
X108309523Y-70238952D01*
X108261904Y-70286571D01*
X108166666Y-70334190D01*
X107785714Y-70334190D01*
X108738095Y-69905619D02*
X108785714Y-69858000D01*
X108880952Y-69810380D01*
X109119047Y-69810380D01*
X109214285Y-69858000D01*
X109261904Y-69905619D01*
X109309523Y-70000857D01*
X109309523Y-70096095D01*
X109261904Y-70238952D01*
X108690476Y-70810380D01*
X109309523Y-70810380D01*
X110166666Y-70143714D02*
X110166666Y-70810380D01*
X109928571Y-69762761D02*
X109690476Y-70477047D01*
X110309523Y-70477047D01*
%TO.C,C5*%
X114825833Y-87747142D02*
X114778214Y-87794761D01*
X114635357Y-87842380D01*
X114540119Y-87842380D01*
X114397261Y-87794761D01*
X114302023Y-87699523D01*
X114254404Y-87604285D01*
X114206785Y-87413809D01*
X114206785Y-87270952D01*
X114254404Y-87080476D01*
X114302023Y-86985238D01*
X114397261Y-86890000D01*
X114540119Y-86842380D01*
X114635357Y-86842380D01*
X114778214Y-86890000D01*
X114825833Y-86937619D01*
X115730595Y-86842380D02*
X115254404Y-86842380D01*
X115206785Y-87318571D01*
X115254404Y-87270952D01*
X115349642Y-87223333D01*
X115587738Y-87223333D01*
X115682976Y-87270952D01*
X115730595Y-87318571D01*
X115778214Y-87413809D01*
X115778214Y-87651904D01*
X115730595Y-87747142D01*
X115682976Y-87794761D01*
X115587738Y-87842380D01*
X115349642Y-87842380D01*
X115254404Y-87794761D01*
X115206785Y-87747142D01*
%TO.C,C25*%
X101509142Y-71000857D02*
X101556761Y-71048476D01*
X101604380Y-71191333D01*
X101604380Y-71286571D01*
X101556761Y-71429428D01*
X101461523Y-71524666D01*
X101366285Y-71572285D01*
X101175809Y-71619904D01*
X101032952Y-71619904D01*
X100842476Y-71572285D01*
X100747238Y-71524666D01*
X100652000Y-71429428D01*
X100604380Y-71286571D01*
X100604380Y-71191333D01*
X100652000Y-71048476D01*
X100699619Y-71000857D01*
X100699619Y-70619904D02*
X100652000Y-70572285D01*
X100604380Y-70477047D01*
X100604380Y-70238952D01*
X100652000Y-70143714D01*
X100699619Y-70096095D01*
X100794857Y-70048476D01*
X100890095Y-70048476D01*
X101032952Y-70096095D01*
X101604380Y-70667523D01*
X101604380Y-70048476D01*
X100604380Y-69143714D02*
X100604380Y-69619904D01*
X101080571Y-69667523D01*
X101032952Y-69619904D01*
X100985333Y-69524666D01*
X100985333Y-69286571D01*
X101032952Y-69191333D01*
X101080571Y-69143714D01*
X101175809Y-69096095D01*
X101413904Y-69096095D01*
X101509142Y-69143714D01*
X101556761Y-69191333D01*
X101604380Y-69286571D01*
X101604380Y-69524666D01*
X101556761Y-69619904D01*
X101509142Y-69667523D01*
%TO.C,R2*%
X113852380Y-58166666D02*
X113376190Y-58500000D01*
X113852380Y-58738095D02*
X112852380Y-58738095D01*
X112852380Y-58357142D01*
X112900000Y-58261904D01*
X112947619Y-58214285D01*
X113042857Y-58166666D01*
X113185714Y-58166666D01*
X113280952Y-58214285D01*
X113328571Y-58261904D01*
X113376190Y-58357142D01*
X113376190Y-58738095D01*
X112947619Y-57785714D02*
X112900000Y-57738095D01*
X112852380Y-57642857D01*
X112852380Y-57404761D01*
X112900000Y-57309523D01*
X112947619Y-57261904D01*
X113042857Y-57214285D01*
X113138095Y-57214285D01*
X113280952Y-57261904D01*
X113852380Y-57833333D01*
X113852380Y-57214285D01*
%TO.C,R44*%
X125188542Y-136868380D02*
X124855209Y-136392190D01*
X124617114Y-136868380D02*
X124617114Y-135868380D01*
X124998066Y-135868380D01*
X125093304Y-135916000D01*
X125140923Y-135963619D01*
X125188542Y-136058857D01*
X125188542Y-136201714D01*
X125140923Y-136296952D01*
X125093304Y-136344571D01*
X124998066Y-136392190D01*
X124617114Y-136392190D01*
X126045685Y-136201714D02*
X126045685Y-136868380D01*
X125807590Y-135820761D02*
X125569495Y-136535047D01*
X126188542Y-136535047D01*
X126998066Y-136201714D02*
X126998066Y-136868380D01*
X126759971Y-135820761D02*
X126521876Y-136535047D01*
X127140923Y-136535047D01*
%TO.C,C24*%
X101719142Y-100659357D02*
X101766761Y-100706976D01*
X101814380Y-100849833D01*
X101814380Y-100945071D01*
X101766761Y-101087928D01*
X101671523Y-101183166D01*
X101576285Y-101230785D01*
X101385809Y-101278404D01*
X101242952Y-101278404D01*
X101052476Y-101230785D01*
X100957238Y-101183166D01*
X100862000Y-101087928D01*
X100814380Y-100945071D01*
X100814380Y-100849833D01*
X100862000Y-100706976D01*
X100909619Y-100659357D01*
X100909619Y-100278404D02*
X100862000Y-100230785D01*
X100814380Y-100135547D01*
X100814380Y-99897452D01*
X100862000Y-99802214D01*
X100909619Y-99754595D01*
X101004857Y-99706976D01*
X101100095Y-99706976D01*
X101242952Y-99754595D01*
X101814380Y-100326023D01*
X101814380Y-99706976D01*
X101147714Y-98849833D02*
X101814380Y-98849833D01*
X100766761Y-99087928D02*
X101481047Y-99326023D01*
X101481047Y-98706976D01*
%TO.C,C19*%
X108057142Y-132527022D02*
X108104761Y-132574641D01*
X108152380Y-132717498D01*
X108152380Y-132812736D01*
X108104761Y-132955593D01*
X108009523Y-133050831D01*
X107914285Y-133098450D01*
X107723809Y-133146069D01*
X107580952Y-133146069D01*
X107390476Y-133098450D01*
X107295238Y-133050831D01*
X107200000Y-132955593D01*
X107152380Y-132812736D01*
X107152380Y-132717498D01*
X107200000Y-132574641D01*
X107247619Y-132527022D01*
X108152380Y-131574641D02*
X108152380Y-132146069D01*
X108152380Y-131860355D02*
X107152380Y-131860355D01*
X107295238Y-131955593D01*
X107390476Y-132050831D01*
X107438095Y-132146069D01*
X108152380Y-131098450D02*
X108152380Y-130907974D01*
X108104761Y-130812736D01*
X108057142Y-130765117D01*
X107914285Y-130669879D01*
X107723809Y-130622260D01*
X107342857Y-130622260D01*
X107247619Y-130669879D01*
X107200000Y-130717498D01*
X107152380Y-130812736D01*
X107152380Y-131003212D01*
X107200000Y-131098450D01*
X107247619Y-131146069D01*
X107342857Y-131193688D01*
X107580952Y-131193688D01*
X107676190Y-131146069D01*
X107723809Y-131098450D01*
X107771428Y-131003212D01*
X107771428Y-130812736D01*
X107723809Y-130717498D01*
X107676190Y-130669879D01*
X107580952Y-130622260D01*
%TO.C,D5*%
X118461904Y-96352380D02*
X118461904Y-95352380D01*
X118700000Y-95352380D01*
X118842857Y-95400000D01*
X118938095Y-95495238D01*
X118985714Y-95590476D01*
X119033333Y-95780952D01*
X119033333Y-95923809D01*
X118985714Y-96114285D01*
X118938095Y-96209523D01*
X118842857Y-96304761D01*
X118700000Y-96352380D01*
X118461904Y-96352380D01*
X119938095Y-95352380D02*
X119461904Y-95352380D01*
X119414285Y-95828571D01*
X119461904Y-95780952D01*
X119557142Y-95733333D01*
X119795238Y-95733333D01*
X119890476Y-95780952D01*
X119938095Y-95828571D01*
X119985714Y-95923809D01*
X119985714Y-96161904D01*
X119938095Y-96257142D01*
X119890476Y-96304761D01*
X119795238Y-96352380D01*
X119557142Y-96352380D01*
X119461904Y-96304761D01*
X119414285Y-96257142D01*
%TO.C,R20*%
X127419642Y-125725180D02*
X127086309Y-125248990D01*
X126848214Y-125725180D02*
X126848214Y-124725180D01*
X127229166Y-124725180D01*
X127324404Y-124772800D01*
X127372023Y-124820419D01*
X127419642Y-124915657D01*
X127419642Y-125058514D01*
X127372023Y-125153752D01*
X127324404Y-125201371D01*
X127229166Y-125248990D01*
X126848214Y-125248990D01*
X127800595Y-124820419D02*
X127848214Y-124772800D01*
X127943452Y-124725180D01*
X128181547Y-124725180D01*
X128276785Y-124772800D01*
X128324404Y-124820419D01*
X128372023Y-124915657D01*
X128372023Y-125010895D01*
X128324404Y-125153752D01*
X127752976Y-125725180D01*
X128372023Y-125725180D01*
X128991071Y-124725180D02*
X129086309Y-124725180D01*
X129181547Y-124772800D01*
X129229166Y-124820419D01*
X129276785Y-124915657D01*
X129324404Y-125106133D01*
X129324404Y-125344228D01*
X129276785Y-125534704D01*
X129229166Y-125629942D01*
X129181547Y-125677561D01*
X129086309Y-125725180D01*
X128991071Y-125725180D01*
X128895833Y-125677561D01*
X128848214Y-125629942D01*
X128800595Y-125534704D01*
X128752976Y-125344228D01*
X128752976Y-125106133D01*
X128800595Y-124915657D01*
X128848214Y-124820419D01*
X128895833Y-124772800D01*
X128991071Y-124725180D01*
%TO.C,R35*%
X124877380Y-66992857D02*
X124401190Y-67326190D01*
X124877380Y-67564285D02*
X123877380Y-67564285D01*
X123877380Y-67183333D01*
X123925000Y-67088095D01*
X123972619Y-67040476D01*
X124067857Y-66992857D01*
X124210714Y-66992857D01*
X124305952Y-67040476D01*
X124353571Y-67088095D01*
X124401190Y-67183333D01*
X124401190Y-67564285D01*
X123877380Y-66659523D02*
X123877380Y-66040476D01*
X124258333Y-66373809D01*
X124258333Y-66230952D01*
X124305952Y-66135714D01*
X124353571Y-66088095D01*
X124448809Y-66040476D01*
X124686904Y-66040476D01*
X124782142Y-66088095D01*
X124829761Y-66135714D01*
X124877380Y-66230952D01*
X124877380Y-66516666D01*
X124829761Y-66611904D01*
X124782142Y-66659523D01*
X123877380Y-65135714D02*
X123877380Y-65611904D01*
X124353571Y-65659523D01*
X124305952Y-65611904D01*
X124258333Y-65516666D01*
X124258333Y-65278571D01*
X124305952Y-65183333D01*
X124353571Y-65135714D01*
X124448809Y-65088095D01*
X124686904Y-65088095D01*
X124782142Y-65135714D01*
X124829761Y-65183333D01*
X124877380Y-65278571D01*
X124877380Y-65516666D01*
X124829761Y-65611904D01*
X124782142Y-65659523D01*
%TO.C,R39*%
X126777380Y-98692857D02*
X126301190Y-99026190D01*
X126777380Y-99264285D02*
X125777380Y-99264285D01*
X125777380Y-98883333D01*
X125825000Y-98788095D01*
X125872619Y-98740476D01*
X125967857Y-98692857D01*
X126110714Y-98692857D01*
X126205952Y-98740476D01*
X126253571Y-98788095D01*
X126301190Y-98883333D01*
X126301190Y-99264285D01*
X125777380Y-98359523D02*
X125777380Y-97740476D01*
X126158333Y-98073809D01*
X126158333Y-97930952D01*
X126205952Y-97835714D01*
X126253571Y-97788095D01*
X126348809Y-97740476D01*
X126586904Y-97740476D01*
X126682142Y-97788095D01*
X126729761Y-97835714D01*
X126777380Y-97930952D01*
X126777380Y-98216666D01*
X126729761Y-98311904D01*
X126682142Y-98359523D01*
X126777380Y-97264285D02*
X126777380Y-97073809D01*
X126729761Y-96978571D01*
X126682142Y-96930952D01*
X126539285Y-96835714D01*
X126348809Y-96788095D01*
X125967857Y-96788095D01*
X125872619Y-96835714D01*
X125825000Y-96883333D01*
X125777380Y-96978571D01*
X125777380Y-97169047D01*
X125825000Y-97264285D01*
X125872619Y-97311904D01*
X125967857Y-97359523D01*
X126205952Y-97359523D01*
X126301190Y-97311904D01*
X126348809Y-97264285D01*
X126396428Y-97169047D01*
X126396428Y-96978571D01*
X126348809Y-96883333D01*
X126301190Y-96835714D01*
X126205952Y-96788095D01*
%TO.C,C8*%
X113905833Y-121747142D02*
X113858214Y-121794761D01*
X113715357Y-121842380D01*
X113620119Y-121842380D01*
X113477261Y-121794761D01*
X113382023Y-121699523D01*
X113334404Y-121604285D01*
X113286785Y-121413809D01*
X113286785Y-121270952D01*
X113334404Y-121080476D01*
X113382023Y-120985238D01*
X113477261Y-120890000D01*
X113620119Y-120842380D01*
X113715357Y-120842380D01*
X113858214Y-120890000D01*
X113905833Y-120937619D01*
X114477261Y-121270952D02*
X114382023Y-121223333D01*
X114334404Y-121175714D01*
X114286785Y-121080476D01*
X114286785Y-121032857D01*
X114334404Y-120937619D01*
X114382023Y-120890000D01*
X114477261Y-120842380D01*
X114667738Y-120842380D01*
X114762976Y-120890000D01*
X114810595Y-120937619D01*
X114858214Y-121032857D01*
X114858214Y-121080476D01*
X114810595Y-121175714D01*
X114762976Y-121223333D01*
X114667738Y-121270952D01*
X114477261Y-121270952D01*
X114382023Y-121318571D01*
X114334404Y-121366190D01*
X114286785Y-121461428D01*
X114286785Y-121651904D01*
X114334404Y-121747142D01*
X114382023Y-121794761D01*
X114477261Y-121842380D01*
X114667738Y-121842380D01*
X114762976Y-121794761D01*
X114810595Y-121747142D01*
X114858214Y-121651904D01*
X114858214Y-121461428D01*
X114810595Y-121366190D01*
X114762976Y-121318571D01*
X114667738Y-121270952D01*
%TO.C,R23*%
X117627142Y-65902380D02*
X117293809Y-65426190D01*
X117055714Y-65902380D02*
X117055714Y-64902380D01*
X117436666Y-64902380D01*
X117531904Y-64950000D01*
X117579523Y-64997619D01*
X117627142Y-65092857D01*
X117627142Y-65235714D01*
X117579523Y-65330952D01*
X117531904Y-65378571D01*
X117436666Y-65426190D01*
X117055714Y-65426190D01*
X118008095Y-64997619D02*
X118055714Y-64950000D01*
X118150952Y-64902380D01*
X118389047Y-64902380D01*
X118484285Y-64950000D01*
X118531904Y-64997619D01*
X118579523Y-65092857D01*
X118579523Y-65188095D01*
X118531904Y-65330952D01*
X117960476Y-65902380D01*
X118579523Y-65902380D01*
X118912857Y-64902380D02*
X119531904Y-64902380D01*
X119198571Y-65283333D01*
X119341428Y-65283333D01*
X119436666Y-65330952D01*
X119484285Y-65378571D01*
X119531904Y-65473809D01*
X119531904Y-65711904D01*
X119484285Y-65807142D01*
X119436666Y-65854761D01*
X119341428Y-65902380D01*
X119055714Y-65902380D01*
X118960476Y-65854761D01*
X118912857Y-65807142D01*
%TO.C,D2*%
X118551904Y-87942380D02*
X118551904Y-86942380D01*
X118790000Y-86942380D01*
X118932857Y-86990000D01*
X119028095Y-87085238D01*
X119075714Y-87180476D01*
X119123333Y-87370952D01*
X119123333Y-87513809D01*
X119075714Y-87704285D01*
X119028095Y-87799523D01*
X118932857Y-87894761D01*
X118790000Y-87942380D01*
X118551904Y-87942380D01*
X119504285Y-87037619D02*
X119551904Y-86990000D01*
X119647142Y-86942380D01*
X119885238Y-86942380D01*
X119980476Y-86990000D01*
X120028095Y-87037619D01*
X120075714Y-87132857D01*
X120075714Y-87228095D01*
X120028095Y-87370952D01*
X119456666Y-87942380D01*
X120075714Y-87942380D01*
%TO.C,R37*%
X129202380Y-98567857D02*
X128726190Y-98901190D01*
X129202380Y-99139285D02*
X128202380Y-99139285D01*
X128202380Y-98758333D01*
X128250000Y-98663095D01*
X128297619Y-98615476D01*
X128392857Y-98567857D01*
X128535714Y-98567857D01*
X128630952Y-98615476D01*
X128678571Y-98663095D01*
X128726190Y-98758333D01*
X128726190Y-99139285D01*
X128202380Y-98234523D02*
X128202380Y-97615476D01*
X128583333Y-97948809D01*
X128583333Y-97805952D01*
X128630952Y-97710714D01*
X128678571Y-97663095D01*
X128773809Y-97615476D01*
X129011904Y-97615476D01*
X129107142Y-97663095D01*
X129154761Y-97710714D01*
X129202380Y-97805952D01*
X129202380Y-98091666D01*
X129154761Y-98186904D01*
X129107142Y-98234523D01*
X128202380Y-97282142D02*
X128202380Y-96615476D01*
X129202380Y-97044047D01*
%TO.C,D4*%
X117879904Y-64462380D02*
X117879904Y-63462380D01*
X118118000Y-63462380D01*
X118260857Y-63510000D01*
X118356095Y-63605238D01*
X118403714Y-63700476D01*
X118451333Y-63890952D01*
X118451333Y-64033809D01*
X118403714Y-64224285D01*
X118356095Y-64319523D01*
X118260857Y-64414761D01*
X118118000Y-64462380D01*
X117879904Y-64462380D01*
X119308476Y-63795714D02*
X119308476Y-64462380D01*
X119070380Y-63414761D02*
X118832285Y-64129047D01*
X119451333Y-64129047D01*
%TO.C,C3*%
X122543333Y-56907142D02*
X122495714Y-56954761D01*
X122352857Y-57002380D01*
X122257619Y-57002380D01*
X122114761Y-56954761D01*
X122019523Y-56859523D01*
X121971904Y-56764285D01*
X121924285Y-56573809D01*
X121924285Y-56430952D01*
X121971904Y-56240476D01*
X122019523Y-56145238D01*
X122114761Y-56050000D01*
X122257619Y-56002380D01*
X122352857Y-56002380D01*
X122495714Y-56050000D01*
X122543333Y-56097619D01*
X122876666Y-56002380D02*
X123495714Y-56002380D01*
X123162380Y-56383333D01*
X123305238Y-56383333D01*
X123400476Y-56430952D01*
X123448095Y-56478571D01*
X123495714Y-56573809D01*
X123495714Y-56811904D01*
X123448095Y-56907142D01*
X123400476Y-56954761D01*
X123305238Y-57002380D01*
X123019523Y-57002380D01*
X122924285Y-56954761D01*
X122876666Y-56907142D01*
%TO.C,R31*%
X116864642Y-132032380D02*
X116531309Y-131556190D01*
X116293214Y-132032380D02*
X116293214Y-131032380D01*
X116674166Y-131032380D01*
X116769404Y-131080000D01*
X116817023Y-131127619D01*
X116864642Y-131222857D01*
X116864642Y-131365714D01*
X116817023Y-131460952D01*
X116769404Y-131508571D01*
X116674166Y-131556190D01*
X116293214Y-131556190D01*
X117197976Y-131032380D02*
X117817023Y-131032380D01*
X117483690Y-131413333D01*
X117626547Y-131413333D01*
X117721785Y-131460952D01*
X117769404Y-131508571D01*
X117817023Y-131603809D01*
X117817023Y-131841904D01*
X117769404Y-131937142D01*
X117721785Y-131984761D01*
X117626547Y-132032380D01*
X117340833Y-132032380D01*
X117245595Y-131984761D01*
X117197976Y-131937142D01*
X118769404Y-132032380D02*
X118197976Y-132032380D01*
X118483690Y-132032380D02*
X118483690Y-131032380D01*
X118388452Y-131175238D01*
X118293214Y-131270476D01*
X118197976Y-131318095D01*
%TO.C,J4*%
X132592380Y-88343333D02*
X133306666Y-88343333D01*
X133449523Y-88390952D01*
X133544761Y-88486190D01*
X133592380Y-88629047D01*
X133592380Y-88724285D01*
X132925714Y-87438571D02*
X133592380Y-87438571D01*
X132544761Y-87676666D02*
X133259047Y-87914761D01*
X133259047Y-87295714D01*
%TO.C,R40*%
X126857142Y-71002380D02*
X126523809Y-70526190D01*
X126285714Y-71002380D02*
X126285714Y-70002380D01*
X126666666Y-70002380D01*
X126761904Y-70050000D01*
X126809523Y-70097619D01*
X126857142Y-70192857D01*
X126857142Y-70335714D01*
X126809523Y-70430952D01*
X126761904Y-70478571D01*
X126666666Y-70526190D01*
X126285714Y-70526190D01*
X127714285Y-70335714D02*
X127714285Y-71002380D01*
X127476190Y-69954761D02*
X127238095Y-70669047D01*
X127857142Y-70669047D01*
X128428571Y-70002380D02*
X128523809Y-70002380D01*
X128619047Y-70050000D01*
X128666666Y-70097619D01*
X128714285Y-70192857D01*
X128761904Y-70383333D01*
X128761904Y-70621428D01*
X128714285Y-70811904D01*
X128666666Y-70907142D01*
X128619047Y-70954761D01*
X128523809Y-71002380D01*
X128428571Y-71002380D01*
X128333333Y-70954761D01*
X128285714Y-70907142D01*
X128238095Y-70811904D01*
X128190476Y-70621428D01*
X128190476Y-70383333D01*
X128238095Y-70192857D01*
X128285714Y-70097619D01*
X128333333Y-70050000D01*
X128428571Y-70002380D01*
%TO.C,C9*%
X121525833Y-125457142D02*
X121478214Y-125504761D01*
X121335357Y-125552380D01*
X121240119Y-125552380D01*
X121097261Y-125504761D01*
X121002023Y-125409523D01*
X120954404Y-125314285D01*
X120906785Y-125123809D01*
X120906785Y-124980952D01*
X120954404Y-124790476D01*
X121002023Y-124695238D01*
X121097261Y-124600000D01*
X121240119Y-124552380D01*
X121335357Y-124552380D01*
X121478214Y-124600000D01*
X121525833Y-124647619D01*
X122002023Y-125552380D02*
X122192500Y-125552380D01*
X122287738Y-125504761D01*
X122335357Y-125457142D01*
X122430595Y-125314285D01*
X122478214Y-125123809D01*
X122478214Y-124742857D01*
X122430595Y-124647619D01*
X122382976Y-124600000D01*
X122287738Y-124552380D01*
X122097261Y-124552380D01*
X122002023Y-124600000D01*
X121954404Y-124647619D01*
X121906785Y-124742857D01*
X121906785Y-124980952D01*
X121954404Y-125076190D01*
X122002023Y-125123809D01*
X122097261Y-125171428D01*
X122287738Y-125171428D01*
X122382976Y-125123809D01*
X122430595Y-125076190D01*
X122478214Y-124980952D01*
%TO.C,D1*%
X118691904Y-56092380D02*
X118691904Y-55092380D01*
X118930000Y-55092380D01*
X119072857Y-55140000D01*
X119168095Y-55235238D01*
X119215714Y-55330476D01*
X119263333Y-55520952D01*
X119263333Y-55663809D01*
X119215714Y-55854285D01*
X119168095Y-55949523D01*
X119072857Y-56044761D01*
X118930000Y-56092380D01*
X118691904Y-56092380D01*
X120215714Y-56092380D02*
X119644285Y-56092380D01*
X119930000Y-56092380D02*
X119930000Y-55092380D01*
X119834761Y-55235238D01*
X119739523Y-55330476D01*
X119644285Y-55378095D01*
%TO.C,C7*%
X108715833Y-121017142D02*
X108668214Y-121064761D01*
X108525357Y-121112380D01*
X108430119Y-121112380D01*
X108287261Y-121064761D01*
X108192023Y-120969523D01*
X108144404Y-120874285D01*
X108096785Y-120683809D01*
X108096785Y-120540952D01*
X108144404Y-120350476D01*
X108192023Y-120255238D01*
X108287261Y-120160000D01*
X108430119Y-120112380D01*
X108525357Y-120112380D01*
X108668214Y-120160000D01*
X108715833Y-120207619D01*
X109049166Y-120112380D02*
X109715833Y-120112380D01*
X109287261Y-121112380D01*
%TO.C,R16*%
X124254880Y-118852857D02*
X123778690Y-119186190D01*
X124254880Y-119424285D02*
X123254880Y-119424285D01*
X123254880Y-119043333D01*
X123302500Y-118948095D01*
X123350119Y-118900476D01*
X123445357Y-118852857D01*
X123588214Y-118852857D01*
X123683452Y-118900476D01*
X123731071Y-118948095D01*
X123778690Y-119043333D01*
X123778690Y-119424285D01*
X124254880Y-117900476D02*
X124254880Y-118471904D01*
X124254880Y-118186190D02*
X123254880Y-118186190D01*
X123397738Y-118281428D01*
X123492976Y-118376666D01*
X123540595Y-118471904D01*
X123254880Y-117043333D02*
X123254880Y-117233809D01*
X123302500Y-117329047D01*
X123350119Y-117376666D01*
X123492976Y-117471904D01*
X123683452Y-117519523D01*
X124064404Y-117519523D01*
X124159642Y-117471904D01*
X124207261Y-117424285D01*
X124254880Y-117329047D01*
X124254880Y-117138571D01*
X124207261Y-117043333D01*
X124159642Y-116995714D01*
X124064404Y-116948095D01*
X123826309Y-116948095D01*
X123731071Y-116995714D01*
X123683452Y-117043333D01*
X123635833Y-117138571D01*
X123635833Y-117329047D01*
X123683452Y-117424285D01*
X123731071Y-117471904D01*
X123826309Y-117519523D01*
%TO.C,R38*%
X124727380Y-98867857D02*
X124251190Y-99201190D01*
X124727380Y-99439285D02*
X123727380Y-99439285D01*
X123727380Y-99058333D01*
X123775000Y-98963095D01*
X123822619Y-98915476D01*
X123917857Y-98867857D01*
X124060714Y-98867857D01*
X124155952Y-98915476D01*
X124203571Y-98963095D01*
X124251190Y-99058333D01*
X124251190Y-99439285D01*
X123727380Y-98534523D02*
X123727380Y-97915476D01*
X124108333Y-98248809D01*
X124108333Y-98105952D01*
X124155952Y-98010714D01*
X124203571Y-97963095D01*
X124298809Y-97915476D01*
X124536904Y-97915476D01*
X124632142Y-97963095D01*
X124679761Y-98010714D01*
X124727380Y-98105952D01*
X124727380Y-98391666D01*
X124679761Y-98486904D01*
X124632142Y-98534523D01*
X124155952Y-97344047D02*
X124108333Y-97439285D01*
X124060714Y-97486904D01*
X123965476Y-97534523D01*
X123917857Y-97534523D01*
X123822619Y-97486904D01*
X123775000Y-97439285D01*
X123727380Y-97344047D01*
X123727380Y-97153571D01*
X123775000Y-97058333D01*
X123822619Y-97010714D01*
X123917857Y-96963095D01*
X123965476Y-96963095D01*
X124060714Y-97010714D01*
X124108333Y-97058333D01*
X124155952Y-97153571D01*
X124155952Y-97344047D01*
X124203571Y-97439285D01*
X124251190Y-97486904D01*
X124346428Y-97534523D01*
X124536904Y-97534523D01*
X124632142Y-97486904D01*
X124679761Y-97439285D01*
X124727380Y-97344047D01*
X124727380Y-97153571D01*
X124679761Y-97058333D01*
X124632142Y-97010714D01*
X124536904Y-96963095D01*
X124346428Y-96963095D01*
X124251190Y-97010714D01*
X124203571Y-97058333D01*
X124155952Y-97153571D01*
%TO.C,J5*%
X95932666Y-127722380D02*
X95932666Y-128436666D01*
X95885047Y-128579523D01*
X95789809Y-128674761D01*
X95646952Y-128722380D01*
X95551714Y-128722380D01*
X96885047Y-127722380D02*
X96408857Y-127722380D01*
X96361238Y-128198571D01*
X96408857Y-128150952D01*
X96504095Y-128103333D01*
X96742190Y-128103333D01*
X96837428Y-128150952D01*
X96885047Y-128198571D01*
X96932666Y-128293809D01*
X96932666Y-128531904D01*
X96885047Y-128627142D01*
X96837428Y-128674761D01*
X96742190Y-128722380D01*
X96504095Y-128722380D01*
X96408857Y-128674761D01*
X96361238Y-128627142D01*
D11*
%TO.C,R11*%
X127135276Y-89367500D02*
X127644724Y-89367500D01*
X127135276Y-90412500D02*
X127644724Y-90412500D01*
%TO.C,C6*%
X122394165Y-89530000D02*
X122625835Y-89530000D01*
X122394165Y-90250000D02*
X122625835Y-90250000D01*
%TO.C,R1*%
X110707064Y-58575000D02*
X110252936Y-58575000D01*
X110707064Y-57105000D02*
X110252936Y-57105000D01*
%TO.C,R41*%
X127272936Y-101260000D02*
X128727064Y-101260000D01*
X127272936Y-99440000D02*
X128727064Y-99440000D01*
%TO.C,R33*%
X120845276Y-131742500D02*
X121354724Y-131742500D01*
X120845276Y-130697500D02*
X121354724Y-130697500D01*
%TO.C,R26*%
X112427064Y-99635000D02*
X111972936Y-99635000D01*
X112427064Y-98165000D02*
X111972936Y-98165000D01*
%TO.C,R32*%
X108711276Y-135142500D02*
X109220724Y-135142500D01*
X108711276Y-134097500D02*
X109220724Y-134097500D01*
%TO.C,R36*%
X127515000Y-63177064D02*
X127515000Y-61722936D01*
X129335000Y-63177064D02*
X129335000Y-61722936D01*
%TO.C,RV1*%
X107345000Y-64340000D02*
X117115000Y-64340000D01*
X107345000Y-59270000D02*
X107345000Y-64340000D01*
X107345000Y-59270000D02*
X117115000Y-59270000D01*
X117115000Y-59270000D02*
X117115000Y-64340000D01*
%TO.C,J12*%
X97790000Y-137280000D02*
X100390000Y-137280000D01*
X95190000Y-137280000D02*
X95190000Y-135950000D01*
X97790000Y-134620000D02*
X100390000Y-134620000D01*
X96520000Y-137280000D02*
X95190000Y-137280000D01*
X100390000Y-137280000D02*
X100390000Y-134620000D01*
X97790000Y-137280000D02*
X97790000Y-134620000D01*
%TO.C,J7*%
X95190000Y-67370000D02*
X95190000Y-66040000D01*
X97790000Y-64710000D02*
X100390000Y-64710000D01*
X96520000Y-67370000D02*
X95190000Y-67370000D01*
X97790000Y-67370000D02*
X97790000Y-64710000D01*
X97790000Y-67370000D02*
X100390000Y-67370000D01*
X100390000Y-67370000D02*
X100390000Y-64710000D01*
%TO.C,RV2*%
X106845000Y-91070000D02*
X116615000Y-91070000D01*
X116615000Y-91070000D02*
X116615000Y-96140000D01*
X106845000Y-96140000D02*
X116615000Y-96140000D01*
X106845000Y-91070000D02*
X106845000Y-96140000D01*
%TO.C,R43*%
X125429600Y-128895464D02*
X125429600Y-127441336D01*
X127249600Y-128895464D02*
X127249600Y-127441336D01*
%TO.C,R15*%
X121520000Y-121534724D02*
X121520000Y-121025276D01*
X122565000Y-121534724D02*
X122565000Y-121025276D01*
%TO.C,J8*%
X97790000Y-101660000D02*
X97790000Y-99000000D01*
X95190000Y-101660000D02*
X95190000Y-100330000D01*
X97790000Y-99000000D02*
X100390000Y-99000000D01*
X96520000Y-101660000D02*
X95190000Y-101660000D01*
X97790000Y-101660000D02*
X100390000Y-101660000D01*
X100390000Y-101660000D02*
X100390000Y-99000000D01*
%TO.C,C11*%
X99604165Y-95440000D02*
X99835835Y-95440000D01*
X99604165Y-94720000D02*
X99835835Y-94720000D01*
%TO.C,C20*%
X115360000Y-132615835D02*
X115360000Y-132384165D01*
X114640000Y-132615835D02*
X114640000Y-132384165D01*
%TO.C,C26*%
X102722000Y-103115835D02*
X102722000Y-102884165D01*
X102002000Y-103115835D02*
X102002000Y-102884165D01*
%TO.C,R19*%
X126640000Y-121644724D02*
X126640000Y-121135276D01*
X127685000Y-121644724D02*
X127685000Y-121135276D01*
%TO.C,RV3*%
X106267500Y-124920000D02*
X106267500Y-129990000D01*
X116037500Y-124920000D02*
X116037500Y-129990000D01*
X106267500Y-129990000D02*
X116037500Y-129990000D01*
X106267500Y-124920000D02*
X116037500Y-124920000D01*
%TO.C,R6*%
X127917500Y-55644724D02*
X127917500Y-55135276D01*
X128962500Y-55644724D02*
X128962500Y-55135276D01*
%TO.C,C27*%
X102722000Y-137021835D02*
X102722000Y-136790165D01*
X102002000Y-137021835D02*
X102002000Y-136790165D01*
%TO.C,R45*%
X129637200Y-128844664D02*
X129637200Y-127390536D01*
X127817200Y-128844664D02*
X127817200Y-127390536D01*
%TO.C,C13*%
X108640000Y-66615835D02*
X108640000Y-66384165D01*
X109360000Y-66615835D02*
X109360000Y-66384165D01*
%TO.C,C15*%
X121781835Y-67204000D02*
X121550165Y-67204000D01*
X121781835Y-67924000D02*
X121550165Y-67924000D01*
%TO.C,C14*%
X115140000Y-67115835D02*
X115140000Y-66884165D01*
X115860000Y-67115835D02*
X115860000Y-66884165D01*
%TO.C,R29*%
X121332776Y-96877500D02*
X121842224Y-96877500D01*
X121332776Y-97922500D02*
X121842224Y-97922500D01*
%TO.C,J9*%
X100390000Y-134781600D02*
X100390000Y-132121600D01*
X97790000Y-134781600D02*
X97790000Y-132121600D01*
X97790000Y-134781600D02*
X100390000Y-134781600D01*
X95190000Y-134781600D02*
X95190000Y-133451600D01*
X97790000Y-132121600D02*
X100390000Y-132121600D01*
X96520000Y-134781600D02*
X95190000Y-134781600D01*
%TO.C,C10*%
X99816665Y-60640000D02*
X100048335Y-60640000D01*
X99816665Y-61360000D02*
X100048335Y-61360000D01*
%TO.C,J11*%
X97790000Y-101540000D02*
X100390000Y-101540000D01*
X96520000Y-104200000D02*
X95190000Y-104200000D01*
X97790000Y-104200000D02*
X100390000Y-104200000D01*
X100390000Y-104200000D02*
X100390000Y-101540000D01*
X95190000Y-104200000D02*
X95190000Y-102870000D01*
X97790000Y-104200000D02*
X97790000Y-101540000D01*
%TO.C,C1*%
X109864165Y-55690000D02*
X110095835Y-55690000D01*
X109864165Y-56410000D02*
X110095835Y-56410000D01*
%TO.C,R25*%
X121665276Y-66371500D02*
X122174724Y-66371500D01*
X121665276Y-65326500D02*
X122174724Y-65326500D01*
%TO.C,R9*%
X125112500Y-89167224D02*
X125112500Y-88657776D01*
X124067500Y-89167224D02*
X124067500Y-88657776D01*
%TO.C,R42*%
X123092800Y-128946264D02*
X123092800Y-127492136D01*
X124912800Y-128946264D02*
X124912800Y-127492136D01*
%TO.C,D3*%
X118482500Y-125440000D02*
X119132500Y-125440000D01*
X118482500Y-122320000D02*
X116807500Y-122320000D01*
X118482500Y-122320000D02*
X119132500Y-122320000D01*
X118482500Y-125440000D02*
X117832500Y-125440000D01*
%TO.C,R28*%
X108445276Y-100677500D02*
X108954724Y-100677500D01*
X108445276Y-101722500D02*
X108954724Y-101722500D01*
%TO.C,R10*%
X126912500Y-87604724D02*
X126912500Y-87095276D01*
X125867500Y-87604724D02*
X125867500Y-87095276D01*
%TO.C,R27*%
X118254724Y-99722500D02*
X117745276Y-99722500D01*
X118254724Y-98677500D02*
X117745276Y-98677500D01*
%TO.C,R34*%
X125115000Y-63227064D02*
X125115000Y-61772936D01*
X126935000Y-63227064D02*
X126935000Y-61772936D01*
%TO.C,C12*%
X99674165Y-127980000D02*
X99905835Y-127980000D01*
X99674165Y-128700000D02*
X99905835Y-128700000D01*
%TO.C,C2*%
X115096665Y-56880000D02*
X115328335Y-56880000D01*
X115096665Y-56160000D02*
X115328335Y-56160000D01*
%TO.C,C22*%
X102722000Y-66178165D02*
X102722000Y-66409835D01*
X102002000Y-66178165D02*
X102002000Y-66409835D01*
%TO.C,R17*%
X124347776Y-123387500D02*
X124857224Y-123387500D01*
X124347776Y-124432500D02*
X124857224Y-124432500D01*
%TO.C,R21*%
X129525000Y-121624724D02*
X129525000Y-121115276D01*
X128480000Y-121624724D02*
X128480000Y-121115276D01*
%TO.C,R5*%
X127235276Y-58452500D02*
X127744724Y-58452500D01*
X127235276Y-57407500D02*
X127744724Y-57407500D01*
%TO.C,C23*%
X102468000Y-133724165D02*
X102468000Y-133955835D01*
X101748000Y-133724165D02*
X101748000Y-133955835D01*
%TO.C,J1*%
X130580000Y-58410000D02*
X131080000Y-58160000D01*
X130580000Y-57910000D02*
X130580000Y-58410000D01*
X131080000Y-58160000D02*
X130580000Y-57910000D01*
%TO.C,D6*%
X118500000Y-129060000D02*
X120175000Y-129060000D01*
X118500000Y-129060000D02*
X117850000Y-129060000D01*
X118500000Y-125940000D02*
X119150000Y-125940000D01*
X118500000Y-125940000D02*
X117850000Y-125940000D01*
%TO.C,R22*%
X112727064Y-66265000D02*
X112272936Y-66265000D01*
X112727064Y-67735000D02*
X112272936Y-67735000D01*
%TO.C,C4*%
X109384165Y-88140000D02*
X109615835Y-88140000D01*
X109384165Y-87420000D02*
X109615835Y-87420000D01*
%TO.C,C16*%
X108740000Y-99015835D02*
X108740000Y-98784165D01*
X109460000Y-99015835D02*
X109460000Y-98784165D01*
%TO.C,R4*%
X127042500Y-55624724D02*
X127042500Y-55115276D01*
X125997500Y-55624724D02*
X125997500Y-55115276D01*
%TO.C,C18*%
X121515835Y-98740000D02*
X121284165Y-98740000D01*
X121515835Y-99460000D02*
X121284165Y-99460000D01*
%TO.C,R3*%
X125172500Y-57264724D02*
X125172500Y-56755276D01*
X124127500Y-57264724D02*
X124127500Y-56755276D01*
%TO.C,R18*%
X124950000Y-121634724D02*
X124950000Y-121125276D01*
X125995000Y-121634724D02*
X125995000Y-121125276D01*
%TO.C,R12*%
X128882500Y-87604724D02*
X128882500Y-87095276D01*
X127837500Y-87604724D02*
X127837500Y-87095276D01*
%TO.C,C17*%
X115040000Y-98815835D02*
X115040000Y-98584165D01*
X115760000Y-98815835D02*
X115760000Y-98584165D01*
%TO.C,R7*%
X110137064Y-90325000D02*
X109682936Y-90325000D01*
X110137064Y-88855000D02*
X109682936Y-88855000D01*
%TO.C,C21*%
X121305835Y-132510000D02*
X121074165Y-132510000D01*
X121305835Y-133230000D02*
X121074165Y-133230000D01*
%TO.C,R14*%
X115017224Y-124422500D02*
X114507776Y-124422500D01*
X115017224Y-123377500D02*
X114507776Y-123377500D01*
%TO.C,J3*%
X97790000Y-99120000D02*
X97790000Y-96460000D01*
X97790000Y-96460000D02*
X100390000Y-96460000D01*
X95190000Y-99120000D02*
X95190000Y-97790000D01*
X100390000Y-99120000D02*
X100390000Y-96460000D01*
X96520000Y-99120000D02*
X95190000Y-99120000D01*
X97790000Y-99120000D02*
X100390000Y-99120000D01*
%TO.C,R13*%
X109579564Y-124305000D02*
X109125436Y-124305000D01*
X109579564Y-122835000D02*
X109125436Y-122835000D01*
%TO.C,J2*%
X97790000Y-62170000D02*
X100390000Y-62170000D01*
X97790000Y-64830000D02*
X100390000Y-64830000D01*
X96520000Y-64830000D02*
X95190000Y-64830000D01*
X100390000Y-64830000D02*
X100390000Y-62170000D01*
X97790000Y-64830000D02*
X97790000Y-62170000D01*
X95190000Y-64830000D02*
X95190000Y-63500000D01*
%TO.C,R30*%
X112227064Y-133235000D02*
X111772936Y-133235000D01*
X112227064Y-131765000D02*
X111772936Y-131765000D01*
%TO.C,R8*%
X115744724Y-89417500D02*
X115235276Y-89417500D01*
X115744724Y-90462500D02*
X115235276Y-90462500D01*
%TO.C,J6*%
X130290000Y-124000000D02*
X130790000Y-123750000D01*
X130790000Y-123750000D02*
X130290000Y-123500000D01*
X130290000Y-123500000D02*
X130290000Y-124000000D01*
%TO.C,R24*%
X108745276Y-69356500D02*
X109254724Y-69356500D01*
X108745276Y-68311500D02*
X109254724Y-68311500D01*
%TO.C,C5*%
X114926665Y-88950000D02*
X115158335Y-88950000D01*
X114926665Y-88230000D02*
X115158335Y-88230000D01*
%TO.C,C25*%
X102002000Y-70219835D02*
X102002000Y-69988165D01*
X102722000Y-70219835D02*
X102722000Y-69988165D01*
%TO.C,R2*%
X115984724Y-58562500D02*
X115475276Y-58562500D01*
X115984724Y-57517500D02*
X115475276Y-57517500D01*
%TO.C,R44*%
X125256936Y-133659200D02*
X126711064Y-133659200D01*
X125256936Y-135479200D02*
X126711064Y-135479200D01*
%TO.C,C24*%
X102722000Y-100468165D02*
X102722000Y-100699835D01*
X102002000Y-100468165D02*
X102002000Y-100699835D01*
%TO.C,C19*%
X109220000Y-132000000D02*
X109220000Y-131768330D01*
X108500000Y-132000000D02*
X108500000Y-131768330D01*
%TO.C,D5*%
X119200000Y-91940000D02*
X119850000Y-91940000D01*
X119200000Y-91940000D02*
X118550000Y-91940000D01*
X119200000Y-95060000D02*
X120875000Y-95060000D01*
X119200000Y-95060000D02*
X118550000Y-95060000D01*
%TO.C,R20*%
X127847776Y-123367500D02*
X128357224Y-123367500D01*
X127847776Y-124412500D02*
X128357224Y-124412500D01*
%TO.C,R35*%
X124585000Y-63227064D02*
X124585000Y-61772936D01*
X122765000Y-63227064D02*
X122765000Y-61772936D01*
%TO.C,R39*%
X125365000Y-94802064D02*
X125365000Y-93347936D01*
X127185000Y-94802064D02*
X127185000Y-93347936D01*
%TO.C,C8*%
X114066665Y-122890000D02*
X114298335Y-122890000D01*
X114066665Y-122170000D02*
X114298335Y-122170000D01*
%TO.C,R23*%
X118304724Y-67492500D02*
X117795276Y-67492500D01*
X118304724Y-66447500D02*
X117795276Y-66447500D01*
%TO.C,D2*%
X119290000Y-91450000D02*
X118640000Y-91450000D01*
X119290000Y-88330000D02*
X119940000Y-88330000D01*
X119290000Y-88330000D02*
X117615000Y-88330000D01*
X119290000Y-91450000D02*
X119940000Y-91450000D01*
%TO.C,R37*%
X129635000Y-94802064D02*
X129635000Y-93347936D01*
X127815000Y-94802064D02*
X127815000Y-93347936D01*
%TO.C,D4*%
X119410000Y-63170000D02*
X118760000Y-63170000D01*
X119410000Y-63170000D02*
X121085000Y-63170000D01*
X119410000Y-60050000D02*
X118760000Y-60050000D01*
X119410000Y-60050000D02*
X120060000Y-60050000D01*
%TO.C,C3*%
X122524165Y-58370000D02*
X122755835Y-58370000D01*
X122524165Y-57650000D02*
X122755835Y-57650000D01*
%TO.C,R31*%
X117914724Y-133582500D02*
X117405276Y-133582500D01*
X117914724Y-132537500D02*
X117405276Y-132537500D01*
%TO.C,J4*%
X129927500Y-90250000D02*
X130427500Y-90000000D01*
X130427500Y-90000000D02*
X129927500Y-89750000D01*
X129927500Y-89750000D02*
X129927500Y-90250000D01*
%TO.C,R40*%
X126897936Y-67865000D02*
X128352064Y-67865000D01*
X126897936Y-69685000D02*
X128352064Y-69685000D01*
%TO.C,C9*%
X121506665Y-124230000D02*
X121738335Y-124230000D01*
X121506665Y-123510000D02*
X121738335Y-123510000D01*
%TO.C,D1*%
X119420000Y-56440000D02*
X120070000Y-56440000D01*
X119420000Y-59560000D02*
X118770000Y-59560000D01*
X119420000Y-56440000D02*
X117745000Y-56440000D01*
X119420000Y-59560000D02*
X120070000Y-59560000D01*
%TO.C,C7*%
X108766665Y-121460000D02*
X108998335Y-121460000D01*
X108766665Y-122180000D02*
X108998335Y-122180000D01*
%TO.C,R16*%
X124275000Y-121564724D02*
X124275000Y-121055276D01*
X123230000Y-121564724D02*
X123230000Y-121055276D01*
%TO.C,R38*%
X123015000Y-94852064D02*
X123015000Y-93397936D01*
X124835000Y-94852064D02*
X124835000Y-93397936D01*
%TO.C,J10*%
X95190000Y-69910000D02*
X95190000Y-68580000D01*
X96520000Y-69910000D02*
X95190000Y-69910000D01*
X97790000Y-69910000D02*
X100390000Y-69910000D01*
X97790000Y-67250000D02*
X100390000Y-67250000D01*
X100390000Y-69910000D02*
X100390000Y-67250000D01*
X97790000Y-69910000D02*
X97790000Y-67250000D01*
%TO.C,J5*%
X97790000Y-132140000D02*
X100390000Y-132140000D01*
X97790000Y-129480000D02*
X100390000Y-129480000D01*
X96520000Y-132140000D02*
X95190000Y-132140000D01*
X97790000Y-132140000D02*
X97790000Y-129480000D01*
X95190000Y-132140000D02*
X95190000Y-130810000D01*
X100390000Y-132140000D02*
X100390000Y-129480000D01*
%TD*%
%LPC*%
D12*
%TO.C,R11*%
X126477500Y-89890000D03*
X128302500Y-89890000D03*
%TD*%
D13*
%TO.C,C6*%
X121942500Y-89890000D03*
X123077500Y-89890000D03*
%TD*%
D14*
%TO.C,R1*%
X111480000Y-57840000D03*
X109480000Y-57840000D03*
%TD*%
D15*
%TO.C,R41*%
X126450000Y-100350000D03*
X129550000Y-100350000D03*
%TD*%
D12*
%TO.C,R33*%
X120187500Y-131220000D03*
X122012500Y-131220000D03*
%TD*%
D14*
%TO.C,R26*%
X113200000Y-98900000D03*
X111200000Y-98900000D03*
%TD*%
D12*
%TO.C,R32*%
X108053500Y-134620000D03*
X109878500Y-134620000D03*
%TD*%
D16*
%TO.C,R36*%
X128425000Y-64000000D03*
X128425000Y-60900000D03*
%TD*%
D17*
%TO.C,RV1*%
X114770000Y-61800000D03*
X112230000Y-61800000D03*
X109690000Y-61800000D03*
%TD*%
D18*
%TO.C,J12*%
X96520000Y-135950000D03*
D19*
X99060000Y-135950000D03*
%TD*%
D18*
%TO.C,J7*%
X96520000Y-66040000D03*
D19*
X99060000Y-66040000D03*
%TD*%
D17*
%TO.C,RV2*%
X114270000Y-93600000D03*
X111730000Y-93600000D03*
X109190000Y-93600000D03*
%TD*%
D16*
%TO.C,R43*%
X126339600Y-129718400D03*
X126339600Y-126618400D03*
%TD*%
D20*
%TO.C,R15*%
X122042500Y-122192500D03*
X122042500Y-120367500D03*
%TD*%
D18*
%TO.C,J8*%
X96520000Y-100330000D03*
D19*
X99060000Y-100330000D03*
%TD*%
D13*
%TO.C,C11*%
X99152500Y-95080000D03*
X100287500Y-95080000D03*
%TD*%
D21*
%TO.C,C20*%
X115000000Y-133067500D03*
X115000000Y-131932500D03*
%TD*%
%TO.C,C26*%
X102362000Y-103567500D03*
X102362000Y-102432500D03*
%TD*%
D20*
%TO.C,R19*%
X127162500Y-122302500D03*
X127162500Y-120477500D03*
%TD*%
D17*
%TO.C,RV3*%
X113692500Y-127450000D03*
X111152500Y-127450000D03*
X108612500Y-127450000D03*
%TD*%
D20*
%TO.C,R6*%
X128440000Y-56302500D03*
X128440000Y-54477500D03*
%TD*%
D21*
%TO.C,C27*%
X102362000Y-137473500D03*
X102362000Y-136338500D03*
%TD*%
D16*
%TO.C,R45*%
X128727200Y-129667600D03*
X128727200Y-126567600D03*
%TD*%
D21*
%TO.C,C13*%
X109000000Y-67067500D03*
X109000000Y-65932500D03*
%TD*%
D22*
%TO.C,C15*%
X122233500Y-67564000D03*
X121098500Y-67564000D03*
%TD*%
D21*
%TO.C,C14*%
X115500000Y-67567500D03*
X115500000Y-66432500D03*
%TD*%
D12*
%TO.C,R29*%
X120675000Y-97400000D03*
X122500000Y-97400000D03*
%TD*%
D18*
%TO.C,J9*%
X96520000Y-133451600D03*
D19*
X99060000Y-133451600D03*
%TD*%
D13*
%TO.C,C10*%
X99365000Y-61000000D03*
X100500000Y-61000000D03*
%TD*%
D18*
%TO.C,J11*%
X96520000Y-102870000D03*
D19*
X99060000Y-102870000D03*
%TD*%
D13*
%TO.C,C1*%
X109412500Y-56050000D03*
X110547500Y-56050000D03*
%TD*%
D12*
%TO.C,R25*%
X121007500Y-65849000D03*
X122832500Y-65849000D03*
%TD*%
D20*
%TO.C,R9*%
X124590000Y-89825000D03*
X124590000Y-88000000D03*
%TD*%
D16*
%TO.C,R42*%
X124002800Y-129769200D03*
X124002800Y-126669200D03*
%TD*%
D23*
%TO.C,D3*%
X117545000Y-122930000D03*
X117545000Y-124830000D03*
X119420000Y-123880000D03*
%TD*%
D12*
%TO.C,R28*%
X107787500Y-101200000D03*
X109612500Y-101200000D03*
%TD*%
D20*
%TO.C,R10*%
X126390000Y-88262500D03*
X126390000Y-86437500D03*
%TD*%
D24*
%TO.C,R27*%
X118912500Y-99200000D03*
X117087500Y-99200000D03*
%TD*%
D16*
%TO.C,R34*%
X126025000Y-64050000D03*
X126025000Y-60950000D03*
%TD*%
D13*
%TO.C,C12*%
X99222500Y-128340000D03*
X100357500Y-128340000D03*
%TD*%
%TO.C,C2*%
X114645000Y-56520000D03*
X115780000Y-56520000D03*
%TD*%
D25*
%TO.C,C22*%
X102362000Y-65726500D03*
X102362000Y-66861500D03*
%TD*%
D12*
%TO.C,R17*%
X123690000Y-123910000D03*
X125515000Y-123910000D03*
%TD*%
D20*
%TO.C,R21*%
X129002500Y-122282500D03*
X129002500Y-120457500D03*
%TD*%
D12*
%TO.C,R5*%
X126577500Y-57930000D03*
X128402500Y-57930000D03*
%TD*%
D25*
%TO.C,C23*%
X102108000Y-133272500D03*
X102108000Y-134407500D03*
%TD*%
D26*
%TO.C,J1*%
X134290000Y-58160000D03*
X134290000Y-53910000D03*
X134290000Y-62410000D03*
%TD*%
D27*
%TO.C,D6*%
X119437500Y-128450000D03*
X119437500Y-126550000D03*
X117562500Y-127500000D03*
%TD*%
D14*
%TO.C,R22*%
X113500000Y-67000000D03*
X111500000Y-67000000D03*
%TD*%
D13*
%TO.C,C4*%
X108932500Y-87780000D03*
X110067500Y-87780000D03*
%TD*%
D21*
%TO.C,C16*%
X109100000Y-99467500D03*
X109100000Y-98332500D03*
%TD*%
D20*
%TO.C,R4*%
X126520000Y-56282500D03*
X126520000Y-54457500D03*
%TD*%
D22*
%TO.C,C18*%
X121967500Y-99100000D03*
X120832500Y-99100000D03*
%TD*%
D20*
%TO.C,R3*%
X124650000Y-57922500D03*
X124650000Y-56097500D03*
%TD*%
%TO.C,R18*%
X125472500Y-122292500D03*
X125472500Y-120467500D03*
%TD*%
%TO.C,R12*%
X128360000Y-88262500D03*
X128360000Y-86437500D03*
%TD*%
D21*
%TO.C,C17*%
X115400000Y-99267500D03*
X115400000Y-98132500D03*
%TD*%
D14*
%TO.C,R7*%
X110910000Y-89590000D03*
X108910000Y-89590000D03*
%TD*%
D22*
%TO.C,C21*%
X121757500Y-132870000D03*
X120622500Y-132870000D03*
%TD*%
D24*
%TO.C,R14*%
X115675000Y-123900000D03*
X113850000Y-123900000D03*
%TD*%
D18*
%TO.C,J3*%
X96520000Y-97790000D03*
D19*
X99060000Y-97790000D03*
%TD*%
D14*
%TO.C,R13*%
X110352500Y-123570000D03*
X108352500Y-123570000D03*
%TD*%
D18*
%TO.C,J2*%
X96520000Y-63500000D03*
D19*
X99060000Y-63500000D03*
%TD*%
D14*
%TO.C,R30*%
X113000000Y-132500000D03*
X111000000Y-132500000D03*
%TD*%
D24*
%TO.C,R8*%
X116402500Y-89940000D03*
X114577500Y-89940000D03*
%TD*%
D26*
%TO.C,J6*%
X134000000Y-123750000D03*
X134000000Y-119500000D03*
X134000000Y-128000000D03*
%TD*%
D12*
%TO.C,R24*%
X108087500Y-68834000D03*
X109912500Y-68834000D03*
%TD*%
D13*
%TO.C,C5*%
X114475000Y-88590000D03*
X115610000Y-88590000D03*
%TD*%
D21*
%TO.C,C25*%
X102362000Y-70671500D03*
X102362000Y-69536500D03*
%TD*%
D24*
%TO.C,R2*%
X116642500Y-58040000D03*
X114817500Y-58040000D03*
%TD*%
D15*
%TO.C,R44*%
X124434000Y-134569200D03*
X127534000Y-134569200D03*
%TD*%
D25*
%TO.C,C24*%
X102362000Y-100016500D03*
X102362000Y-101151500D03*
%TD*%
D21*
%TO.C,C19*%
X108860000Y-132451665D03*
X108860000Y-131316665D03*
%TD*%
D27*
%TO.C,D5*%
X120137500Y-94450000D03*
X120137500Y-92550000D03*
X118262500Y-93500000D03*
%TD*%
D12*
%TO.C,R20*%
X127190000Y-123890000D03*
X129015000Y-123890000D03*
%TD*%
D16*
%TO.C,R35*%
X123675000Y-64050000D03*
X123675000Y-60950000D03*
%TD*%
%TO.C,R39*%
X126275000Y-95625000D03*
X126275000Y-92525000D03*
%TD*%
D13*
%TO.C,C8*%
X113615000Y-122530000D03*
X114750000Y-122530000D03*
%TD*%
D24*
%TO.C,R23*%
X118962500Y-66970000D03*
X117137500Y-66970000D03*
%TD*%
D23*
%TO.C,D2*%
X118352500Y-88940000D03*
X118352500Y-90840000D03*
X120227500Y-89890000D03*
%TD*%
D16*
%TO.C,R37*%
X128725000Y-95625000D03*
X128725000Y-92525000D03*
%TD*%
D27*
%TO.C,D4*%
X120347500Y-62560000D03*
X120347500Y-60660000D03*
X118472500Y-61610000D03*
%TD*%
D13*
%TO.C,C3*%
X122072500Y-58010000D03*
X123207500Y-58010000D03*
%TD*%
D24*
%TO.C,R31*%
X118572500Y-133060000D03*
X116747500Y-133060000D03*
%TD*%
D26*
%TO.C,J4*%
X133637500Y-90000000D03*
X133637500Y-85750000D03*
X133637500Y-94250000D03*
%TD*%
D15*
%TO.C,R40*%
X126075000Y-68775000D03*
X129175000Y-68775000D03*
%TD*%
D13*
%TO.C,C9*%
X121055000Y-123870000D03*
X122190000Y-123870000D03*
%TD*%
D23*
%TO.C,D1*%
X118482500Y-57050000D03*
X118482500Y-58950000D03*
X120357500Y-58000000D03*
%TD*%
D13*
%TO.C,C7*%
X108315000Y-121820000D03*
X109450000Y-121820000D03*
%TD*%
D20*
%TO.C,R16*%
X123752500Y-122222500D03*
X123752500Y-120397500D03*
%TD*%
D16*
%TO.C,R38*%
X123925000Y-95675000D03*
X123925000Y-92575000D03*
%TD*%
D18*
%TO.C,J10*%
X96520000Y-68580000D03*
D19*
X99060000Y-68580000D03*
%TD*%
D18*
%TO.C,J5*%
X96520000Y-130810000D03*
D19*
X99060000Y-130810000D03*
%TD*%
G36*
X105942121Y-138520002D02*
G01*
X105988614Y-138573658D01*
X106000000Y-138626000D01*
X106000000Y-139981885D01*
X106004475Y-139997124D01*
X106005865Y-139998329D01*
X106013548Y-140000000D01*
X106128000Y-140000000D01*
X106196121Y-140020002D01*
X106242614Y-140073658D01*
X106254000Y-140126000D01*
X106254000Y-143874000D01*
X106233998Y-143942121D01*
X106180342Y-143988614D01*
X106128000Y-144000000D01*
X102872000Y-144000000D01*
X102803879Y-143979998D01*
X102757386Y-143926342D01*
X102746000Y-143874000D01*
X102746000Y-140126000D01*
X102766002Y-140057879D01*
X102819658Y-140011386D01*
X102872000Y-140000000D01*
X102981885Y-140000000D01*
X102997124Y-139995525D01*
X102998329Y-139994135D01*
X103000000Y-139986452D01*
X103000000Y-138626000D01*
X103020002Y-138557879D01*
X103073658Y-138511386D01*
X103126000Y-138500000D01*
X105874000Y-138500000D01*
X105942121Y-138520002D01*
G37*
G36*
X105942121Y-59020002D02*
G01*
X105988614Y-59073658D01*
X106000000Y-59126000D01*
X106000000Y-66374000D01*
X105979998Y-66442121D01*
X105926342Y-66488614D01*
X105874000Y-66500000D01*
X103126000Y-66500000D01*
X103057879Y-66479998D01*
X103011386Y-66426342D01*
X103000000Y-66374000D01*
X103000000Y-59126000D01*
X103020002Y-59057879D01*
X103073658Y-59011386D01*
X103126000Y-59000000D01*
X105874000Y-59000000D01*
X105942121Y-59020002D01*
G37*
G36*
X93196121Y-46020002D02*
G01*
X93242614Y-46073658D01*
X93254000Y-46126000D01*
X93254000Y-50874000D01*
X93233998Y-50942121D01*
X93180342Y-50988614D01*
X93128000Y-51000000D01*
X93018115Y-51000000D01*
X93002876Y-51004475D01*
X93001671Y-51005865D01*
X93000000Y-51013548D01*
X93000000Y-139981885D01*
X93004475Y-139997124D01*
X93005865Y-139998329D01*
X93013548Y-140000000D01*
X93128000Y-140000000D01*
X93196121Y-140020002D01*
X93242614Y-140073658D01*
X93254000Y-140126000D01*
X93254000Y-143874000D01*
X93233998Y-143942121D01*
X93180342Y-143988614D01*
X93128000Y-144000000D01*
X90126000Y-144000000D01*
X90057879Y-143979998D01*
X90011386Y-143926342D01*
X90000000Y-143874000D01*
X90000000Y-46126000D01*
X90020002Y-46057879D01*
X90073658Y-46011386D01*
X90126000Y-46000000D01*
X93128000Y-46000000D01*
X93196121Y-46020002D01*
G37*
G36*
X106196121Y-46020002D02*
G01*
X106242614Y-46073658D01*
X106254000Y-46126000D01*
X106254000Y-50874000D01*
X106233998Y-50942121D01*
X106180342Y-50988614D01*
X106128000Y-51000000D01*
X106018115Y-51000000D01*
X106002876Y-51004475D01*
X106001671Y-51005865D01*
X106000000Y-51013548D01*
X106000000Y-56624000D01*
X105979998Y-56692121D01*
X105926342Y-56738614D01*
X105874000Y-56750000D01*
X103126000Y-56750000D01*
X103057879Y-56729998D01*
X103011386Y-56676342D01*
X103000000Y-56624000D01*
X103000000Y-51018115D01*
X102995525Y-51002876D01*
X102994135Y-51001671D01*
X102986452Y-51000000D01*
X102872000Y-51000000D01*
X102803879Y-50979998D01*
X102757386Y-50926342D01*
X102746000Y-50874000D01*
X102746000Y-46126000D01*
X102766002Y-46057879D01*
X102819658Y-46011386D01*
X102872000Y-46000000D01*
X106128000Y-46000000D01*
X106196121Y-46020002D01*
G37*
G36*
X105942121Y-104520002D02*
G01*
X105988614Y-104573658D01*
X106000000Y-104626000D01*
X106000000Y-122374000D01*
X105979998Y-122442121D01*
X105926342Y-122488614D01*
X105874000Y-122500000D01*
X103126000Y-122500000D01*
X103057879Y-122479998D01*
X103011386Y-122426342D01*
X103000000Y-122374000D01*
X103000000Y-104626000D01*
X103020002Y-104557879D01*
X103073658Y-104511386D01*
X103126000Y-104500000D01*
X105874000Y-104500000D01*
X105942121Y-104520002D01*
G37*
G36*
X105942121Y-71520002D02*
G01*
X105988614Y-71573658D01*
X106000000Y-71626000D01*
X106000000Y-88374000D01*
X105979998Y-88442121D01*
X105926342Y-88488614D01*
X105874000Y-88500000D01*
X103126000Y-88500000D01*
X103057879Y-88479998D01*
X103011386Y-88426342D01*
X103000000Y-88374000D01*
X103000000Y-71626000D01*
X103020002Y-71557879D01*
X103073658Y-71511386D01*
X103126000Y-71500000D01*
X105874000Y-71500000D01*
X105942121Y-71520002D01*
G37*
G36*
X92942121Y-106266002D02*
G01*
X92988614Y-106319658D01*
X93000000Y-106372000D01*
X93000000Y-106481885D01*
X93004475Y-106497124D01*
X93005865Y-106498329D01*
X93013548Y-106500000D01*
X131481885Y-106500000D01*
X131497124Y-106495525D01*
X131498329Y-106494135D01*
X131500000Y-106486452D01*
X131500000Y-106372000D01*
X131520002Y-106303879D01*
X131573658Y-106257386D01*
X131626000Y-106246000D01*
X136874000Y-106246000D01*
X136942121Y-106266002D01*
X136988614Y-106319658D01*
X137000000Y-106372000D01*
X137000000Y-115128000D01*
X136979998Y-115196121D01*
X136926342Y-115242614D01*
X136874000Y-115254000D01*
X131626000Y-115254000D01*
X131557879Y-115233998D01*
X131511386Y-115180342D01*
X131500000Y-115128000D01*
X131500000Y-115018115D01*
X131495525Y-115002876D01*
X131494135Y-115001671D01*
X131486452Y-115000000D01*
X93018115Y-115000000D01*
X93002876Y-115004475D01*
X93001671Y-115005865D01*
X93000000Y-115013548D01*
X93000000Y-115128000D01*
X92979998Y-115196121D01*
X92926342Y-115242614D01*
X92874000Y-115254000D01*
X90126000Y-115254000D01*
X90057879Y-115233998D01*
X90011386Y-115180342D01*
X90000000Y-115128000D01*
X90000000Y-106372000D01*
X90020002Y-106303879D01*
X90073658Y-106257386D01*
X90126000Y-106246000D01*
X92874000Y-106246000D01*
X92942121Y-106266002D01*
G37*
G36*
X92942121Y-139766002D02*
G01*
X92988614Y-139819658D01*
X93000000Y-139872000D01*
X93000000Y-139981885D01*
X93004475Y-139997124D01*
X93005865Y-139998329D01*
X93013548Y-140000000D01*
X131481885Y-140000000D01*
X131497124Y-139995525D01*
X131498329Y-139994135D01*
X131500000Y-139986452D01*
X131500000Y-139872000D01*
X131520002Y-139803879D01*
X131573658Y-139757386D01*
X131626000Y-139746000D01*
X136874000Y-139746000D01*
X136942121Y-139766002D01*
X136988614Y-139819658D01*
X137000000Y-139872000D01*
X137000000Y-143874000D01*
X136979998Y-143942121D01*
X136926342Y-143988614D01*
X136874000Y-144000000D01*
X90126000Y-144000000D01*
X90057879Y-143979998D01*
X90011386Y-143926342D01*
X90000000Y-143874000D01*
X90000000Y-139872000D01*
X90020002Y-139803879D01*
X90073658Y-139757386D01*
X90126000Y-139746000D01*
X92874000Y-139746000D01*
X92942121Y-139766002D01*
G37*
G36*
X136942121Y-46020002D02*
G01*
X136988614Y-46073658D01*
X137000000Y-46126000D01*
X137000000Y-51128000D01*
X136979998Y-51196121D01*
X136926342Y-51242614D01*
X136874000Y-51254000D01*
X131626000Y-51254000D01*
X131557879Y-51233998D01*
X131511386Y-51180342D01*
X131500000Y-51128000D01*
X131500000Y-51018115D01*
X131495525Y-51002876D01*
X131494135Y-51001671D01*
X131486452Y-51000000D01*
X93018115Y-51000000D01*
X93002876Y-51004475D01*
X93001671Y-51005865D01*
X93000000Y-51013548D01*
X93000000Y-51128000D01*
X92979998Y-51196121D01*
X92926342Y-51242614D01*
X92874000Y-51254000D01*
X90126000Y-51254000D01*
X90057879Y-51233998D01*
X90011386Y-51180342D01*
X90000000Y-51128000D01*
X90000000Y-46126000D01*
X90020002Y-46057879D01*
X90073658Y-46011386D01*
X90126000Y-46000000D01*
X136874000Y-46000000D01*
X136942121Y-46020002D01*
G37*
G36*
X136942121Y-129020002D02*
G01*
X136988614Y-129073658D01*
X137000000Y-129126000D01*
X137000000Y-143874000D01*
X136979998Y-143942121D01*
X136926342Y-143988614D01*
X136874000Y-144000000D01*
X131372000Y-144000000D01*
X131303879Y-143979998D01*
X131257386Y-143926342D01*
X131246000Y-143874000D01*
X131246000Y-140126000D01*
X131266002Y-140057879D01*
X131319658Y-140011386D01*
X131372000Y-140000000D01*
X131481885Y-140000000D01*
X131497124Y-139995525D01*
X131498329Y-139994135D01*
X131500000Y-139986452D01*
X131500000Y-129126000D01*
X131520002Y-129057879D01*
X131573658Y-129011386D01*
X131626000Y-129000000D01*
X136874000Y-129000000D01*
X136942121Y-129020002D01*
G37*
G36*
X92942121Y-72766002D02*
G01*
X92988614Y-72819658D01*
X93000000Y-72872000D01*
X93000000Y-72981885D01*
X93004475Y-72997124D01*
X93005865Y-72998329D01*
X93013548Y-73000000D01*
X131481885Y-73000000D01*
X131497124Y-72995525D01*
X131498329Y-72994135D01*
X131500000Y-72986452D01*
X131500000Y-72872000D01*
X131520002Y-72803879D01*
X131573658Y-72757386D01*
X131626000Y-72746000D01*
X136874000Y-72746000D01*
X136942121Y-72766002D01*
X136988614Y-72819658D01*
X137000000Y-72872000D01*
X137000000Y-82128000D01*
X136979998Y-82196121D01*
X136926342Y-82242614D01*
X136874000Y-82254000D01*
X131626000Y-82254000D01*
X131557879Y-82233998D01*
X131511386Y-82180342D01*
X131500000Y-82128000D01*
X131500000Y-82018115D01*
X131495525Y-82002876D01*
X131494135Y-82001671D01*
X131486452Y-82000000D01*
X93018115Y-82000000D01*
X93002876Y-82004475D01*
X93001671Y-82005865D01*
X93000000Y-82013548D01*
X93000000Y-82128000D01*
X92979998Y-82196121D01*
X92926342Y-82242614D01*
X92874000Y-82254000D01*
X90126000Y-82254000D01*
X90057879Y-82233998D01*
X90011386Y-82180342D01*
X90000000Y-82128000D01*
X90000000Y-72872000D01*
X90020002Y-72803879D01*
X90073658Y-72757386D01*
X90126000Y-72746000D01*
X92874000Y-72746000D01*
X92942121Y-72766002D01*
G37*
G36*
X136942121Y-95020002D02*
G01*
X136988614Y-95073658D01*
X137000000Y-95126000D01*
X137000000Y-117874000D01*
X136979998Y-117942121D01*
X136926342Y-117988614D01*
X136874000Y-118000000D01*
X131626000Y-118000000D01*
X131557879Y-117979998D01*
X131511386Y-117926342D01*
X131500000Y-117874000D01*
X131500000Y-95126000D01*
X131520002Y-95057879D01*
X131573658Y-95011386D01*
X131626000Y-95000000D01*
X136874000Y-95000000D01*
X136942121Y-95020002D01*
G37*
G36*
X136942121Y-64020002D02*
G01*
X136988614Y-64073658D01*
X137000000Y-64126000D01*
X137000000Y-83874000D01*
X136979998Y-83942121D01*
X136926342Y-83988614D01*
X136874000Y-84000000D01*
X131626000Y-84000000D01*
X131557879Y-83979998D01*
X131511386Y-83926342D01*
X131500000Y-83874000D01*
X131500000Y-64126000D01*
X131520002Y-64057879D01*
X131573658Y-64011386D01*
X131626000Y-64000000D01*
X136874000Y-64000000D01*
X136942121Y-64020002D01*
G37*
G36*
X136942121Y-46020002D02*
G01*
X136988614Y-46073658D01*
X137000000Y-46126000D01*
X137000000Y-54374000D01*
X136979998Y-54442121D01*
X136926342Y-54488614D01*
X136874000Y-54500000D01*
X131626000Y-54500000D01*
X131557879Y-54479998D01*
X131511386Y-54426342D01*
X131500000Y-54374000D01*
X131500000Y-51018115D01*
X131495525Y-51002876D01*
X131494135Y-51001671D01*
X131486452Y-51000000D01*
X131372000Y-51000000D01*
X131303879Y-50979998D01*
X131257386Y-50926342D01*
X131246000Y-50874000D01*
X131246000Y-46126000D01*
X131266002Y-46057879D01*
X131319658Y-46011386D01*
X131372000Y-46000000D01*
X136874000Y-46000000D01*
X136942121Y-46020002D01*
G37*
G36*
X105942121Y-90520002D02*
G01*
X105988614Y-90573658D01*
X106000000Y-90626000D01*
X106000000Y-99874000D01*
X105979998Y-99942121D01*
X105926342Y-99988614D01*
X105874000Y-100000000D01*
X103126000Y-100000000D01*
X103057879Y-99979998D01*
X103011386Y-99926342D01*
X103000000Y-99874000D01*
X103000000Y-90626000D01*
X103020002Y-90557879D01*
X103073658Y-90511386D01*
X103126000Y-90500000D01*
X105874000Y-90500000D01*
X105942121Y-90520002D01*
G37*
G36*
X105942121Y-124520002D02*
G01*
X105988614Y-124573658D01*
X106000000Y-124626000D01*
X106000000Y-133374000D01*
X105979998Y-133442121D01*
X105926342Y-133488614D01*
X105874000Y-133500000D01*
X102626000Y-133500000D01*
X102557879Y-133479998D01*
X102511386Y-133426342D01*
X102500000Y-133374000D01*
X102500000Y-124626000D01*
X102520002Y-124557879D01*
X102573658Y-124511386D01*
X102626000Y-124500000D01*
X105874000Y-124500000D01*
X105942121Y-124520002D01*
G37*
M02*
