%TF.GenerationSoftware,KiCad,Pcbnew,(6.0.11)*%
%TF.CreationDate,2023-07-10T20:07:27-05:00*%
%TF.ProjectId,SchottkyNoiseSource,5363686f-7474-46b7-994e-6f697365536f,rev?*%
%TF.SameCoordinates,Original*%
%TF.FileFunction,Legend,Top*%
%TF.FilePolarity,Positive*%
%FSLAX46Y46*%
G04 Gerber Fmt 4.6, Leading zero omitted, Abs format (unit mm)*
G04 Created by KiCad (PCBNEW (6.0.11)) date 2023-07-10 20:07:27*
%MOMM*%
%LPD*%
G01*
G04 APERTURE LIST*
G04 Aperture macros list*
%AMRoundRect*
0 Rectangle with rounded corners*
0 $1 Rounding radius*
0 $2 $3 $4 $5 $6 $7 $8 $9 X,Y pos of 4 corners*
0 Add a 4 corners polygon primitive as box body*
4,1,4,$2,$3,$4,$5,$6,$7,$8,$9,$2,$3,0*
0 Add four circle primitives for the rounded corners*
1,1,$1+$1,$2,$3*
1,1,$1+$1,$4,$5*
1,1,$1+$1,$6,$7*
1,1,$1+$1,$8,$9*
0 Add four rect primitives between the rounded corners*
20,1,$1+$1,$2,$3,$4,$5,0*
20,1,$1+$1,$4,$5,$6,$7,0*
20,1,$1+$1,$6,$7,$8,$9,0*
20,1,$1+$1,$8,$9,$2,$3,0*%
G04 Aperture macros list end*
%ADD10C,0.150000*%
%ADD11C,0.120000*%
%ADD12RoundRect,0.237500X-0.250000X-0.237500X0.250000X-0.237500X0.250000X0.237500X-0.250000X0.237500X0*%
%ADD13RoundRect,0.155000X-0.212500X-0.155000X0.212500X-0.155000X0.212500X0.155000X-0.212500X0.155000X0*%
%ADD14RoundRect,0.250000X0.350000X0.450000X-0.350000X0.450000X-0.350000X-0.450000X0.350000X-0.450000X0*%
%ADD15C,1.440000*%
%ADD16RoundRect,0.237500X0.237500X-0.250000X0.237500X0.250000X-0.237500X0.250000X-0.237500X-0.250000X0*%
%ADD17RoundRect,0.155000X0.155000X-0.212500X0.155000X0.212500X-0.155000X0.212500X-0.155000X-0.212500X0*%
%ADD18RoundRect,0.150000X-0.587500X-0.150000X0.587500X-0.150000X0.587500X0.150000X-0.587500X0.150000X0*%
%ADD19R,5.080000X1.500000*%
%ADD20RoundRect,0.237500X0.250000X0.237500X-0.250000X0.237500X-0.250000X-0.237500X0.250000X-0.237500X0*%
%ADD21R,3.000000X3.000000*%
%ADD22C,3.000000*%
G04 APERTURE END LIST*
D10*
X94000000Y-100000000D02*
X137000000Y-100000000D01*
X94000000Y-119000000D02*
X137000000Y-119000000D01*
X113331785Y-98404761D02*
X113474642Y-98452380D01*
X113712738Y-98452380D01*
X113807976Y-98404761D01*
X113855595Y-98357142D01*
X113903214Y-98261904D01*
X113903214Y-98166666D01*
X113855595Y-98071428D01*
X113807976Y-98023809D01*
X113712738Y-97976190D01*
X113522261Y-97928571D01*
X113427023Y-97880952D01*
X113379404Y-97833333D01*
X113331785Y-97738095D01*
X113331785Y-97642857D01*
X113379404Y-97547619D01*
X113427023Y-97500000D01*
X113522261Y-97452380D01*
X113760357Y-97452380D01*
X113903214Y-97500000D01*
X114760357Y-98404761D02*
X114665119Y-98452380D01*
X114474642Y-98452380D01*
X114379404Y-98404761D01*
X114331785Y-98357142D01*
X114284166Y-98261904D01*
X114284166Y-97976190D01*
X114331785Y-97880952D01*
X114379404Y-97833333D01*
X114474642Y-97785714D01*
X114665119Y-97785714D01*
X114760357Y-97833333D01*
X115188928Y-98452380D02*
X115188928Y-97452380D01*
X115617500Y-98452380D02*
X115617500Y-97928571D01*
X115569880Y-97833333D01*
X115474642Y-97785714D01*
X115331785Y-97785714D01*
X115236547Y-97833333D01*
X115188928Y-97880952D01*
X116236547Y-98452380D02*
X116141309Y-98404761D01*
X116093690Y-98357142D01*
X116046071Y-98261904D01*
X116046071Y-97976190D01*
X116093690Y-97880952D01*
X116141309Y-97833333D01*
X116236547Y-97785714D01*
X116379404Y-97785714D01*
X116474642Y-97833333D01*
X116522261Y-97880952D01*
X116569880Y-97976190D01*
X116569880Y-98261904D01*
X116522261Y-98357142D01*
X116474642Y-98404761D01*
X116379404Y-98452380D01*
X116236547Y-98452380D01*
X116855595Y-97785714D02*
X117236547Y-97785714D01*
X116998452Y-97452380D02*
X116998452Y-98309523D01*
X117046071Y-98404761D01*
X117141309Y-98452380D01*
X117236547Y-98452380D01*
X117427023Y-97785714D02*
X117807976Y-97785714D01*
X117569880Y-97452380D02*
X117569880Y-98309523D01*
X117617500Y-98404761D01*
X117712738Y-98452380D01*
X117807976Y-98452380D01*
X118141309Y-98452380D02*
X118141309Y-97452380D01*
X118236547Y-98071428D02*
X118522261Y-98452380D01*
X118522261Y-97785714D02*
X118141309Y-98166666D01*
X118855595Y-97785714D02*
X119093690Y-98452380D01*
X119331785Y-97785714D02*
X119093690Y-98452380D01*
X118998452Y-98690476D01*
X118950833Y-98738095D01*
X118855595Y-98785714D01*
X120474642Y-98452380D02*
X120474642Y-97452380D01*
X120712738Y-97452380D01*
X120855595Y-97500000D01*
X120950833Y-97595238D01*
X120998452Y-97690476D01*
X121046071Y-97880952D01*
X121046071Y-98023809D01*
X120998452Y-98214285D01*
X120950833Y-98309523D01*
X120855595Y-98404761D01*
X120712738Y-98452380D01*
X120474642Y-98452380D01*
X121474642Y-98452380D02*
X121474642Y-97785714D01*
X121474642Y-97452380D02*
X121427023Y-97500000D01*
X121474642Y-97547619D01*
X121522261Y-97500000D01*
X121474642Y-97452380D01*
X121474642Y-97547619D01*
X122093690Y-98452380D02*
X121998452Y-98404761D01*
X121950833Y-98357142D01*
X121903214Y-98261904D01*
X121903214Y-97976190D01*
X121950833Y-97880952D01*
X121998452Y-97833333D01*
X122093690Y-97785714D01*
X122236547Y-97785714D01*
X122331785Y-97833333D01*
X122379404Y-97880952D01*
X122427023Y-97976190D01*
X122427023Y-98261904D01*
X122379404Y-98357142D01*
X122331785Y-98404761D01*
X122236547Y-98452380D01*
X122093690Y-98452380D01*
X123284166Y-98452380D02*
X123284166Y-97452380D01*
X123284166Y-98404761D02*
X123188928Y-98452380D01*
X122998452Y-98452380D01*
X122903214Y-98404761D01*
X122855595Y-98357142D01*
X122807976Y-98261904D01*
X122807976Y-97976190D01*
X122855595Y-97880952D01*
X122903214Y-97833333D01*
X122998452Y-97785714D01*
X123188928Y-97785714D01*
X123284166Y-97833333D01*
X124141309Y-98404761D02*
X124046071Y-98452380D01*
X123855595Y-98452380D01*
X123760357Y-98404761D01*
X123712738Y-98309523D01*
X123712738Y-97928571D01*
X123760357Y-97833333D01*
X123855595Y-97785714D01*
X124046071Y-97785714D01*
X124141309Y-97833333D01*
X124188928Y-97928571D01*
X124188928Y-98023809D01*
X123712738Y-98119047D01*
X125379404Y-98452380D02*
X125379404Y-97452380D01*
X125950833Y-98452380D01*
X125950833Y-97452380D01*
X126569880Y-98452380D02*
X126474642Y-98404761D01*
X126427023Y-98357142D01*
X126379404Y-98261904D01*
X126379404Y-97976190D01*
X126427023Y-97880952D01*
X126474642Y-97833333D01*
X126569880Y-97785714D01*
X126712738Y-97785714D01*
X126807976Y-97833333D01*
X126855595Y-97880952D01*
X126903214Y-97976190D01*
X126903214Y-98261904D01*
X126855595Y-98357142D01*
X126807976Y-98404761D01*
X126712738Y-98452380D01*
X126569880Y-98452380D01*
X127331785Y-98452380D02*
X127331785Y-97785714D01*
X127331785Y-97452380D02*
X127284166Y-97500000D01*
X127331785Y-97547619D01*
X127379404Y-97500000D01*
X127331785Y-97452380D01*
X127331785Y-97547619D01*
X127760357Y-98404761D02*
X127855595Y-98452380D01*
X128046071Y-98452380D01*
X128141309Y-98404761D01*
X128188928Y-98309523D01*
X128188928Y-98261904D01*
X128141309Y-98166666D01*
X128046071Y-98119047D01*
X127903214Y-98119047D01*
X127807976Y-98071428D01*
X127760357Y-97976190D01*
X127760357Y-97928571D01*
X127807976Y-97833333D01*
X127903214Y-97785714D01*
X128046071Y-97785714D01*
X128141309Y-97833333D01*
X128998452Y-98404761D02*
X128903214Y-98452380D01*
X128712738Y-98452380D01*
X128617500Y-98404761D01*
X128569880Y-98309523D01*
X128569880Y-97928571D01*
X128617500Y-97833333D01*
X128712738Y-97785714D01*
X128903214Y-97785714D01*
X128998452Y-97833333D01*
X129046071Y-97928571D01*
X129046071Y-98023809D01*
X128569880Y-98119047D01*
X130188928Y-98404761D02*
X130331785Y-98452380D01*
X130569880Y-98452380D01*
X130665119Y-98404761D01*
X130712738Y-98357142D01*
X130760357Y-98261904D01*
X130760357Y-98166666D01*
X130712738Y-98071428D01*
X130665119Y-98023809D01*
X130569880Y-97976190D01*
X130379404Y-97928571D01*
X130284166Y-97880952D01*
X130236547Y-97833333D01*
X130188928Y-97738095D01*
X130188928Y-97642857D01*
X130236547Y-97547619D01*
X130284166Y-97500000D01*
X130379404Y-97452380D01*
X130617500Y-97452380D01*
X130760357Y-97500000D01*
X131331785Y-98452380D02*
X131236547Y-98404761D01*
X131188928Y-98357142D01*
X131141309Y-98261904D01*
X131141309Y-97976190D01*
X131188928Y-97880952D01*
X131236547Y-97833333D01*
X131331785Y-97785714D01*
X131474642Y-97785714D01*
X131569880Y-97833333D01*
X131617500Y-97880952D01*
X131665119Y-97976190D01*
X131665119Y-98261904D01*
X131617500Y-98357142D01*
X131569880Y-98404761D01*
X131474642Y-98452380D01*
X131331785Y-98452380D01*
X132522261Y-97785714D02*
X132522261Y-98452380D01*
X132093690Y-97785714D02*
X132093690Y-98309523D01*
X132141309Y-98404761D01*
X132236547Y-98452380D01*
X132379404Y-98452380D01*
X132474642Y-98404761D01*
X132522261Y-98357142D01*
X132998452Y-98452380D02*
X132998452Y-97785714D01*
X132998452Y-97976190D02*
X133046071Y-97880952D01*
X133093690Y-97833333D01*
X133188928Y-97785714D01*
X133284166Y-97785714D01*
X134046071Y-98404761D02*
X133950833Y-98452380D01*
X133760357Y-98452380D01*
X133665119Y-98404761D01*
X133617500Y-98357142D01*
X133569880Y-98261904D01*
X133569880Y-97976190D01*
X133617500Y-97880952D01*
X133665119Y-97833333D01*
X133760357Y-97785714D01*
X133950833Y-97785714D01*
X134046071Y-97833333D01*
X134855595Y-98404761D02*
X134760357Y-98452380D01*
X134569880Y-98452380D01*
X134474642Y-98404761D01*
X134427023Y-98309523D01*
X134427023Y-97928571D01*
X134474642Y-97833333D01*
X134569880Y-97785714D01*
X134760357Y-97785714D01*
X134855595Y-97833333D01*
X134903214Y-97928571D01*
X134903214Y-98023809D01*
X134427023Y-98119047D01*
X113214285Y-118404761D02*
X113357142Y-118452380D01*
X113595238Y-118452380D01*
X113690476Y-118404761D01*
X113738095Y-118357142D01*
X113785714Y-118261904D01*
X113785714Y-118166666D01*
X113738095Y-118071428D01*
X113690476Y-118023809D01*
X113595238Y-117976190D01*
X113404761Y-117928571D01*
X113309523Y-117880952D01*
X113261904Y-117833333D01*
X113214285Y-117738095D01*
X113214285Y-117642857D01*
X113261904Y-117547619D01*
X113309523Y-117500000D01*
X113404761Y-117452380D01*
X113642857Y-117452380D01*
X113785714Y-117500000D01*
X114642857Y-118404761D02*
X114547619Y-118452380D01*
X114357142Y-118452380D01*
X114261904Y-118404761D01*
X114214285Y-118357142D01*
X114166666Y-118261904D01*
X114166666Y-117976190D01*
X114214285Y-117880952D01*
X114261904Y-117833333D01*
X114357142Y-117785714D01*
X114547619Y-117785714D01*
X114642857Y-117833333D01*
X115071428Y-118452380D02*
X115071428Y-117452380D01*
X115500000Y-118452380D02*
X115500000Y-117928571D01*
X115452380Y-117833333D01*
X115357142Y-117785714D01*
X115214285Y-117785714D01*
X115119047Y-117833333D01*
X115071428Y-117880952D01*
X116119047Y-118452380D02*
X116023809Y-118404761D01*
X115976190Y-118357142D01*
X115928571Y-118261904D01*
X115928571Y-117976190D01*
X115976190Y-117880952D01*
X116023809Y-117833333D01*
X116119047Y-117785714D01*
X116261904Y-117785714D01*
X116357142Y-117833333D01*
X116404761Y-117880952D01*
X116452380Y-117976190D01*
X116452380Y-118261904D01*
X116404761Y-118357142D01*
X116357142Y-118404761D01*
X116261904Y-118452380D01*
X116119047Y-118452380D01*
X116738095Y-117785714D02*
X117119047Y-117785714D01*
X116880952Y-117452380D02*
X116880952Y-118309523D01*
X116928571Y-118404761D01*
X117023809Y-118452380D01*
X117119047Y-118452380D01*
X117309523Y-117785714D02*
X117690476Y-117785714D01*
X117452380Y-117452380D02*
X117452380Y-118309523D01*
X117500000Y-118404761D01*
X117595238Y-118452380D01*
X117690476Y-118452380D01*
X118023809Y-118452380D02*
X118023809Y-117452380D01*
X118119047Y-118071428D02*
X118404761Y-118452380D01*
X118404761Y-117785714D02*
X118023809Y-118166666D01*
X118738095Y-117785714D02*
X118976190Y-118452380D01*
X119214285Y-117785714D02*
X118976190Y-118452380D01*
X118880952Y-118690476D01*
X118833333Y-118738095D01*
X118738095Y-118785714D01*
X120357142Y-118452380D02*
X120357142Y-117452380D01*
X120595238Y-117452380D01*
X120738095Y-117500000D01*
X120833333Y-117595238D01*
X120880952Y-117690476D01*
X120928571Y-117880952D01*
X120928571Y-118023809D01*
X120880952Y-118214285D01*
X120833333Y-118309523D01*
X120738095Y-118404761D01*
X120595238Y-118452380D01*
X120357142Y-118452380D01*
X121357142Y-118452380D02*
X121357142Y-117785714D01*
X121357142Y-117452380D02*
X121309523Y-117500000D01*
X121357142Y-117547619D01*
X121404761Y-117500000D01*
X121357142Y-117452380D01*
X121357142Y-117547619D01*
X121976190Y-118452380D02*
X121880952Y-118404761D01*
X121833333Y-118357142D01*
X121785714Y-118261904D01*
X121785714Y-117976190D01*
X121833333Y-117880952D01*
X121880952Y-117833333D01*
X121976190Y-117785714D01*
X122119047Y-117785714D01*
X122214285Y-117833333D01*
X122261904Y-117880952D01*
X122309523Y-117976190D01*
X122309523Y-118261904D01*
X122261904Y-118357142D01*
X122214285Y-118404761D01*
X122119047Y-118452380D01*
X121976190Y-118452380D01*
X123166666Y-118452380D02*
X123166666Y-117452380D01*
X123166666Y-118404761D02*
X123071428Y-118452380D01*
X122880952Y-118452380D01*
X122785714Y-118404761D01*
X122738095Y-118357142D01*
X122690476Y-118261904D01*
X122690476Y-117976190D01*
X122738095Y-117880952D01*
X122785714Y-117833333D01*
X122880952Y-117785714D01*
X123071428Y-117785714D01*
X123166666Y-117833333D01*
X124023809Y-118404761D02*
X123928571Y-118452380D01*
X123738095Y-118452380D01*
X123642857Y-118404761D01*
X123595238Y-118309523D01*
X123595238Y-117928571D01*
X123642857Y-117833333D01*
X123738095Y-117785714D01*
X123928571Y-117785714D01*
X124023809Y-117833333D01*
X124071428Y-117928571D01*
X124071428Y-118023809D01*
X123595238Y-118119047D01*
X125261904Y-118452380D02*
X125261904Y-117452380D01*
X125833333Y-118452380D01*
X125833333Y-117452380D01*
X126452380Y-118452380D02*
X126357142Y-118404761D01*
X126309523Y-118357142D01*
X126261904Y-118261904D01*
X126261904Y-117976190D01*
X126309523Y-117880952D01*
X126357142Y-117833333D01*
X126452380Y-117785714D01*
X126595238Y-117785714D01*
X126690476Y-117833333D01*
X126738095Y-117880952D01*
X126785714Y-117976190D01*
X126785714Y-118261904D01*
X126738095Y-118357142D01*
X126690476Y-118404761D01*
X126595238Y-118452380D01*
X126452380Y-118452380D01*
X127214285Y-118452380D02*
X127214285Y-117785714D01*
X127214285Y-117452380D02*
X127166666Y-117500000D01*
X127214285Y-117547619D01*
X127261904Y-117500000D01*
X127214285Y-117452380D01*
X127214285Y-117547619D01*
X127642857Y-118404761D02*
X127738095Y-118452380D01*
X127928571Y-118452380D01*
X128023809Y-118404761D01*
X128071428Y-118309523D01*
X128071428Y-118261904D01*
X128023809Y-118166666D01*
X127928571Y-118119047D01*
X127785714Y-118119047D01*
X127690476Y-118071428D01*
X127642857Y-117976190D01*
X127642857Y-117928571D01*
X127690476Y-117833333D01*
X127785714Y-117785714D01*
X127928571Y-117785714D01*
X128023809Y-117833333D01*
X128880952Y-118404761D02*
X128785714Y-118452380D01*
X128595238Y-118452380D01*
X128500000Y-118404761D01*
X128452380Y-118309523D01*
X128452380Y-117928571D01*
X128500000Y-117833333D01*
X128595238Y-117785714D01*
X128785714Y-117785714D01*
X128880952Y-117833333D01*
X128928571Y-117928571D01*
X128928571Y-118023809D01*
X128452380Y-118119047D01*
X130071428Y-118404761D02*
X130214285Y-118452380D01*
X130452380Y-118452380D01*
X130547619Y-118404761D01*
X130595238Y-118357142D01*
X130642857Y-118261904D01*
X130642857Y-118166666D01*
X130595238Y-118071428D01*
X130547619Y-118023809D01*
X130452380Y-117976190D01*
X130261904Y-117928571D01*
X130166666Y-117880952D01*
X130119047Y-117833333D01*
X130071428Y-117738095D01*
X130071428Y-117642857D01*
X130119047Y-117547619D01*
X130166666Y-117500000D01*
X130261904Y-117452380D01*
X130500000Y-117452380D01*
X130642857Y-117500000D01*
X131214285Y-118452380D02*
X131119047Y-118404761D01*
X131071428Y-118357142D01*
X131023809Y-118261904D01*
X131023809Y-117976190D01*
X131071428Y-117880952D01*
X131119047Y-117833333D01*
X131214285Y-117785714D01*
X131357142Y-117785714D01*
X131452380Y-117833333D01*
X131500000Y-117880952D01*
X131547619Y-117976190D01*
X131547619Y-118261904D01*
X131500000Y-118357142D01*
X131452380Y-118404761D01*
X131357142Y-118452380D01*
X131214285Y-118452380D01*
X132404761Y-117785714D02*
X132404761Y-118452380D01*
X131976190Y-117785714D02*
X131976190Y-118309523D01*
X132023809Y-118404761D01*
X132119047Y-118452380D01*
X132261904Y-118452380D01*
X132357142Y-118404761D01*
X132404761Y-118357142D01*
X132880952Y-118452380D02*
X132880952Y-117785714D01*
X132880952Y-117976190D02*
X132928571Y-117880952D01*
X132976190Y-117833333D01*
X133071428Y-117785714D01*
X133166666Y-117785714D01*
X133928571Y-118404761D02*
X133833333Y-118452380D01*
X133642857Y-118452380D01*
X133547619Y-118404761D01*
X133500000Y-118357142D01*
X133452380Y-118261904D01*
X133452380Y-117976190D01*
X133500000Y-117880952D01*
X133547619Y-117833333D01*
X133642857Y-117785714D01*
X133833333Y-117785714D01*
X133928571Y-117833333D01*
X134738095Y-118404761D02*
X134642857Y-118452380D01*
X134452380Y-118452380D01*
X134357142Y-118404761D01*
X134309523Y-118309523D01*
X134309523Y-117928571D01*
X134357142Y-117833333D01*
X134452380Y-117785714D01*
X134642857Y-117785714D01*
X134738095Y-117833333D01*
X134785714Y-117928571D01*
X134785714Y-118023809D01*
X134309523Y-118119047D01*
X94903571Y-87890476D02*
X94903571Y-88652380D01*
X94522619Y-88271428D02*
X95284523Y-88271428D01*
X95522619Y-88985714D02*
X94522619Y-89319047D01*
X95522619Y-89652380D01*
X95053571Y-125965476D02*
X95053571Y-126727380D01*
X94672619Y-126346428D02*
X95434523Y-126346428D01*
X95672619Y-127060714D02*
X94672619Y-127394047D01*
X95672619Y-127727380D01*
X95525000Y-131438095D02*
X95572619Y-131342857D01*
X95572619Y-131200000D01*
X95525000Y-131057142D01*
X95429761Y-130961904D01*
X95334523Y-130914285D01*
X95144047Y-130866666D01*
X95001190Y-130866666D01*
X94810714Y-130914285D01*
X94715476Y-130961904D01*
X94620238Y-131057142D01*
X94572619Y-131200000D01*
X94572619Y-131295238D01*
X94620238Y-131438095D01*
X94667857Y-131485714D01*
X95001190Y-131485714D01*
X95001190Y-131295238D01*
X94572619Y-131914285D02*
X95572619Y-131914285D01*
X94572619Y-132485714D01*
X95572619Y-132485714D01*
X94572619Y-132961904D02*
X95572619Y-132961904D01*
X95572619Y-133200000D01*
X95525000Y-133342857D01*
X95429761Y-133438095D01*
X95334523Y-133485714D01*
X95144047Y-133533333D01*
X95001190Y-133533333D01*
X94810714Y-133485714D01*
X94715476Y-133438095D01*
X94620238Y-133342857D01*
X94572619Y-133200000D01*
X94572619Y-132961904D01*
X120930476Y-95562380D02*
X120359047Y-95562380D01*
X120644761Y-95562380D02*
X120644761Y-94562380D01*
X120549523Y-94705238D01*
X120454285Y-94800476D01*
X120359047Y-94848095D01*
X121549523Y-94562380D02*
X121644761Y-94562380D01*
X121740000Y-94610000D01*
X121787619Y-94657619D01*
X121835238Y-94752857D01*
X121882857Y-94943333D01*
X121882857Y-95181428D01*
X121835238Y-95371904D01*
X121787619Y-95467142D01*
X121740000Y-95514761D01*
X121644761Y-95562380D01*
X121549523Y-95562380D01*
X121454285Y-95514761D01*
X121406666Y-95467142D01*
X121359047Y-95371904D01*
X121311428Y-95181428D01*
X121311428Y-94943333D01*
X121359047Y-94752857D01*
X121406666Y-94657619D01*
X121454285Y-94610000D01*
X121549523Y-94562380D01*
X123501904Y-95562380D02*
X123501904Y-94562380D01*
X123501904Y-95514761D02*
X123406666Y-95562380D01*
X123216190Y-95562380D01*
X123120952Y-95514761D01*
X123073333Y-95467142D01*
X123025714Y-95371904D01*
X123025714Y-95086190D01*
X123073333Y-94990952D01*
X123120952Y-94943333D01*
X123216190Y-94895714D01*
X123406666Y-94895714D01*
X123501904Y-94943333D01*
X124311428Y-95038571D02*
X124454285Y-95086190D01*
X124501904Y-95133809D01*
X124549523Y-95229047D01*
X124549523Y-95371904D01*
X124501904Y-95467142D01*
X124454285Y-95514761D01*
X124359047Y-95562380D01*
X123978095Y-95562380D01*
X123978095Y-94562380D01*
X124311428Y-94562380D01*
X124406666Y-94610000D01*
X124454285Y-94657619D01*
X124501904Y-94752857D01*
X124501904Y-94848095D01*
X124454285Y-94943333D01*
X124406666Y-94990952D01*
X124311428Y-95038571D01*
X123978095Y-95038571D01*
X126168571Y-95562380D02*
X126168571Y-95038571D01*
X126120952Y-94943333D01*
X126025714Y-94895714D01*
X125835238Y-94895714D01*
X125740000Y-94943333D01*
X126168571Y-95514761D02*
X126073333Y-95562380D01*
X125835238Y-95562380D01*
X125740000Y-95514761D01*
X125692380Y-95419523D01*
X125692380Y-95324285D01*
X125740000Y-95229047D01*
X125835238Y-95181428D01*
X126073333Y-95181428D01*
X126168571Y-95133809D01*
X126501904Y-94895714D02*
X126882857Y-94895714D01*
X126644761Y-94562380D02*
X126644761Y-95419523D01*
X126692380Y-95514761D01*
X126787619Y-95562380D01*
X126882857Y-95562380D01*
X127073333Y-94895714D02*
X127454285Y-94895714D01*
X127216190Y-94562380D02*
X127216190Y-95419523D01*
X127263809Y-95514761D01*
X127359047Y-95562380D01*
X127454285Y-95562380D01*
X128168571Y-95514761D02*
X128073333Y-95562380D01*
X127882857Y-95562380D01*
X127787619Y-95514761D01*
X127740000Y-95419523D01*
X127740000Y-95038571D01*
X127787619Y-94943333D01*
X127882857Y-94895714D01*
X128073333Y-94895714D01*
X128168571Y-94943333D01*
X128216190Y-95038571D01*
X128216190Y-95133809D01*
X127740000Y-95229047D01*
X128644761Y-94895714D02*
X128644761Y-95562380D01*
X128644761Y-94990952D02*
X128692380Y-94943333D01*
X128787619Y-94895714D01*
X128930476Y-94895714D01*
X129025714Y-94943333D01*
X129073333Y-95038571D01*
X129073333Y-95562380D01*
X95053571Y-107340476D02*
X95053571Y-108102380D01*
X94672619Y-107721428D02*
X95434523Y-107721428D01*
X95672619Y-108435714D02*
X94672619Y-108769047D01*
X95672619Y-109102380D01*
X95650000Y-112663095D02*
X95697619Y-112567857D01*
X95697619Y-112425000D01*
X95650000Y-112282142D01*
X95554761Y-112186904D01*
X95459523Y-112139285D01*
X95269047Y-112091666D01*
X95126190Y-112091666D01*
X94935714Y-112139285D01*
X94840476Y-112186904D01*
X94745238Y-112282142D01*
X94697619Y-112425000D01*
X94697619Y-112520238D01*
X94745238Y-112663095D01*
X94792857Y-112710714D01*
X95126190Y-112710714D01*
X95126190Y-112520238D01*
X94697619Y-113139285D02*
X95697619Y-113139285D01*
X94697619Y-113710714D01*
X95697619Y-113710714D01*
X94697619Y-114186904D02*
X95697619Y-114186904D01*
X95697619Y-114425000D01*
X95650000Y-114567857D01*
X95554761Y-114663095D01*
X95459523Y-114710714D01*
X95269047Y-114758333D01*
X95126190Y-114758333D01*
X94935714Y-114710714D01*
X94840476Y-114663095D01*
X94745238Y-114567857D01*
X94697619Y-114425000D01*
X94697619Y-114186904D01*
X113454285Y-136404761D02*
X113597142Y-136452380D01*
X113835238Y-136452380D01*
X113930476Y-136404761D01*
X113978095Y-136357142D01*
X114025714Y-136261904D01*
X114025714Y-136166666D01*
X113978095Y-136071428D01*
X113930476Y-136023809D01*
X113835238Y-135976190D01*
X113644761Y-135928571D01*
X113549523Y-135880952D01*
X113501904Y-135833333D01*
X113454285Y-135738095D01*
X113454285Y-135642857D01*
X113501904Y-135547619D01*
X113549523Y-135500000D01*
X113644761Y-135452380D01*
X113882857Y-135452380D01*
X114025714Y-135500000D01*
X114882857Y-136404761D02*
X114787619Y-136452380D01*
X114597142Y-136452380D01*
X114501904Y-136404761D01*
X114454285Y-136357142D01*
X114406666Y-136261904D01*
X114406666Y-135976190D01*
X114454285Y-135880952D01*
X114501904Y-135833333D01*
X114597142Y-135785714D01*
X114787619Y-135785714D01*
X114882857Y-135833333D01*
X115311428Y-136452380D02*
X115311428Y-135452380D01*
X115740000Y-136452380D02*
X115740000Y-135928571D01*
X115692380Y-135833333D01*
X115597142Y-135785714D01*
X115454285Y-135785714D01*
X115359047Y-135833333D01*
X115311428Y-135880952D01*
X116359047Y-136452380D02*
X116263809Y-136404761D01*
X116216190Y-136357142D01*
X116168571Y-136261904D01*
X116168571Y-135976190D01*
X116216190Y-135880952D01*
X116263809Y-135833333D01*
X116359047Y-135785714D01*
X116501904Y-135785714D01*
X116597142Y-135833333D01*
X116644761Y-135880952D01*
X116692380Y-135976190D01*
X116692380Y-136261904D01*
X116644761Y-136357142D01*
X116597142Y-136404761D01*
X116501904Y-136452380D01*
X116359047Y-136452380D01*
X116978095Y-135785714D02*
X117359047Y-135785714D01*
X117120952Y-135452380D02*
X117120952Y-136309523D01*
X117168571Y-136404761D01*
X117263809Y-136452380D01*
X117359047Y-136452380D01*
X117549523Y-135785714D02*
X117930476Y-135785714D01*
X117692380Y-135452380D02*
X117692380Y-136309523D01*
X117740000Y-136404761D01*
X117835238Y-136452380D01*
X117930476Y-136452380D01*
X118263809Y-136452380D02*
X118263809Y-135452380D01*
X118359047Y-136071428D02*
X118644761Y-136452380D01*
X118644761Y-135785714D02*
X118263809Y-136166666D01*
X118978095Y-135785714D02*
X119216190Y-136452380D01*
X119454285Y-135785714D02*
X119216190Y-136452380D01*
X119120952Y-136690476D01*
X119073333Y-136738095D01*
X118978095Y-136785714D01*
X120597142Y-136452380D02*
X120597142Y-135452380D01*
X120835238Y-135452380D01*
X120978095Y-135500000D01*
X121073333Y-135595238D01*
X121120952Y-135690476D01*
X121168571Y-135880952D01*
X121168571Y-136023809D01*
X121120952Y-136214285D01*
X121073333Y-136309523D01*
X120978095Y-136404761D01*
X120835238Y-136452380D01*
X120597142Y-136452380D01*
X121597142Y-136452380D02*
X121597142Y-135785714D01*
X121597142Y-135452380D02*
X121549523Y-135500000D01*
X121597142Y-135547619D01*
X121644761Y-135500000D01*
X121597142Y-135452380D01*
X121597142Y-135547619D01*
X122216190Y-136452380D02*
X122120952Y-136404761D01*
X122073333Y-136357142D01*
X122025714Y-136261904D01*
X122025714Y-135976190D01*
X122073333Y-135880952D01*
X122120952Y-135833333D01*
X122216190Y-135785714D01*
X122359047Y-135785714D01*
X122454285Y-135833333D01*
X122501904Y-135880952D01*
X122549523Y-135976190D01*
X122549523Y-136261904D01*
X122501904Y-136357142D01*
X122454285Y-136404761D01*
X122359047Y-136452380D01*
X122216190Y-136452380D01*
X123406666Y-136452380D02*
X123406666Y-135452380D01*
X123406666Y-136404761D02*
X123311428Y-136452380D01*
X123120952Y-136452380D01*
X123025714Y-136404761D01*
X122978095Y-136357142D01*
X122930476Y-136261904D01*
X122930476Y-135976190D01*
X122978095Y-135880952D01*
X123025714Y-135833333D01*
X123120952Y-135785714D01*
X123311428Y-135785714D01*
X123406666Y-135833333D01*
X124263809Y-136404761D02*
X124168571Y-136452380D01*
X123978095Y-136452380D01*
X123882857Y-136404761D01*
X123835238Y-136309523D01*
X123835238Y-135928571D01*
X123882857Y-135833333D01*
X123978095Y-135785714D01*
X124168571Y-135785714D01*
X124263809Y-135833333D01*
X124311428Y-135928571D01*
X124311428Y-136023809D01*
X123835238Y-136119047D01*
X125501904Y-136452380D02*
X125501904Y-135452380D01*
X126073333Y-136452380D01*
X126073333Y-135452380D01*
X126692380Y-136452380D02*
X126597142Y-136404761D01*
X126549523Y-136357142D01*
X126501904Y-136261904D01*
X126501904Y-135976190D01*
X126549523Y-135880952D01*
X126597142Y-135833333D01*
X126692380Y-135785714D01*
X126835238Y-135785714D01*
X126930476Y-135833333D01*
X126978095Y-135880952D01*
X127025714Y-135976190D01*
X127025714Y-136261904D01*
X126978095Y-136357142D01*
X126930476Y-136404761D01*
X126835238Y-136452380D01*
X126692380Y-136452380D01*
X127454285Y-136452380D02*
X127454285Y-135785714D01*
X127454285Y-135452380D02*
X127406666Y-135500000D01*
X127454285Y-135547619D01*
X127501904Y-135500000D01*
X127454285Y-135452380D01*
X127454285Y-135547619D01*
X127882857Y-136404761D02*
X127978095Y-136452380D01*
X128168571Y-136452380D01*
X128263809Y-136404761D01*
X128311428Y-136309523D01*
X128311428Y-136261904D01*
X128263809Y-136166666D01*
X128168571Y-136119047D01*
X128025714Y-136119047D01*
X127930476Y-136071428D01*
X127882857Y-135976190D01*
X127882857Y-135928571D01*
X127930476Y-135833333D01*
X128025714Y-135785714D01*
X128168571Y-135785714D01*
X128263809Y-135833333D01*
X129120952Y-136404761D02*
X129025714Y-136452380D01*
X128835238Y-136452380D01*
X128740000Y-136404761D01*
X128692380Y-136309523D01*
X128692380Y-135928571D01*
X128740000Y-135833333D01*
X128835238Y-135785714D01*
X129025714Y-135785714D01*
X129120952Y-135833333D01*
X129168571Y-135928571D01*
X129168571Y-136023809D01*
X128692380Y-136119047D01*
X130311428Y-136404761D02*
X130454285Y-136452380D01*
X130692380Y-136452380D01*
X130787619Y-136404761D01*
X130835238Y-136357142D01*
X130882857Y-136261904D01*
X130882857Y-136166666D01*
X130835238Y-136071428D01*
X130787619Y-136023809D01*
X130692380Y-135976190D01*
X130501904Y-135928571D01*
X130406666Y-135880952D01*
X130359047Y-135833333D01*
X130311428Y-135738095D01*
X130311428Y-135642857D01*
X130359047Y-135547619D01*
X130406666Y-135500000D01*
X130501904Y-135452380D01*
X130740000Y-135452380D01*
X130882857Y-135500000D01*
X131454285Y-136452380D02*
X131359047Y-136404761D01*
X131311428Y-136357142D01*
X131263809Y-136261904D01*
X131263809Y-135976190D01*
X131311428Y-135880952D01*
X131359047Y-135833333D01*
X131454285Y-135785714D01*
X131597142Y-135785714D01*
X131692380Y-135833333D01*
X131740000Y-135880952D01*
X131787619Y-135976190D01*
X131787619Y-136261904D01*
X131740000Y-136357142D01*
X131692380Y-136404761D01*
X131597142Y-136452380D01*
X131454285Y-136452380D01*
X132644761Y-135785714D02*
X132644761Y-136452380D01*
X132216190Y-135785714D02*
X132216190Y-136309523D01*
X132263809Y-136404761D01*
X132359047Y-136452380D01*
X132501904Y-136452380D01*
X132597142Y-136404761D01*
X132644761Y-136357142D01*
X133120952Y-136452380D02*
X133120952Y-135785714D01*
X133120952Y-135976190D02*
X133168571Y-135880952D01*
X133216190Y-135833333D01*
X133311428Y-135785714D01*
X133406666Y-135785714D01*
X134168571Y-136404761D02*
X134073333Y-136452380D01*
X133882857Y-136452380D01*
X133787619Y-136404761D01*
X133740000Y-136357142D01*
X133692380Y-136261904D01*
X133692380Y-135976190D01*
X133740000Y-135880952D01*
X133787619Y-135833333D01*
X133882857Y-135785714D01*
X134073333Y-135785714D01*
X134168571Y-135833333D01*
X134978095Y-136404761D02*
X134882857Y-136452380D01*
X134692380Y-136452380D01*
X134597142Y-136404761D01*
X134549523Y-136309523D01*
X134549523Y-135928571D01*
X134597142Y-135833333D01*
X134692380Y-135785714D01*
X134882857Y-135785714D01*
X134978095Y-135833333D01*
X135025714Y-135928571D01*
X135025714Y-136023809D01*
X134549523Y-136119047D01*
X95350000Y-93088095D02*
X95397619Y-92992857D01*
X95397619Y-92850000D01*
X95350000Y-92707142D01*
X95254761Y-92611904D01*
X95159523Y-92564285D01*
X94969047Y-92516666D01*
X94826190Y-92516666D01*
X94635714Y-92564285D01*
X94540476Y-92611904D01*
X94445238Y-92707142D01*
X94397619Y-92850000D01*
X94397619Y-92945238D01*
X94445238Y-93088095D01*
X94492857Y-93135714D01*
X94826190Y-93135714D01*
X94826190Y-92945238D01*
X94397619Y-93564285D02*
X95397619Y-93564285D01*
X94397619Y-94135714D01*
X95397619Y-94135714D01*
X94397619Y-94611904D02*
X95397619Y-94611904D01*
X95397619Y-94850000D01*
X95350000Y-94992857D01*
X95254761Y-95088095D01*
X95159523Y-95135714D01*
X94969047Y-95183333D01*
X94826190Y-95183333D01*
X94635714Y-95135714D01*
X94540476Y-95088095D01*
X94445238Y-94992857D01*
X94397619Y-94850000D01*
X94397619Y-94611904D01*
X118971428Y-132227380D02*
X119590476Y-132227380D01*
X119257142Y-132608333D01*
X119400000Y-132608333D01*
X119495238Y-132655952D01*
X119542857Y-132703571D01*
X119590476Y-132798809D01*
X119590476Y-133036904D01*
X119542857Y-133132142D01*
X119495238Y-133179761D01*
X119400000Y-133227380D01*
X119114285Y-133227380D01*
X119019047Y-133179761D01*
X118971428Y-133132142D01*
X120209523Y-132227380D02*
X120304761Y-132227380D01*
X120400000Y-132275000D01*
X120447619Y-132322619D01*
X120495238Y-132417857D01*
X120542857Y-132608333D01*
X120542857Y-132846428D01*
X120495238Y-133036904D01*
X120447619Y-133132142D01*
X120400000Y-133179761D01*
X120304761Y-133227380D01*
X120209523Y-133227380D01*
X120114285Y-133179761D01*
X120066666Y-133132142D01*
X120019047Y-133036904D01*
X119971428Y-132846428D01*
X119971428Y-132608333D01*
X120019047Y-132417857D01*
X120066666Y-132322619D01*
X120114285Y-132275000D01*
X120209523Y-132227380D01*
X122161904Y-133227380D02*
X122161904Y-132227380D01*
X122161904Y-133179761D02*
X122066666Y-133227380D01*
X121876190Y-133227380D01*
X121780952Y-133179761D01*
X121733333Y-133132142D01*
X121685714Y-133036904D01*
X121685714Y-132751190D01*
X121733333Y-132655952D01*
X121780952Y-132608333D01*
X121876190Y-132560714D01*
X122066666Y-132560714D01*
X122161904Y-132608333D01*
X122971428Y-132703571D02*
X123114285Y-132751190D01*
X123161904Y-132798809D01*
X123209523Y-132894047D01*
X123209523Y-133036904D01*
X123161904Y-133132142D01*
X123114285Y-133179761D01*
X123019047Y-133227380D01*
X122638095Y-133227380D01*
X122638095Y-132227380D01*
X122971428Y-132227380D01*
X123066666Y-132275000D01*
X123114285Y-132322619D01*
X123161904Y-132417857D01*
X123161904Y-132513095D01*
X123114285Y-132608333D01*
X123066666Y-132655952D01*
X122971428Y-132703571D01*
X122638095Y-132703571D01*
X124828571Y-133227380D02*
X124828571Y-132703571D01*
X124780952Y-132608333D01*
X124685714Y-132560714D01*
X124495238Y-132560714D01*
X124400000Y-132608333D01*
X124828571Y-133179761D02*
X124733333Y-133227380D01*
X124495238Y-133227380D01*
X124400000Y-133179761D01*
X124352380Y-133084523D01*
X124352380Y-132989285D01*
X124400000Y-132894047D01*
X124495238Y-132846428D01*
X124733333Y-132846428D01*
X124828571Y-132798809D01*
X125161904Y-132560714D02*
X125542857Y-132560714D01*
X125304761Y-132227380D02*
X125304761Y-133084523D01*
X125352380Y-133179761D01*
X125447619Y-133227380D01*
X125542857Y-133227380D01*
X125733333Y-132560714D02*
X126114285Y-132560714D01*
X125876190Y-132227380D02*
X125876190Y-133084523D01*
X125923809Y-133179761D01*
X126019047Y-133227380D01*
X126114285Y-133227380D01*
X126828571Y-133179761D02*
X126733333Y-133227380D01*
X126542857Y-133227380D01*
X126447619Y-133179761D01*
X126400000Y-133084523D01*
X126400000Y-132703571D01*
X126447619Y-132608333D01*
X126542857Y-132560714D01*
X126733333Y-132560714D01*
X126828571Y-132608333D01*
X126876190Y-132703571D01*
X126876190Y-132798809D01*
X126400000Y-132894047D01*
X127304761Y-132560714D02*
X127304761Y-133227380D01*
X127304761Y-132655952D02*
X127352380Y-132608333D01*
X127447619Y-132560714D01*
X127590476Y-132560714D01*
X127685714Y-132608333D01*
X127733333Y-132703571D01*
X127733333Y-133227380D01*
X118909047Y-113317619D02*
X118956666Y-113270000D01*
X119051904Y-113222380D01*
X119290000Y-113222380D01*
X119385238Y-113270000D01*
X119432857Y-113317619D01*
X119480476Y-113412857D01*
X119480476Y-113508095D01*
X119432857Y-113650952D01*
X118861428Y-114222380D01*
X119480476Y-114222380D01*
X120099523Y-113222380D02*
X120194761Y-113222380D01*
X120290000Y-113270000D01*
X120337619Y-113317619D01*
X120385238Y-113412857D01*
X120432857Y-113603333D01*
X120432857Y-113841428D01*
X120385238Y-114031904D01*
X120337619Y-114127142D01*
X120290000Y-114174761D01*
X120194761Y-114222380D01*
X120099523Y-114222380D01*
X120004285Y-114174761D01*
X119956666Y-114127142D01*
X119909047Y-114031904D01*
X119861428Y-113841428D01*
X119861428Y-113603333D01*
X119909047Y-113412857D01*
X119956666Y-113317619D01*
X120004285Y-113270000D01*
X120099523Y-113222380D01*
X122051904Y-114222380D02*
X122051904Y-113222380D01*
X122051904Y-114174761D02*
X121956666Y-114222380D01*
X121766190Y-114222380D01*
X121670952Y-114174761D01*
X121623333Y-114127142D01*
X121575714Y-114031904D01*
X121575714Y-113746190D01*
X121623333Y-113650952D01*
X121670952Y-113603333D01*
X121766190Y-113555714D01*
X121956666Y-113555714D01*
X122051904Y-113603333D01*
X122861428Y-113698571D02*
X123004285Y-113746190D01*
X123051904Y-113793809D01*
X123099523Y-113889047D01*
X123099523Y-114031904D01*
X123051904Y-114127142D01*
X123004285Y-114174761D01*
X122909047Y-114222380D01*
X122528095Y-114222380D01*
X122528095Y-113222380D01*
X122861428Y-113222380D01*
X122956666Y-113270000D01*
X123004285Y-113317619D01*
X123051904Y-113412857D01*
X123051904Y-113508095D01*
X123004285Y-113603333D01*
X122956666Y-113650952D01*
X122861428Y-113698571D01*
X122528095Y-113698571D01*
X124718571Y-114222380D02*
X124718571Y-113698571D01*
X124670952Y-113603333D01*
X124575714Y-113555714D01*
X124385238Y-113555714D01*
X124290000Y-113603333D01*
X124718571Y-114174761D02*
X124623333Y-114222380D01*
X124385238Y-114222380D01*
X124290000Y-114174761D01*
X124242380Y-114079523D01*
X124242380Y-113984285D01*
X124290000Y-113889047D01*
X124385238Y-113841428D01*
X124623333Y-113841428D01*
X124718571Y-113793809D01*
X125051904Y-113555714D02*
X125432857Y-113555714D01*
X125194761Y-113222380D02*
X125194761Y-114079523D01*
X125242380Y-114174761D01*
X125337619Y-114222380D01*
X125432857Y-114222380D01*
X125623333Y-113555714D02*
X126004285Y-113555714D01*
X125766190Y-113222380D02*
X125766190Y-114079523D01*
X125813809Y-114174761D01*
X125909047Y-114222380D01*
X126004285Y-114222380D01*
X126718571Y-114174761D02*
X126623333Y-114222380D01*
X126432857Y-114222380D01*
X126337619Y-114174761D01*
X126290000Y-114079523D01*
X126290000Y-113698571D01*
X126337619Y-113603333D01*
X126432857Y-113555714D01*
X126623333Y-113555714D01*
X126718571Y-113603333D01*
X126766190Y-113698571D01*
X126766190Y-113793809D01*
X126290000Y-113889047D01*
X127194761Y-113555714D02*
X127194761Y-114222380D01*
X127194761Y-113650952D02*
X127242380Y-113603333D01*
X127337619Y-113555714D01*
X127480476Y-113555714D01*
X127575714Y-113603333D01*
X127623333Y-113698571D01*
X127623333Y-114222380D01*
%TO.C,R11*%
X126977142Y-112792380D02*
X126643809Y-112316190D01*
X126405714Y-112792380D02*
X126405714Y-111792380D01*
X126786666Y-111792380D01*
X126881904Y-111840000D01*
X126929523Y-111887619D01*
X126977142Y-111982857D01*
X126977142Y-112125714D01*
X126929523Y-112220952D01*
X126881904Y-112268571D01*
X126786666Y-112316190D01*
X126405714Y-112316190D01*
X127929523Y-112792380D02*
X127358095Y-112792380D01*
X127643809Y-112792380D02*
X127643809Y-111792380D01*
X127548571Y-111935238D01*
X127453333Y-112030476D01*
X127358095Y-112078095D01*
X128881904Y-112792380D02*
X128310476Y-112792380D01*
X128596190Y-112792380D02*
X128596190Y-111792380D01*
X128500952Y-111935238D01*
X128405714Y-112030476D01*
X128310476Y-112078095D01*
%TO.C,C6*%
X122393333Y-108097142D02*
X122345714Y-108144761D01*
X122202857Y-108192380D01*
X122107619Y-108192380D01*
X121964761Y-108144761D01*
X121869523Y-108049523D01*
X121821904Y-107954285D01*
X121774285Y-107763809D01*
X121774285Y-107620952D01*
X121821904Y-107430476D01*
X121869523Y-107335238D01*
X121964761Y-107240000D01*
X122107619Y-107192380D01*
X122202857Y-107192380D01*
X122345714Y-107240000D01*
X122393333Y-107287619D01*
X123250476Y-107192380D02*
X123060000Y-107192380D01*
X122964761Y-107240000D01*
X122917142Y-107287619D01*
X122821904Y-107430476D01*
X122774285Y-107620952D01*
X122774285Y-108001904D01*
X122821904Y-108097142D01*
X122869523Y-108144761D01*
X122964761Y-108192380D01*
X123155238Y-108192380D01*
X123250476Y-108144761D01*
X123298095Y-108097142D01*
X123345714Y-108001904D01*
X123345714Y-107763809D01*
X123298095Y-107668571D01*
X123250476Y-107620952D01*
X123155238Y-107573333D01*
X122964761Y-107573333D01*
X122869523Y-107620952D01*
X122821904Y-107668571D01*
X122774285Y-107763809D01*
%TO.C,R1*%
X107762380Y-90076666D02*
X107286190Y-90410000D01*
X107762380Y-90648095D02*
X106762380Y-90648095D01*
X106762380Y-90267142D01*
X106810000Y-90171904D01*
X106857619Y-90124285D01*
X106952857Y-90076666D01*
X107095714Y-90076666D01*
X107190952Y-90124285D01*
X107238571Y-90171904D01*
X107286190Y-90267142D01*
X107286190Y-90648095D01*
X107762380Y-89124285D02*
X107762380Y-89695714D01*
X107762380Y-89410000D02*
X106762380Y-89410000D01*
X106905238Y-89505238D01*
X107000476Y-89600476D01*
X107048095Y-89695714D01*
%TO.C,RV1*%
X117942380Y-94305238D02*
X117466190Y-94638571D01*
X117942380Y-94876666D02*
X116942380Y-94876666D01*
X116942380Y-94495714D01*
X116990000Y-94400476D01*
X117037619Y-94352857D01*
X117132857Y-94305238D01*
X117275714Y-94305238D01*
X117370952Y-94352857D01*
X117418571Y-94400476D01*
X117466190Y-94495714D01*
X117466190Y-94876666D01*
X116942380Y-94019523D02*
X117942380Y-93686190D01*
X116942380Y-93352857D01*
X117942380Y-92495714D02*
X117942380Y-93067142D01*
X117942380Y-92781428D02*
X116942380Y-92781428D01*
X117085238Y-92876666D01*
X117180476Y-92971904D01*
X117228095Y-93067142D01*
%TO.C,RV2*%
X117912380Y-113275238D02*
X117436190Y-113608571D01*
X117912380Y-113846666D02*
X116912380Y-113846666D01*
X116912380Y-113465714D01*
X116960000Y-113370476D01*
X117007619Y-113322857D01*
X117102857Y-113275238D01*
X117245714Y-113275238D01*
X117340952Y-113322857D01*
X117388571Y-113370476D01*
X117436190Y-113465714D01*
X117436190Y-113846666D01*
X116912380Y-112989523D02*
X117912380Y-112656190D01*
X116912380Y-112322857D01*
X117007619Y-112037142D02*
X116960000Y-111989523D01*
X116912380Y-111894285D01*
X116912380Y-111656190D01*
X116960000Y-111560952D01*
X117007619Y-111513333D01*
X117102857Y-111465714D01*
X117198095Y-111465714D01*
X117340952Y-111513333D01*
X117912380Y-112084761D01*
X117912380Y-111465714D01*
%TO.C,R15*%
X122132380Y-123602857D02*
X121656190Y-123936190D01*
X122132380Y-124174285D02*
X121132380Y-124174285D01*
X121132380Y-123793333D01*
X121180000Y-123698095D01*
X121227619Y-123650476D01*
X121322857Y-123602857D01*
X121465714Y-123602857D01*
X121560952Y-123650476D01*
X121608571Y-123698095D01*
X121656190Y-123793333D01*
X121656190Y-124174285D01*
X122132380Y-122650476D02*
X122132380Y-123221904D01*
X122132380Y-122936190D02*
X121132380Y-122936190D01*
X121275238Y-123031428D01*
X121370476Y-123126666D01*
X121418095Y-123221904D01*
X121132380Y-121745714D02*
X121132380Y-122221904D01*
X121608571Y-122269523D01*
X121560952Y-122221904D01*
X121513333Y-122126666D01*
X121513333Y-121888571D01*
X121560952Y-121793333D01*
X121608571Y-121745714D01*
X121703809Y-121698095D01*
X121941904Y-121698095D01*
X122037142Y-121745714D01*
X122084761Y-121793333D01*
X122132380Y-121888571D01*
X122132380Y-122126666D01*
X122084761Y-122221904D01*
X122037142Y-122269523D01*
%TO.C,R19*%
X127252380Y-123712857D02*
X126776190Y-124046190D01*
X127252380Y-124284285D02*
X126252380Y-124284285D01*
X126252380Y-123903333D01*
X126300000Y-123808095D01*
X126347619Y-123760476D01*
X126442857Y-123712857D01*
X126585714Y-123712857D01*
X126680952Y-123760476D01*
X126728571Y-123808095D01*
X126776190Y-123903333D01*
X126776190Y-124284285D01*
X127252380Y-122760476D02*
X127252380Y-123331904D01*
X127252380Y-123046190D02*
X126252380Y-123046190D01*
X126395238Y-123141428D01*
X126490476Y-123236666D01*
X126538095Y-123331904D01*
X127252380Y-122284285D02*
X127252380Y-122093809D01*
X127204761Y-121998571D01*
X127157142Y-121950952D01*
X127014285Y-121855714D01*
X126823809Y-121808095D01*
X126442857Y-121808095D01*
X126347619Y-121855714D01*
X126300000Y-121903333D01*
X126252380Y-121998571D01*
X126252380Y-122189047D01*
X126300000Y-122284285D01*
X126347619Y-122331904D01*
X126442857Y-122379523D01*
X126680952Y-122379523D01*
X126776190Y-122331904D01*
X126823809Y-122284285D01*
X126871428Y-122189047D01*
X126871428Y-121998571D01*
X126823809Y-121903333D01*
X126776190Y-121855714D01*
X126680952Y-121808095D01*
%TO.C,RV3*%
X117182380Y-133695238D02*
X116706190Y-134028571D01*
X117182380Y-134266666D02*
X116182380Y-134266666D01*
X116182380Y-133885714D01*
X116230000Y-133790476D01*
X116277619Y-133742857D01*
X116372857Y-133695238D01*
X116515714Y-133695238D01*
X116610952Y-133742857D01*
X116658571Y-133790476D01*
X116706190Y-133885714D01*
X116706190Y-134266666D01*
X116182380Y-133409523D02*
X117182380Y-133076190D01*
X116182380Y-132742857D01*
X116182380Y-132504761D02*
X116182380Y-131885714D01*
X116563333Y-132219047D01*
X116563333Y-132076190D01*
X116610952Y-131980952D01*
X116658571Y-131933333D01*
X116753809Y-131885714D01*
X116991904Y-131885714D01*
X117087142Y-131933333D01*
X117134761Y-131980952D01*
X117182380Y-132076190D01*
X117182380Y-132361904D01*
X117134761Y-132457142D01*
X117087142Y-132504761D01*
%TO.C,R6*%
X128302380Y-86336666D02*
X127826190Y-86670000D01*
X128302380Y-86908095D02*
X127302380Y-86908095D01*
X127302380Y-86527142D01*
X127350000Y-86431904D01*
X127397619Y-86384285D01*
X127492857Y-86336666D01*
X127635714Y-86336666D01*
X127730952Y-86384285D01*
X127778571Y-86431904D01*
X127826190Y-86527142D01*
X127826190Y-86908095D01*
X127302380Y-85479523D02*
X127302380Y-85670000D01*
X127350000Y-85765238D01*
X127397619Y-85812857D01*
X127540476Y-85908095D01*
X127730952Y-85955714D01*
X128111904Y-85955714D01*
X128207142Y-85908095D01*
X128254761Y-85860476D01*
X128302380Y-85765238D01*
X128302380Y-85574761D01*
X128254761Y-85479523D01*
X128207142Y-85431904D01*
X128111904Y-85384285D01*
X127873809Y-85384285D01*
X127778571Y-85431904D01*
X127730952Y-85479523D01*
X127683333Y-85574761D01*
X127683333Y-85765238D01*
X127730952Y-85860476D01*
X127778571Y-85908095D01*
X127873809Y-85955714D01*
%TO.C,C1*%
X109187142Y-85546666D02*
X109234761Y-85594285D01*
X109282380Y-85737142D01*
X109282380Y-85832380D01*
X109234761Y-85975238D01*
X109139523Y-86070476D01*
X109044285Y-86118095D01*
X108853809Y-86165714D01*
X108710952Y-86165714D01*
X108520476Y-86118095D01*
X108425238Y-86070476D01*
X108330000Y-85975238D01*
X108282380Y-85832380D01*
X108282380Y-85737142D01*
X108330000Y-85594285D01*
X108377619Y-85546666D01*
X109282380Y-84594285D02*
X109282380Y-85165714D01*
X109282380Y-84880000D02*
X108282380Y-84880000D01*
X108425238Y-84975238D01*
X108520476Y-85070476D01*
X108568095Y-85165714D01*
%TO.C,R9*%
X125112380Y-105359166D02*
X124636190Y-105692500D01*
X125112380Y-105930595D02*
X124112380Y-105930595D01*
X124112380Y-105549642D01*
X124160000Y-105454404D01*
X124207619Y-105406785D01*
X124302857Y-105359166D01*
X124445714Y-105359166D01*
X124540952Y-105406785D01*
X124588571Y-105454404D01*
X124636190Y-105549642D01*
X124636190Y-105930595D01*
X125112380Y-104882976D02*
X125112380Y-104692500D01*
X125064761Y-104597261D01*
X125017142Y-104549642D01*
X124874285Y-104454404D01*
X124683809Y-104406785D01*
X124302857Y-104406785D01*
X124207619Y-104454404D01*
X124160000Y-104502023D01*
X124112380Y-104597261D01*
X124112380Y-104787738D01*
X124160000Y-104882976D01*
X124207619Y-104930595D01*
X124302857Y-104978214D01*
X124540952Y-104978214D01*
X124636190Y-104930595D01*
X124683809Y-104882976D01*
X124731428Y-104787738D01*
X124731428Y-104597261D01*
X124683809Y-104502023D01*
X124636190Y-104454404D01*
X124540952Y-104406785D01*
%TO.C,D3*%
X117381904Y-126722380D02*
X117381904Y-125722380D01*
X117620000Y-125722380D01*
X117762857Y-125770000D01*
X117858095Y-125865238D01*
X117905714Y-125960476D01*
X117953333Y-126150952D01*
X117953333Y-126293809D01*
X117905714Y-126484285D01*
X117858095Y-126579523D01*
X117762857Y-126674761D01*
X117620000Y-126722380D01*
X117381904Y-126722380D01*
X118286666Y-125722380D02*
X118905714Y-125722380D01*
X118572380Y-126103333D01*
X118715238Y-126103333D01*
X118810476Y-126150952D01*
X118858095Y-126198571D01*
X118905714Y-126293809D01*
X118905714Y-126531904D01*
X118858095Y-126627142D01*
X118810476Y-126674761D01*
X118715238Y-126722380D01*
X118429523Y-126722380D01*
X118334285Y-126674761D01*
X118286666Y-126627142D01*
%TO.C,R10*%
X126962380Y-105520357D02*
X126486190Y-105853690D01*
X126962380Y-106091785D02*
X125962380Y-106091785D01*
X125962380Y-105710833D01*
X126010000Y-105615595D01*
X126057619Y-105567976D01*
X126152857Y-105520357D01*
X126295714Y-105520357D01*
X126390952Y-105567976D01*
X126438571Y-105615595D01*
X126486190Y-105710833D01*
X126486190Y-106091785D01*
X126962380Y-104567976D02*
X126962380Y-105139404D01*
X126962380Y-104853690D02*
X125962380Y-104853690D01*
X126105238Y-104948928D01*
X126200476Y-105044166D01*
X126248095Y-105139404D01*
X125962380Y-103948928D02*
X125962380Y-103853690D01*
X126010000Y-103758452D01*
X126057619Y-103710833D01*
X126152857Y-103663214D01*
X126343333Y-103615595D01*
X126581428Y-103615595D01*
X126771904Y-103663214D01*
X126867142Y-103710833D01*
X126914761Y-103758452D01*
X126962380Y-103853690D01*
X126962380Y-103948928D01*
X126914761Y-104044166D01*
X126867142Y-104091785D01*
X126771904Y-104139404D01*
X126581428Y-104187023D01*
X126343333Y-104187023D01*
X126152857Y-104139404D01*
X126057619Y-104091785D01*
X126010000Y-104044166D01*
X125962380Y-103948928D01*
%TO.C,C2*%
X114387142Y-85936666D02*
X114434761Y-85984285D01*
X114482380Y-86127142D01*
X114482380Y-86222380D01*
X114434761Y-86365238D01*
X114339523Y-86460476D01*
X114244285Y-86508095D01*
X114053809Y-86555714D01*
X113910952Y-86555714D01*
X113720476Y-86508095D01*
X113625238Y-86460476D01*
X113530000Y-86365238D01*
X113482380Y-86222380D01*
X113482380Y-86127142D01*
X113530000Y-85984285D01*
X113577619Y-85936666D01*
X113577619Y-85555714D02*
X113530000Y-85508095D01*
X113482380Y-85412857D01*
X113482380Y-85174761D01*
X113530000Y-85079523D01*
X113577619Y-85031904D01*
X113672857Y-84984285D01*
X113768095Y-84984285D01*
X113910952Y-85031904D01*
X114482380Y-85603333D01*
X114482380Y-84984285D01*
%TO.C,R17*%
X123557142Y-130652380D02*
X123223809Y-130176190D01*
X122985714Y-130652380D02*
X122985714Y-129652380D01*
X123366666Y-129652380D01*
X123461904Y-129700000D01*
X123509523Y-129747619D01*
X123557142Y-129842857D01*
X123557142Y-129985714D01*
X123509523Y-130080952D01*
X123461904Y-130128571D01*
X123366666Y-130176190D01*
X122985714Y-130176190D01*
X124509523Y-130652380D02*
X123938095Y-130652380D01*
X124223809Y-130652380D02*
X124223809Y-129652380D01*
X124128571Y-129795238D01*
X124033333Y-129890476D01*
X123938095Y-129938095D01*
X124842857Y-129652380D02*
X125509523Y-129652380D01*
X125080952Y-130652380D01*
%TO.C,R21*%
X129262380Y-123722857D02*
X128786190Y-124056190D01*
X129262380Y-124294285D02*
X128262380Y-124294285D01*
X128262380Y-123913333D01*
X128310000Y-123818095D01*
X128357619Y-123770476D01*
X128452857Y-123722857D01*
X128595714Y-123722857D01*
X128690952Y-123770476D01*
X128738571Y-123818095D01*
X128786190Y-123913333D01*
X128786190Y-124294285D01*
X128357619Y-123341904D02*
X128310000Y-123294285D01*
X128262380Y-123199047D01*
X128262380Y-122960952D01*
X128310000Y-122865714D01*
X128357619Y-122818095D01*
X128452857Y-122770476D01*
X128548095Y-122770476D01*
X128690952Y-122818095D01*
X129262380Y-123389523D01*
X129262380Y-122770476D01*
X129262380Y-121818095D02*
X129262380Y-122389523D01*
X129262380Y-122103809D02*
X128262380Y-122103809D01*
X128405238Y-122199047D01*
X128500476Y-122294285D01*
X128548095Y-122389523D01*
%TO.C,R5*%
X126575833Y-93622380D02*
X126242500Y-93146190D01*
X126004404Y-93622380D02*
X126004404Y-92622380D01*
X126385357Y-92622380D01*
X126480595Y-92670000D01*
X126528214Y-92717619D01*
X126575833Y-92812857D01*
X126575833Y-92955714D01*
X126528214Y-93050952D01*
X126480595Y-93098571D01*
X126385357Y-93146190D01*
X126004404Y-93146190D01*
X127480595Y-92622380D02*
X127004404Y-92622380D01*
X126956785Y-93098571D01*
X127004404Y-93050952D01*
X127099642Y-93003333D01*
X127337738Y-93003333D01*
X127432976Y-93050952D01*
X127480595Y-93098571D01*
X127528214Y-93193809D01*
X127528214Y-93431904D01*
X127480595Y-93527142D01*
X127432976Y-93574761D01*
X127337738Y-93622380D01*
X127099642Y-93622380D01*
X127004404Y-93574761D01*
X126956785Y-93527142D01*
%TO.C,J1*%
X132672380Y-88443333D02*
X133386666Y-88443333D01*
X133529523Y-88490952D01*
X133624761Y-88586190D01*
X133672380Y-88729047D01*
X133672380Y-88824285D01*
X133672380Y-87443333D02*
X133672380Y-88014761D01*
X133672380Y-87729047D02*
X132672380Y-87729047D01*
X132815238Y-87824285D01*
X132910476Y-87919523D01*
X132958095Y-88014761D01*
%TO.C,C4*%
X108097142Y-106384166D02*
X108144761Y-106431785D01*
X108192380Y-106574642D01*
X108192380Y-106669880D01*
X108144761Y-106812738D01*
X108049523Y-106907976D01*
X107954285Y-106955595D01*
X107763809Y-107003214D01*
X107620952Y-107003214D01*
X107430476Y-106955595D01*
X107335238Y-106907976D01*
X107240000Y-106812738D01*
X107192380Y-106669880D01*
X107192380Y-106574642D01*
X107240000Y-106431785D01*
X107287619Y-106384166D01*
X107525714Y-105527023D02*
X108192380Y-105527023D01*
X107144761Y-105765119D02*
X107859047Y-106003214D01*
X107859047Y-105384166D01*
%TO.C,R4*%
X126372380Y-86356666D02*
X125896190Y-86690000D01*
X126372380Y-86928095D02*
X125372380Y-86928095D01*
X125372380Y-86547142D01*
X125420000Y-86451904D01*
X125467619Y-86404285D01*
X125562857Y-86356666D01*
X125705714Y-86356666D01*
X125800952Y-86404285D01*
X125848571Y-86451904D01*
X125896190Y-86547142D01*
X125896190Y-86928095D01*
X125705714Y-85499523D02*
X126372380Y-85499523D01*
X125324761Y-85737619D02*
X126039047Y-85975714D01*
X126039047Y-85356666D01*
%TO.C,R3*%
X124452380Y-86386666D02*
X123976190Y-86720000D01*
X124452380Y-86958095D02*
X123452380Y-86958095D01*
X123452380Y-86577142D01*
X123500000Y-86481904D01*
X123547619Y-86434285D01*
X123642857Y-86386666D01*
X123785714Y-86386666D01*
X123880952Y-86434285D01*
X123928571Y-86481904D01*
X123976190Y-86577142D01*
X123976190Y-86958095D01*
X123452380Y-86053333D02*
X123452380Y-85434285D01*
X123833333Y-85767619D01*
X123833333Y-85624761D01*
X123880952Y-85529523D01*
X123928571Y-85481904D01*
X124023809Y-85434285D01*
X124261904Y-85434285D01*
X124357142Y-85481904D01*
X124404761Y-85529523D01*
X124452380Y-85624761D01*
X124452380Y-85910476D01*
X124404761Y-86005714D01*
X124357142Y-86053333D01*
%TO.C,R18*%
X125552380Y-123772857D02*
X125076190Y-124106190D01*
X125552380Y-124344285D02*
X124552380Y-124344285D01*
X124552380Y-123963333D01*
X124600000Y-123868095D01*
X124647619Y-123820476D01*
X124742857Y-123772857D01*
X124885714Y-123772857D01*
X124980952Y-123820476D01*
X125028571Y-123868095D01*
X125076190Y-123963333D01*
X125076190Y-124344285D01*
X125552380Y-122820476D02*
X125552380Y-123391904D01*
X125552380Y-123106190D02*
X124552380Y-123106190D01*
X124695238Y-123201428D01*
X124790476Y-123296666D01*
X124838095Y-123391904D01*
X124980952Y-122249047D02*
X124933333Y-122344285D01*
X124885714Y-122391904D01*
X124790476Y-122439523D01*
X124742857Y-122439523D01*
X124647619Y-122391904D01*
X124600000Y-122344285D01*
X124552380Y-122249047D01*
X124552380Y-122058571D01*
X124600000Y-121963333D01*
X124647619Y-121915714D01*
X124742857Y-121868095D01*
X124790476Y-121868095D01*
X124885714Y-121915714D01*
X124933333Y-121963333D01*
X124980952Y-122058571D01*
X124980952Y-122249047D01*
X125028571Y-122344285D01*
X125076190Y-122391904D01*
X125171428Y-122439523D01*
X125361904Y-122439523D01*
X125457142Y-122391904D01*
X125504761Y-122344285D01*
X125552380Y-122249047D01*
X125552380Y-122058571D01*
X125504761Y-121963333D01*
X125457142Y-121915714D01*
X125361904Y-121868095D01*
X125171428Y-121868095D01*
X125076190Y-121915714D01*
X125028571Y-121963333D01*
X124980952Y-122058571D01*
%TO.C,R12*%
X128882380Y-105332857D02*
X128406190Y-105666190D01*
X128882380Y-105904285D02*
X127882380Y-105904285D01*
X127882380Y-105523333D01*
X127930000Y-105428095D01*
X127977619Y-105380476D01*
X128072857Y-105332857D01*
X128215714Y-105332857D01*
X128310952Y-105380476D01*
X128358571Y-105428095D01*
X128406190Y-105523333D01*
X128406190Y-105904285D01*
X128882380Y-104380476D02*
X128882380Y-104951904D01*
X128882380Y-104666190D02*
X127882380Y-104666190D01*
X128025238Y-104761428D01*
X128120476Y-104856666D01*
X128168095Y-104951904D01*
X127977619Y-103999523D02*
X127930000Y-103951904D01*
X127882380Y-103856666D01*
X127882380Y-103618571D01*
X127930000Y-103523333D01*
X127977619Y-103475714D01*
X128072857Y-103428095D01*
X128168095Y-103428095D01*
X128310952Y-103475714D01*
X128882380Y-104047142D01*
X128882380Y-103428095D01*
%TO.C,R7*%
X106943333Y-109392380D02*
X106610000Y-108916190D01*
X106371904Y-109392380D02*
X106371904Y-108392380D01*
X106752857Y-108392380D01*
X106848095Y-108440000D01*
X106895714Y-108487619D01*
X106943333Y-108582857D01*
X106943333Y-108725714D01*
X106895714Y-108820952D01*
X106848095Y-108868571D01*
X106752857Y-108916190D01*
X106371904Y-108916190D01*
X107276666Y-108392380D02*
X107943333Y-108392380D01*
X107514761Y-109392380D01*
%TO.C,R14*%
X115962380Y-127052857D02*
X115486190Y-127386190D01*
X115962380Y-127624285D02*
X114962380Y-127624285D01*
X114962380Y-127243333D01*
X115010000Y-127148095D01*
X115057619Y-127100476D01*
X115152857Y-127052857D01*
X115295714Y-127052857D01*
X115390952Y-127100476D01*
X115438571Y-127148095D01*
X115486190Y-127243333D01*
X115486190Y-127624285D01*
X115962380Y-126100476D02*
X115962380Y-126671904D01*
X115962380Y-126386190D02*
X114962380Y-126386190D01*
X115105238Y-126481428D01*
X115200476Y-126576666D01*
X115248095Y-126671904D01*
X115295714Y-125243333D02*
X115962380Y-125243333D01*
X114914761Y-125481428D02*
X115629047Y-125719523D01*
X115629047Y-125100476D01*
%TO.C,J3*%
X104652380Y-111133333D02*
X105366666Y-111133333D01*
X105509523Y-111180952D01*
X105604761Y-111276190D01*
X105652380Y-111419047D01*
X105652380Y-111514285D01*
X104652380Y-110752380D02*
X104652380Y-110133333D01*
X105033333Y-110466666D01*
X105033333Y-110323809D01*
X105080952Y-110228571D01*
X105128571Y-110180952D01*
X105223809Y-110133333D01*
X105461904Y-110133333D01*
X105557142Y-110180952D01*
X105604761Y-110228571D01*
X105652380Y-110323809D01*
X105652380Y-110609523D01*
X105604761Y-110704761D01*
X105557142Y-110752380D01*
%TO.C,R13*%
X106722380Y-128612857D02*
X106246190Y-128946190D01*
X106722380Y-129184285D02*
X105722380Y-129184285D01*
X105722380Y-128803333D01*
X105770000Y-128708095D01*
X105817619Y-128660476D01*
X105912857Y-128612857D01*
X106055714Y-128612857D01*
X106150952Y-128660476D01*
X106198571Y-128708095D01*
X106246190Y-128803333D01*
X106246190Y-129184285D01*
X106722380Y-127660476D02*
X106722380Y-128231904D01*
X106722380Y-127946190D02*
X105722380Y-127946190D01*
X105865238Y-128041428D01*
X105960476Y-128136666D01*
X106008095Y-128231904D01*
X105722380Y-127327142D02*
X105722380Y-126708095D01*
X106103333Y-127041428D01*
X106103333Y-126898571D01*
X106150952Y-126803333D01*
X106198571Y-126755714D01*
X106293809Y-126708095D01*
X106531904Y-126708095D01*
X106627142Y-126755714D01*
X106674761Y-126803333D01*
X106722380Y-126898571D01*
X106722380Y-127184285D01*
X106674761Y-127279523D01*
X106627142Y-127327142D01*
%TO.C,J2*%
X104112380Y-91713333D02*
X104826666Y-91713333D01*
X104969523Y-91760952D01*
X105064761Y-91856190D01*
X105112380Y-91999047D01*
X105112380Y-92094285D01*
X104207619Y-91284761D02*
X104160000Y-91237142D01*
X104112380Y-91141904D01*
X104112380Y-90903809D01*
X104160000Y-90808571D01*
X104207619Y-90760952D01*
X104302857Y-90713333D01*
X104398095Y-90713333D01*
X104540952Y-90760952D01*
X105112380Y-91332380D01*
X105112380Y-90713333D01*
%TO.C,R8*%
X112703333Y-109362380D02*
X112370000Y-108886190D01*
X112131904Y-109362380D02*
X112131904Y-108362380D01*
X112512857Y-108362380D01*
X112608095Y-108410000D01*
X112655714Y-108457619D01*
X112703333Y-108552857D01*
X112703333Y-108695714D01*
X112655714Y-108790952D01*
X112608095Y-108838571D01*
X112512857Y-108886190D01*
X112131904Y-108886190D01*
X113274761Y-108790952D02*
X113179523Y-108743333D01*
X113131904Y-108695714D01*
X113084285Y-108600476D01*
X113084285Y-108552857D01*
X113131904Y-108457619D01*
X113179523Y-108410000D01*
X113274761Y-108362380D01*
X113465238Y-108362380D01*
X113560476Y-108410000D01*
X113608095Y-108457619D01*
X113655714Y-108552857D01*
X113655714Y-108600476D01*
X113608095Y-108695714D01*
X113560476Y-108743333D01*
X113465238Y-108790952D01*
X113274761Y-108790952D01*
X113179523Y-108838571D01*
X113131904Y-108886190D01*
X113084285Y-108981428D01*
X113084285Y-109171904D01*
X113131904Y-109267142D01*
X113179523Y-109314761D01*
X113274761Y-109362380D01*
X113465238Y-109362380D01*
X113560476Y-109314761D01*
X113608095Y-109267142D01*
X113655714Y-109171904D01*
X113655714Y-108981428D01*
X113608095Y-108886190D01*
X113560476Y-108838571D01*
X113465238Y-108790952D01*
%TO.C,J6*%
X132877380Y-126858333D02*
X133591666Y-126858333D01*
X133734523Y-126905952D01*
X133829761Y-127001190D01*
X133877380Y-127144047D01*
X133877380Y-127239285D01*
X132877380Y-125953571D02*
X132877380Y-126144047D01*
X132925000Y-126239285D01*
X132972619Y-126286904D01*
X133115476Y-126382142D01*
X133305952Y-126429761D01*
X133686904Y-126429761D01*
X133782142Y-126382142D01*
X133829761Y-126334523D01*
X133877380Y-126239285D01*
X133877380Y-126048809D01*
X133829761Y-125953571D01*
X133782142Y-125905952D01*
X133686904Y-125858333D01*
X133448809Y-125858333D01*
X133353571Y-125905952D01*
X133305952Y-125953571D01*
X133258333Y-126048809D01*
X133258333Y-126239285D01*
X133305952Y-126334523D01*
X133353571Y-126382142D01*
X133448809Y-126429761D01*
%TO.C,C5*%
X113657142Y-107106666D02*
X113704761Y-107154285D01*
X113752380Y-107297142D01*
X113752380Y-107392380D01*
X113704761Y-107535238D01*
X113609523Y-107630476D01*
X113514285Y-107678095D01*
X113323809Y-107725714D01*
X113180952Y-107725714D01*
X112990476Y-107678095D01*
X112895238Y-107630476D01*
X112800000Y-107535238D01*
X112752380Y-107392380D01*
X112752380Y-107297142D01*
X112800000Y-107154285D01*
X112847619Y-107106666D01*
X112752380Y-106201904D02*
X112752380Y-106678095D01*
X113228571Y-106725714D01*
X113180952Y-106678095D01*
X113133333Y-106582857D01*
X113133333Y-106344761D01*
X113180952Y-106249523D01*
X113228571Y-106201904D01*
X113323809Y-106154285D01*
X113561904Y-106154285D01*
X113657142Y-106201904D01*
X113704761Y-106249523D01*
X113752380Y-106344761D01*
X113752380Y-106582857D01*
X113704761Y-106678095D01*
X113657142Y-106725714D01*
%TO.C,R2*%
X113192380Y-90226666D02*
X112716190Y-90560000D01*
X113192380Y-90798095D02*
X112192380Y-90798095D01*
X112192380Y-90417142D01*
X112240000Y-90321904D01*
X112287619Y-90274285D01*
X112382857Y-90226666D01*
X112525714Y-90226666D01*
X112620952Y-90274285D01*
X112668571Y-90321904D01*
X112716190Y-90417142D01*
X112716190Y-90798095D01*
X112287619Y-89845714D02*
X112240000Y-89798095D01*
X112192380Y-89702857D01*
X112192380Y-89464761D01*
X112240000Y-89369523D01*
X112287619Y-89321904D01*
X112382857Y-89274285D01*
X112478095Y-89274285D01*
X112620952Y-89321904D01*
X113192380Y-89893333D01*
X113192380Y-89274285D01*
%TO.C,R20*%
X127057142Y-130672380D02*
X126723809Y-130196190D01*
X126485714Y-130672380D02*
X126485714Y-129672380D01*
X126866666Y-129672380D01*
X126961904Y-129720000D01*
X127009523Y-129767619D01*
X127057142Y-129862857D01*
X127057142Y-130005714D01*
X127009523Y-130100952D01*
X126961904Y-130148571D01*
X126866666Y-130196190D01*
X126485714Y-130196190D01*
X127438095Y-129767619D02*
X127485714Y-129720000D01*
X127580952Y-129672380D01*
X127819047Y-129672380D01*
X127914285Y-129720000D01*
X127961904Y-129767619D01*
X128009523Y-129862857D01*
X128009523Y-129958095D01*
X127961904Y-130100952D01*
X127390476Y-130672380D01*
X128009523Y-130672380D01*
X128628571Y-129672380D02*
X128723809Y-129672380D01*
X128819047Y-129720000D01*
X128866666Y-129767619D01*
X128914285Y-129862857D01*
X128961904Y-130053333D01*
X128961904Y-130291428D01*
X128914285Y-130481904D01*
X128866666Y-130577142D01*
X128819047Y-130624761D01*
X128723809Y-130672380D01*
X128628571Y-130672380D01*
X128533333Y-130624761D01*
X128485714Y-130577142D01*
X128438095Y-130481904D01*
X128390476Y-130291428D01*
X128390476Y-130053333D01*
X128438095Y-129862857D01*
X128485714Y-129767619D01*
X128533333Y-129720000D01*
X128628571Y-129672380D01*
%TO.C,C8*%
X113543333Y-126537142D02*
X113495714Y-126584761D01*
X113352857Y-126632380D01*
X113257619Y-126632380D01*
X113114761Y-126584761D01*
X113019523Y-126489523D01*
X112971904Y-126394285D01*
X112924285Y-126203809D01*
X112924285Y-126060952D01*
X112971904Y-125870476D01*
X113019523Y-125775238D01*
X113114761Y-125680000D01*
X113257619Y-125632380D01*
X113352857Y-125632380D01*
X113495714Y-125680000D01*
X113543333Y-125727619D01*
X114114761Y-126060952D02*
X114019523Y-126013333D01*
X113971904Y-125965714D01*
X113924285Y-125870476D01*
X113924285Y-125822857D01*
X113971904Y-125727619D01*
X114019523Y-125680000D01*
X114114761Y-125632380D01*
X114305238Y-125632380D01*
X114400476Y-125680000D01*
X114448095Y-125727619D01*
X114495714Y-125822857D01*
X114495714Y-125870476D01*
X114448095Y-125965714D01*
X114400476Y-126013333D01*
X114305238Y-126060952D01*
X114114761Y-126060952D01*
X114019523Y-126108571D01*
X113971904Y-126156190D01*
X113924285Y-126251428D01*
X113924285Y-126441904D01*
X113971904Y-126537142D01*
X114019523Y-126584761D01*
X114114761Y-126632380D01*
X114305238Y-126632380D01*
X114400476Y-126584761D01*
X114448095Y-126537142D01*
X114495714Y-126441904D01*
X114495714Y-126251428D01*
X114448095Y-126156190D01*
X114400476Y-126108571D01*
X114305238Y-126060952D01*
%TO.C,D2*%
X118601904Y-106952380D02*
X118601904Y-105952380D01*
X118840000Y-105952380D01*
X118982857Y-106000000D01*
X119078095Y-106095238D01*
X119125714Y-106190476D01*
X119173333Y-106380952D01*
X119173333Y-106523809D01*
X119125714Y-106714285D01*
X119078095Y-106809523D01*
X118982857Y-106904761D01*
X118840000Y-106952380D01*
X118601904Y-106952380D01*
X119554285Y-106047619D02*
X119601904Y-106000000D01*
X119697142Y-105952380D01*
X119935238Y-105952380D01*
X120030476Y-106000000D01*
X120078095Y-106047619D01*
X120125714Y-106142857D01*
X120125714Y-106238095D01*
X120078095Y-106380952D01*
X119506666Y-106952380D01*
X120125714Y-106952380D01*
%TO.C,C3*%
X121883333Y-88967142D02*
X121835714Y-89014761D01*
X121692857Y-89062380D01*
X121597619Y-89062380D01*
X121454761Y-89014761D01*
X121359523Y-88919523D01*
X121311904Y-88824285D01*
X121264285Y-88633809D01*
X121264285Y-88490952D01*
X121311904Y-88300476D01*
X121359523Y-88205238D01*
X121454761Y-88110000D01*
X121597619Y-88062380D01*
X121692857Y-88062380D01*
X121835714Y-88110000D01*
X121883333Y-88157619D01*
X122216666Y-88062380D02*
X122835714Y-88062380D01*
X122502380Y-88443333D01*
X122645238Y-88443333D01*
X122740476Y-88490952D01*
X122788095Y-88538571D01*
X122835714Y-88633809D01*
X122835714Y-88871904D01*
X122788095Y-88967142D01*
X122740476Y-89014761D01*
X122645238Y-89062380D01*
X122359523Y-89062380D01*
X122264285Y-89014761D01*
X122216666Y-88967142D01*
%TO.C,J4*%
X132642380Y-107353333D02*
X133356666Y-107353333D01*
X133499523Y-107400952D01*
X133594761Y-107496190D01*
X133642380Y-107639047D01*
X133642380Y-107734285D01*
X132975714Y-106448571D02*
X133642380Y-106448571D01*
X132594761Y-106686666D02*
X133309047Y-106924761D01*
X133309047Y-106305714D01*
%TO.C,C9*%
X121163333Y-130247142D02*
X121115714Y-130294761D01*
X120972857Y-130342380D01*
X120877619Y-130342380D01*
X120734761Y-130294761D01*
X120639523Y-130199523D01*
X120591904Y-130104285D01*
X120544285Y-129913809D01*
X120544285Y-129770952D01*
X120591904Y-129580476D01*
X120639523Y-129485238D01*
X120734761Y-129390000D01*
X120877619Y-129342380D01*
X120972857Y-129342380D01*
X121115714Y-129390000D01*
X121163333Y-129437619D01*
X121639523Y-130342380D02*
X121830000Y-130342380D01*
X121925238Y-130294761D01*
X121972857Y-130247142D01*
X122068095Y-130104285D01*
X122115714Y-129913809D01*
X122115714Y-129532857D01*
X122068095Y-129437619D01*
X122020476Y-129390000D01*
X121925238Y-129342380D01*
X121734761Y-129342380D01*
X121639523Y-129390000D01*
X121591904Y-129437619D01*
X121544285Y-129532857D01*
X121544285Y-129770952D01*
X121591904Y-129866190D01*
X121639523Y-129913809D01*
X121734761Y-129961428D01*
X121925238Y-129961428D01*
X122020476Y-129913809D01*
X122068095Y-129866190D01*
X122115714Y-129770952D01*
%TO.C,D1*%
X118031904Y-88152380D02*
X118031904Y-87152380D01*
X118270000Y-87152380D01*
X118412857Y-87200000D01*
X118508095Y-87295238D01*
X118555714Y-87390476D01*
X118603333Y-87580952D01*
X118603333Y-87723809D01*
X118555714Y-87914285D01*
X118508095Y-88009523D01*
X118412857Y-88104761D01*
X118270000Y-88152380D01*
X118031904Y-88152380D01*
X119555714Y-88152380D02*
X118984285Y-88152380D01*
X119270000Y-88152380D02*
X119270000Y-87152380D01*
X119174761Y-87295238D01*
X119079523Y-87390476D01*
X118984285Y-87438095D01*
%TO.C,C7*%
X108353333Y-125807142D02*
X108305714Y-125854761D01*
X108162857Y-125902380D01*
X108067619Y-125902380D01*
X107924761Y-125854761D01*
X107829523Y-125759523D01*
X107781904Y-125664285D01*
X107734285Y-125473809D01*
X107734285Y-125330952D01*
X107781904Y-125140476D01*
X107829523Y-125045238D01*
X107924761Y-124950000D01*
X108067619Y-124902380D01*
X108162857Y-124902380D01*
X108305714Y-124950000D01*
X108353333Y-124997619D01*
X108686666Y-124902380D02*
X109353333Y-124902380D01*
X108924761Y-125902380D01*
%TO.C,R16*%
X123892380Y-123642857D02*
X123416190Y-123976190D01*
X123892380Y-124214285D02*
X122892380Y-124214285D01*
X122892380Y-123833333D01*
X122940000Y-123738095D01*
X122987619Y-123690476D01*
X123082857Y-123642857D01*
X123225714Y-123642857D01*
X123320952Y-123690476D01*
X123368571Y-123738095D01*
X123416190Y-123833333D01*
X123416190Y-124214285D01*
X123892380Y-122690476D02*
X123892380Y-123261904D01*
X123892380Y-122976190D02*
X122892380Y-122976190D01*
X123035238Y-123071428D01*
X123130476Y-123166666D01*
X123178095Y-123261904D01*
X122892380Y-121833333D02*
X122892380Y-122023809D01*
X122940000Y-122119047D01*
X122987619Y-122166666D01*
X123130476Y-122261904D01*
X123320952Y-122309523D01*
X123701904Y-122309523D01*
X123797142Y-122261904D01*
X123844761Y-122214285D01*
X123892380Y-122119047D01*
X123892380Y-121928571D01*
X123844761Y-121833333D01*
X123797142Y-121785714D01*
X123701904Y-121738095D01*
X123463809Y-121738095D01*
X123368571Y-121785714D01*
X123320952Y-121833333D01*
X123273333Y-121928571D01*
X123273333Y-122119047D01*
X123320952Y-122214285D01*
X123368571Y-122261904D01*
X123463809Y-122309523D01*
%TO.C,J5*%
X104532380Y-129873333D02*
X105246666Y-129873333D01*
X105389523Y-129920952D01*
X105484761Y-130016190D01*
X105532380Y-130159047D01*
X105532380Y-130254285D01*
X104532380Y-128920952D02*
X104532380Y-129397142D01*
X105008571Y-129444761D01*
X104960952Y-129397142D01*
X104913333Y-129301904D01*
X104913333Y-129063809D01*
X104960952Y-128968571D01*
X105008571Y-128920952D01*
X105103809Y-128873333D01*
X105341904Y-128873333D01*
X105437142Y-128920952D01*
X105484761Y-128968571D01*
X105532380Y-129063809D01*
X105532380Y-129301904D01*
X105484761Y-129397142D01*
X105437142Y-129444761D01*
D11*
%TO.C,R11*%
X127215276Y-110127500D02*
X127724724Y-110127500D01*
X127215276Y-111172500D02*
X127724724Y-111172500D01*
%TO.C,C6*%
X122444165Y-108540000D02*
X122675835Y-108540000D01*
X122444165Y-109260000D02*
X122675835Y-109260000D01*
%TO.C,R1*%
X110047064Y-90635000D02*
X109592936Y-90635000D01*
X110047064Y-89165000D02*
X109592936Y-89165000D01*
%TO.C,RV1*%
X106685000Y-96400000D02*
X116455000Y-96400000D01*
X106685000Y-91330000D02*
X106685000Y-96400000D01*
X106685000Y-91330000D02*
X116455000Y-91330000D01*
X116455000Y-91330000D02*
X116455000Y-96400000D01*
%TO.C,RV2*%
X106895000Y-110080000D02*
X116665000Y-110080000D01*
X116665000Y-110080000D02*
X116665000Y-115150000D01*
X106895000Y-115150000D02*
X116665000Y-115150000D01*
X106895000Y-110080000D02*
X106895000Y-115150000D01*
%TO.C,R15*%
X121157500Y-126324724D02*
X121157500Y-125815276D01*
X122202500Y-126324724D02*
X122202500Y-125815276D01*
%TO.C,R19*%
X126277500Y-126434724D02*
X126277500Y-125925276D01*
X127322500Y-126434724D02*
X127322500Y-125925276D01*
%TO.C,RV3*%
X105905000Y-129710000D02*
X105905000Y-134780000D01*
X115675000Y-129710000D02*
X115675000Y-134780000D01*
X105905000Y-134780000D02*
X115675000Y-134780000D01*
X105905000Y-129710000D02*
X115675000Y-129710000D01*
%TO.C,R6*%
X127267500Y-89324724D02*
X127267500Y-88815276D01*
X128312500Y-89324724D02*
X128312500Y-88815276D01*
%TO.C,C1*%
X108410000Y-87735835D02*
X108410000Y-87504165D01*
X109130000Y-87735835D02*
X109130000Y-87504165D01*
%TO.C,R9*%
X125162500Y-108177224D02*
X125162500Y-107667776D01*
X124117500Y-108177224D02*
X124117500Y-107667776D01*
%TO.C,D3*%
X118120000Y-130230000D02*
X118770000Y-130230000D01*
X118120000Y-127110000D02*
X116445000Y-127110000D01*
X118120000Y-127110000D02*
X118770000Y-127110000D01*
X118120000Y-130230000D02*
X117470000Y-130230000D01*
%TO.C,R10*%
X127032500Y-108254724D02*
X127032500Y-107745276D01*
X125987500Y-108254724D02*
X125987500Y-107745276D01*
%TO.C,C2*%
X114310000Y-88225835D02*
X114310000Y-87994165D01*
X113590000Y-88225835D02*
X113590000Y-87994165D01*
%TO.C,R17*%
X123985276Y-128177500D02*
X124494724Y-128177500D01*
X123985276Y-129222500D02*
X124494724Y-129222500D01*
%TO.C,R21*%
X129232500Y-126534724D02*
X129232500Y-126025276D01*
X128187500Y-126534724D02*
X128187500Y-126025276D01*
%TO.C,R5*%
X126605276Y-92192500D02*
X127114724Y-92192500D01*
X126605276Y-91147500D02*
X127114724Y-91147500D01*
%TO.C,J1*%
X129920000Y-90470000D02*
X130420000Y-90220000D01*
X129920000Y-89970000D02*
X129920000Y-90470000D01*
X130420000Y-90220000D02*
X129920000Y-89970000D01*
%TO.C,C4*%
X109260000Y-106333335D02*
X109260000Y-106101665D01*
X108540000Y-106333335D02*
X108540000Y-106101665D01*
%TO.C,R4*%
X126412500Y-89304724D02*
X126412500Y-88795276D01*
X125367500Y-89304724D02*
X125367500Y-88795276D01*
%TO.C,R3*%
X124512500Y-89324724D02*
X124512500Y-88815276D01*
X123467500Y-89324724D02*
X123467500Y-88815276D01*
%TO.C,R18*%
X124587500Y-126424724D02*
X124587500Y-125915276D01*
X125632500Y-126424724D02*
X125632500Y-125915276D01*
%TO.C,R12*%
X129062500Y-108267224D02*
X129062500Y-107757776D01*
X128017500Y-108267224D02*
X128017500Y-107757776D01*
%TO.C,R7*%
X110187064Y-109335000D02*
X109732936Y-109335000D01*
X110187064Y-107865000D02*
X109732936Y-107865000D01*
%TO.C,R14*%
X114654724Y-129212500D02*
X114145276Y-129212500D01*
X114654724Y-128167500D02*
X114145276Y-128167500D01*
%TO.C,J3*%
X96310000Y-105720000D02*
X96310000Y-115880000D01*
X103930000Y-115880000D02*
X103930000Y-105720000D01*
X97580000Y-115880000D02*
X97580000Y-105720000D01*
X96310000Y-115880000D02*
X103930000Y-115880000D01*
X103930000Y-105720000D02*
X96310000Y-105720000D01*
%TO.C,R13*%
X109217064Y-129095000D02*
X108762936Y-129095000D01*
X109217064Y-127625000D02*
X108762936Y-127625000D01*
%TO.C,J2*%
X95770000Y-96460000D02*
X103390000Y-96460000D01*
X103390000Y-86300000D02*
X95770000Y-86300000D01*
X103390000Y-96460000D02*
X103390000Y-86300000D01*
X95770000Y-86300000D02*
X95770000Y-96460000D01*
X97040000Y-96460000D02*
X97040000Y-86300000D01*
%TO.C,R8*%
X115794724Y-108427500D02*
X115285276Y-108427500D01*
X115794724Y-109472500D02*
X115285276Y-109472500D01*
%TO.C,J6*%
X129927500Y-128790000D02*
X130427500Y-128540000D01*
X130427500Y-128540000D02*
X129927500Y-128290000D01*
X129927500Y-128290000D02*
X129927500Y-128790000D01*
%TO.C,C5*%
X114860000Y-107005835D02*
X114860000Y-106774165D01*
X114140000Y-107005835D02*
X114140000Y-106774165D01*
%TO.C,R2*%
X115324724Y-90622500D02*
X114815276Y-90622500D01*
X115324724Y-89577500D02*
X114815276Y-89577500D01*
%TO.C,R20*%
X127485276Y-128157500D02*
X127994724Y-128157500D01*
X127485276Y-129202500D02*
X127994724Y-129202500D01*
%TO.C,C8*%
X113704165Y-127680000D02*
X113935835Y-127680000D01*
X113704165Y-126960000D02*
X113935835Y-126960000D01*
%TO.C,D2*%
X119340000Y-110460000D02*
X118690000Y-110460000D01*
X119340000Y-107340000D02*
X119990000Y-107340000D01*
X119340000Y-107340000D02*
X117665000Y-107340000D01*
X119340000Y-110460000D02*
X119990000Y-110460000D01*
%TO.C,C3*%
X121864165Y-90430000D02*
X122095835Y-90430000D01*
X121864165Y-89710000D02*
X122095835Y-89710000D01*
%TO.C,J4*%
X129977500Y-109260000D02*
X130477500Y-109010000D01*
X130477500Y-109010000D02*
X129977500Y-108760000D01*
X129977500Y-108760000D02*
X129977500Y-109260000D01*
%TO.C,C9*%
X121144165Y-129020000D02*
X121375835Y-129020000D01*
X121144165Y-128300000D02*
X121375835Y-128300000D01*
%TO.C,D1*%
X118760000Y-88500000D02*
X119410000Y-88500000D01*
X118760000Y-91620000D02*
X118110000Y-91620000D01*
X118760000Y-88500000D02*
X117085000Y-88500000D01*
X118760000Y-91620000D02*
X119410000Y-91620000D01*
%TO.C,C7*%
X108404165Y-126250000D02*
X108635835Y-126250000D01*
X108404165Y-126970000D02*
X108635835Y-126970000D01*
%TO.C,R16*%
X123912500Y-126354724D02*
X123912500Y-125845276D01*
X122867500Y-126354724D02*
X122867500Y-125845276D01*
%TO.C,J5*%
X97460000Y-134620000D02*
X97460000Y-124460000D01*
X103810000Y-124460000D02*
X96190000Y-124460000D01*
X96190000Y-124460000D02*
X96190000Y-134620000D01*
X103810000Y-134620000D02*
X103810000Y-124460000D01*
X96190000Y-134620000D02*
X103810000Y-134620000D01*
%TD*%
%LPC*%
D12*
%TO.C,R11*%
X126557500Y-110650000D03*
X128382500Y-110650000D03*
%TD*%
D13*
%TO.C,C6*%
X121992500Y-108900000D03*
X123127500Y-108900000D03*
%TD*%
D14*
%TO.C,R1*%
X110820000Y-89900000D03*
X108820000Y-89900000D03*
%TD*%
D15*
%TO.C,RV1*%
X114110000Y-93860000D03*
X111570000Y-93860000D03*
X109030000Y-93860000D03*
%TD*%
%TO.C,RV2*%
X114320000Y-112610000D03*
X111780000Y-112610000D03*
X109240000Y-112610000D03*
%TD*%
D16*
%TO.C,R15*%
X121680000Y-126982500D03*
X121680000Y-125157500D03*
%TD*%
%TO.C,R19*%
X126800000Y-127092500D03*
X126800000Y-125267500D03*
%TD*%
D15*
%TO.C,RV3*%
X113330000Y-132240000D03*
X110790000Y-132240000D03*
X108250000Y-132240000D03*
%TD*%
D16*
%TO.C,R6*%
X127790000Y-89982500D03*
X127790000Y-88157500D03*
%TD*%
D17*
%TO.C,C1*%
X108770000Y-88187500D03*
X108770000Y-87052500D03*
%TD*%
D16*
%TO.C,R9*%
X124640000Y-108835000D03*
X124640000Y-107010000D03*
%TD*%
D18*
%TO.C,D3*%
X117182500Y-127720000D03*
X117182500Y-129620000D03*
X119057500Y-128670000D03*
%TD*%
D16*
%TO.C,R10*%
X126510000Y-108912500D03*
X126510000Y-107087500D03*
%TD*%
D17*
%TO.C,C2*%
X113950000Y-88677500D03*
X113950000Y-87542500D03*
%TD*%
D12*
%TO.C,R17*%
X123327500Y-128700000D03*
X125152500Y-128700000D03*
%TD*%
D16*
%TO.C,R21*%
X128710000Y-127192500D03*
X128710000Y-125367500D03*
%TD*%
D12*
%TO.C,R5*%
X125947500Y-91670000D03*
X127772500Y-91670000D03*
%TD*%
D19*
%TO.C,J1*%
X133630000Y-90220000D03*
X133630000Y-85970000D03*
X133630000Y-94470000D03*
%TD*%
D17*
%TO.C,C4*%
X108900000Y-106785000D03*
X108900000Y-105650000D03*
%TD*%
D16*
%TO.C,R4*%
X125890000Y-89962500D03*
X125890000Y-88137500D03*
%TD*%
%TO.C,R3*%
X123990000Y-89982500D03*
X123990000Y-88157500D03*
%TD*%
%TO.C,R18*%
X125110000Y-127082500D03*
X125110000Y-125257500D03*
%TD*%
%TO.C,R12*%
X128540000Y-108925000D03*
X128540000Y-107100000D03*
%TD*%
D14*
%TO.C,R7*%
X110960000Y-108600000D03*
X108960000Y-108600000D03*
%TD*%
D20*
%TO.C,R14*%
X115312500Y-128690000D03*
X113487500Y-128690000D03*
%TD*%
D21*
%TO.C,J3*%
X100120000Y-108260000D03*
D22*
X100120000Y-113340000D03*
%TD*%
D14*
%TO.C,R13*%
X109990000Y-128360000D03*
X107990000Y-128360000D03*
%TD*%
D21*
%TO.C,J2*%
X99580000Y-88840000D03*
D22*
X99580000Y-93920000D03*
%TD*%
D20*
%TO.C,R8*%
X116452500Y-108950000D03*
X114627500Y-108950000D03*
%TD*%
D19*
%TO.C,J6*%
X133637500Y-128540000D03*
X133637500Y-124290000D03*
X133637500Y-132790000D03*
%TD*%
D17*
%TO.C,C5*%
X114500000Y-107457500D03*
X114500000Y-106322500D03*
%TD*%
D20*
%TO.C,R2*%
X115982500Y-90100000D03*
X114157500Y-90100000D03*
%TD*%
D12*
%TO.C,R20*%
X126827500Y-128680000D03*
X128652500Y-128680000D03*
%TD*%
D13*
%TO.C,C8*%
X113252500Y-127320000D03*
X114387500Y-127320000D03*
%TD*%
D18*
%TO.C,D2*%
X118402500Y-107950000D03*
X118402500Y-109850000D03*
X120277500Y-108900000D03*
%TD*%
D13*
%TO.C,C3*%
X121412500Y-90070000D03*
X122547500Y-90070000D03*
%TD*%
D19*
%TO.C,J4*%
X133687500Y-109010000D03*
X133687500Y-104760000D03*
X133687500Y-113260000D03*
%TD*%
D13*
%TO.C,C9*%
X120692500Y-128660000D03*
X121827500Y-128660000D03*
%TD*%
D18*
%TO.C,D1*%
X117822500Y-89110000D03*
X117822500Y-91010000D03*
X119697500Y-90060000D03*
%TD*%
D13*
%TO.C,C7*%
X107952500Y-126610000D03*
X109087500Y-126610000D03*
%TD*%
D16*
%TO.C,R16*%
X123390000Y-127012500D03*
X123390000Y-125187500D03*
%TD*%
D21*
%TO.C,J5*%
X100000000Y-127000000D03*
D22*
X100000000Y-132080000D03*
%TD*%
M02*
