M48
; DRILL file {KiCad (6.0.11)} date Sat Jul 15 14:23:29 2023
; FORMAT={-:-/ absolute / inch / decimal}
; #@! TF.CreationDate,2023-07-15T14:23:29-05:00
; #@! TF.GenerationSoftware,Kicad,Pcbnew,(6.0.11)
; #@! TF.FileFunction,Plated,1,2,PTH
FMAT,2
INCH
; #@! TA.AperFunction,Plated,PTH,ViaDrill
T1C0.0157
; #@! TA.AperFunction,Plated,PTH,ComponentDrill
T2C0.0315
; #@! TA.AperFunction,Plated,PTH,ComponentDrill
T3C0.0394
; #@! TA.AperFunction,Plated,PTH,ComponentDrill
T4C0.0598
%
G90
G05
T1
X3.5938Y-5.0378
X3.6024Y-5.1378
X3.6036Y-4.9197
X3.6087Y-3.8717
X3.6135Y-4.8311
X3.6185Y-3.4484
X3.622Y-2.0079
X3.622Y-2.1898
X3.622Y-2.2835
X3.622Y-2.5197
X3.622Y-2.6772
X3.622Y-2.7559
X3.622Y-3.9567
X3.622Y-4.0551
X3.622Y-4.3898
X3.622Y-4.626
X3.622Y-5.2362
X3.622Y-5.3543
X3.6382Y-3.2516
X3.6417Y-3.1102
X3.6417Y-5.4921
X3.6614Y-4.1535
X3.6824Y-5.5512
X3.7205Y-2.8346
X3.7795Y-3.1102
X3.8189Y-1.9291
X3.8189Y-4.1535
X3.8189Y-4.3898
X3.8583Y-2.8346
X3.878Y-5.5512
X3.9236Y-3.1102
X3.937Y-1.9291
X3.9531Y-4.1535
X3.9567Y-2.8346
X3.9961Y-5.5512
X4.0157Y-4.3898
X4.022Y-3.1102
X4.0551Y-1.9291
X4.0713Y-3.4484
X4.0859Y-4.626
X4.0859Y-4.7622
X4.0859Y-5.0772
X4.0859Y-5.1559
X4.0945Y-2.8346
X4.0945Y-3.6024
X4.0945Y-4.0748
X4.0945Y-4.5079
X4.0945Y-5.3543
X4.0945Y-5.4134
X4.1106Y-3.2516
X4.1106Y-3.3303
X4.1106Y-3.6453
X4.1142Y-3.724
X4.1142Y-3.8028
X4.1142Y-3.8626
X4.1142Y-3.9173
X4.1142Y-4.1535
X4.1142Y-5.4724
X4.1142Y-5.5512
X4.1253Y-4.9591
X4.1339Y-2.0866
X4.1339Y-2.1654
X4.1339Y-2.3622
X4.1339Y-2.4803
X4.1339Y-2.5591
X4.1339Y-2.6261
X4.1339Y-2.69
X4.1339Y-3.1299
X4.1732Y-1.9291
X4.1732Y-2.0079
X4.1732Y-4.4094
X4.2189Y-3.1102
X4.2323Y-4.1535
X4.2323Y-5.5512
X4.252Y-1.9291
X4.252Y-2.8346
X4.2717Y-4.3898
X4.2925Y-5.1248
X4.2953Y-3.811
X4.2992Y-2.5551
X4.3307Y-3.1102
X4.3458Y-4.7504
X4.3504Y-5.5709
X4.3587Y-3.4248
X4.3701Y-1.9291
X4.3858Y-2.1693
X4.3898Y-4.3898
X4.3961Y-4.1535
X4.4094Y-2.8346
X4.4094Y-3.1102
X4.4685Y-4.3898
X4.4685Y-5.5709
X4.4882Y-1.9291
X4.4882Y-3.1102
X4.5118Y-3.8504
X4.5406Y-4.7701
X4.5591Y-2.5197
X4.5657Y-5.1783
X4.5669Y-2.8346
X4.5669Y-4.1535
X4.5669Y-4.3898
X4.5866Y-3.1102
X4.5866Y-5.5512
X4.5929Y-3.4425
X4.6036Y-4.778
X4.6063Y-1.9291
X4.6083Y-2.1811
X4.6362Y-3.4465
X4.6417Y-2.1831
X4.6606Y-1.9291
X4.6654Y-3.1102
X4.6654Y-4.3898
X4.685Y-2.8346
X4.685Y-5.5512
X4.7209Y-4.1535
X4.7244Y-1.9291
X4.7513Y-4.7386
X4.7638Y-2.8346
X4.7638Y-3.1102
X4.7638Y-4.3898
X4.8031Y-5.5512
X4.8295Y-1.9291
X4.835Y-5.2335
X4.8418Y-4.6815
X4.8421Y-3.9433
X4.8425Y-2.8346
X4.8425Y-3.1102
X4.8425Y-4.3898
X4.8547Y-3.4327
X4.8563Y-2.1713
X4.8622Y-4.1535
X4.8626Y-2.6803
X4.9016Y-5.5512
X4.9048Y-4.6835
X4.9213Y-1.9291
X4.9213Y-4.3898
X4.9291Y-2.0807
X4.9295Y-3.348
X4.9409Y-3.1102
X4.9606Y-2.8346
X4.9718Y-4.6874
X5.0Y-1.9291
X5.0Y-4.1535
X5.0197Y-3.1102
X5.0197Y-4.3898
X5.0367Y-4.6933
X5.0591Y-5.5709
X5.1063Y-2.0787
X5.1106Y-3.3303
X5.1181Y-1.9291
X5.1181Y-2.8346
X5.1181Y-4.3898
X5.1292Y-4.6894
X5.1378Y-3.1102
X5.1575Y-4.1535
X5.1772Y-5.5118
X5.1969Y-2.8346
X5.2165Y-3.9764
X5.2165Y-4.0748
X5.2165Y-5.4331
X5.2228Y-3.852
X5.2362Y-5.3543
X5.2473Y-4.5949
X5.2524Y-3.2319
X5.2559Y-4.3898
X5.2559Y-5.2756
X5.2572Y-5.1657
X5.2613Y-3.376
X5.2613Y-3.7106
X5.2756Y-1.9291
X5.2756Y-3.1299
X5.2756Y-4.7047
X5.2756Y-5.0394
X5.287Y-2.1224
X5.287Y-2.4571
X5.287Y-2.4571
X5.315Y-2.5197
X5.315Y-2.5984
X5.315Y-2.6378
X5.315Y-2.7559
T2
X4.2761Y-5.0177
X4.2988Y-3.685
X4.3185Y-2.4331
X4.3761Y-5.0177
X4.3988Y-3.685
X4.4185Y-2.4331
X4.4761Y-5.0177
X4.4988Y-3.685
X4.5185Y-2.4331
T3
X3.815Y-3.9646
X3.8189Y-5.3
X3.8386Y-2.6772
X3.915Y-3.9646
X3.9189Y-5.3
X3.9386Y-2.6772
T4
X3.8744Y-3.5272
X3.8744Y-3.7272
X3.8891Y-4.8114
X3.8891Y-5.0114
X3.8976Y-2.2354
X3.8976Y-2.4354
T0
M30
