%TF.GenerationSoftware,KiCad,Pcbnew,(6.0.11)*%
%TF.CreationDate,2023-07-15T23:52:58-05:00*%
%TF.ProjectId,SchottkyNoiseSource,5363686f-7474-46b7-994e-6f697365536f,rev?*%
%TF.SameCoordinates,Original*%
%TF.FileFunction,Paste,Top*%
%TF.FilePolarity,Positive*%
%FSLAX46Y46*%
G04 Gerber Fmt 4.6, Leading zero omitted, Abs format (unit mm)*
G04 Created by KiCad (PCBNEW (6.0.11)) date 2023-07-15 23:52:58*
%MOMM*%
%LPD*%
G01*
G04 APERTURE LIST*
G04 Aperture macros list*
%AMRoundRect*
0 Rectangle with rounded corners*
0 $1 Rounding radius*
0 $2 $3 $4 $5 $6 $7 $8 $9 X,Y pos of 4 corners*
0 Add a 4 corners polygon primitive as box body*
4,1,4,$2,$3,$4,$5,$6,$7,$8,$9,$2,$3,0*
0 Add four circle primitives for the rounded corners*
1,1,$1+$1,$2,$3*
1,1,$1+$1,$4,$5*
1,1,$1+$1,$6,$7*
1,1,$1+$1,$8,$9*
0 Add four rect primitives between the rounded corners*
20,1,$1+$1,$2,$3,$4,$5,0*
20,1,$1+$1,$4,$5,$6,$7,0*
20,1,$1+$1,$6,$7,$8,$9,0*
20,1,$1+$1,$8,$9,$2,$3,0*%
G04 Aperture macros list end*
%ADD10RoundRect,0.237500X-0.250000X-0.237500X0.250000X-0.237500X0.250000X0.237500X-0.250000X0.237500X0*%
%ADD11RoundRect,0.155000X-0.212500X-0.155000X0.212500X-0.155000X0.212500X0.155000X-0.212500X0.155000X0*%
%ADD12RoundRect,0.250000X0.350000X0.450000X-0.350000X0.450000X-0.350000X-0.450000X0.350000X-0.450000X0*%
%ADD13RoundRect,0.250000X-0.400000X-0.625000X0.400000X-0.625000X0.400000X0.625000X-0.400000X0.625000X0*%
%ADD14RoundRect,0.250000X0.625000X-0.400000X0.625000X0.400000X-0.625000X0.400000X-0.625000X-0.400000X0*%
%ADD15RoundRect,0.237500X0.237500X-0.250000X0.237500X0.250000X-0.237500X0.250000X-0.237500X-0.250000X0*%
%ADD16RoundRect,0.155000X0.155000X-0.212500X0.155000X0.212500X-0.155000X0.212500X-0.155000X-0.212500X0*%
%ADD17RoundRect,0.155000X0.212500X0.155000X-0.212500X0.155000X-0.212500X-0.155000X0.212500X-0.155000X0*%
%ADD18RoundRect,0.150000X-0.587500X-0.150000X0.587500X-0.150000X0.587500X0.150000X-0.587500X0.150000X0*%
%ADD19RoundRect,0.237500X0.250000X0.237500X-0.250000X0.237500X-0.250000X-0.237500X0.250000X-0.237500X0*%
%ADD20RoundRect,0.155000X-0.155000X0.212500X-0.155000X-0.212500X0.155000X-0.212500X0.155000X0.212500X0*%
%ADD21R,5.080000X1.500000*%
%ADD22RoundRect,0.150000X0.587500X0.150000X-0.587500X0.150000X-0.587500X-0.150000X0.587500X-0.150000X0*%
G04 APERTURE END LIST*
D10*
%TO.C,R11*%
X126477500Y-89890000D03*
X128302500Y-89890000D03*
%TD*%
D11*
%TO.C,C6*%
X121942500Y-89890000D03*
X123077500Y-89890000D03*
%TD*%
D12*
%TO.C,R1*%
X111480000Y-57840000D03*
X109480000Y-57840000D03*
%TD*%
D13*
%TO.C,R41*%
X126450000Y-100350000D03*
X129550000Y-100350000D03*
%TD*%
D10*
%TO.C,R33*%
X120187500Y-131220000D03*
X122012500Y-131220000D03*
%TD*%
D12*
%TO.C,R26*%
X113200000Y-98900000D03*
X111200000Y-98900000D03*
%TD*%
D10*
%TO.C,R32*%
X108053500Y-134620000D03*
X109878500Y-134620000D03*
%TD*%
D14*
%TO.C,R36*%
X128425000Y-64000000D03*
X128425000Y-60900000D03*
%TD*%
%TO.C,R43*%
X126339600Y-129718400D03*
X126339600Y-126618400D03*
%TD*%
D15*
%TO.C,R15*%
X122042500Y-122192500D03*
X122042500Y-120367500D03*
%TD*%
D11*
%TO.C,C11*%
X98342500Y-85840000D03*
X99477500Y-85840000D03*
%TD*%
D16*
%TO.C,C20*%
X115000000Y-133067500D03*
X115000000Y-131932500D03*
%TD*%
%TO.C,C26*%
X101950000Y-103567500D03*
X101950000Y-102432500D03*
%TD*%
D15*
%TO.C,R19*%
X127162500Y-122302500D03*
X127162500Y-120477500D03*
%TD*%
%TO.C,R6*%
X128440000Y-56302500D03*
X128440000Y-54477500D03*
%TD*%
D16*
%TO.C,C27*%
X101549200Y-137524300D03*
X101549200Y-136389300D03*
%TD*%
D14*
%TO.C,R45*%
X128727200Y-129667600D03*
X128727200Y-126567600D03*
%TD*%
D16*
%TO.C,C13*%
X109000000Y-67067500D03*
X109000000Y-65932500D03*
%TD*%
D17*
%TO.C,C15*%
X122233500Y-67564000D03*
X121098500Y-67564000D03*
%TD*%
D16*
%TO.C,C14*%
X115500000Y-67567500D03*
X115500000Y-66432500D03*
%TD*%
D10*
%TO.C,R29*%
X120675000Y-97400000D03*
X122500000Y-97400000D03*
%TD*%
D11*
%TO.C,C10*%
X99182500Y-53000000D03*
X100317500Y-53000000D03*
%TD*%
%TO.C,C1*%
X109412500Y-56050000D03*
X110547500Y-56050000D03*
%TD*%
D10*
%TO.C,R25*%
X121007500Y-65849000D03*
X122832500Y-65849000D03*
%TD*%
D15*
%TO.C,R9*%
X124590000Y-89825000D03*
X124590000Y-88000000D03*
%TD*%
D14*
%TO.C,R42*%
X124002800Y-129769200D03*
X124002800Y-126669200D03*
%TD*%
D18*
%TO.C,D3*%
X117545000Y-122930000D03*
X117545000Y-124830000D03*
X119420000Y-123880000D03*
%TD*%
D10*
%TO.C,R28*%
X107787500Y-101200000D03*
X109612500Y-101200000D03*
%TD*%
D15*
%TO.C,R10*%
X126390000Y-88262500D03*
X126390000Y-86437500D03*
%TD*%
D19*
%TO.C,R27*%
X118912500Y-99200000D03*
X117087500Y-99200000D03*
%TD*%
D14*
%TO.C,R34*%
X126025000Y-64050000D03*
X126025000Y-60950000D03*
%TD*%
D11*
%TO.C,C12*%
X98815000Y-118610000D03*
X99950000Y-118610000D03*
%TD*%
%TO.C,C2*%
X114645000Y-56520000D03*
X115780000Y-56520000D03*
%TD*%
D20*
%TO.C,C22*%
X102362000Y-65726500D03*
X102362000Y-66861500D03*
%TD*%
D10*
%TO.C,R17*%
X123690000Y-123910000D03*
X125515000Y-123910000D03*
%TD*%
D15*
%TO.C,R21*%
X129002500Y-122282500D03*
X129002500Y-120457500D03*
%TD*%
D10*
%TO.C,R5*%
X126577500Y-57930000D03*
X128402500Y-57930000D03*
%TD*%
D20*
%TO.C,C23*%
X101480000Y-133272500D03*
X101480000Y-134407500D03*
%TD*%
D21*
%TO.C,J1*%
X134290000Y-58160000D03*
X134290000Y-53910000D03*
X134290000Y-62410000D03*
%TD*%
D22*
%TO.C,D6*%
X119437500Y-128450000D03*
X119437500Y-126550000D03*
X117562500Y-127500000D03*
%TD*%
D12*
%TO.C,R22*%
X113500000Y-67000000D03*
X111500000Y-67000000D03*
%TD*%
D11*
%TO.C,C4*%
X108932500Y-87780000D03*
X110067500Y-87780000D03*
%TD*%
D16*
%TO.C,C16*%
X109100000Y-99467500D03*
X109100000Y-98332500D03*
%TD*%
D15*
%TO.C,R4*%
X126520000Y-56282500D03*
X126520000Y-54457500D03*
%TD*%
D17*
%TO.C,C18*%
X121967500Y-99100000D03*
X120832500Y-99100000D03*
%TD*%
D15*
%TO.C,R3*%
X124650000Y-57922500D03*
X124650000Y-56097500D03*
%TD*%
%TO.C,R18*%
X125472500Y-122292500D03*
X125472500Y-120467500D03*
%TD*%
%TO.C,R12*%
X128360000Y-88262500D03*
X128360000Y-86437500D03*
%TD*%
D16*
%TO.C,C17*%
X115400000Y-99267500D03*
X115400000Y-98132500D03*
%TD*%
D12*
%TO.C,R7*%
X110910000Y-89590000D03*
X108910000Y-89590000D03*
%TD*%
D17*
%TO.C,C21*%
X121757500Y-132870000D03*
X120622500Y-132870000D03*
%TD*%
D19*
%TO.C,R14*%
X115675000Y-123900000D03*
X113850000Y-123900000D03*
%TD*%
D12*
%TO.C,R13*%
X110352500Y-123570000D03*
X108352500Y-123570000D03*
%TD*%
%TO.C,R30*%
X113000000Y-132500000D03*
X111000000Y-132500000D03*
%TD*%
D19*
%TO.C,R8*%
X116402500Y-89940000D03*
X114577500Y-89940000D03*
%TD*%
D21*
%TO.C,J6*%
X134000000Y-123750000D03*
X134000000Y-119500000D03*
X134000000Y-128000000D03*
%TD*%
D10*
%TO.C,R24*%
X108087500Y-68834000D03*
X109912500Y-68834000D03*
%TD*%
D11*
%TO.C,C5*%
X114475000Y-88590000D03*
X115610000Y-88590000D03*
%TD*%
D16*
%TO.C,C25*%
X100584000Y-70671500D03*
X100584000Y-69536500D03*
%TD*%
D19*
%TO.C,R2*%
X116642500Y-58040000D03*
X114817500Y-58040000D03*
%TD*%
D13*
%TO.C,R44*%
X124434000Y-134569200D03*
X127534000Y-134569200D03*
%TD*%
D20*
%TO.C,C24*%
X102000000Y-100000000D03*
X102000000Y-101135000D03*
%TD*%
D16*
%TO.C,C19*%
X108860000Y-132451665D03*
X108860000Y-131316665D03*
%TD*%
D22*
%TO.C,D5*%
X120137500Y-94450000D03*
X120137500Y-92550000D03*
X118262500Y-93500000D03*
%TD*%
D10*
%TO.C,R20*%
X127190000Y-123890000D03*
X129015000Y-123890000D03*
%TD*%
D14*
%TO.C,R35*%
X123675000Y-64050000D03*
X123675000Y-60950000D03*
%TD*%
%TO.C,R39*%
X126275000Y-95625000D03*
X126275000Y-92525000D03*
%TD*%
D11*
%TO.C,C8*%
X113615000Y-122530000D03*
X114750000Y-122530000D03*
%TD*%
D19*
%TO.C,R23*%
X118962500Y-66970000D03*
X117137500Y-66970000D03*
%TD*%
D18*
%TO.C,D2*%
X118352500Y-88940000D03*
X118352500Y-90840000D03*
X120227500Y-89890000D03*
%TD*%
D14*
%TO.C,R37*%
X128725000Y-95625000D03*
X128725000Y-92525000D03*
%TD*%
D22*
%TO.C,D4*%
X120347500Y-62560000D03*
X120347500Y-60660000D03*
X118472500Y-61610000D03*
%TD*%
D11*
%TO.C,C3*%
X122072500Y-58010000D03*
X123207500Y-58010000D03*
%TD*%
D19*
%TO.C,R31*%
X118572500Y-133060000D03*
X116747500Y-133060000D03*
%TD*%
D21*
%TO.C,J4*%
X133637500Y-90000000D03*
X133637500Y-85750000D03*
X133637500Y-94250000D03*
%TD*%
D13*
%TO.C,R40*%
X126075000Y-68775000D03*
X129175000Y-68775000D03*
%TD*%
D11*
%TO.C,C9*%
X121055000Y-123870000D03*
X122190000Y-123870000D03*
%TD*%
D18*
%TO.C,D1*%
X118482500Y-57050000D03*
X118482500Y-58950000D03*
X120357500Y-58000000D03*
%TD*%
D11*
%TO.C,C7*%
X108315000Y-121820000D03*
X109450000Y-121820000D03*
%TD*%
D15*
%TO.C,R16*%
X123752500Y-122222500D03*
X123752500Y-120397500D03*
%TD*%
D14*
%TO.C,R38*%
X123925000Y-95675000D03*
X123925000Y-92575000D03*
%TD*%
M02*
