%TF.GenerationSoftware,KiCad,Pcbnew,(6.0.11)*%
%TF.CreationDate,2023-07-10T20:07:27-05:00*%
%TF.ProjectId,SchottkyNoiseSource,5363686f-7474-46b7-994e-6f697365536f,rev?*%
%TF.SameCoordinates,Original*%
%TF.FileFunction,Copper,L2,Bot*%
%TF.FilePolarity,Positive*%
%FSLAX46Y46*%
G04 Gerber Fmt 4.6, Leading zero omitted, Abs format (unit mm)*
G04 Created by KiCad (PCBNEW (6.0.11)) date 2023-07-10 20:07:27*
%MOMM*%
%LPD*%
G01*
G04 APERTURE LIST*
%TA.AperFunction,ComponentPad*%
%ADD10C,1.440000*%
%TD*%
%TA.AperFunction,SMDPad,CuDef*%
%ADD11R,5.080000X1.500000*%
%TD*%
%TA.AperFunction,ComponentPad*%
%ADD12R,3.000000X3.000000*%
%TD*%
%TA.AperFunction,ComponentPad*%
%ADD13C,3.000000*%
%TD*%
%TA.AperFunction,ViaPad*%
%ADD14C,0.800000*%
%TD*%
%TA.AperFunction,Conductor*%
%ADD15C,0.250000*%
%TD*%
G04 APERTURE END LIST*
D10*
%TO.P,RV1,1,1*%
%TO.N,Net-(C2-Pad1)*%
X114110000Y-93860000D03*
%TO.P,RV1,2,2*%
%TO.N,Net-(C1-Pad1)*%
X111570000Y-93860000D03*
%TO.P,RV1,3,3*%
X109030000Y-93860000D03*
%TD*%
%TO.P,RV2,1,1*%
%TO.N,Net-(C5-Pad1)*%
X114320000Y-112610000D03*
%TO.P,RV2,2,2*%
%TO.N,Net-(C4-Pad1)*%
X111780000Y-112610000D03*
%TO.P,RV2,3,3*%
X109240000Y-112610000D03*
%TD*%
%TO.P,RV3,1,1*%
%TO.N,Net-(C8-Pad1)*%
X113330000Y-132240000D03*
%TO.P,RV3,2,2*%
%TO.N,Net-(C7-Pad1)*%
X110790000Y-132240000D03*
%TO.P,RV3,3,3*%
X108250000Y-132240000D03*
%TD*%
D11*
%TO.P,J1,2,Ext*%
%TO.N,GND*%
X133630000Y-85970000D03*
X133630000Y-94470000D03*
%TD*%
D12*
%TO.P,J3,1,Pin_1*%
%TO.N,Net-(C4-Pad1)*%
X100120000Y-108260000D03*
D13*
%TO.P,J3,2,Pin_2*%
%TO.N,GND*%
X100120000Y-113340000D03*
%TD*%
D12*
%TO.P,J2,1,Pin_1*%
%TO.N,Net-(C1-Pad1)*%
X99580000Y-88840000D03*
D13*
%TO.P,J2,2,Pin_2*%
%TO.N,GND*%
X99580000Y-93920000D03*
%TD*%
D11*
%TO.P,J6,2,Ext*%
%TO.N,GND*%
X133637500Y-124290000D03*
X133637500Y-132790000D03*
%TD*%
%TO.P,J4,2,Ext*%
%TO.N,GND*%
X133687500Y-113260000D03*
X133687500Y-104760000D03*
%TD*%
D12*
%TO.P,J5,1,Pin_1*%
%TO.N,Net-(C7-Pad1)*%
X100000000Y-127000000D03*
D13*
%TO.P,J5,2,Pin_2*%
%TO.N,GND*%
X100000000Y-132080000D03*
%TD*%
D14*
%TO.N,GND*%
X107925000Y-102800000D03*
X116075000Y-116325000D03*
X122700000Y-121050000D03*
X95825000Y-92675000D03*
X133637500Y-124290000D03*
X108875000Y-116100000D03*
X101275000Y-102850000D03*
X119975000Y-103675000D03*
X103425000Y-122775000D03*
X96425000Y-110050000D03*
X116425000Y-122950000D03*
X129900000Y-84850000D03*
X119700000Y-115200000D03*
X133637500Y-132790000D03*
X127200000Y-84750000D03*
X95850000Y-88100000D03*
X96575000Y-131475000D03*
X133200000Y-121975000D03*
X106575000Y-135525000D03*
X128675000Y-121050000D03*
X114000000Y-102900000D03*
X104250000Y-96575000D03*
X106600000Y-123025000D03*
X128375000Y-96500000D03*
X126850000Y-114700000D03*
X96925000Y-112000000D03*
X127450000Y-104025000D03*
X133687500Y-113260000D03*
X100150000Y-122625000D03*
X124925000Y-121100000D03*
X112625000Y-116200000D03*
X95550000Y-90125000D03*
X105925000Y-116200000D03*
X130325000Y-96275000D03*
X131025000Y-121275000D03*
X100125000Y-85175000D03*
X97200000Y-104125000D03*
X123925000Y-84825000D03*
X115125000Y-135700000D03*
X106475000Y-96800000D03*
X102025000Y-115700000D03*
X109325000Y-122950000D03*
X108700000Y-135825000D03*
X129525000Y-103525000D03*
X124800000Y-134500000D03*
X123925000Y-96800000D03*
X96525000Y-86050000D03*
X101450000Y-134500000D03*
X120850000Y-84775000D03*
X117375000Y-115700000D03*
X103050000Y-135625000D03*
X96000000Y-125975000D03*
X118450000Y-84675000D03*
X133630000Y-94470000D03*
X113025000Y-135750000D03*
X114425000Y-122775000D03*
X115525000Y-84550000D03*
X128925000Y-114325000D03*
X96575000Y-107100000D03*
X121050000Y-135050000D03*
X117850000Y-103075000D03*
X122500000Y-103750000D03*
X133630000Y-85970000D03*
X121825000Y-115200000D03*
X111125000Y-135900000D03*
X103350000Y-102675000D03*
X106750000Y-84675000D03*
X133687500Y-104760000D03*
X118450000Y-135050000D03*
X121500000Y-96825000D03*
X103250000Y-85075000D03*
X112625000Y-84475000D03*
X120725000Y-121300000D03*
X102150000Y-96450000D03*
X119050000Y-96800000D03*
X111450000Y-96900000D03*
X126175000Y-96625000D03*
X105025000Y-102450000D03*
X113775000Y-96975000D03*
X108925000Y-96975000D03*
X96650000Y-123500000D03*
X123625000Y-114875000D03*
X127625000Y-134450000D03*
X116575000Y-96900000D03*
X110425000Y-102900000D03*
X96000000Y-128675000D03*
X109850000Y-84400000D03*
X111875000Y-123100000D03*
X126500000Y-121100000D03*
X125275000Y-103975000D03*
%TD*%
D15*
%TO.N,GND*%
X128625000Y-121100000D02*
X128675000Y-121050000D01*
X130325000Y-96275000D02*
X131825000Y-96275000D01*
X112200000Y-122775000D02*
X114425000Y-122775000D01*
X96925000Y-112000000D02*
X96925000Y-110550000D01*
X112700000Y-84550000D02*
X115525000Y-84550000D01*
X116425000Y-122950000D02*
X118075000Y-121300000D01*
X108400000Y-135525000D02*
X108700000Y-135825000D01*
X124875000Y-121050000D02*
X124925000Y-121100000D01*
X111875000Y-123100000D02*
X112200000Y-122775000D01*
X106475000Y-96800000D02*
X106650000Y-96975000D01*
X111125000Y-135900000D02*
X112875000Y-135900000D01*
X122500000Y-103750000D02*
X125050000Y-103750000D01*
X105425000Y-115700000D02*
X105925000Y-116200000D01*
X119700000Y-115200000D02*
X121825000Y-115200000D01*
X95850000Y-86725000D02*
X96525000Y-86050000D01*
X111450000Y-96900000D02*
X113700000Y-96900000D01*
X127625000Y-134450000D02*
X129285000Y-132790000D01*
X128925000Y-114325000D02*
X129990000Y-113260000D01*
X101275000Y-102850000D02*
X103175000Y-102850000D01*
X101450000Y-134500000D02*
X101925000Y-134500000D01*
X102025000Y-115700000D02*
X105425000Y-115700000D01*
X112625000Y-84475000D02*
X112700000Y-84550000D01*
X127125000Y-84825000D02*
X127200000Y-84750000D01*
X96000000Y-124150000D02*
X96650000Y-123500000D01*
X123925000Y-84825000D02*
X127125000Y-84825000D01*
X103275000Y-122625000D02*
X103425000Y-122775000D01*
X116075000Y-116325000D02*
X116750000Y-116325000D01*
X96575000Y-104750000D02*
X97200000Y-104125000D01*
X116575000Y-96900000D02*
X118950000Y-96900000D01*
X118450000Y-135050000D02*
X117800000Y-135700000D01*
X129285000Y-132790000D02*
X133637500Y-132790000D01*
X112525000Y-116100000D02*
X112625000Y-116200000D01*
X124250000Y-135050000D02*
X124800000Y-134500000D01*
X117800000Y-135700000D02*
X115125000Y-135700000D01*
X105375000Y-102800000D02*
X107925000Y-102800000D01*
X123625000Y-114875000D02*
X123800000Y-114700000D01*
X117850000Y-103075000D02*
X119375000Y-103075000D01*
X131825000Y-96275000D02*
X133630000Y-94470000D01*
X106575000Y-135525000D02*
X108400000Y-135525000D01*
X129025000Y-104025000D02*
X129525000Y-103525000D01*
X100125000Y-85175000D02*
X103150000Y-85175000D01*
X120750000Y-84675000D02*
X120850000Y-84775000D01*
X106600000Y-123025000D02*
X109250000Y-123025000D01*
X95550000Y-92400000D02*
X95550000Y-90125000D01*
X96000000Y-125975000D02*
X96000000Y-124150000D01*
X96575000Y-131475000D02*
X96000000Y-130900000D01*
X101925000Y-134500000D02*
X103050000Y-135625000D01*
X118450000Y-84675000D02*
X120750000Y-84675000D01*
X104125000Y-96450000D02*
X104250000Y-96575000D01*
X107025000Y-84400000D02*
X109850000Y-84400000D01*
X110425000Y-102900000D02*
X114000000Y-102900000D01*
X109250000Y-123025000D02*
X109325000Y-122950000D01*
X123800000Y-114700000D02*
X126850000Y-114700000D01*
X121050000Y-135050000D02*
X124250000Y-135050000D01*
X129900000Y-84850000D02*
X132510000Y-84850000D01*
X96925000Y-110550000D02*
X96425000Y-110050000D01*
X131025000Y-121275000D02*
X132500000Y-121275000D01*
X132500000Y-121275000D02*
X133200000Y-121975000D01*
X106750000Y-84675000D02*
X107025000Y-84400000D01*
X96575000Y-107100000D02*
X96575000Y-104750000D01*
X95825000Y-92675000D02*
X95550000Y-92400000D01*
X108875000Y-116100000D02*
X112525000Y-116100000D01*
X105025000Y-102450000D02*
X105375000Y-102800000D01*
X118075000Y-121300000D02*
X120725000Y-121300000D01*
X112875000Y-135900000D02*
X113025000Y-135750000D01*
X121500000Y-96825000D02*
X123900000Y-96825000D01*
X119375000Y-103075000D02*
X119975000Y-103675000D01*
X118950000Y-96900000D02*
X119050000Y-96800000D01*
X126175000Y-96625000D02*
X128250000Y-96625000D01*
X123900000Y-96825000D02*
X123925000Y-96800000D01*
X122700000Y-121050000D02*
X124875000Y-121050000D01*
X100150000Y-122625000D02*
X103275000Y-122625000D01*
X126500000Y-121100000D02*
X128625000Y-121100000D01*
X116750000Y-116325000D02*
X117375000Y-115700000D01*
X125050000Y-103750000D02*
X125275000Y-103975000D01*
X132510000Y-84850000D02*
X133630000Y-85970000D01*
X95850000Y-88100000D02*
X95850000Y-86725000D01*
X103150000Y-85175000D02*
X103250000Y-85075000D01*
X106650000Y-96975000D02*
X108925000Y-96975000D01*
X102150000Y-96450000D02*
X104125000Y-96450000D01*
X128250000Y-96625000D02*
X128375000Y-96500000D01*
X129990000Y-113260000D02*
X133687500Y-113260000D01*
X113700000Y-96900000D02*
X113775000Y-96975000D01*
X127450000Y-104025000D02*
X129025000Y-104025000D01*
X103175000Y-102850000D02*
X103350000Y-102675000D01*
X96000000Y-130900000D02*
X96000000Y-128675000D01*
%TD*%
%TA.AperFunction,Conductor*%
%TO.N,GND*%
G36*
X136433621Y-83528502D02*
G01*
X136480114Y-83582158D01*
X136491500Y-83634500D01*
X136491500Y-84616160D01*
X136471498Y-84684281D01*
X136417842Y-84730774D01*
X136347568Y-84740878D01*
X136321270Y-84734142D01*
X136287606Y-84721522D01*
X136272351Y-84717895D01*
X136221486Y-84712369D01*
X136214672Y-84712000D01*
X133902115Y-84712000D01*
X133886876Y-84716475D01*
X133885671Y-84717865D01*
X133884000Y-84725548D01*
X133884000Y-87209884D01*
X133888475Y-87225123D01*
X133889865Y-87226328D01*
X133897548Y-87227999D01*
X136214669Y-87227999D01*
X136221490Y-87227629D01*
X136272352Y-87222105D01*
X136287603Y-87218479D01*
X136321270Y-87205858D01*
X136392077Y-87200675D01*
X136454446Y-87234596D01*
X136488576Y-87296851D01*
X136491500Y-87323840D01*
X136491500Y-93116160D01*
X136471498Y-93184281D01*
X136417842Y-93230774D01*
X136347568Y-93240878D01*
X136321270Y-93234142D01*
X136287606Y-93221522D01*
X136272351Y-93217895D01*
X136221486Y-93212369D01*
X136214672Y-93212000D01*
X133902115Y-93212000D01*
X133886876Y-93216475D01*
X133885671Y-93217865D01*
X133884000Y-93225548D01*
X133884000Y-95709884D01*
X133888475Y-95725123D01*
X133889865Y-95726328D01*
X133897548Y-95727999D01*
X136214669Y-95727999D01*
X136221490Y-95727629D01*
X136272352Y-95722105D01*
X136287603Y-95718479D01*
X136321270Y-95705858D01*
X136392077Y-95700675D01*
X136454446Y-95734596D01*
X136488576Y-95796851D01*
X136491500Y-95823840D01*
X136491500Y-103386858D01*
X136471498Y-103454979D01*
X136417842Y-103501472D01*
X136347568Y-103511576D01*
X136336352Y-103509440D01*
X136329854Y-103507895D01*
X136278986Y-103502369D01*
X136272172Y-103502000D01*
X133959615Y-103502000D01*
X133944376Y-103506475D01*
X133943171Y-103507865D01*
X133941500Y-103515548D01*
X133941500Y-105999884D01*
X133945975Y-106015123D01*
X133947365Y-106016328D01*
X133955048Y-106017999D01*
X136272169Y-106017999D01*
X136278990Y-106017629D01*
X136329854Y-106012105D01*
X136336357Y-106010559D01*
X136407257Y-106014263D01*
X136464900Y-106055710D01*
X136490983Y-106121742D01*
X136491500Y-106133142D01*
X136491500Y-111886858D01*
X136471498Y-111954979D01*
X136417842Y-112001472D01*
X136347568Y-112011576D01*
X136336352Y-112009440D01*
X136329854Y-112007895D01*
X136278986Y-112002369D01*
X136272172Y-112002000D01*
X133959615Y-112002000D01*
X133944376Y-112006475D01*
X133943171Y-112007865D01*
X133941500Y-112015548D01*
X133941500Y-114499884D01*
X133945975Y-114515123D01*
X133947365Y-114516328D01*
X133955048Y-114517999D01*
X136272169Y-114517999D01*
X136278990Y-114517629D01*
X136329854Y-114512105D01*
X136336357Y-114510559D01*
X136407257Y-114514263D01*
X136464900Y-114555710D01*
X136490983Y-114621742D01*
X136491500Y-114633142D01*
X136491500Y-122933348D01*
X136471498Y-123001469D01*
X136417842Y-123047962D01*
X136347568Y-123058066D01*
X136321271Y-123051330D01*
X136295109Y-123041522D01*
X136279851Y-123037895D01*
X136228986Y-123032369D01*
X136222172Y-123032000D01*
X133909615Y-123032000D01*
X133894376Y-123036475D01*
X133893171Y-123037865D01*
X133891500Y-123045548D01*
X133891500Y-125529884D01*
X133895975Y-125545123D01*
X133897365Y-125546328D01*
X133905048Y-125547999D01*
X136222169Y-125547999D01*
X136228990Y-125547629D01*
X136279852Y-125542105D01*
X136295107Y-125538478D01*
X136321271Y-125528670D01*
X136392078Y-125523487D01*
X136454447Y-125557408D01*
X136488576Y-125619664D01*
X136491500Y-125646652D01*
X136491500Y-131433348D01*
X136471498Y-131501469D01*
X136417842Y-131547962D01*
X136347568Y-131558066D01*
X136321271Y-131551330D01*
X136295109Y-131541522D01*
X136279851Y-131537895D01*
X136228986Y-131532369D01*
X136222172Y-131532000D01*
X133909615Y-131532000D01*
X133894376Y-131536475D01*
X133893171Y-131537865D01*
X133891500Y-131545548D01*
X133891500Y-134029884D01*
X133895975Y-134045123D01*
X133897365Y-134046328D01*
X133905048Y-134047999D01*
X136222169Y-134047999D01*
X136228990Y-134047629D01*
X136279852Y-134042105D01*
X136295107Y-134038478D01*
X136321271Y-134028670D01*
X136392078Y-134023487D01*
X136454447Y-134057408D01*
X136488576Y-134119664D01*
X136491500Y-134146652D01*
X136491500Y-136365500D01*
X136471498Y-136433621D01*
X136417842Y-136480114D01*
X136365500Y-136491500D01*
X94634500Y-136491500D01*
X94566379Y-136471498D01*
X94519886Y-136417842D01*
X94508500Y-136365500D01*
X94508500Y-133669654D01*
X98775618Y-133669654D01*
X98782673Y-133679627D01*
X98813679Y-133705551D01*
X98820598Y-133710579D01*
X99045272Y-133851515D01*
X99052807Y-133855556D01*
X99294520Y-133964694D01*
X99302551Y-133967680D01*
X99556832Y-134043002D01*
X99565184Y-134044869D01*
X99827340Y-134084984D01*
X99835874Y-134085700D01*
X100101045Y-134089867D01*
X100109596Y-134089418D01*
X100372883Y-134057557D01*
X100381284Y-134055955D01*
X100637824Y-133988653D01*
X100645926Y-133985926D01*
X100890949Y-133884434D01*
X100898617Y-133880628D01*
X101127598Y-133746822D01*
X101134679Y-133742009D01*
X101214655Y-133679301D01*
X101223125Y-133667442D01*
X101216608Y-133655818D01*
X101145459Y-133584669D01*
X130589501Y-133584669D01*
X130589871Y-133591490D01*
X130595395Y-133642352D01*
X130599021Y-133657604D01*
X130644176Y-133778054D01*
X130652714Y-133793649D01*
X130729215Y-133895724D01*
X130741776Y-133908285D01*
X130843851Y-133984786D01*
X130859446Y-133993324D01*
X130979894Y-134038478D01*
X130995149Y-134042105D01*
X131046014Y-134047631D01*
X131052828Y-134048000D01*
X133365385Y-134048000D01*
X133380624Y-134043525D01*
X133381829Y-134042135D01*
X133383500Y-134034452D01*
X133383500Y-133062115D01*
X133379025Y-133046876D01*
X133377635Y-133045671D01*
X133369952Y-133044000D01*
X130607616Y-133044000D01*
X130592377Y-133048475D01*
X130591172Y-133049865D01*
X130589501Y-133057548D01*
X130589501Y-133584669D01*
X101145459Y-133584669D01*
X100012812Y-132452022D01*
X99998868Y-132444408D01*
X99997035Y-132444539D01*
X99990420Y-132448790D01*
X98782910Y-133656300D01*
X98775618Y-133669654D01*
X94508500Y-133669654D01*
X94508500Y-132063204D01*
X97987665Y-132063204D01*
X98002932Y-132327969D01*
X98004005Y-132336470D01*
X98055065Y-132596722D01*
X98057276Y-132604974D01*
X98143184Y-132855894D01*
X98146499Y-132863779D01*
X98265664Y-133100713D01*
X98270020Y-133108079D01*
X98399347Y-133296250D01*
X98409601Y-133304594D01*
X98423342Y-133297448D01*
X99627978Y-132092812D01*
X99634356Y-132081132D01*
X100364408Y-132081132D01*
X100364539Y-132082965D01*
X100368790Y-132089580D01*
X101575730Y-133296520D01*
X101587939Y-133303187D01*
X101599439Y-133294497D01*
X101696831Y-133161913D01*
X101701418Y-133154685D01*
X101827962Y-132921621D01*
X101831530Y-132913827D01*
X101925271Y-132665750D01*
X101927748Y-132657544D01*
X101986954Y-132399038D01*
X101988294Y-132390577D01*
X102001733Y-132240000D01*
X107016807Y-132240000D01*
X107035542Y-132454142D01*
X107036966Y-132459455D01*
X107036966Y-132459457D01*
X107078924Y-132616043D01*
X107091178Y-132661777D01*
X107182024Y-132856596D01*
X107305319Y-133032681D01*
X107457319Y-133184681D01*
X107633403Y-133307976D01*
X107638381Y-133310297D01*
X107638384Y-133310299D01*
X107823241Y-133396499D01*
X107828223Y-133398822D01*
X107833531Y-133400244D01*
X107833533Y-133400245D01*
X108030543Y-133453034D01*
X108030545Y-133453034D01*
X108035858Y-133454458D01*
X108250000Y-133473193D01*
X108464142Y-133454458D01*
X108469455Y-133453034D01*
X108469457Y-133453034D01*
X108666467Y-133400245D01*
X108666469Y-133400244D01*
X108671777Y-133398822D01*
X108676759Y-133396499D01*
X108861616Y-133310299D01*
X108861619Y-133310297D01*
X108866597Y-133307976D01*
X109042681Y-133184681D01*
X109194681Y-133032681D01*
X109317976Y-132856596D01*
X109405805Y-132668247D01*
X109452723Y-132614962D01*
X109521000Y-132595501D01*
X109588960Y-132616043D01*
X109634195Y-132668247D01*
X109722024Y-132856596D01*
X109845319Y-133032681D01*
X109997319Y-133184681D01*
X110173403Y-133307976D01*
X110178381Y-133310297D01*
X110178384Y-133310299D01*
X110363241Y-133396499D01*
X110368223Y-133398822D01*
X110373531Y-133400244D01*
X110373533Y-133400245D01*
X110570543Y-133453034D01*
X110570545Y-133453034D01*
X110575858Y-133454458D01*
X110790000Y-133473193D01*
X111004142Y-133454458D01*
X111009455Y-133453034D01*
X111009457Y-133453034D01*
X111206467Y-133400245D01*
X111206469Y-133400244D01*
X111211777Y-133398822D01*
X111216759Y-133396499D01*
X111401616Y-133310299D01*
X111401619Y-133310297D01*
X111406597Y-133307976D01*
X111582681Y-133184681D01*
X111734681Y-133032681D01*
X111857976Y-132856596D01*
X111945805Y-132668247D01*
X111992723Y-132614962D01*
X112061000Y-132595501D01*
X112128960Y-132616043D01*
X112174195Y-132668247D01*
X112262024Y-132856596D01*
X112385319Y-133032681D01*
X112537319Y-133184681D01*
X112713403Y-133307976D01*
X112718381Y-133310297D01*
X112718384Y-133310299D01*
X112903241Y-133396499D01*
X112908223Y-133398822D01*
X112913531Y-133400244D01*
X112913533Y-133400245D01*
X113110543Y-133453034D01*
X113110545Y-133453034D01*
X113115858Y-133454458D01*
X113330000Y-133473193D01*
X113544142Y-133454458D01*
X113549455Y-133453034D01*
X113549457Y-133453034D01*
X113746467Y-133400245D01*
X113746469Y-133400244D01*
X113751777Y-133398822D01*
X113756759Y-133396499D01*
X113941616Y-133310299D01*
X113941619Y-133310297D01*
X113946597Y-133307976D01*
X114122681Y-133184681D01*
X114274681Y-133032681D01*
X114397976Y-132856596D01*
X114488822Y-132661777D01*
X114501077Y-132616043D01*
X114527378Y-132517885D01*
X130589500Y-132517885D01*
X130593975Y-132533124D01*
X130595365Y-132534329D01*
X130603048Y-132536000D01*
X133365385Y-132536000D01*
X133380624Y-132531525D01*
X133381829Y-132530135D01*
X133383500Y-132522452D01*
X133383500Y-131550116D01*
X133379025Y-131534877D01*
X133377635Y-131533672D01*
X133369952Y-131532001D01*
X131052831Y-131532001D01*
X131046010Y-131532371D01*
X130995148Y-131537895D01*
X130979896Y-131541521D01*
X130859446Y-131586676D01*
X130843851Y-131595214D01*
X130741776Y-131671715D01*
X130729215Y-131684276D01*
X130652714Y-131786351D01*
X130644176Y-131801946D01*
X130599022Y-131922394D01*
X130595395Y-131937649D01*
X130589869Y-131988514D01*
X130589500Y-131995328D01*
X130589500Y-132517885D01*
X114527378Y-132517885D01*
X114543034Y-132459457D01*
X114543034Y-132459455D01*
X114544458Y-132454142D01*
X114563193Y-132240000D01*
X114544458Y-132025858D01*
X114543034Y-132020543D01*
X114490245Y-131823533D01*
X114490244Y-131823531D01*
X114488822Y-131818223D01*
X114397976Y-131623404D01*
X114274681Y-131447319D01*
X114122681Y-131295319D01*
X113946597Y-131172024D01*
X113941619Y-131169703D01*
X113941616Y-131169701D01*
X113756759Y-131083501D01*
X113756758Y-131083500D01*
X113751777Y-131081178D01*
X113746469Y-131079756D01*
X113746467Y-131079755D01*
X113549457Y-131026966D01*
X113549455Y-131026966D01*
X113544142Y-131025542D01*
X113330000Y-131006807D01*
X113115858Y-131025542D01*
X113110545Y-131026966D01*
X113110543Y-131026966D01*
X112913533Y-131079755D01*
X112913531Y-131079756D01*
X112908223Y-131081178D01*
X112903243Y-131083500D01*
X112903241Y-131083501D01*
X112718385Y-131169701D01*
X112718382Y-131169703D01*
X112713404Y-131172024D01*
X112537319Y-131295319D01*
X112385319Y-131447319D01*
X112262024Y-131623404D01*
X112259703Y-131628382D01*
X112259701Y-131628385D01*
X112174195Y-131811753D01*
X112127277Y-131865038D01*
X112059000Y-131884499D01*
X111991040Y-131863957D01*
X111945805Y-131811753D01*
X111860299Y-131628385D01*
X111860297Y-131628382D01*
X111857976Y-131623404D01*
X111734681Y-131447319D01*
X111582681Y-131295319D01*
X111406597Y-131172024D01*
X111401619Y-131169703D01*
X111401616Y-131169701D01*
X111216759Y-131083501D01*
X111216758Y-131083500D01*
X111211777Y-131081178D01*
X111206469Y-131079756D01*
X111206467Y-131079755D01*
X111009457Y-131026966D01*
X111009455Y-131026966D01*
X111004142Y-131025542D01*
X110790000Y-131006807D01*
X110575858Y-131025542D01*
X110570545Y-131026966D01*
X110570543Y-131026966D01*
X110373533Y-131079755D01*
X110373531Y-131079756D01*
X110368223Y-131081178D01*
X110363243Y-131083500D01*
X110363241Y-131083501D01*
X110178385Y-131169701D01*
X110178382Y-131169703D01*
X110173404Y-131172024D01*
X109997319Y-131295319D01*
X109845319Y-131447319D01*
X109722024Y-131623404D01*
X109719703Y-131628382D01*
X109719701Y-131628385D01*
X109634195Y-131811753D01*
X109587277Y-131865038D01*
X109519000Y-131884499D01*
X109451040Y-131863957D01*
X109405805Y-131811753D01*
X109320299Y-131628385D01*
X109320297Y-131628382D01*
X109317976Y-131623404D01*
X109194681Y-131447319D01*
X109042681Y-131295319D01*
X108866597Y-131172024D01*
X108861619Y-131169703D01*
X108861616Y-131169701D01*
X108676759Y-131083501D01*
X108676758Y-131083500D01*
X108671777Y-131081178D01*
X108666469Y-131079756D01*
X108666467Y-131079755D01*
X108469457Y-131026966D01*
X108469455Y-131026966D01*
X108464142Y-131025542D01*
X108250000Y-131006807D01*
X108035858Y-131025542D01*
X108030545Y-131026966D01*
X108030543Y-131026966D01*
X107833533Y-131079755D01*
X107833531Y-131079756D01*
X107828223Y-131081178D01*
X107823243Y-131083500D01*
X107823241Y-131083501D01*
X107638385Y-131169701D01*
X107638382Y-131169703D01*
X107633404Y-131172024D01*
X107457319Y-131295319D01*
X107305319Y-131447319D01*
X107182024Y-131623404D01*
X107091178Y-131818223D01*
X107089756Y-131823531D01*
X107089755Y-131823533D01*
X107036966Y-132020543D01*
X107035542Y-132025858D01*
X107016807Y-132240000D01*
X102001733Y-132240000D01*
X102012031Y-132124616D01*
X102012277Y-132119677D01*
X102012666Y-132082485D01*
X102012523Y-132077519D01*
X101994362Y-131811123D01*
X101993201Y-131802649D01*
X101939419Y-131542944D01*
X101937120Y-131534709D01*
X101848588Y-131284705D01*
X101845191Y-131276854D01*
X101723550Y-131041178D01*
X101719122Y-131033866D01*
X101600031Y-130864417D01*
X101589509Y-130856037D01*
X101576121Y-130863089D01*
X100372022Y-132067188D01*
X100364408Y-132081132D01*
X99634356Y-132081132D01*
X99635592Y-132078868D01*
X99635461Y-132077035D01*
X99631210Y-132070420D01*
X98423814Y-130863024D01*
X98411804Y-130856466D01*
X98400064Y-130865434D01*
X98291935Y-131015911D01*
X98287418Y-131023196D01*
X98163325Y-131257567D01*
X98159839Y-131265395D01*
X98068700Y-131514446D01*
X98066311Y-131522670D01*
X98009812Y-131781795D01*
X98008563Y-131790250D01*
X97987754Y-132054653D01*
X97987665Y-132063204D01*
X94508500Y-132063204D01*
X94508500Y-130492500D01*
X98776584Y-130492500D01*
X98782980Y-130503770D01*
X99987188Y-131707978D01*
X100001132Y-131715592D01*
X100002965Y-131715461D01*
X100009580Y-131711210D01*
X101216604Y-130504186D01*
X101223795Y-130491017D01*
X101216473Y-130480780D01*
X101169233Y-130442115D01*
X101162261Y-130437160D01*
X100936122Y-130298582D01*
X100928552Y-130294624D01*
X100685704Y-130188022D01*
X100677644Y-130185120D01*
X100422592Y-130112467D01*
X100414214Y-130110685D01*
X100151656Y-130073318D01*
X100143111Y-130072691D01*
X99877908Y-130071302D01*
X99869374Y-130071839D01*
X99606433Y-130106456D01*
X99598035Y-130108149D01*
X99342238Y-130178127D01*
X99334143Y-130180946D01*
X99090199Y-130284997D01*
X99082577Y-130288881D01*
X98855013Y-130425075D01*
X98847981Y-130429962D01*
X98785053Y-130480377D01*
X98776584Y-130492500D01*
X94508500Y-130492500D01*
X94508500Y-128548134D01*
X97991500Y-128548134D01*
X97998255Y-128610316D01*
X98049385Y-128746705D01*
X98136739Y-128863261D01*
X98253295Y-128950615D01*
X98389684Y-129001745D01*
X98451866Y-129008500D01*
X101548134Y-129008500D01*
X101610316Y-129001745D01*
X101746705Y-128950615D01*
X101863261Y-128863261D01*
X101950615Y-128746705D01*
X102001745Y-128610316D01*
X102008500Y-128548134D01*
X102008500Y-125451866D01*
X102001745Y-125389684D01*
X101950615Y-125253295D01*
X101863261Y-125136739D01*
X101793784Y-125084669D01*
X130589501Y-125084669D01*
X130589871Y-125091490D01*
X130595395Y-125142352D01*
X130599021Y-125157604D01*
X130644176Y-125278054D01*
X130652714Y-125293649D01*
X130729215Y-125395724D01*
X130741776Y-125408285D01*
X130843851Y-125484786D01*
X130859446Y-125493324D01*
X130979894Y-125538478D01*
X130995149Y-125542105D01*
X131046014Y-125547631D01*
X131052828Y-125548000D01*
X133365385Y-125548000D01*
X133380624Y-125543525D01*
X133381829Y-125542135D01*
X133383500Y-125534452D01*
X133383500Y-124562115D01*
X133379025Y-124546876D01*
X133377635Y-124545671D01*
X133369952Y-124544000D01*
X130607616Y-124544000D01*
X130592377Y-124548475D01*
X130591172Y-124549865D01*
X130589501Y-124557548D01*
X130589501Y-125084669D01*
X101793784Y-125084669D01*
X101746705Y-125049385D01*
X101610316Y-124998255D01*
X101548134Y-124991500D01*
X98451866Y-124991500D01*
X98389684Y-124998255D01*
X98253295Y-125049385D01*
X98136739Y-125136739D01*
X98049385Y-125253295D01*
X97998255Y-125389684D01*
X97991500Y-125451866D01*
X97991500Y-128548134D01*
X94508500Y-128548134D01*
X94508500Y-124017885D01*
X130589500Y-124017885D01*
X130593975Y-124033124D01*
X130595365Y-124034329D01*
X130603048Y-124036000D01*
X133365385Y-124036000D01*
X133380624Y-124031525D01*
X133381829Y-124030135D01*
X133383500Y-124022452D01*
X133383500Y-123050116D01*
X133379025Y-123034877D01*
X133377635Y-123033672D01*
X133369952Y-123032001D01*
X131052831Y-123032001D01*
X131046010Y-123032371D01*
X130995148Y-123037895D01*
X130979896Y-123041521D01*
X130859446Y-123086676D01*
X130843851Y-123095214D01*
X130741776Y-123171715D01*
X130729215Y-123184276D01*
X130652714Y-123286351D01*
X130644176Y-123301946D01*
X130599022Y-123422394D01*
X130595395Y-123437649D01*
X130589869Y-123488514D01*
X130589500Y-123495328D01*
X130589500Y-124017885D01*
X94508500Y-124017885D01*
X94508500Y-114929654D01*
X98895618Y-114929654D01*
X98902673Y-114939627D01*
X98933679Y-114965551D01*
X98940598Y-114970579D01*
X99165272Y-115111515D01*
X99172807Y-115115556D01*
X99414520Y-115224694D01*
X99422551Y-115227680D01*
X99676832Y-115303002D01*
X99685184Y-115304869D01*
X99947340Y-115344984D01*
X99955874Y-115345700D01*
X100221045Y-115349867D01*
X100229596Y-115349418D01*
X100492883Y-115317557D01*
X100501284Y-115315955D01*
X100757824Y-115248653D01*
X100765926Y-115245926D01*
X101010949Y-115144434D01*
X101018617Y-115140628D01*
X101247598Y-115006822D01*
X101254679Y-115002009D01*
X101334655Y-114939301D01*
X101343125Y-114927442D01*
X101336608Y-114915818D01*
X100132812Y-113712022D01*
X100118868Y-113704408D01*
X100117035Y-113704539D01*
X100110420Y-113708790D01*
X98902910Y-114916300D01*
X98895618Y-114929654D01*
X94508500Y-114929654D01*
X94508500Y-113323204D01*
X98107665Y-113323204D01*
X98122932Y-113587969D01*
X98124005Y-113596470D01*
X98175065Y-113856722D01*
X98177276Y-113864974D01*
X98263184Y-114115894D01*
X98266499Y-114123779D01*
X98385664Y-114360713D01*
X98390020Y-114368079D01*
X98519347Y-114556250D01*
X98529601Y-114564594D01*
X98543342Y-114557448D01*
X99747978Y-113352812D01*
X99754356Y-113341132D01*
X100484408Y-113341132D01*
X100484539Y-113342965D01*
X100488790Y-113349580D01*
X101695730Y-114556520D01*
X101707939Y-114563187D01*
X101719439Y-114554497D01*
X101816831Y-114421913D01*
X101821418Y-114414685D01*
X101947962Y-114181621D01*
X101951530Y-114173827D01*
X101996556Y-114054669D01*
X130639501Y-114054669D01*
X130639871Y-114061490D01*
X130645395Y-114112352D01*
X130649021Y-114127604D01*
X130694176Y-114248054D01*
X130702714Y-114263649D01*
X130779215Y-114365724D01*
X130791776Y-114378285D01*
X130893851Y-114454786D01*
X130909446Y-114463324D01*
X131029894Y-114508478D01*
X131045149Y-114512105D01*
X131096014Y-114517631D01*
X131102828Y-114518000D01*
X133415385Y-114518000D01*
X133430624Y-114513525D01*
X133431829Y-114512135D01*
X133433500Y-114504452D01*
X133433500Y-113532115D01*
X133429025Y-113516876D01*
X133427635Y-113515671D01*
X133419952Y-113514000D01*
X130657616Y-113514000D01*
X130642377Y-113518475D01*
X130641172Y-113519865D01*
X130639501Y-113527548D01*
X130639501Y-114054669D01*
X101996556Y-114054669D01*
X102045271Y-113925750D01*
X102047748Y-113917544D01*
X102106954Y-113659038D01*
X102108294Y-113650577D01*
X102132031Y-113384616D01*
X102132277Y-113379677D01*
X102132666Y-113342485D01*
X102132523Y-113337519D01*
X102114362Y-113071123D01*
X102113201Y-113062649D01*
X102059419Y-112802944D01*
X102057120Y-112794709D01*
X101991710Y-112610000D01*
X108006807Y-112610000D01*
X108025542Y-112824142D01*
X108026966Y-112829455D01*
X108026966Y-112829457D01*
X108068924Y-112986043D01*
X108081178Y-113031777D01*
X108172024Y-113226596D01*
X108295319Y-113402681D01*
X108447319Y-113554681D01*
X108623403Y-113677976D01*
X108628381Y-113680297D01*
X108628384Y-113680299D01*
X108813241Y-113766499D01*
X108818223Y-113768822D01*
X108823531Y-113770244D01*
X108823533Y-113770245D01*
X109020543Y-113823034D01*
X109020545Y-113823034D01*
X109025858Y-113824458D01*
X109240000Y-113843193D01*
X109454142Y-113824458D01*
X109459455Y-113823034D01*
X109459457Y-113823034D01*
X109656467Y-113770245D01*
X109656469Y-113770244D01*
X109661777Y-113768822D01*
X109666759Y-113766499D01*
X109851616Y-113680299D01*
X109851619Y-113680297D01*
X109856597Y-113677976D01*
X110032681Y-113554681D01*
X110184681Y-113402681D01*
X110307976Y-113226596D01*
X110395805Y-113038247D01*
X110442723Y-112984962D01*
X110511000Y-112965501D01*
X110578960Y-112986043D01*
X110624195Y-113038247D01*
X110712024Y-113226596D01*
X110835319Y-113402681D01*
X110987319Y-113554681D01*
X111163403Y-113677976D01*
X111168381Y-113680297D01*
X111168384Y-113680299D01*
X111353241Y-113766499D01*
X111358223Y-113768822D01*
X111363531Y-113770244D01*
X111363533Y-113770245D01*
X111560543Y-113823034D01*
X111560545Y-113823034D01*
X111565858Y-113824458D01*
X111780000Y-113843193D01*
X111994142Y-113824458D01*
X111999455Y-113823034D01*
X111999457Y-113823034D01*
X112196467Y-113770245D01*
X112196469Y-113770244D01*
X112201777Y-113768822D01*
X112206759Y-113766499D01*
X112391616Y-113680299D01*
X112391619Y-113680297D01*
X112396597Y-113677976D01*
X112572681Y-113554681D01*
X112724681Y-113402681D01*
X112847976Y-113226596D01*
X112935805Y-113038247D01*
X112982723Y-112984962D01*
X113051000Y-112965501D01*
X113118960Y-112986043D01*
X113164195Y-113038247D01*
X113252024Y-113226596D01*
X113375319Y-113402681D01*
X113527319Y-113554681D01*
X113703403Y-113677976D01*
X113708381Y-113680297D01*
X113708384Y-113680299D01*
X113893241Y-113766499D01*
X113898223Y-113768822D01*
X113903531Y-113770244D01*
X113903533Y-113770245D01*
X114100543Y-113823034D01*
X114100545Y-113823034D01*
X114105858Y-113824458D01*
X114320000Y-113843193D01*
X114534142Y-113824458D01*
X114539455Y-113823034D01*
X114539457Y-113823034D01*
X114736467Y-113770245D01*
X114736469Y-113770244D01*
X114741777Y-113768822D01*
X114746759Y-113766499D01*
X114931616Y-113680299D01*
X114931619Y-113680297D01*
X114936597Y-113677976D01*
X115112681Y-113554681D01*
X115264681Y-113402681D01*
X115387976Y-113226596D01*
X115478822Y-113031777D01*
X115490583Y-112987885D01*
X130639500Y-112987885D01*
X130643975Y-113003124D01*
X130645365Y-113004329D01*
X130653048Y-113006000D01*
X133415385Y-113006000D01*
X133430624Y-113001525D01*
X133431829Y-113000135D01*
X133433500Y-112992452D01*
X133433500Y-112020116D01*
X133429025Y-112004877D01*
X133427635Y-112003672D01*
X133419952Y-112002001D01*
X131102831Y-112002001D01*
X131096010Y-112002371D01*
X131045148Y-112007895D01*
X131029896Y-112011521D01*
X130909446Y-112056676D01*
X130893851Y-112065214D01*
X130791776Y-112141715D01*
X130779215Y-112154276D01*
X130702714Y-112256351D01*
X130694176Y-112271946D01*
X130649022Y-112392394D01*
X130645395Y-112407649D01*
X130639869Y-112458514D01*
X130639500Y-112465328D01*
X130639500Y-112987885D01*
X115490583Y-112987885D01*
X115491077Y-112986043D01*
X115533034Y-112829457D01*
X115533034Y-112829455D01*
X115534458Y-112824142D01*
X115553193Y-112610000D01*
X115534458Y-112395858D01*
X115533034Y-112390543D01*
X115480245Y-112193533D01*
X115480244Y-112193531D01*
X115478822Y-112188223D01*
X115449069Y-112124417D01*
X115390299Y-111998385D01*
X115390297Y-111998382D01*
X115387976Y-111993404D01*
X115264681Y-111817319D01*
X115112681Y-111665319D01*
X114936597Y-111542024D01*
X114931619Y-111539703D01*
X114931616Y-111539701D01*
X114746759Y-111453501D01*
X114746758Y-111453500D01*
X114741777Y-111451178D01*
X114736469Y-111449756D01*
X114736467Y-111449755D01*
X114539457Y-111396966D01*
X114539455Y-111396966D01*
X114534142Y-111395542D01*
X114320000Y-111376807D01*
X114105858Y-111395542D01*
X114100545Y-111396966D01*
X114100543Y-111396966D01*
X113903533Y-111449755D01*
X113903531Y-111449756D01*
X113898223Y-111451178D01*
X113893243Y-111453500D01*
X113893241Y-111453501D01*
X113708385Y-111539701D01*
X113708382Y-111539703D01*
X113703404Y-111542024D01*
X113527319Y-111665319D01*
X113375319Y-111817319D01*
X113252024Y-111993404D01*
X113249703Y-111998382D01*
X113249701Y-111998385D01*
X113164195Y-112181753D01*
X113117277Y-112235038D01*
X113049000Y-112254499D01*
X112981040Y-112233957D01*
X112935805Y-112181753D01*
X112850299Y-111998385D01*
X112850297Y-111998382D01*
X112847976Y-111993404D01*
X112724681Y-111817319D01*
X112572681Y-111665319D01*
X112396597Y-111542024D01*
X112391619Y-111539703D01*
X112391616Y-111539701D01*
X112206759Y-111453501D01*
X112206758Y-111453500D01*
X112201777Y-111451178D01*
X112196469Y-111449756D01*
X112196467Y-111449755D01*
X111999457Y-111396966D01*
X111999455Y-111396966D01*
X111994142Y-111395542D01*
X111780000Y-111376807D01*
X111565858Y-111395542D01*
X111560545Y-111396966D01*
X111560543Y-111396966D01*
X111363533Y-111449755D01*
X111363531Y-111449756D01*
X111358223Y-111451178D01*
X111353243Y-111453500D01*
X111353241Y-111453501D01*
X111168385Y-111539701D01*
X111168382Y-111539703D01*
X111163404Y-111542024D01*
X110987319Y-111665319D01*
X110835319Y-111817319D01*
X110712024Y-111993404D01*
X110709703Y-111998382D01*
X110709701Y-111998385D01*
X110624195Y-112181753D01*
X110577277Y-112235038D01*
X110509000Y-112254499D01*
X110441040Y-112233957D01*
X110395805Y-112181753D01*
X110310299Y-111998385D01*
X110310297Y-111998382D01*
X110307976Y-111993404D01*
X110184681Y-111817319D01*
X110032681Y-111665319D01*
X109856597Y-111542024D01*
X109851619Y-111539703D01*
X109851616Y-111539701D01*
X109666759Y-111453501D01*
X109666758Y-111453500D01*
X109661777Y-111451178D01*
X109656469Y-111449756D01*
X109656467Y-111449755D01*
X109459457Y-111396966D01*
X109459455Y-111396966D01*
X109454142Y-111395542D01*
X109240000Y-111376807D01*
X109025858Y-111395542D01*
X109020545Y-111396966D01*
X109020543Y-111396966D01*
X108823533Y-111449755D01*
X108823531Y-111449756D01*
X108818223Y-111451178D01*
X108813243Y-111453500D01*
X108813241Y-111453501D01*
X108628385Y-111539701D01*
X108628382Y-111539703D01*
X108623404Y-111542024D01*
X108447319Y-111665319D01*
X108295319Y-111817319D01*
X108172024Y-111993404D01*
X108169703Y-111998382D01*
X108169701Y-111998385D01*
X108110931Y-112124417D01*
X108081178Y-112188223D01*
X108079756Y-112193531D01*
X108079755Y-112193533D01*
X108026966Y-112390543D01*
X108025542Y-112395858D01*
X108006807Y-112610000D01*
X101991710Y-112610000D01*
X101968588Y-112544705D01*
X101965191Y-112536854D01*
X101843550Y-112301178D01*
X101839122Y-112293866D01*
X101720031Y-112124417D01*
X101709509Y-112116037D01*
X101696121Y-112123089D01*
X100492022Y-113327188D01*
X100484408Y-113341132D01*
X99754356Y-113341132D01*
X99755592Y-113338868D01*
X99755461Y-113337035D01*
X99751210Y-113330420D01*
X98543814Y-112123024D01*
X98531804Y-112116466D01*
X98520064Y-112125434D01*
X98411935Y-112275911D01*
X98407418Y-112283196D01*
X98283325Y-112517567D01*
X98279839Y-112525395D01*
X98188700Y-112774446D01*
X98186311Y-112782670D01*
X98129812Y-113041795D01*
X98128563Y-113050250D01*
X98107754Y-113314653D01*
X98107665Y-113323204D01*
X94508500Y-113323204D01*
X94508500Y-111752500D01*
X98896584Y-111752500D01*
X98902980Y-111763770D01*
X100107188Y-112967978D01*
X100121132Y-112975592D01*
X100122965Y-112975461D01*
X100129580Y-112971210D01*
X101336604Y-111764186D01*
X101343795Y-111751017D01*
X101336473Y-111740780D01*
X101289233Y-111702115D01*
X101282261Y-111697160D01*
X101056122Y-111558582D01*
X101048552Y-111554624D01*
X100805704Y-111448022D01*
X100797644Y-111445120D01*
X100542592Y-111372467D01*
X100534214Y-111370685D01*
X100271656Y-111333318D01*
X100263111Y-111332691D01*
X99997908Y-111331302D01*
X99989374Y-111331839D01*
X99726433Y-111366456D01*
X99718035Y-111368149D01*
X99462238Y-111438127D01*
X99454143Y-111440946D01*
X99210199Y-111544997D01*
X99202577Y-111548881D01*
X98975013Y-111685075D01*
X98967981Y-111689962D01*
X98905053Y-111740377D01*
X98896584Y-111752500D01*
X94508500Y-111752500D01*
X94508500Y-109808134D01*
X98111500Y-109808134D01*
X98118255Y-109870316D01*
X98169385Y-110006705D01*
X98256739Y-110123261D01*
X98373295Y-110210615D01*
X98509684Y-110261745D01*
X98571866Y-110268500D01*
X101668134Y-110268500D01*
X101730316Y-110261745D01*
X101866705Y-110210615D01*
X101983261Y-110123261D01*
X102070615Y-110006705D01*
X102121745Y-109870316D01*
X102128500Y-109808134D01*
X102128500Y-106711866D01*
X102121745Y-106649684D01*
X102070615Y-106513295D01*
X101983261Y-106396739D01*
X101866705Y-106309385D01*
X101730316Y-106258255D01*
X101668134Y-106251500D01*
X98571866Y-106251500D01*
X98509684Y-106258255D01*
X98373295Y-106309385D01*
X98256739Y-106396739D01*
X98169385Y-106513295D01*
X98118255Y-106649684D01*
X98111500Y-106711866D01*
X98111500Y-109808134D01*
X94508500Y-109808134D01*
X94508500Y-105554669D01*
X130639501Y-105554669D01*
X130639871Y-105561490D01*
X130645395Y-105612352D01*
X130649021Y-105627604D01*
X130694176Y-105748054D01*
X130702714Y-105763649D01*
X130779215Y-105865724D01*
X130791776Y-105878285D01*
X130893851Y-105954786D01*
X130909446Y-105963324D01*
X131029894Y-106008478D01*
X131045149Y-106012105D01*
X131096014Y-106017631D01*
X131102828Y-106018000D01*
X133415385Y-106018000D01*
X133430624Y-106013525D01*
X133431829Y-106012135D01*
X133433500Y-106004452D01*
X133433500Y-105032115D01*
X133429025Y-105016876D01*
X133427635Y-105015671D01*
X133419952Y-105014000D01*
X130657616Y-105014000D01*
X130642377Y-105018475D01*
X130641172Y-105019865D01*
X130639501Y-105027548D01*
X130639501Y-105554669D01*
X94508500Y-105554669D01*
X94508500Y-104487885D01*
X130639500Y-104487885D01*
X130643975Y-104503124D01*
X130645365Y-104504329D01*
X130653048Y-104506000D01*
X133415385Y-104506000D01*
X133430624Y-104501525D01*
X133431829Y-104500135D01*
X133433500Y-104492452D01*
X133433500Y-103520116D01*
X133429025Y-103504877D01*
X133427635Y-103503672D01*
X133419952Y-103502001D01*
X131102831Y-103502001D01*
X131096010Y-103502371D01*
X131045148Y-103507895D01*
X131029896Y-103511521D01*
X130909446Y-103556676D01*
X130893851Y-103565214D01*
X130791776Y-103641715D01*
X130779215Y-103654276D01*
X130702714Y-103756351D01*
X130694176Y-103771946D01*
X130649022Y-103892394D01*
X130645395Y-103907649D01*
X130639869Y-103958514D01*
X130639500Y-103965328D01*
X130639500Y-104487885D01*
X94508500Y-104487885D01*
X94508500Y-95509654D01*
X98355618Y-95509654D01*
X98362673Y-95519627D01*
X98393679Y-95545551D01*
X98400598Y-95550579D01*
X98625272Y-95691515D01*
X98632807Y-95695556D01*
X98874520Y-95804694D01*
X98882551Y-95807680D01*
X99136832Y-95883002D01*
X99145184Y-95884869D01*
X99407340Y-95924984D01*
X99415874Y-95925700D01*
X99681045Y-95929867D01*
X99689596Y-95929418D01*
X99952883Y-95897557D01*
X99961284Y-95895955D01*
X100217824Y-95828653D01*
X100225926Y-95825926D01*
X100470949Y-95724434D01*
X100478617Y-95720628D01*
X100707598Y-95586822D01*
X100714679Y-95582009D01*
X100794655Y-95519301D01*
X100803125Y-95507442D01*
X100796608Y-95495818D01*
X100565459Y-95264669D01*
X130582001Y-95264669D01*
X130582371Y-95271490D01*
X130587895Y-95322352D01*
X130591521Y-95337604D01*
X130636676Y-95458054D01*
X130645214Y-95473649D01*
X130721715Y-95575724D01*
X130734276Y-95588285D01*
X130836351Y-95664786D01*
X130851946Y-95673324D01*
X130972394Y-95718478D01*
X130987649Y-95722105D01*
X131038514Y-95727631D01*
X131045328Y-95728000D01*
X133357885Y-95728000D01*
X133373124Y-95723525D01*
X133374329Y-95722135D01*
X133376000Y-95714452D01*
X133376000Y-94742115D01*
X133371525Y-94726876D01*
X133370135Y-94725671D01*
X133362452Y-94724000D01*
X130600116Y-94724000D01*
X130584877Y-94728475D01*
X130583672Y-94729865D01*
X130582001Y-94737548D01*
X130582001Y-95264669D01*
X100565459Y-95264669D01*
X99592812Y-94292022D01*
X99578868Y-94284408D01*
X99577035Y-94284539D01*
X99570420Y-94288790D01*
X98362910Y-95496300D01*
X98355618Y-95509654D01*
X94508500Y-95509654D01*
X94508500Y-93903204D01*
X97567665Y-93903204D01*
X97582932Y-94167969D01*
X97584005Y-94176470D01*
X97635065Y-94436722D01*
X97637276Y-94444974D01*
X97723184Y-94695894D01*
X97726499Y-94703779D01*
X97845664Y-94940713D01*
X97850020Y-94948079D01*
X97979347Y-95136250D01*
X97989601Y-95144594D01*
X98003342Y-95137448D01*
X99207978Y-93932812D01*
X99214356Y-93921132D01*
X99944408Y-93921132D01*
X99944539Y-93922965D01*
X99948790Y-93929580D01*
X101155730Y-95136520D01*
X101167939Y-95143187D01*
X101179439Y-95134497D01*
X101276831Y-95001913D01*
X101281418Y-94994685D01*
X101407962Y-94761621D01*
X101411530Y-94753827D01*
X101505271Y-94505750D01*
X101507748Y-94497544D01*
X101566954Y-94239038D01*
X101568294Y-94230577D01*
X101592031Y-93964616D01*
X101592277Y-93959677D01*
X101592666Y-93922485D01*
X101592523Y-93917519D01*
X101588602Y-93860000D01*
X107796807Y-93860000D01*
X107815542Y-94074142D01*
X107816966Y-94079455D01*
X107816966Y-94079457D01*
X107858924Y-94236043D01*
X107871178Y-94281777D01*
X107962024Y-94476596D01*
X108085319Y-94652681D01*
X108237319Y-94804681D01*
X108413403Y-94927976D01*
X108418381Y-94930297D01*
X108418384Y-94930299D01*
X108603241Y-95016499D01*
X108608223Y-95018822D01*
X108613531Y-95020244D01*
X108613533Y-95020245D01*
X108810543Y-95073034D01*
X108810545Y-95073034D01*
X108815858Y-95074458D01*
X109030000Y-95093193D01*
X109244142Y-95074458D01*
X109249455Y-95073034D01*
X109249457Y-95073034D01*
X109446467Y-95020245D01*
X109446469Y-95020244D01*
X109451777Y-95018822D01*
X109456759Y-95016499D01*
X109641616Y-94930299D01*
X109641619Y-94930297D01*
X109646597Y-94927976D01*
X109822681Y-94804681D01*
X109974681Y-94652681D01*
X110097976Y-94476596D01*
X110185805Y-94288247D01*
X110232723Y-94234962D01*
X110301000Y-94215501D01*
X110368960Y-94236043D01*
X110414195Y-94288247D01*
X110502024Y-94476596D01*
X110625319Y-94652681D01*
X110777319Y-94804681D01*
X110953403Y-94927976D01*
X110958381Y-94930297D01*
X110958384Y-94930299D01*
X111143241Y-95016499D01*
X111148223Y-95018822D01*
X111153531Y-95020244D01*
X111153533Y-95020245D01*
X111350543Y-95073034D01*
X111350545Y-95073034D01*
X111355858Y-95074458D01*
X111570000Y-95093193D01*
X111784142Y-95074458D01*
X111789455Y-95073034D01*
X111789457Y-95073034D01*
X111986467Y-95020245D01*
X111986469Y-95020244D01*
X111991777Y-95018822D01*
X111996759Y-95016499D01*
X112181616Y-94930299D01*
X112181619Y-94930297D01*
X112186597Y-94927976D01*
X112362681Y-94804681D01*
X112514681Y-94652681D01*
X112637976Y-94476596D01*
X112725805Y-94288247D01*
X112772723Y-94234962D01*
X112841000Y-94215501D01*
X112908960Y-94236043D01*
X112954195Y-94288247D01*
X113042024Y-94476596D01*
X113165319Y-94652681D01*
X113317319Y-94804681D01*
X113493403Y-94927976D01*
X113498381Y-94930297D01*
X113498384Y-94930299D01*
X113683241Y-95016499D01*
X113688223Y-95018822D01*
X113693531Y-95020244D01*
X113693533Y-95020245D01*
X113890543Y-95073034D01*
X113890545Y-95073034D01*
X113895858Y-95074458D01*
X114110000Y-95093193D01*
X114324142Y-95074458D01*
X114329455Y-95073034D01*
X114329457Y-95073034D01*
X114526467Y-95020245D01*
X114526469Y-95020244D01*
X114531777Y-95018822D01*
X114536759Y-95016499D01*
X114721616Y-94930299D01*
X114721619Y-94930297D01*
X114726597Y-94927976D01*
X114902681Y-94804681D01*
X115054681Y-94652681D01*
X115177976Y-94476596D01*
X115268822Y-94281777D01*
X115281077Y-94236043D01*
X115291301Y-94197885D01*
X130582000Y-94197885D01*
X130586475Y-94213124D01*
X130587865Y-94214329D01*
X130595548Y-94216000D01*
X133357885Y-94216000D01*
X133373124Y-94211525D01*
X133374329Y-94210135D01*
X133376000Y-94202452D01*
X133376000Y-93230116D01*
X133371525Y-93214877D01*
X133370135Y-93213672D01*
X133362452Y-93212001D01*
X131045331Y-93212001D01*
X131038510Y-93212371D01*
X130987648Y-93217895D01*
X130972396Y-93221521D01*
X130851946Y-93266676D01*
X130836351Y-93275214D01*
X130734276Y-93351715D01*
X130721715Y-93364276D01*
X130645214Y-93466351D01*
X130636676Y-93481946D01*
X130591522Y-93602394D01*
X130587895Y-93617649D01*
X130582369Y-93668514D01*
X130582000Y-93675328D01*
X130582000Y-94197885D01*
X115291301Y-94197885D01*
X115323034Y-94079457D01*
X115323034Y-94079455D01*
X115324458Y-94074142D01*
X115343193Y-93860000D01*
X115324458Y-93645858D01*
X115318010Y-93621795D01*
X115270245Y-93443533D01*
X115270244Y-93443531D01*
X115268822Y-93438223D01*
X115229756Y-93354446D01*
X115180299Y-93248385D01*
X115180297Y-93248382D01*
X115177976Y-93243404D01*
X115054681Y-93067319D01*
X114902681Y-92915319D01*
X114726597Y-92792024D01*
X114721619Y-92789703D01*
X114721616Y-92789701D01*
X114536759Y-92703501D01*
X114536758Y-92703500D01*
X114531777Y-92701178D01*
X114526469Y-92699756D01*
X114526467Y-92699755D01*
X114329457Y-92646966D01*
X114329455Y-92646966D01*
X114324142Y-92645542D01*
X114110000Y-92626807D01*
X113895858Y-92645542D01*
X113890545Y-92646966D01*
X113890543Y-92646966D01*
X113693533Y-92699755D01*
X113693531Y-92699756D01*
X113688223Y-92701178D01*
X113683243Y-92703500D01*
X113683241Y-92703501D01*
X113498385Y-92789701D01*
X113498382Y-92789703D01*
X113493404Y-92792024D01*
X113317319Y-92915319D01*
X113165319Y-93067319D01*
X113042024Y-93243404D01*
X113039703Y-93248382D01*
X113039701Y-93248385D01*
X112954195Y-93431753D01*
X112907277Y-93485038D01*
X112839000Y-93504499D01*
X112771040Y-93483957D01*
X112725805Y-93431753D01*
X112640299Y-93248385D01*
X112640297Y-93248382D01*
X112637976Y-93243404D01*
X112514681Y-93067319D01*
X112362681Y-92915319D01*
X112186597Y-92792024D01*
X112181619Y-92789703D01*
X112181616Y-92789701D01*
X111996759Y-92703501D01*
X111996758Y-92703500D01*
X111991777Y-92701178D01*
X111986469Y-92699756D01*
X111986467Y-92699755D01*
X111789457Y-92646966D01*
X111789455Y-92646966D01*
X111784142Y-92645542D01*
X111570000Y-92626807D01*
X111355858Y-92645542D01*
X111350545Y-92646966D01*
X111350543Y-92646966D01*
X111153533Y-92699755D01*
X111153531Y-92699756D01*
X111148223Y-92701178D01*
X111143243Y-92703500D01*
X111143241Y-92703501D01*
X110958385Y-92789701D01*
X110958382Y-92789703D01*
X110953404Y-92792024D01*
X110777319Y-92915319D01*
X110625319Y-93067319D01*
X110502024Y-93243404D01*
X110499703Y-93248382D01*
X110499701Y-93248385D01*
X110414195Y-93431753D01*
X110367277Y-93485038D01*
X110299000Y-93504499D01*
X110231040Y-93483957D01*
X110185805Y-93431753D01*
X110100299Y-93248385D01*
X110100297Y-93248382D01*
X110097976Y-93243404D01*
X109974681Y-93067319D01*
X109822681Y-92915319D01*
X109646597Y-92792024D01*
X109641619Y-92789703D01*
X109641616Y-92789701D01*
X109456759Y-92703501D01*
X109456758Y-92703500D01*
X109451777Y-92701178D01*
X109446469Y-92699756D01*
X109446467Y-92699755D01*
X109249457Y-92646966D01*
X109249455Y-92646966D01*
X109244142Y-92645542D01*
X109030000Y-92626807D01*
X108815858Y-92645542D01*
X108810545Y-92646966D01*
X108810543Y-92646966D01*
X108613533Y-92699755D01*
X108613531Y-92699756D01*
X108608223Y-92701178D01*
X108603243Y-92703500D01*
X108603241Y-92703501D01*
X108418385Y-92789701D01*
X108418382Y-92789703D01*
X108413404Y-92792024D01*
X108237319Y-92915319D01*
X108085319Y-93067319D01*
X107962024Y-93243404D01*
X107959703Y-93248382D01*
X107959701Y-93248385D01*
X107910244Y-93354446D01*
X107871178Y-93438223D01*
X107869756Y-93443531D01*
X107869755Y-93443533D01*
X107821990Y-93621795D01*
X107815542Y-93645858D01*
X107796807Y-93860000D01*
X101588602Y-93860000D01*
X101574362Y-93651123D01*
X101573201Y-93642649D01*
X101519419Y-93382944D01*
X101517120Y-93374709D01*
X101428588Y-93124705D01*
X101425191Y-93116854D01*
X101303550Y-92881178D01*
X101299122Y-92873866D01*
X101180031Y-92704417D01*
X101169509Y-92696037D01*
X101156121Y-92703089D01*
X99952022Y-93907188D01*
X99944408Y-93921132D01*
X99214356Y-93921132D01*
X99215592Y-93918868D01*
X99215461Y-93917035D01*
X99211210Y-93910420D01*
X98003814Y-92703024D01*
X97991804Y-92696466D01*
X97980064Y-92705434D01*
X97871935Y-92855911D01*
X97867418Y-92863196D01*
X97743325Y-93097567D01*
X97739839Y-93105395D01*
X97648700Y-93354446D01*
X97646311Y-93362670D01*
X97589812Y-93621795D01*
X97588563Y-93630250D01*
X97567754Y-93894653D01*
X97567665Y-93903204D01*
X94508500Y-93903204D01*
X94508500Y-92332500D01*
X98356584Y-92332500D01*
X98362980Y-92343770D01*
X99567188Y-93547978D01*
X99581132Y-93555592D01*
X99582965Y-93555461D01*
X99589580Y-93551210D01*
X100796604Y-92344186D01*
X100803795Y-92331017D01*
X100796473Y-92320780D01*
X100749233Y-92282115D01*
X100742261Y-92277160D01*
X100516122Y-92138582D01*
X100508552Y-92134624D01*
X100265704Y-92028022D01*
X100257644Y-92025120D01*
X100002592Y-91952467D01*
X99994214Y-91950685D01*
X99731656Y-91913318D01*
X99723111Y-91912691D01*
X99457908Y-91911302D01*
X99449374Y-91911839D01*
X99186433Y-91946456D01*
X99178035Y-91948149D01*
X98922238Y-92018127D01*
X98914143Y-92020946D01*
X98670199Y-92124997D01*
X98662577Y-92128881D01*
X98435013Y-92265075D01*
X98427981Y-92269962D01*
X98365053Y-92320377D01*
X98356584Y-92332500D01*
X94508500Y-92332500D01*
X94508500Y-90388134D01*
X97571500Y-90388134D01*
X97578255Y-90450316D01*
X97629385Y-90586705D01*
X97716739Y-90703261D01*
X97833295Y-90790615D01*
X97969684Y-90841745D01*
X98031866Y-90848500D01*
X101128134Y-90848500D01*
X101190316Y-90841745D01*
X101326705Y-90790615D01*
X101443261Y-90703261D01*
X101530615Y-90586705D01*
X101581745Y-90450316D01*
X101588500Y-90388134D01*
X101588500Y-87291866D01*
X101581745Y-87229684D01*
X101530615Y-87093295D01*
X101443261Y-86976739D01*
X101326705Y-86889385D01*
X101190316Y-86838255D01*
X101128134Y-86831500D01*
X98031866Y-86831500D01*
X97969684Y-86838255D01*
X97833295Y-86889385D01*
X97716739Y-86976739D01*
X97629385Y-87093295D01*
X97578255Y-87229684D01*
X97571500Y-87291866D01*
X97571500Y-90388134D01*
X94508500Y-90388134D01*
X94508500Y-86764669D01*
X130582001Y-86764669D01*
X130582371Y-86771490D01*
X130587895Y-86822352D01*
X130591521Y-86837604D01*
X130636676Y-86958054D01*
X130645214Y-86973649D01*
X130721715Y-87075724D01*
X130734276Y-87088285D01*
X130836351Y-87164786D01*
X130851946Y-87173324D01*
X130972394Y-87218478D01*
X130987649Y-87222105D01*
X131038514Y-87227631D01*
X131045328Y-87228000D01*
X133357885Y-87228000D01*
X133373124Y-87223525D01*
X133374329Y-87222135D01*
X133376000Y-87214452D01*
X133376000Y-86242115D01*
X133371525Y-86226876D01*
X133370135Y-86225671D01*
X133362452Y-86224000D01*
X130600116Y-86224000D01*
X130584877Y-86228475D01*
X130583672Y-86229865D01*
X130582001Y-86237548D01*
X130582001Y-86764669D01*
X94508500Y-86764669D01*
X94508500Y-85697885D01*
X130582000Y-85697885D01*
X130586475Y-85713124D01*
X130587865Y-85714329D01*
X130595548Y-85716000D01*
X133357885Y-85716000D01*
X133373124Y-85711525D01*
X133374329Y-85710135D01*
X133376000Y-85702452D01*
X133376000Y-84730116D01*
X133371525Y-84714877D01*
X133370135Y-84713672D01*
X133362452Y-84712001D01*
X131045331Y-84712001D01*
X131038510Y-84712371D01*
X130987648Y-84717895D01*
X130972396Y-84721521D01*
X130851946Y-84766676D01*
X130836351Y-84775214D01*
X130734276Y-84851715D01*
X130721715Y-84864276D01*
X130645214Y-84966351D01*
X130636676Y-84981946D01*
X130591522Y-85102394D01*
X130587895Y-85117649D01*
X130582369Y-85168514D01*
X130582000Y-85175328D01*
X130582000Y-85697885D01*
X94508500Y-85697885D01*
X94508500Y-83634500D01*
X94528502Y-83566379D01*
X94582158Y-83519886D01*
X94634500Y-83508500D01*
X136365500Y-83508500D01*
X136433621Y-83528502D01*
G37*
%TD.AperFunction*%
%TD*%
M02*
