%TF.GenerationSoftware,KiCad,Pcbnew,(6.0.11)*%
%TF.CreationDate,2023-07-11T20:00:27-05:00*%
%TF.ProjectId,SchottkyNoiseSource,5363686f-7474-46b7-994e-6f697365536f,rev?*%
%TF.SameCoordinates,Original*%
%TF.FileFunction,Paste,Top*%
%TF.FilePolarity,Positive*%
%FSLAX46Y46*%
G04 Gerber Fmt 4.6, Leading zero omitted, Abs format (unit mm)*
G04 Created by KiCad (PCBNEW (6.0.11)) date 2023-07-11 20:00:27*
%MOMM*%
%LPD*%
G01*
G04 APERTURE LIST*
G04 Aperture macros list*
%AMRoundRect*
0 Rectangle with rounded corners*
0 $1 Rounding radius*
0 $2 $3 $4 $5 $6 $7 $8 $9 X,Y pos of 4 corners*
0 Add a 4 corners polygon primitive as box body*
4,1,4,$2,$3,$4,$5,$6,$7,$8,$9,$2,$3,0*
0 Add four circle primitives for the rounded corners*
1,1,$1+$1,$2,$3*
1,1,$1+$1,$4,$5*
1,1,$1+$1,$6,$7*
1,1,$1+$1,$8,$9*
0 Add four rect primitives between the rounded corners*
20,1,$1+$1,$2,$3,$4,$5,0*
20,1,$1+$1,$4,$5,$6,$7,0*
20,1,$1+$1,$6,$7,$8,$9,0*
20,1,$1+$1,$8,$9,$2,$3,0*%
G04 Aperture macros list end*
%ADD10RoundRect,0.237500X-0.250000X-0.237500X0.250000X-0.237500X0.250000X0.237500X-0.250000X0.237500X0*%
%ADD11RoundRect,0.155000X-0.212500X-0.155000X0.212500X-0.155000X0.212500X0.155000X-0.212500X0.155000X0*%
%ADD12RoundRect,0.250000X0.350000X0.450000X-0.350000X0.450000X-0.350000X-0.450000X0.350000X-0.450000X0*%
%ADD13RoundRect,0.237500X0.237500X-0.250000X0.237500X0.250000X-0.237500X0.250000X-0.237500X-0.250000X0*%
%ADD14RoundRect,0.150000X-0.587500X-0.150000X0.587500X-0.150000X0.587500X0.150000X-0.587500X0.150000X0*%
%ADD15R,5.080000X1.500000*%
%ADD16RoundRect,0.237500X0.250000X0.237500X-0.250000X0.237500X-0.250000X-0.237500X0.250000X-0.237500X0*%
G04 APERTURE END LIST*
D10*
%TO.C,R11*%
X127067500Y-107300000D03*
X128892500Y-107300000D03*
%TD*%
D11*
%TO.C,C6*%
X122532500Y-107300000D03*
X123667500Y-107300000D03*
%TD*%
D12*
%TO.C,R1*%
X111480000Y-83840000D03*
X109480000Y-83840000D03*
%TD*%
D13*
%TO.C,R15*%
X122260000Y-130232500D03*
X122260000Y-128407500D03*
%TD*%
D11*
%TO.C,C11*%
X98932500Y-103250000D03*
X100067500Y-103250000D03*
%TD*%
D13*
%TO.C,R19*%
X127380000Y-130342500D03*
X127380000Y-128517500D03*
%TD*%
%TO.C,R6*%
X128440000Y-82302500D03*
X128440000Y-80477500D03*
%TD*%
D11*
%TO.C,C10*%
X99182500Y-79000000D03*
X100317500Y-79000000D03*
%TD*%
%TO.C,C1*%
X109412500Y-82050000D03*
X110547500Y-82050000D03*
%TD*%
D13*
%TO.C,R9*%
X125180000Y-107235000D03*
X125180000Y-105410000D03*
%TD*%
D14*
%TO.C,D3*%
X117762500Y-130970000D03*
X117762500Y-132870000D03*
X119637500Y-131920000D03*
%TD*%
D13*
%TO.C,R10*%
X126980000Y-105672500D03*
X126980000Y-103847500D03*
%TD*%
D11*
%TO.C,C12*%
X99032500Y-126650000D03*
X100167500Y-126650000D03*
%TD*%
%TO.C,C2*%
X114645000Y-82520000D03*
X115780000Y-82520000D03*
%TD*%
D10*
%TO.C,R17*%
X123907500Y-131950000D03*
X125732500Y-131950000D03*
%TD*%
D13*
%TO.C,R21*%
X129220000Y-130322500D03*
X129220000Y-128497500D03*
%TD*%
D10*
%TO.C,R5*%
X126577500Y-83930000D03*
X128402500Y-83930000D03*
%TD*%
D15*
%TO.C,J1*%
X134290000Y-84160000D03*
X134290000Y-79910000D03*
X134290000Y-88410000D03*
%TD*%
D11*
%TO.C,C4*%
X109522500Y-105190000D03*
X110657500Y-105190000D03*
%TD*%
D13*
%TO.C,R4*%
X126520000Y-82282500D03*
X126520000Y-80457500D03*
%TD*%
%TO.C,R3*%
X124650000Y-83922500D03*
X124650000Y-82097500D03*
%TD*%
%TO.C,R18*%
X125690000Y-130332500D03*
X125690000Y-128507500D03*
%TD*%
%TO.C,R12*%
X128950000Y-105672500D03*
X128950000Y-103847500D03*
%TD*%
D12*
%TO.C,R7*%
X111500000Y-107000000D03*
X109500000Y-107000000D03*
%TD*%
D16*
%TO.C,R14*%
X115892500Y-131940000D03*
X114067500Y-131940000D03*
%TD*%
D12*
%TO.C,R13*%
X110570000Y-131610000D03*
X108570000Y-131610000D03*
%TD*%
D16*
%TO.C,R8*%
X116992500Y-107350000D03*
X115167500Y-107350000D03*
%TD*%
D15*
%TO.C,J6*%
X134217500Y-131790000D03*
X134217500Y-127540000D03*
X134217500Y-136040000D03*
%TD*%
D11*
%TO.C,C5*%
X115065000Y-106000000D03*
X116200000Y-106000000D03*
%TD*%
D16*
%TO.C,R2*%
X116642500Y-84040000D03*
X114817500Y-84040000D03*
%TD*%
D10*
%TO.C,R20*%
X127407500Y-131930000D03*
X129232500Y-131930000D03*
%TD*%
D11*
%TO.C,C8*%
X113832500Y-130570000D03*
X114967500Y-130570000D03*
%TD*%
D14*
%TO.C,D2*%
X118942500Y-106350000D03*
X118942500Y-108250000D03*
X120817500Y-107300000D03*
%TD*%
D11*
%TO.C,C3*%
X122072500Y-84010000D03*
X123207500Y-84010000D03*
%TD*%
D15*
%TO.C,J4*%
X134227500Y-107410000D03*
X134227500Y-103160000D03*
X134227500Y-111660000D03*
%TD*%
D11*
%TO.C,C9*%
X121272500Y-131910000D03*
X122407500Y-131910000D03*
%TD*%
D14*
%TO.C,D1*%
X118482500Y-83050000D03*
X118482500Y-84950000D03*
X120357500Y-84000000D03*
%TD*%
D11*
%TO.C,C7*%
X108532500Y-129860000D03*
X109667500Y-129860000D03*
%TD*%
D13*
%TO.C,R16*%
X123970000Y-130262500D03*
X123970000Y-128437500D03*
%TD*%
M02*
