%TF.GenerationSoftware,KiCad,Pcbnew,(6.0.11)*%
%TF.CreationDate,2023-07-11T20:00:27-05:00*%
%TF.ProjectId,SchottkyNoiseSource,5363686f-7474-46b7-994e-6f697365536f,rev?*%
%TF.SameCoordinates,Original*%
%TF.FileFunction,Copper,L2,Bot*%
%TF.FilePolarity,Positive*%
%FSLAX46Y46*%
G04 Gerber Fmt 4.6, Leading zero omitted, Abs format (unit mm)*
G04 Created by KiCad (PCBNEW (6.0.11)) date 2023-07-11 20:00:27*
%MOMM*%
%LPD*%
G01*
G04 APERTURE LIST*
%TA.AperFunction,ComponentPad*%
%ADD10C,1.440000*%
%TD*%
%TA.AperFunction,SMDPad,CuDef*%
%ADD11R,5.080000X1.500000*%
%TD*%
%TA.AperFunction,ComponentPad*%
%ADD12R,3.000000X3.000000*%
%TD*%
%TA.AperFunction,ComponentPad*%
%ADD13C,3.000000*%
%TD*%
%TA.AperFunction,ViaPad*%
%ADD14C,0.800000*%
%TD*%
%TA.AperFunction,Conductor*%
%ADD15C,0.250000*%
%TD*%
G04 APERTURE END LIST*
D10*
%TO.P,RV1,1,1*%
%TO.N,Net-(C2-Pad1)*%
X114770000Y-87800000D03*
%TO.P,RV1,2,2*%
%TO.N,Net-(C1-Pad1)*%
X112230000Y-87800000D03*
%TO.P,RV1,3,3*%
X109690000Y-87800000D03*
%TD*%
%TO.P,RV2,1,1*%
%TO.N,Net-(C5-Pad1)*%
X114860000Y-111010000D03*
%TO.P,RV2,2,2*%
%TO.N,Net-(C4-Pad1)*%
X112320000Y-111010000D03*
%TO.P,RV2,3,3*%
X109780000Y-111010000D03*
%TD*%
%TO.P,RV3,1,1*%
%TO.N,Net-(C8-Pad1)*%
X113910000Y-135490000D03*
%TO.P,RV3,2,2*%
%TO.N,Net-(C7-Pad1)*%
X111370000Y-135490000D03*
%TO.P,RV3,3,3*%
X108830000Y-135490000D03*
%TD*%
D11*
%TO.P,J1,2,Ext*%
%TO.N,GND*%
X134290000Y-79910000D03*
X134290000Y-88410000D03*
%TD*%
D12*
%TO.P,J3,1,Pin_1*%
%TO.N,Net-(C4-Pad1)*%
X99000000Y-107000000D03*
D13*
%TO.P,J3,2,Pin_2*%
%TO.N,GND*%
X99000000Y-112080000D03*
%TD*%
D12*
%TO.P,J2,1,Pin_1*%
%TO.N,Net-(C1-Pad1)*%
X99000000Y-82780000D03*
D13*
%TO.P,J2,2,Pin_2*%
%TO.N,GND*%
X99000000Y-87860000D03*
%TD*%
D11*
%TO.P,J6,2,Ext*%
%TO.N,GND*%
X134217500Y-127540000D03*
X134217500Y-136040000D03*
%TD*%
%TO.P,J4,2,Ext*%
%TO.N,GND*%
X134227500Y-111660000D03*
X134227500Y-103160000D03*
%TD*%
D12*
%TO.P,J5,1,Pin_1*%
%TO.N,Net-(C7-Pad1)*%
X99000000Y-130250000D03*
D13*
%TO.P,J5,2,Pin_2*%
%TO.N,GND*%
X99000000Y-135330000D03*
%TD*%
D14*
%TO.N,GND*%
X109750000Y-141500000D03*
X134227500Y-103160000D03*
X104000000Y-127000000D03*
X131000000Y-123000000D03*
X134227500Y-111660000D03*
X104000000Y-137000000D03*
X105000000Y-134000000D03*
X130000000Y-75000000D03*
X92000000Y-90000000D03*
X98750000Y-93500000D03*
X112250000Y-118750000D03*
X116500000Y-123250000D03*
X105500000Y-123000000D03*
X109500000Y-98500000D03*
X94250000Y-123250000D03*
X111000000Y-75000000D03*
X106000000Y-77000000D03*
X116000000Y-141750000D03*
X110000000Y-123250000D03*
X93750000Y-141500000D03*
X92000000Y-84000000D03*
X111500000Y-98500000D03*
X133250000Y-93750000D03*
X105000000Y-81000000D03*
X134217500Y-136040000D03*
X128500000Y-142000000D03*
X108000000Y-123000000D03*
X108000000Y-118750000D03*
X98500000Y-122750000D03*
X127250000Y-123000000D03*
X100750000Y-141500000D03*
X100000000Y-75000000D03*
X92250000Y-129000000D03*
X105000000Y-91000000D03*
X92000000Y-81620000D03*
X93000000Y-101750000D03*
X104865000Y-119115000D03*
X113750000Y-98500000D03*
X130750000Y-93750000D03*
X115500000Y-98500000D03*
X105000000Y-79000000D03*
X134000000Y-75000000D03*
X125500000Y-141750000D03*
X123250000Y-118500000D03*
X106500000Y-141500000D03*
X124500000Y-123250000D03*
X134217500Y-127540000D03*
X102750000Y-98250000D03*
X120750000Y-123000000D03*
X92250000Y-115750000D03*
X104000000Y-114000000D03*
X97000000Y-75000000D03*
X117750000Y-93500000D03*
X105000000Y-89000000D03*
X124750000Y-93500000D03*
X134000000Y-99500000D03*
X125000000Y-75000000D03*
X131500000Y-98000000D03*
X120250000Y-93500000D03*
X108250000Y-93500000D03*
X133500000Y-124750000D03*
X105000000Y-98500000D03*
X102750000Y-123000000D03*
X122670000Y-75000000D03*
X122750000Y-123500000D03*
X128500000Y-98500000D03*
X115000000Y-93500000D03*
X120500000Y-118500000D03*
X121750000Y-98500000D03*
X122500000Y-93500000D03*
X92000000Y-130750000D03*
X135000000Y-92000000D03*
X125375000Y-98375000D03*
X133250000Y-115250000D03*
X102750000Y-93500000D03*
X111500000Y-93750000D03*
X118380000Y-75000000D03*
X114250000Y-123250000D03*
X93750000Y-118750000D03*
X106000000Y-75000000D03*
X104000000Y-139000000D03*
X107750000Y-98500000D03*
X92500000Y-105000000D03*
X105000000Y-86000000D03*
X105000000Y-110000000D03*
X100250000Y-98250000D03*
X93500000Y-98250000D03*
X134290000Y-88410000D03*
X103750000Y-141500000D03*
X105000000Y-100000000D03*
X105000000Y-102000000D03*
X103000000Y-75000000D03*
X117750000Y-98500000D03*
X97500000Y-119000000D03*
X123500000Y-98500000D03*
X112000000Y-123250000D03*
X108000000Y-75000000D03*
X118750000Y-123250000D03*
X104000000Y-105000000D03*
X96750000Y-98250000D03*
X133750000Y-139250000D03*
X104000000Y-109000000D03*
X98250000Y-141500000D03*
X104050000Y-124850000D03*
X126250000Y-118750000D03*
X127000000Y-75000000D03*
X120000000Y-75000000D03*
X127500000Y-93500000D03*
X119750000Y-98500000D03*
X104000000Y-112000000D03*
X91500000Y-136000000D03*
X112750000Y-141750000D03*
X114000000Y-75000000D03*
X105500000Y-93500000D03*
X116750000Y-118750000D03*
X129875000Y-118625000D03*
X134290000Y-79910000D03*
X118750000Y-141750000D03*
X91750000Y-133000000D03*
X104000000Y-129000000D03*
X104000000Y-117000000D03*
X122500000Y-141750000D03*
X92000000Y-77000000D03*
X101000000Y-118750000D03*
X94000000Y-93750000D03*
X117000000Y-75000000D03*
%TD*%
D15*
%TO.N,GND*%
X131250000Y-97750000D02*
X129250000Y-97750000D01*
X113750000Y-98500000D02*
X111500000Y-98500000D01*
X104000000Y-133000000D02*
X105000000Y-134000000D01*
X110000000Y-123250000D02*
X108250000Y-123250000D01*
X130750000Y-93750000D02*
X133250000Y-93750000D01*
X131500000Y-98000000D02*
X131250000Y-97750000D01*
X133500000Y-124750000D02*
X132750000Y-124750000D01*
X100750000Y-119000000D02*
X101000000Y-118750000D01*
X105000000Y-86000000D02*
X105000000Y-81000000D01*
X94250000Y-123250000D02*
X98000000Y-123250000D01*
X112250000Y-118750000D02*
X113000000Y-119500000D01*
X105000000Y-102000000D02*
X105000000Y-100000000D01*
X122670000Y-75000000D02*
X125000000Y-75000000D01*
X108250000Y-123250000D02*
X108000000Y-123000000D01*
X93750000Y-118750000D02*
X93750000Y-117250000D01*
X92000000Y-77000000D02*
X92000000Y-81620000D01*
X133750000Y-139250000D02*
X133750000Y-136507500D01*
X114000000Y-75000000D02*
X117000000Y-75000000D01*
X94000000Y-93750000D02*
X94250000Y-94000000D01*
X102750000Y-93500000D02*
X105500000Y-93500000D01*
X128250000Y-141750000D02*
X125500000Y-141750000D01*
X108000000Y-118750000D02*
X107635000Y-119115000D01*
X116000000Y-141750000D02*
X112750000Y-141750000D01*
X134000000Y-75000000D02*
X134000000Y-79620000D01*
X114250000Y-123250000D02*
X112000000Y-123250000D01*
X93750000Y-117250000D02*
X92250000Y-115750000D01*
X121250000Y-123500000D02*
X120750000Y-123000000D01*
X124750000Y-93500000D02*
X127500000Y-93500000D01*
X93000000Y-98750000D02*
X93000000Y-101750000D01*
X108500000Y-93750000D02*
X111500000Y-93750000D01*
X104000000Y-129000000D02*
X104000000Y-133000000D01*
X135000000Y-92000000D02*
X135000000Y-89120000D01*
X125375000Y-98375000D02*
X123625000Y-98375000D01*
X104000000Y-124900000D02*
X104000000Y-127000000D01*
X118380000Y-75000000D02*
X120000000Y-75000000D01*
X120250000Y-93500000D02*
X122500000Y-93500000D01*
X106000000Y-75000000D02*
X103000000Y-75000000D01*
X103750000Y-141500000D02*
X100750000Y-141500000D01*
X113000000Y-119500000D02*
X116000000Y-119500000D01*
X111000000Y-75000000D02*
X108000000Y-75000000D01*
X129250000Y-97750000D02*
X128500000Y-98500000D01*
X135000000Y-89120000D02*
X134290000Y-88410000D01*
X98250000Y-94000000D02*
X98750000Y-93500000D01*
X132750000Y-124750000D02*
X131000000Y-123000000D01*
X127000000Y-75000000D02*
X130000000Y-75000000D01*
X105000000Y-91000000D02*
X105000000Y-89000000D01*
X120500000Y-118500000D02*
X123250000Y-118500000D01*
X116000000Y-119500000D02*
X116750000Y-118750000D01*
X104000000Y-117000000D02*
X104000000Y-114000000D01*
X129875000Y-118625000D02*
X129750000Y-118750000D01*
X97500000Y-119000000D02*
X100750000Y-119000000D01*
X105000000Y-78000000D02*
X106000000Y-77000000D01*
X92250000Y-129000000D02*
X92250000Y-130500000D01*
X100000000Y-75000000D02*
X97000000Y-75000000D01*
X115000000Y-93500000D02*
X117750000Y-93500000D01*
X98250000Y-141500000D02*
X93750000Y-141500000D01*
X129750000Y-118750000D02*
X126250000Y-118750000D01*
X107635000Y-119115000D02*
X104865000Y-119115000D01*
X127000000Y-123250000D02*
X124500000Y-123250000D01*
X93500000Y-98250000D02*
X93000000Y-98750000D01*
X133750000Y-136507500D02*
X134217500Y-136040000D01*
X104000000Y-109000000D02*
X104000000Y-105000000D01*
X98000000Y-123250000D02*
X98500000Y-122750000D01*
X133250000Y-115250000D02*
X133250000Y-112637500D01*
X128500000Y-142000000D02*
X128250000Y-141750000D01*
X105000000Y-79000000D02*
X105000000Y-78000000D01*
X123625000Y-98375000D02*
X123500000Y-98500000D01*
X104050000Y-124850000D02*
X104000000Y-124900000D01*
X104000000Y-112000000D02*
X104000000Y-111000000D01*
X121750000Y-98500000D02*
X119750000Y-98500000D01*
X109750000Y-141500000D02*
X106500000Y-141500000D01*
X100250000Y-98250000D02*
X96750000Y-98250000D01*
X92250000Y-130500000D02*
X92000000Y-130750000D01*
X133250000Y-112637500D02*
X134227500Y-111660000D01*
X104000000Y-137000000D02*
X104000000Y-139000000D01*
X109500000Y-98500000D02*
X107750000Y-98500000D01*
X117750000Y-98500000D02*
X115500000Y-98500000D01*
X105500000Y-123000000D02*
X102750000Y-123000000D01*
X118750000Y-123250000D02*
X116500000Y-123250000D01*
X108250000Y-93500000D02*
X108500000Y-93750000D01*
X94250000Y-94000000D02*
X98250000Y-94000000D01*
X134000000Y-79620000D02*
X134290000Y-79910000D01*
X122750000Y-123500000D02*
X121250000Y-123500000D01*
X105000000Y-98500000D02*
X104750000Y-98250000D01*
X127250000Y-123000000D02*
X127000000Y-123250000D01*
X104000000Y-111000000D02*
X105000000Y-110000000D01*
X104750000Y-98250000D02*
X102750000Y-98250000D01*
X122500000Y-141750000D02*
X118750000Y-141750000D01*
%TD*%
%TA.AperFunction,Conductor*%
%TO.N,GND*%
G36*
X136433621Y-72528502D02*
G01*
X136480114Y-72582158D01*
X136491500Y-72634500D01*
X136491500Y-78526000D01*
X136471498Y-78594121D01*
X136417842Y-78640614D01*
X136365500Y-78652000D01*
X134562115Y-78652000D01*
X134546876Y-78656475D01*
X134545671Y-78657865D01*
X134544000Y-78665548D01*
X134544000Y-81149884D01*
X134548475Y-81165123D01*
X134549865Y-81166328D01*
X134557548Y-81167999D01*
X136365500Y-81167999D01*
X136433621Y-81188001D01*
X136480114Y-81241657D01*
X136491500Y-81293999D01*
X136491500Y-87026000D01*
X136471498Y-87094121D01*
X136417842Y-87140614D01*
X136365500Y-87152000D01*
X134562115Y-87152000D01*
X134546876Y-87156475D01*
X134545671Y-87157865D01*
X134544000Y-87165548D01*
X134544000Y-89649884D01*
X134548475Y-89665123D01*
X134549865Y-89666328D01*
X134557548Y-89667999D01*
X136365500Y-89667999D01*
X136433621Y-89688001D01*
X136480114Y-89741657D01*
X136491500Y-89793999D01*
X136491500Y-101776000D01*
X136471498Y-101844121D01*
X136417842Y-101890614D01*
X136365500Y-101902000D01*
X134499615Y-101902000D01*
X134484376Y-101906475D01*
X134483171Y-101907865D01*
X134481500Y-101915548D01*
X134481500Y-104399884D01*
X134485975Y-104415123D01*
X134487365Y-104416328D01*
X134495048Y-104417999D01*
X136365500Y-104417999D01*
X136433621Y-104438001D01*
X136480114Y-104491657D01*
X136491500Y-104543999D01*
X136491500Y-110276000D01*
X136471498Y-110344121D01*
X136417842Y-110390614D01*
X136365500Y-110402000D01*
X134499615Y-110402000D01*
X134484376Y-110406475D01*
X134483171Y-110407865D01*
X134481500Y-110415548D01*
X134481500Y-112899884D01*
X134485975Y-112915123D01*
X134487365Y-112916328D01*
X134495048Y-112917999D01*
X136365500Y-112917999D01*
X136433621Y-112938001D01*
X136480114Y-112991657D01*
X136491500Y-113043999D01*
X136491500Y-126156000D01*
X136471498Y-126224121D01*
X136417842Y-126270614D01*
X136365500Y-126282000D01*
X134489615Y-126282000D01*
X134474376Y-126286475D01*
X134473171Y-126287865D01*
X134471500Y-126295548D01*
X134471500Y-128779884D01*
X134475975Y-128795123D01*
X134477365Y-128796328D01*
X134485048Y-128797999D01*
X136365500Y-128797999D01*
X136433621Y-128818001D01*
X136480114Y-128871657D01*
X136491500Y-128923999D01*
X136491500Y-134656000D01*
X136471498Y-134724121D01*
X136417842Y-134770614D01*
X136365500Y-134782000D01*
X134489615Y-134782000D01*
X134474376Y-134786475D01*
X134473171Y-134787865D01*
X134471500Y-134795548D01*
X134471500Y-137279884D01*
X134475975Y-137295123D01*
X134477365Y-137296328D01*
X134485048Y-137297999D01*
X136365500Y-137297999D01*
X136433621Y-137318001D01*
X136480114Y-137371657D01*
X136491500Y-137423999D01*
X136491500Y-143365500D01*
X136471498Y-143433621D01*
X136417842Y-143480114D01*
X136365500Y-143491500D01*
X90634500Y-143491500D01*
X90566379Y-143471498D01*
X90519886Y-143417842D01*
X90508500Y-143365500D01*
X90508500Y-136919654D01*
X97775618Y-136919654D01*
X97782673Y-136929627D01*
X97813679Y-136955551D01*
X97820598Y-136960579D01*
X98045272Y-137101515D01*
X98052807Y-137105556D01*
X98294520Y-137214694D01*
X98302551Y-137217680D01*
X98556832Y-137293002D01*
X98565184Y-137294869D01*
X98827340Y-137334984D01*
X98835874Y-137335700D01*
X99101045Y-137339867D01*
X99109596Y-137339418D01*
X99372883Y-137307557D01*
X99381284Y-137305955D01*
X99637824Y-137238653D01*
X99645926Y-137235926D01*
X99890949Y-137134434D01*
X99898617Y-137130628D01*
X100127598Y-136996822D01*
X100134679Y-136992009D01*
X100214655Y-136929301D01*
X100223125Y-136917442D01*
X100216608Y-136905818D01*
X100145459Y-136834669D01*
X131169501Y-136834669D01*
X131169871Y-136841490D01*
X131175395Y-136892352D01*
X131179021Y-136907604D01*
X131224176Y-137028054D01*
X131232714Y-137043649D01*
X131309215Y-137145724D01*
X131321776Y-137158285D01*
X131423851Y-137234786D01*
X131439446Y-137243324D01*
X131559894Y-137288478D01*
X131575149Y-137292105D01*
X131626014Y-137297631D01*
X131632828Y-137298000D01*
X133945385Y-137298000D01*
X133960624Y-137293525D01*
X133961829Y-137292135D01*
X133963500Y-137284452D01*
X133963500Y-136312115D01*
X133959025Y-136296876D01*
X133957635Y-136295671D01*
X133949952Y-136294000D01*
X131187616Y-136294000D01*
X131172377Y-136298475D01*
X131171172Y-136299865D01*
X131169501Y-136307548D01*
X131169501Y-136834669D01*
X100145459Y-136834669D01*
X99012812Y-135702022D01*
X98998868Y-135694408D01*
X98997035Y-135694539D01*
X98990420Y-135698790D01*
X97782910Y-136906300D01*
X97775618Y-136919654D01*
X90508500Y-136919654D01*
X90508500Y-135313204D01*
X96987665Y-135313204D01*
X97002932Y-135577969D01*
X97004005Y-135586470D01*
X97055065Y-135846722D01*
X97057276Y-135854974D01*
X97143184Y-136105894D01*
X97146499Y-136113779D01*
X97265664Y-136350713D01*
X97270020Y-136358079D01*
X97399347Y-136546250D01*
X97409601Y-136554594D01*
X97423342Y-136547448D01*
X98627978Y-135342812D01*
X98634356Y-135331132D01*
X99364408Y-135331132D01*
X99364539Y-135332965D01*
X99368790Y-135339580D01*
X100575730Y-136546520D01*
X100587939Y-136553187D01*
X100599439Y-136544497D01*
X100696831Y-136411913D01*
X100701418Y-136404685D01*
X100827962Y-136171621D01*
X100831530Y-136163827D01*
X100925271Y-135915750D01*
X100927748Y-135907544D01*
X100986954Y-135649038D01*
X100988294Y-135640577D01*
X101001733Y-135490000D01*
X107596807Y-135490000D01*
X107615542Y-135704142D01*
X107616966Y-135709455D01*
X107616966Y-135709457D01*
X107658924Y-135866043D01*
X107671178Y-135911777D01*
X107762024Y-136106596D01*
X107885319Y-136282681D01*
X108037319Y-136434681D01*
X108213403Y-136557976D01*
X108218381Y-136560297D01*
X108218384Y-136560299D01*
X108403241Y-136646499D01*
X108408223Y-136648822D01*
X108413531Y-136650244D01*
X108413533Y-136650245D01*
X108610543Y-136703034D01*
X108610545Y-136703034D01*
X108615858Y-136704458D01*
X108830000Y-136723193D01*
X109044142Y-136704458D01*
X109049455Y-136703034D01*
X109049457Y-136703034D01*
X109246467Y-136650245D01*
X109246469Y-136650244D01*
X109251777Y-136648822D01*
X109256759Y-136646499D01*
X109441616Y-136560299D01*
X109441619Y-136560297D01*
X109446597Y-136557976D01*
X109622681Y-136434681D01*
X109774681Y-136282681D01*
X109897976Y-136106596D01*
X109985805Y-135918247D01*
X110032723Y-135864962D01*
X110101000Y-135845501D01*
X110168960Y-135866043D01*
X110214195Y-135918247D01*
X110302024Y-136106596D01*
X110425319Y-136282681D01*
X110577319Y-136434681D01*
X110753403Y-136557976D01*
X110758381Y-136560297D01*
X110758384Y-136560299D01*
X110943241Y-136646499D01*
X110948223Y-136648822D01*
X110953531Y-136650244D01*
X110953533Y-136650245D01*
X111150543Y-136703034D01*
X111150545Y-136703034D01*
X111155858Y-136704458D01*
X111370000Y-136723193D01*
X111584142Y-136704458D01*
X111589455Y-136703034D01*
X111589457Y-136703034D01*
X111786467Y-136650245D01*
X111786469Y-136650244D01*
X111791777Y-136648822D01*
X111796759Y-136646499D01*
X111981616Y-136560299D01*
X111981619Y-136560297D01*
X111986597Y-136557976D01*
X112162681Y-136434681D01*
X112314681Y-136282681D01*
X112437976Y-136106596D01*
X112525805Y-135918247D01*
X112572723Y-135864962D01*
X112641000Y-135845501D01*
X112708960Y-135866043D01*
X112754195Y-135918247D01*
X112842024Y-136106596D01*
X112965319Y-136282681D01*
X113117319Y-136434681D01*
X113293403Y-136557976D01*
X113298381Y-136560297D01*
X113298384Y-136560299D01*
X113483241Y-136646499D01*
X113488223Y-136648822D01*
X113493531Y-136650244D01*
X113493533Y-136650245D01*
X113690543Y-136703034D01*
X113690545Y-136703034D01*
X113695858Y-136704458D01*
X113910000Y-136723193D01*
X114124142Y-136704458D01*
X114129455Y-136703034D01*
X114129457Y-136703034D01*
X114326467Y-136650245D01*
X114326469Y-136650244D01*
X114331777Y-136648822D01*
X114336759Y-136646499D01*
X114521616Y-136560299D01*
X114521619Y-136560297D01*
X114526597Y-136557976D01*
X114702681Y-136434681D01*
X114854681Y-136282681D01*
X114977976Y-136106596D01*
X115068822Y-135911777D01*
X115081077Y-135866043D01*
X115107378Y-135767885D01*
X131169500Y-135767885D01*
X131173975Y-135783124D01*
X131175365Y-135784329D01*
X131183048Y-135786000D01*
X133945385Y-135786000D01*
X133960624Y-135781525D01*
X133961829Y-135780135D01*
X133963500Y-135772452D01*
X133963500Y-134800116D01*
X133959025Y-134784877D01*
X133957635Y-134783672D01*
X133949952Y-134782001D01*
X131632831Y-134782001D01*
X131626010Y-134782371D01*
X131575148Y-134787895D01*
X131559896Y-134791521D01*
X131439446Y-134836676D01*
X131423851Y-134845214D01*
X131321776Y-134921715D01*
X131309215Y-134934276D01*
X131232714Y-135036351D01*
X131224176Y-135051946D01*
X131179022Y-135172394D01*
X131175395Y-135187649D01*
X131169869Y-135238514D01*
X131169500Y-135245328D01*
X131169500Y-135767885D01*
X115107378Y-135767885D01*
X115123034Y-135709457D01*
X115123034Y-135709455D01*
X115124458Y-135704142D01*
X115143193Y-135490000D01*
X115124458Y-135275858D01*
X115123034Y-135270543D01*
X115070245Y-135073533D01*
X115070244Y-135073531D01*
X115068822Y-135068223D01*
X114977976Y-134873404D01*
X114854681Y-134697319D01*
X114702681Y-134545319D01*
X114526597Y-134422024D01*
X114521619Y-134419703D01*
X114521616Y-134419701D01*
X114336759Y-134333501D01*
X114336758Y-134333500D01*
X114331777Y-134331178D01*
X114326469Y-134329756D01*
X114326467Y-134329755D01*
X114129457Y-134276966D01*
X114129455Y-134276966D01*
X114124142Y-134275542D01*
X113910000Y-134256807D01*
X113695858Y-134275542D01*
X113690545Y-134276966D01*
X113690543Y-134276966D01*
X113493533Y-134329755D01*
X113493531Y-134329756D01*
X113488223Y-134331178D01*
X113483243Y-134333500D01*
X113483241Y-134333501D01*
X113298385Y-134419701D01*
X113298382Y-134419703D01*
X113293404Y-134422024D01*
X113117319Y-134545319D01*
X112965319Y-134697319D01*
X112842024Y-134873404D01*
X112839703Y-134878382D01*
X112839701Y-134878385D01*
X112754195Y-135061753D01*
X112707277Y-135115038D01*
X112639000Y-135134499D01*
X112571040Y-135113957D01*
X112525805Y-135061753D01*
X112440299Y-134878385D01*
X112440297Y-134878382D01*
X112437976Y-134873404D01*
X112314681Y-134697319D01*
X112162681Y-134545319D01*
X111986597Y-134422024D01*
X111981619Y-134419703D01*
X111981616Y-134419701D01*
X111796759Y-134333501D01*
X111796758Y-134333500D01*
X111791777Y-134331178D01*
X111786469Y-134329756D01*
X111786467Y-134329755D01*
X111589457Y-134276966D01*
X111589455Y-134276966D01*
X111584142Y-134275542D01*
X111370000Y-134256807D01*
X111155858Y-134275542D01*
X111150545Y-134276966D01*
X111150543Y-134276966D01*
X110953533Y-134329755D01*
X110953531Y-134329756D01*
X110948223Y-134331178D01*
X110943243Y-134333500D01*
X110943241Y-134333501D01*
X110758385Y-134419701D01*
X110758382Y-134419703D01*
X110753404Y-134422024D01*
X110577319Y-134545319D01*
X110425319Y-134697319D01*
X110302024Y-134873404D01*
X110299703Y-134878382D01*
X110299701Y-134878385D01*
X110214195Y-135061753D01*
X110167277Y-135115038D01*
X110099000Y-135134499D01*
X110031040Y-135113957D01*
X109985805Y-135061753D01*
X109900299Y-134878385D01*
X109900297Y-134878382D01*
X109897976Y-134873404D01*
X109774681Y-134697319D01*
X109622681Y-134545319D01*
X109446597Y-134422024D01*
X109441619Y-134419703D01*
X109441616Y-134419701D01*
X109256759Y-134333501D01*
X109256758Y-134333500D01*
X109251777Y-134331178D01*
X109246469Y-134329756D01*
X109246467Y-134329755D01*
X109049457Y-134276966D01*
X109049455Y-134276966D01*
X109044142Y-134275542D01*
X108830000Y-134256807D01*
X108615858Y-134275542D01*
X108610545Y-134276966D01*
X108610543Y-134276966D01*
X108413533Y-134329755D01*
X108413531Y-134329756D01*
X108408223Y-134331178D01*
X108403243Y-134333500D01*
X108403241Y-134333501D01*
X108218385Y-134419701D01*
X108218382Y-134419703D01*
X108213404Y-134422024D01*
X108037319Y-134545319D01*
X107885319Y-134697319D01*
X107762024Y-134873404D01*
X107671178Y-135068223D01*
X107669756Y-135073531D01*
X107669755Y-135073533D01*
X107616966Y-135270543D01*
X107615542Y-135275858D01*
X107596807Y-135490000D01*
X101001733Y-135490000D01*
X101012031Y-135374616D01*
X101012277Y-135369677D01*
X101012666Y-135332485D01*
X101012523Y-135327519D01*
X100994362Y-135061123D01*
X100993201Y-135052649D01*
X100939419Y-134792944D01*
X100937120Y-134784709D01*
X100848588Y-134534705D01*
X100845191Y-134526854D01*
X100723550Y-134291178D01*
X100719122Y-134283866D01*
X100600031Y-134114417D01*
X100589509Y-134106037D01*
X100576121Y-134113089D01*
X99372022Y-135317188D01*
X99364408Y-135331132D01*
X98634356Y-135331132D01*
X98635592Y-135328868D01*
X98635461Y-135327035D01*
X98631210Y-135320420D01*
X97423814Y-134113024D01*
X97411804Y-134106466D01*
X97400064Y-134115434D01*
X97291935Y-134265911D01*
X97287418Y-134273196D01*
X97163325Y-134507567D01*
X97159839Y-134515395D01*
X97068700Y-134764446D01*
X97066311Y-134772670D01*
X97009812Y-135031795D01*
X97008563Y-135040250D01*
X96987754Y-135304653D01*
X96987665Y-135313204D01*
X90508500Y-135313204D01*
X90508500Y-133742500D01*
X97776584Y-133742500D01*
X97782980Y-133753770D01*
X98987188Y-134957978D01*
X99001132Y-134965592D01*
X99002965Y-134965461D01*
X99009580Y-134961210D01*
X100216604Y-133754186D01*
X100223795Y-133741017D01*
X100216473Y-133730780D01*
X100169233Y-133692115D01*
X100162261Y-133687160D01*
X99936122Y-133548582D01*
X99928552Y-133544624D01*
X99685704Y-133438022D01*
X99677644Y-133435120D01*
X99422592Y-133362467D01*
X99414214Y-133360685D01*
X99151656Y-133323318D01*
X99143111Y-133322691D01*
X98877908Y-133321302D01*
X98869374Y-133321839D01*
X98606433Y-133356456D01*
X98598035Y-133358149D01*
X98342238Y-133428127D01*
X98334143Y-133430946D01*
X98090199Y-133534997D01*
X98082577Y-133538881D01*
X97855013Y-133675075D01*
X97847981Y-133679962D01*
X97785053Y-133730377D01*
X97776584Y-133742500D01*
X90508500Y-133742500D01*
X90508500Y-131798134D01*
X96991500Y-131798134D01*
X96998255Y-131860316D01*
X97049385Y-131996705D01*
X97136739Y-132113261D01*
X97253295Y-132200615D01*
X97389684Y-132251745D01*
X97451866Y-132258500D01*
X100548134Y-132258500D01*
X100610316Y-132251745D01*
X100746705Y-132200615D01*
X100863261Y-132113261D01*
X100950615Y-131996705D01*
X101001745Y-131860316D01*
X101008500Y-131798134D01*
X101008500Y-128701866D01*
X101001745Y-128639684D01*
X100950615Y-128503295D01*
X100863261Y-128386739D01*
X100793784Y-128334669D01*
X131169501Y-128334669D01*
X131169871Y-128341490D01*
X131175395Y-128392352D01*
X131179021Y-128407604D01*
X131224176Y-128528054D01*
X131232714Y-128543649D01*
X131309215Y-128645724D01*
X131321776Y-128658285D01*
X131423851Y-128734786D01*
X131439446Y-128743324D01*
X131559894Y-128788478D01*
X131575149Y-128792105D01*
X131626014Y-128797631D01*
X131632828Y-128798000D01*
X133945385Y-128798000D01*
X133960624Y-128793525D01*
X133961829Y-128792135D01*
X133963500Y-128784452D01*
X133963500Y-127812115D01*
X133959025Y-127796876D01*
X133957635Y-127795671D01*
X133949952Y-127794000D01*
X131187616Y-127794000D01*
X131172377Y-127798475D01*
X131171172Y-127799865D01*
X131169501Y-127807548D01*
X131169501Y-128334669D01*
X100793784Y-128334669D01*
X100746705Y-128299385D01*
X100610316Y-128248255D01*
X100548134Y-128241500D01*
X97451866Y-128241500D01*
X97389684Y-128248255D01*
X97253295Y-128299385D01*
X97136739Y-128386739D01*
X97049385Y-128503295D01*
X96998255Y-128639684D01*
X96991500Y-128701866D01*
X96991500Y-131798134D01*
X90508500Y-131798134D01*
X90508500Y-127267885D01*
X131169500Y-127267885D01*
X131173975Y-127283124D01*
X131175365Y-127284329D01*
X131183048Y-127286000D01*
X133945385Y-127286000D01*
X133960624Y-127281525D01*
X133961829Y-127280135D01*
X133963500Y-127272452D01*
X133963500Y-126300116D01*
X133959025Y-126284877D01*
X133957635Y-126283672D01*
X133949952Y-126282001D01*
X131632831Y-126282001D01*
X131626010Y-126282371D01*
X131575148Y-126287895D01*
X131559896Y-126291521D01*
X131439446Y-126336676D01*
X131423851Y-126345214D01*
X131321776Y-126421715D01*
X131309215Y-126434276D01*
X131232714Y-126536351D01*
X131224176Y-126551946D01*
X131179022Y-126672394D01*
X131175395Y-126687649D01*
X131169869Y-126738514D01*
X131169500Y-126745328D01*
X131169500Y-127267885D01*
X90508500Y-127267885D01*
X90508500Y-113669654D01*
X97775618Y-113669654D01*
X97782673Y-113679627D01*
X97813679Y-113705551D01*
X97820598Y-113710579D01*
X98045272Y-113851515D01*
X98052807Y-113855556D01*
X98294520Y-113964694D01*
X98302551Y-113967680D01*
X98556832Y-114043002D01*
X98565184Y-114044869D01*
X98827340Y-114084984D01*
X98835874Y-114085700D01*
X99101045Y-114089867D01*
X99109596Y-114089418D01*
X99372883Y-114057557D01*
X99381284Y-114055955D01*
X99637824Y-113988653D01*
X99645926Y-113985926D01*
X99890949Y-113884434D01*
X99898617Y-113880628D01*
X100127598Y-113746822D01*
X100134679Y-113742009D01*
X100214655Y-113679301D01*
X100223125Y-113667442D01*
X100216608Y-113655818D01*
X99012812Y-112452022D01*
X98998868Y-112444408D01*
X98997035Y-112444539D01*
X98990420Y-112448790D01*
X97782910Y-113656300D01*
X97775618Y-113669654D01*
X90508500Y-113669654D01*
X90508500Y-112063204D01*
X96987665Y-112063204D01*
X97002932Y-112327969D01*
X97004005Y-112336470D01*
X97055065Y-112596722D01*
X97057276Y-112604974D01*
X97143184Y-112855894D01*
X97146499Y-112863779D01*
X97265664Y-113100713D01*
X97270020Y-113108079D01*
X97399347Y-113296250D01*
X97409601Y-113304594D01*
X97423342Y-113297448D01*
X98627978Y-112092812D01*
X98634356Y-112081132D01*
X99364408Y-112081132D01*
X99364539Y-112082965D01*
X99368790Y-112089580D01*
X100575730Y-113296520D01*
X100587939Y-113303187D01*
X100599439Y-113294497D01*
X100696831Y-113161913D01*
X100701418Y-113154685D01*
X100827962Y-112921621D01*
X100831530Y-112913827D01*
X100925271Y-112665750D01*
X100927748Y-112657544D01*
X100974213Y-112454669D01*
X131179501Y-112454669D01*
X131179871Y-112461490D01*
X131185395Y-112512352D01*
X131189021Y-112527604D01*
X131234176Y-112648054D01*
X131242714Y-112663649D01*
X131319215Y-112765724D01*
X131331776Y-112778285D01*
X131433851Y-112854786D01*
X131449446Y-112863324D01*
X131569894Y-112908478D01*
X131585149Y-112912105D01*
X131636014Y-112917631D01*
X131642828Y-112918000D01*
X133955385Y-112918000D01*
X133970624Y-112913525D01*
X133971829Y-112912135D01*
X133973500Y-112904452D01*
X133973500Y-111932115D01*
X133969025Y-111916876D01*
X133967635Y-111915671D01*
X133959952Y-111914000D01*
X131197616Y-111914000D01*
X131182377Y-111918475D01*
X131181172Y-111919865D01*
X131179501Y-111927548D01*
X131179501Y-112454669D01*
X100974213Y-112454669D01*
X100986954Y-112399038D01*
X100988294Y-112390577D01*
X101012031Y-112124616D01*
X101012277Y-112119677D01*
X101012666Y-112082485D01*
X101012523Y-112077519D01*
X100994362Y-111811123D01*
X100993201Y-111802649D01*
X100939419Y-111542944D01*
X100937120Y-111534709D01*
X100848588Y-111284705D01*
X100845191Y-111276854D01*
X100723550Y-111041178D01*
X100719122Y-111033866D01*
X100702349Y-111010000D01*
X108546807Y-111010000D01*
X108565542Y-111224142D01*
X108566966Y-111229455D01*
X108566966Y-111229457D01*
X108608924Y-111386043D01*
X108621178Y-111431777D01*
X108712024Y-111626596D01*
X108835319Y-111802681D01*
X108987319Y-111954681D01*
X109163403Y-112077976D01*
X109168381Y-112080297D01*
X109168384Y-112080299D01*
X109353241Y-112166499D01*
X109358223Y-112168822D01*
X109363531Y-112170244D01*
X109363533Y-112170245D01*
X109560543Y-112223034D01*
X109560545Y-112223034D01*
X109565858Y-112224458D01*
X109780000Y-112243193D01*
X109994142Y-112224458D01*
X109999455Y-112223034D01*
X109999457Y-112223034D01*
X110196467Y-112170245D01*
X110196469Y-112170244D01*
X110201777Y-112168822D01*
X110206759Y-112166499D01*
X110391616Y-112080299D01*
X110391619Y-112080297D01*
X110396597Y-112077976D01*
X110572681Y-111954681D01*
X110724681Y-111802681D01*
X110847976Y-111626596D01*
X110935805Y-111438247D01*
X110982723Y-111384962D01*
X111051000Y-111365501D01*
X111118960Y-111386043D01*
X111164195Y-111438247D01*
X111252024Y-111626596D01*
X111375319Y-111802681D01*
X111527319Y-111954681D01*
X111703403Y-112077976D01*
X111708381Y-112080297D01*
X111708384Y-112080299D01*
X111893241Y-112166499D01*
X111898223Y-112168822D01*
X111903531Y-112170244D01*
X111903533Y-112170245D01*
X112100543Y-112223034D01*
X112100545Y-112223034D01*
X112105858Y-112224458D01*
X112320000Y-112243193D01*
X112534142Y-112224458D01*
X112539455Y-112223034D01*
X112539457Y-112223034D01*
X112736467Y-112170245D01*
X112736469Y-112170244D01*
X112741777Y-112168822D01*
X112746759Y-112166499D01*
X112931616Y-112080299D01*
X112931619Y-112080297D01*
X112936597Y-112077976D01*
X113112681Y-111954681D01*
X113264681Y-111802681D01*
X113387976Y-111626596D01*
X113475805Y-111438247D01*
X113522723Y-111384962D01*
X113591000Y-111365501D01*
X113658960Y-111386043D01*
X113704195Y-111438247D01*
X113792024Y-111626596D01*
X113915319Y-111802681D01*
X114067319Y-111954681D01*
X114243403Y-112077976D01*
X114248381Y-112080297D01*
X114248384Y-112080299D01*
X114433241Y-112166499D01*
X114438223Y-112168822D01*
X114443531Y-112170244D01*
X114443533Y-112170245D01*
X114640543Y-112223034D01*
X114640545Y-112223034D01*
X114645858Y-112224458D01*
X114860000Y-112243193D01*
X115074142Y-112224458D01*
X115079455Y-112223034D01*
X115079457Y-112223034D01*
X115276467Y-112170245D01*
X115276469Y-112170244D01*
X115281777Y-112168822D01*
X115286759Y-112166499D01*
X115471616Y-112080299D01*
X115471619Y-112080297D01*
X115476597Y-112077976D01*
X115652681Y-111954681D01*
X115804681Y-111802681D01*
X115927976Y-111626596D01*
X116018822Y-111431777D01*
X116030583Y-111387885D01*
X131179500Y-111387885D01*
X131183975Y-111403124D01*
X131185365Y-111404329D01*
X131193048Y-111406000D01*
X133955385Y-111406000D01*
X133970624Y-111401525D01*
X133971829Y-111400135D01*
X133973500Y-111392452D01*
X133973500Y-110420116D01*
X133969025Y-110404877D01*
X133967635Y-110403672D01*
X133959952Y-110402001D01*
X131642831Y-110402001D01*
X131636010Y-110402371D01*
X131585148Y-110407895D01*
X131569896Y-110411521D01*
X131449446Y-110456676D01*
X131433851Y-110465214D01*
X131331776Y-110541715D01*
X131319215Y-110554276D01*
X131242714Y-110656351D01*
X131234176Y-110671946D01*
X131189022Y-110792394D01*
X131185395Y-110807649D01*
X131179869Y-110858514D01*
X131179500Y-110865328D01*
X131179500Y-111387885D01*
X116030583Y-111387885D01*
X116031077Y-111386043D01*
X116073034Y-111229457D01*
X116073034Y-111229455D01*
X116074458Y-111224142D01*
X116093193Y-111010000D01*
X116074458Y-110795858D01*
X116031366Y-110635038D01*
X116020245Y-110593533D01*
X116020244Y-110593531D01*
X116018822Y-110588223D01*
X115979441Y-110503770D01*
X115930299Y-110398385D01*
X115930297Y-110398382D01*
X115927976Y-110393404D01*
X115804681Y-110217319D01*
X115652681Y-110065319D01*
X115476597Y-109942024D01*
X115471619Y-109939703D01*
X115471616Y-109939701D01*
X115286759Y-109853501D01*
X115286758Y-109853500D01*
X115281777Y-109851178D01*
X115276469Y-109849756D01*
X115276467Y-109849755D01*
X115079457Y-109796966D01*
X115079455Y-109796966D01*
X115074142Y-109795542D01*
X114860000Y-109776807D01*
X114645858Y-109795542D01*
X114640545Y-109796966D01*
X114640543Y-109796966D01*
X114443533Y-109849755D01*
X114443531Y-109849756D01*
X114438223Y-109851178D01*
X114433243Y-109853500D01*
X114433241Y-109853501D01*
X114248385Y-109939701D01*
X114248382Y-109939703D01*
X114243404Y-109942024D01*
X114067319Y-110065319D01*
X113915319Y-110217319D01*
X113792024Y-110393404D01*
X113789703Y-110398382D01*
X113789701Y-110398385D01*
X113704195Y-110581753D01*
X113657277Y-110635038D01*
X113589000Y-110654499D01*
X113521040Y-110633957D01*
X113475805Y-110581753D01*
X113390299Y-110398385D01*
X113390297Y-110398382D01*
X113387976Y-110393404D01*
X113264681Y-110217319D01*
X113112681Y-110065319D01*
X112936597Y-109942024D01*
X112931619Y-109939703D01*
X112931616Y-109939701D01*
X112746759Y-109853501D01*
X112746758Y-109853500D01*
X112741777Y-109851178D01*
X112736469Y-109849756D01*
X112736467Y-109849755D01*
X112539457Y-109796966D01*
X112539455Y-109796966D01*
X112534142Y-109795542D01*
X112320000Y-109776807D01*
X112105858Y-109795542D01*
X112100545Y-109796966D01*
X112100543Y-109796966D01*
X111903533Y-109849755D01*
X111903531Y-109849756D01*
X111898223Y-109851178D01*
X111893243Y-109853500D01*
X111893241Y-109853501D01*
X111708385Y-109939701D01*
X111708382Y-109939703D01*
X111703404Y-109942024D01*
X111527319Y-110065319D01*
X111375319Y-110217319D01*
X111252024Y-110393404D01*
X111249703Y-110398382D01*
X111249701Y-110398385D01*
X111164195Y-110581753D01*
X111117277Y-110635038D01*
X111049000Y-110654499D01*
X110981040Y-110633957D01*
X110935805Y-110581753D01*
X110850299Y-110398385D01*
X110850297Y-110398382D01*
X110847976Y-110393404D01*
X110724681Y-110217319D01*
X110572681Y-110065319D01*
X110396597Y-109942024D01*
X110391619Y-109939703D01*
X110391616Y-109939701D01*
X110206759Y-109853501D01*
X110206758Y-109853500D01*
X110201777Y-109851178D01*
X110196469Y-109849756D01*
X110196467Y-109849755D01*
X109999457Y-109796966D01*
X109999455Y-109796966D01*
X109994142Y-109795542D01*
X109780000Y-109776807D01*
X109565858Y-109795542D01*
X109560545Y-109796966D01*
X109560543Y-109796966D01*
X109363533Y-109849755D01*
X109363531Y-109849756D01*
X109358223Y-109851178D01*
X109353243Y-109853500D01*
X109353241Y-109853501D01*
X109168385Y-109939701D01*
X109168382Y-109939703D01*
X109163404Y-109942024D01*
X108987319Y-110065319D01*
X108835319Y-110217319D01*
X108712024Y-110393404D01*
X108709703Y-110398382D01*
X108709701Y-110398385D01*
X108660559Y-110503770D01*
X108621178Y-110588223D01*
X108619756Y-110593531D01*
X108619755Y-110593533D01*
X108608634Y-110635038D01*
X108565542Y-110795858D01*
X108546807Y-111010000D01*
X100702349Y-111010000D01*
X100600031Y-110864417D01*
X100589509Y-110856037D01*
X100576121Y-110863089D01*
X99372022Y-112067188D01*
X99364408Y-112081132D01*
X98634356Y-112081132D01*
X98635592Y-112078868D01*
X98635461Y-112077035D01*
X98631210Y-112070420D01*
X97423814Y-110863024D01*
X97411804Y-110856466D01*
X97400064Y-110865434D01*
X97291935Y-111015911D01*
X97287418Y-111023196D01*
X97163325Y-111257567D01*
X97159839Y-111265395D01*
X97068700Y-111514446D01*
X97066311Y-111522670D01*
X97009812Y-111781795D01*
X97008563Y-111790250D01*
X96987754Y-112054653D01*
X96987665Y-112063204D01*
X90508500Y-112063204D01*
X90508500Y-110492500D01*
X97776584Y-110492500D01*
X97782980Y-110503770D01*
X98987188Y-111707978D01*
X99001132Y-111715592D01*
X99002965Y-111715461D01*
X99009580Y-111711210D01*
X100216604Y-110504186D01*
X100223795Y-110491017D01*
X100216473Y-110480780D01*
X100169233Y-110442115D01*
X100162261Y-110437160D01*
X99936122Y-110298582D01*
X99928552Y-110294624D01*
X99685704Y-110188022D01*
X99677644Y-110185120D01*
X99422592Y-110112467D01*
X99414214Y-110110685D01*
X99151656Y-110073318D01*
X99143111Y-110072691D01*
X98877908Y-110071302D01*
X98869374Y-110071839D01*
X98606433Y-110106456D01*
X98598035Y-110108149D01*
X98342238Y-110178127D01*
X98334143Y-110180946D01*
X98090199Y-110284997D01*
X98082577Y-110288881D01*
X97855013Y-110425075D01*
X97847981Y-110429962D01*
X97785053Y-110480377D01*
X97776584Y-110492500D01*
X90508500Y-110492500D01*
X90508500Y-108548134D01*
X96991500Y-108548134D01*
X96998255Y-108610316D01*
X97049385Y-108746705D01*
X97136739Y-108863261D01*
X97253295Y-108950615D01*
X97389684Y-109001745D01*
X97451866Y-109008500D01*
X100548134Y-109008500D01*
X100610316Y-109001745D01*
X100746705Y-108950615D01*
X100863261Y-108863261D01*
X100950615Y-108746705D01*
X101001745Y-108610316D01*
X101008500Y-108548134D01*
X101008500Y-105451866D01*
X101001745Y-105389684D01*
X100950615Y-105253295D01*
X100863261Y-105136739D01*
X100746705Y-105049385D01*
X100610316Y-104998255D01*
X100548134Y-104991500D01*
X97451866Y-104991500D01*
X97389684Y-104998255D01*
X97253295Y-105049385D01*
X97136739Y-105136739D01*
X97049385Y-105253295D01*
X96998255Y-105389684D01*
X96991500Y-105451866D01*
X96991500Y-108548134D01*
X90508500Y-108548134D01*
X90508500Y-103954669D01*
X131179501Y-103954669D01*
X131179871Y-103961490D01*
X131185395Y-104012352D01*
X131189021Y-104027604D01*
X131234176Y-104148054D01*
X131242714Y-104163649D01*
X131319215Y-104265724D01*
X131331776Y-104278285D01*
X131433851Y-104354786D01*
X131449446Y-104363324D01*
X131569894Y-104408478D01*
X131585149Y-104412105D01*
X131636014Y-104417631D01*
X131642828Y-104418000D01*
X133955385Y-104418000D01*
X133970624Y-104413525D01*
X133971829Y-104412135D01*
X133973500Y-104404452D01*
X133973500Y-103432115D01*
X133969025Y-103416876D01*
X133967635Y-103415671D01*
X133959952Y-103414000D01*
X131197616Y-103414000D01*
X131182377Y-103418475D01*
X131181172Y-103419865D01*
X131179501Y-103427548D01*
X131179501Y-103954669D01*
X90508500Y-103954669D01*
X90508500Y-102887885D01*
X131179500Y-102887885D01*
X131183975Y-102903124D01*
X131185365Y-102904329D01*
X131193048Y-102906000D01*
X133955385Y-102906000D01*
X133970624Y-102901525D01*
X133971829Y-102900135D01*
X133973500Y-102892452D01*
X133973500Y-101920116D01*
X133969025Y-101904877D01*
X133967635Y-101903672D01*
X133959952Y-101902001D01*
X131642831Y-101902001D01*
X131636010Y-101902371D01*
X131585148Y-101907895D01*
X131569896Y-101911521D01*
X131449446Y-101956676D01*
X131433851Y-101965214D01*
X131331776Y-102041715D01*
X131319215Y-102054276D01*
X131242714Y-102156351D01*
X131234176Y-102171946D01*
X131189022Y-102292394D01*
X131185395Y-102307649D01*
X131179869Y-102358514D01*
X131179500Y-102365328D01*
X131179500Y-102887885D01*
X90508500Y-102887885D01*
X90508500Y-89449654D01*
X97775618Y-89449654D01*
X97782673Y-89459627D01*
X97813679Y-89485551D01*
X97820598Y-89490579D01*
X98045272Y-89631515D01*
X98052807Y-89635556D01*
X98294520Y-89744694D01*
X98302551Y-89747680D01*
X98556832Y-89823002D01*
X98565184Y-89824869D01*
X98827340Y-89864984D01*
X98835874Y-89865700D01*
X99101045Y-89869867D01*
X99109596Y-89869418D01*
X99372883Y-89837557D01*
X99381284Y-89835955D01*
X99637824Y-89768653D01*
X99645926Y-89765926D01*
X99890949Y-89664434D01*
X99898617Y-89660628D01*
X100127598Y-89526822D01*
X100134679Y-89522009D01*
X100214655Y-89459301D01*
X100223125Y-89447442D01*
X100216608Y-89435818D01*
X99985459Y-89204669D01*
X131242001Y-89204669D01*
X131242371Y-89211490D01*
X131247895Y-89262352D01*
X131251521Y-89277604D01*
X131296676Y-89398054D01*
X131305214Y-89413649D01*
X131381715Y-89515724D01*
X131394276Y-89528285D01*
X131496351Y-89604786D01*
X131511946Y-89613324D01*
X131632394Y-89658478D01*
X131647649Y-89662105D01*
X131698514Y-89667631D01*
X131705328Y-89668000D01*
X134017885Y-89668000D01*
X134033124Y-89663525D01*
X134034329Y-89662135D01*
X134036000Y-89654452D01*
X134036000Y-88682115D01*
X134031525Y-88666876D01*
X134030135Y-88665671D01*
X134022452Y-88664000D01*
X131260116Y-88664000D01*
X131244877Y-88668475D01*
X131243672Y-88669865D01*
X131242001Y-88677548D01*
X131242001Y-89204669D01*
X99985459Y-89204669D01*
X99012812Y-88232022D01*
X98998868Y-88224408D01*
X98997035Y-88224539D01*
X98990420Y-88228790D01*
X97782910Y-89436300D01*
X97775618Y-89449654D01*
X90508500Y-89449654D01*
X90508500Y-87843204D01*
X96987665Y-87843204D01*
X97002932Y-88107969D01*
X97004005Y-88116470D01*
X97055065Y-88376722D01*
X97057276Y-88384974D01*
X97143184Y-88635894D01*
X97146499Y-88643779D01*
X97265664Y-88880713D01*
X97270020Y-88888079D01*
X97399347Y-89076250D01*
X97409601Y-89084594D01*
X97423342Y-89077448D01*
X98627978Y-87872812D01*
X98634356Y-87861132D01*
X99364408Y-87861132D01*
X99364539Y-87862965D01*
X99368790Y-87869580D01*
X100575730Y-89076520D01*
X100587939Y-89083187D01*
X100599439Y-89074497D01*
X100696831Y-88941913D01*
X100701418Y-88934685D01*
X100827962Y-88701621D01*
X100831530Y-88693827D01*
X100925271Y-88445750D01*
X100927748Y-88437544D01*
X100986954Y-88179038D01*
X100988294Y-88170577D01*
X101012031Y-87904616D01*
X101012277Y-87899677D01*
X101012666Y-87862485D01*
X101012523Y-87857519D01*
X101008602Y-87800000D01*
X108456807Y-87800000D01*
X108475542Y-88014142D01*
X108476966Y-88019455D01*
X108476966Y-88019457D01*
X108518924Y-88176043D01*
X108531178Y-88221777D01*
X108622024Y-88416596D01*
X108745319Y-88592681D01*
X108897319Y-88744681D01*
X109073403Y-88867976D01*
X109078381Y-88870297D01*
X109078384Y-88870299D01*
X109263241Y-88956499D01*
X109268223Y-88958822D01*
X109273531Y-88960244D01*
X109273533Y-88960245D01*
X109470543Y-89013034D01*
X109470545Y-89013034D01*
X109475858Y-89014458D01*
X109690000Y-89033193D01*
X109904142Y-89014458D01*
X109909455Y-89013034D01*
X109909457Y-89013034D01*
X110106467Y-88960245D01*
X110106469Y-88960244D01*
X110111777Y-88958822D01*
X110116759Y-88956499D01*
X110301616Y-88870299D01*
X110301619Y-88870297D01*
X110306597Y-88867976D01*
X110482681Y-88744681D01*
X110634681Y-88592681D01*
X110757976Y-88416596D01*
X110845805Y-88228247D01*
X110892723Y-88174962D01*
X110961000Y-88155501D01*
X111028960Y-88176043D01*
X111074195Y-88228247D01*
X111162024Y-88416596D01*
X111285319Y-88592681D01*
X111437319Y-88744681D01*
X111613403Y-88867976D01*
X111618381Y-88870297D01*
X111618384Y-88870299D01*
X111803241Y-88956499D01*
X111808223Y-88958822D01*
X111813531Y-88960244D01*
X111813533Y-88960245D01*
X112010543Y-89013034D01*
X112010545Y-89013034D01*
X112015858Y-89014458D01*
X112230000Y-89033193D01*
X112444142Y-89014458D01*
X112449455Y-89013034D01*
X112449457Y-89013034D01*
X112646467Y-88960245D01*
X112646469Y-88960244D01*
X112651777Y-88958822D01*
X112656759Y-88956499D01*
X112841616Y-88870299D01*
X112841619Y-88870297D01*
X112846597Y-88867976D01*
X113022681Y-88744681D01*
X113174681Y-88592681D01*
X113297976Y-88416596D01*
X113385805Y-88228247D01*
X113432723Y-88174962D01*
X113501000Y-88155501D01*
X113568960Y-88176043D01*
X113614195Y-88228247D01*
X113702024Y-88416596D01*
X113825319Y-88592681D01*
X113977319Y-88744681D01*
X114153403Y-88867976D01*
X114158381Y-88870297D01*
X114158384Y-88870299D01*
X114343241Y-88956499D01*
X114348223Y-88958822D01*
X114353531Y-88960244D01*
X114353533Y-88960245D01*
X114550543Y-89013034D01*
X114550545Y-89013034D01*
X114555858Y-89014458D01*
X114770000Y-89033193D01*
X114984142Y-89014458D01*
X114989455Y-89013034D01*
X114989457Y-89013034D01*
X115186467Y-88960245D01*
X115186469Y-88960244D01*
X115191777Y-88958822D01*
X115196759Y-88956499D01*
X115381616Y-88870299D01*
X115381619Y-88870297D01*
X115386597Y-88867976D01*
X115562681Y-88744681D01*
X115714681Y-88592681D01*
X115837976Y-88416596D01*
X115928822Y-88221777D01*
X115941077Y-88176043D01*
X115951301Y-88137885D01*
X131242000Y-88137885D01*
X131246475Y-88153124D01*
X131247865Y-88154329D01*
X131255548Y-88156000D01*
X134017885Y-88156000D01*
X134033124Y-88151525D01*
X134034329Y-88150135D01*
X134036000Y-88142452D01*
X134036000Y-87170116D01*
X134031525Y-87154877D01*
X134030135Y-87153672D01*
X134022452Y-87152001D01*
X131705331Y-87152001D01*
X131698510Y-87152371D01*
X131647648Y-87157895D01*
X131632396Y-87161521D01*
X131511946Y-87206676D01*
X131496351Y-87215214D01*
X131394276Y-87291715D01*
X131381715Y-87304276D01*
X131305214Y-87406351D01*
X131296676Y-87421946D01*
X131251522Y-87542394D01*
X131247895Y-87557649D01*
X131242369Y-87608514D01*
X131242000Y-87615328D01*
X131242000Y-88137885D01*
X115951301Y-88137885D01*
X115983034Y-88019457D01*
X115983034Y-88019455D01*
X115984458Y-88014142D01*
X116003193Y-87800000D01*
X115984458Y-87585858D01*
X115978010Y-87561795D01*
X115930245Y-87383533D01*
X115930244Y-87383531D01*
X115928822Y-87378223D01*
X115889756Y-87294446D01*
X115840299Y-87188385D01*
X115840297Y-87188382D01*
X115837976Y-87183404D01*
X115714681Y-87007319D01*
X115562681Y-86855319D01*
X115386597Y-86732024D01*
X115381619Y-86729703D01*
X115381616Y-86729701D01*
X115196759Y-86643501D01*
X115196758Y-86643500D01*
X115191777Y-86641178D01*
X115186469Y-86639756D01*
X115186467Y-86639755D01*
X114989457Y-86586966D01*
X114989455Y-86586966D01*
X114984142Y-86585542D01*
X114770000Y-86566807D01*
X114555858Y-86585542D01*
X114550545Y-86586966D01*
X114550543Y-86586966D01*
X114353533Y-86639755D01*
X114353531Y-86639756D01*
X114348223Y-86641178D01*
X114343243Y-86643500D01*
X114343241Y-86643501D01*
X114158385Y-86729701D01*
X114158382Y-86729703D01*
X114153404Y-86732024D01*
X113977319Y-86855319D01*
X113825319Y-87007319D01*
X113702024Y-87183404D01*
X113699703Y-87188382D01*
X113699701Y-87188385D01*
X113614195Y-87371753D01*
X113567277Y-87425038D01*
X113499000Y-87444499D01*
X113431040Y-87423957D01*
X113385805Y-87371753D01*
X113300299Y-87188385D01*
X113300297Y-87188382D01*
X113297976Y-87183404D01*
X113174681Y-87007319D01*
X113022681Y-86855319D01*
X112846597Y-86732024D01*
X112841619Y-86729703D01*
X112841616Y-86729701D01*
X112656759Y-86643501D01*
X112656758Y-86643500D01*
X112651777Y-86641178D01*
X112646469Y-86639756D01*
X112646467Y-86639755D01*
X112449457Y-86586966D01*
X112449455Y-86586966D01*
X112444142Y-86585542D01*
X112230000Y-86566807D01*
X112015858Y-86585542D01*
X112010545Y-86586966D01*
X112010543Y-86586966D01*
X111813533Y-86639755D01*
X111813531Y-86639756D01*
X111808223Y-86641178D01*
X111803243Y-86643500D01*
X111803241Y-86643501D01*
X111618385Y-86729701D01*
X111618382Y-86729703D01*
X111613404Y-86732024D01*
X111437319Y-86855319D01*
X111285319Y-87007319D01*
X111162024Y-87183404D01*
X111159703Y-87188382D01*
X111159701Y-87188385D01*
X111074195Y-87371753D01*
X111027277Y-87425038D01*
X110959000Y-87444499D01*
X110891040Y-87423957D01*
X110845805Y-87371753D01*
X110760299Y-87188385D01*
X110760297Y-87188382D01*
X110757976Y-87183404D01*
X110634681Y-87007319D01*
X110482681Y-86855319D01*
X110306597Y-86732024D01*
X110301619Y-86729703D01*
X110301616Y-86729701D01*
X110116759Y-86643501D01*
X110116758Y-86643500D01*
X110111777Y-86641178D01*
X110106469Y-86639756D01*
X110106467Y-86639755D01*
X109909457Y-86586966D01*
X109909455Y-86586966D01*
X109904142Y-86585542D01*
X109690000Y-86566807D01*
X109475858Y-86585542D01*
X109470545Y-86586966D01*
X109470543Y-86586966D01*
X109273533Y-86639755D01*
X109273531Y-86639756D01*
X109268223Y-86641178D01*
X109263243Y-86643500D01*
X109263241Y-86643501D01*
X109078385Y-86729701D01*
X109078382Y-86729703D01*
X109073404Y-86732024D01*
X108897319Y-86855319D01*
X108745319Y-87007319D01*
X108622024Y-87183404D01*
X108619703Y-87188382D01*
X108619701Y-87188385D01*
X108570244Y-87294446D01*
X108531178Y-87378223D01*
X108529756Y-87383531D01*
X108529755Y-87383533D01*
X108481990Y-87561795D01*
X108475542Y-87585858D01*
X108456807Y-87800000D01*
X101008602Y-87800000D01*
X100994362Y-87591123D01*
X100993201Y-87582649D01*
X100939419Y-87322944D01*
X100937120Y-87314709D01*
X100848588Y-87064705D01*
X100845191Y-87056854D01*
X100723550Y-86821178D01*
X100719122Y-86813866D01*
X100600031Y-86644417D01*
X100589509Y-86636037D01*
X100576121Y-86643089D01*
X99372022Y-87847188D01*
X99364408Y-87861132D01*
X98634356Y-87861132D01*
X98635592Y-87858868D01*
X98635461Y-87857035D01*
X98631210Y-87850420D01*
X97423814Y-86643024D01*
X97411804Y-86636466D01*
X97400064Y-86645434D01*
X97291935Y-86795911D01*
X97287418Y-86803196D01*
X97163325Y-87037567D01*
X97159839Y-87045395D01*
X97068700Y-87294446D01*
X97066311Y-87302670D01*
X97009812Y-87561795D01*
X97008563Y-87570250D01*
X96987754Y-87834653D01*
X96987665Y-87843204D01*
X90508500Y-87843204D01*
X90508500Y-86272500D01*
X97776584Y-86272500D01*
X97782980Y-86283770D01*
X98987188Y-87487978D01*
X99001132Y-87495592D01*
X99002965Y-87495461D01*
X99009580Y-87491210D01*
X100216604Y-86284186D01*
X100223795Y-86271017D01*
X100216473Y-86260780D01*
X100169233Y-86222115D01*
X100162261Y-86217160D01*
X99936122Y-86078582D01*
X99928552Y-86074624D01*
X99685704Y-85968022D01*
X99677644Y-85965120D01*
X99422592Y-85892467D01*
X99414214Y-85890685D01*
X99151656Y-85853318D01*
X99143111Y-85852691D01*
X98877908Y-85851302D01*
X98869374Y-85851839D01*
X98606433Y-85886456D01*
X98598035Y-85888149D01*
X98342238Y-85958127D01*
X98334143Y-85960946D01*
X98090199Y-86064997D01*
X98082577Y-86068881D01*
X97855013Y-86205075D01*
X97847981Y-86209962D01*
X97785053Y-86260377D01*
X97776584Y-86272500D01*
X90508500Y-86272500D01*
X90508500Y-84328134D01*
X96991500Y-84328134D01*
X96998255Y-84390316D01*
X97049385Y-84526705D01*
X97136739Y-84643261D01*
X97253295Y-84730615D01*
X97389684Y-84781745D01*
X97451866Y-84788500D01*
X100548134Y-84788500D01*
X100610316Y-84781745D01*
X100746705Y-84730615D01*
X100863261Y-84643261D01*
X100950615Y-84526705D01*
X101001745Y-84390316D01*
X101008500Y-84328134D01*
X101008500Y-81231866D01*
X101001745Y-81169684D01*
X100950615Y-81033295D01*
X100863261Y-80916739D01*
X100746705Y-80829385D01*
X100610316Y-80778255D01*
X100548134Y-80771500D01*
X97451866Y-80771500D01*
X97389684Y-80778255D01*
X97253295Y-80829385D01*
X97136739Y-80916739D01*
X97049385Y-81033295D01*
X96998255Y-81169684D01*
X96991500Y-81231866D01*
X96991500Y-84328134D01*
X90508500Y-84328134D01*
X90508500Y-80704669D01*
X131242001Y-80704669D01*
X131242371Y-80711490D01*
X131247895Y-80762352D01*
X131251521Y-80777604D01*
X131296676Y-80898054D01*
X131305214Y-80913649D01*
X131381715Y-81015724D01*
X131394276Y-81028285D01*
X131496351Y-81104786D01*
X131511946Y-81113324D01*
X131632394Y-81158478D01*
X131647649Y-81162105D01*
X131698514Y-81167631D01*
X131705328Y-81168000D01*
X134017885Y-81168000D01*
X134033124Y-81163525D01*
X134034329Y-81162135D01*
X134036000Y-81154452D01*
X134036000Y-80182115D01*
X134031525Y-80166876D01*
X134030135Y-80165671D01*
X134022452Y-80164000D01*
X131260116Y-80164000D01*
X131244877Y-80168475D01*
X131243672Y-80169865D01*
X131242001Y-80177548D01*
X131242001Y-80704669D01*
X90508500Y-80704669D01*
X90508500Y-79637885D01*
X131242000Y-79637885D01*
X131246475Y-79653124D01*
X131247865Y-79654329D01*
X131255548Y-79656000D01*
X134017885Y-79656000D01*
X134033124Y-79651525D01*
X134034329Y-79650135D01*
X134036000Y-79642452D01*
X134036000Y-78670116D01*
X134031525Y-78654877D01*
X134030135Y-78653672D01*
X134022452Y-78652001D01*
X131705331Y-78652001D01*
X131698510Y-78652371D01*
X131647648Y-78657895D01*
X131632396Y-78661521D01*
X131511946Y-78706676D01*
X131496351Y-78715214D01*
X131394276Y-78791715D01*
X131381715Y-78804276D01*
X131305214Y-78906351D01*
X131296676Y-78921946D01*
X131251522Y-79042394D01*
X131247895Y-79057649D01*
X131242369Y-79108514D01*
X131242000Y-79115328D01*
X131242000Y-79637885D01*
X90508500Y-79637885D01*
X90508500Y-72634500D01*
X90528502Y-72566379D01*
X90582158Y-72519886D01*
X90634500Y-72508500D01*
X136365500Y-72508500D01*
X136433621Y-72528502D01*
G37*
%TD.AperFunction*%
%TD*%
M02*
