M48
; DRILL file {KiCad (6.0.11)} date Tue Jul 11 20:00:27 2023
; FORMAT={-:-/ absolute / inch / decimal}
; #@! TF.CreationDate,2023-07-11T20:00:27-05:00
; #@! TF.GenerationSoftware,Kicad,Pcbnew,(6.0.11)
; #@! TF.FileFunction,Plated,1,2,PTH
FMAT,2
INCH
; #@! TA.AperFunction,Plated,PTH,ViaDrill
T1C0.0157
; #@! TA.AperFunction,Plated,PTH,ComponentDrill
T2C0.0315
; #@! TA.AperFunction,Plated,PTH,ComponentDrill
T3C0.0598
%
G90
G05
T1
X3.6024Y-5.3543
X3.6122Y-5.2362
X3.622Y-3.0315
X3.622Y-3.2134
X3.622Y-3.3071
X3.622Y-3.5433
X3.622Y-5.1476
X3.6319Y-4.5571
X3.6319Y-5.0787
X3.6417Y-4.1339
X3.6614Y-4.0059
X3.6811Y-3.8681
X3.6909Y-4.6752
X3.6909Y-5.5709
X3.7008Y-3.6909
X3.7106Y-4.8524
X3.8091Y-3.8681
X3.8189Y-2.9528
X3.8386Y-4.685
X3.8681Y-5.5709
X3.878Y-4.8327
X3.8878Y-3.6811
X3.937Y-2.9528
X3.9469Y-3.8681
X3.9665Y-5.5709
X3.9764Y-4.6752
X4.0453Y-3.6811
X4.0453Y-3.8681
X4.0453Y-4.8425
X4.0551Y-2.9528
X4.0846Y-5.5709
X4.0945Y-4.1339
X4.0945Y-4.2913
X4.0945Y-4.4094
X4.0945Y-4.4882
X4.0945Y-4.6063
X4.0945Y-5.0
X4.0945Y-5.0787
X4.0945Y-5.3937
X4.0945Y-5.4724
X4.0965Y-4.9154
X4.1285Y-4.6896
X4.1339Y-3.1102
X4.1339Y-3.189
X4.1339Y-3.3858
X4.1339Y-3.5039
X4.1339Y-3.5827
X4.1339Y-3.878
X4.1339Y-3.937
X4.1339Y-4.0157
X4.1339Y-4.3307
X4.1339Y-5.2756
X4.1535Y-3.6811
X4.1535Y-4.8425
X4.1732Y-2.9528
X4.1732Y-3.0315
X4.1929Y-5.5709
X4.2421Y-3.878
X4.252Y-2.9528
X4.252Y-4.6752
X4.252Y-4.8425
X4.2618Y-3.6811
X4.311Y-3.878
X4.3209Y-5.5709
X4.3307Y-4.8524
X4.3701Y-2.9528
X4.3898Y-3.6909
X4.3898Y-3.878
X4.4094Y-4.8524
X4.4193Y-4.6752
X4.439Y-5.5807
X4.4783Y-3.878
X4.4882Y-2.9528
X4.498Y-4.8524
X4.5276Y-3.6811
X4.5472Y-3.878
X4.5669Y-5.5807
X4.5866Y-4.8524
X4.5965Y-4.6752
X4.6063Y-2.9528
X4.6358Y-3.6811
X4.6358Y-3.878
X4.6606Y-2.9528
X4.6752Y-4.8524
X4.6752Y-5.5807
X4.7146Y-3.878
X4.7244Y-2.9528
X4.7343Y-3.6811
X4.7441Y-4.6654
X4.7539Y-4.8425
X4.7933Y-3.878
X4.8228Y-3.6811
X4.8228Y-5.5807
X4.8295Y-2.9528
X4.8327Y-4.8622
X4.8524Y-4.6654
X4.8622Y-3.878
X4.9016Y-4.8524
X4.9114Y-3.6811
X4.9213Y-2.9528
X4.936Y-3.873
X4.9409Y-5.5807
X4.9705Y-4.6752
X5.0Y-2.9528
X5.0098Y-4.8425
X5.0197Y-3.6811
X5.0591Y-3.878
X5.0591Y-5.5906
X5.1132Y-4.6703
X5.1181Y-2.9528
X5.1476Y-3.6909
X5.1575Y-4.8425
X5.1772Y-3.8583
X5.2461Y-3.6909
X5.2461Y-4.5374
X5.2559Y-4.9114
X5.2657Y-5.4823
X5.2756Y-2.9528
X5.2756Y-3.9173
X5.2842Y-5.0213
X5.2842Y-5.3559
X5.2845Y-4.0614
X5.2845Y-4.3961
X5.287Y-3.1461
X5.287Y-3.4807
X5.315Y-3.622
T2
X4.2846Y-5.3343
X4.3185Y-3.4567
X4.322Y-4.3705
X4.3846Y-5.3343
X4.4185Y-3.4567
X4.422Y-4.3705
X4.4846Y-5.3343
X4.5185Y-3.4567
X4.522Y-4.3705
T3
X3.8976Y-3.2591
X3.8976Y-3.4591
X3.8976Y-4.2126
X3.8976Y-4.4126
X3.8976Y-5.128
X3.8976Y-5.328
T0
M30
