%TF.GenerationSoftware,KiCad,Pcbnew,(6.0.11)*%
%TF.CreationDate,2023-07-19T09:13:22-05:00*%
%TF.ProjectId,SchottkyNoiseSource,5363686f-7474-46b7-994e-6f697365536f,rev?*%
%TF.SameCoordinates,Original*%
%TF.FileFunction,Soldermask,Bot*%
%TF.FilePolarity,Negative*%
%FSLAX46Y46*%
G04 Gerber Fmt 4.6, Leading zero omitted, Abs format (unit mm)*
G04 Created by KiCad (PCBNEW (6.0.11)) date 2023-07-19 09:13:22*
%MOMM*%
%LPD*%
G01*
G04 APERTURE LIST*
%ADD10C,1.440000*%
%ADD11R,1.700000X1.700000*%
%ADD12O,1.700000X1.700000*%
%ADD13R,5.080000X1.500000*%
G04 APERTURE END LIST*
D10*
%TO.C,RV1*%
X114770000Y-61800000D03*
X112230000Y-61800000D03*
X109690000Y-61800000D03*
%TD*%
D11*
%TO.C,J12*%
X96520000Y-135950000D03*
D12*
X99060000Y-135950000D03*
%TD*%
D11*
%TO.C,J7*%
X96520000Y-66040000D03*
D12*
X99060000Y-66040000D03*
%TD*%
D10*
%TO.C,RV2*%
X114270000Y-93600000D03*
X111730000Y-93600000D03*
X109190000Y-93600000D03*
%TD*%
D11*
%TO.C,J8*%
X96520000Y-100330000D03*
D12*
X99060000Y-100330000D03*
%TD*%
D10*
%TO.C,RV3*%
X113692500Y-127450000D03*
X111152500Y-127450000D03*
X108612500Y-127450000D03*
%TD*%
D11*
%TO.C,J9*%
X96520000Y-133451600D03*
D12*
X99060000Y-133451600D03*
%TD*%
D11*
%TO.C,J11*%
X96520000Y-102870000D03*
D12*
X99060000Y-102870000D03*
%TD*%
D13*
%TO.C,J1*%
X134290000Y-53910000D03*
X134290000Y-62410000D03*
%TD*%
D11*
%TO.C,J3*%
X96520000Y-97790000D03*
D12*
X99060000Y-97790000D03*
%TD*%
D11*
%TO.C,J2*%
X96520000Y-63500000D03*
D12*
X99060000Y-63500000D03*
%TD*%
D13*
%TO.C,J6*%
X134000000Y-119500000D03*
X134000000Y-128000000D03*
%TD*%
%TO.C,J4*%
X133637500Y-94250000D03*
X133637500Y-85750000D03*
%TD*%
D11*
%TO.C,J10*%
X96520000Y-68580000D03*
D12*
X99060000Y-68580000D03*
%TD*%
D11*
%TO.C,J5*%
X96520000Y-130810000D03*
D12*
X99060000Y-130810000D03*
%TD*%
G36*
X92942121Y-72766002D02*
G01*
X92988614Y-72819658D01*
X93000000Y-72872000D01*
X93000000Y-72981885D01*
X93004475Y-72997124D01*
X93005865Y-72998329D01*
X93013548Y-73000000D01*
X131981885Y-73000000D01*
X131997124Y-72995525D01*
X131998329Y-72994135D01*
X132000000Y-72986452D01*
X132000000Y-72872000D01*
X132020002Y-72803879D01*
X132073658Y-72757386D01*
X132126000Y-72746000D01*
X136874000Y-72746000D01*
X136942121Y-72766002D01*
X136988614Y-72819658D01*
X137000000Y-72872000D01*
X137000000Y-82128000D01*
X136979998Y-82196121D01*
X136926342Y-82242614D01*
X136874000Y-82254000D01*
X132126000Y-82254000D01*
X132057879Y-82233998D01*
X132011386Y-82180342D01*
X132000000Y-82128000D01*
X132000000Y-82018115D01*
X131995525Y-82002876D01*
X131994135Y-82001671D01*
X131986452Y-82000000D01*
X93018115Y-82000000D01*
X93002876Y-82004475D01*
X93001671Y-82005865D01*
X93000000Y-82013548D01*
X93000000Y-82128000D01*
X92979998Y-82196121D01*
X92926342Y-82242614D01*
X92874000Y-82254000D01*
X90126000Y-82254000D01*
X90057879Y-82233998D01*
X90011386Y-82180342D01*
X90000000Y-82128000D01*
X90000000Y-72872000D01*
X90020002Y-72803879D01*
X90073658Y-72757386D01*
X90126000Y-72746000D01*
X92874000Y-72746000D01*
X92942121Y-72766002D01*
G37*
G36*
X136942121Y-46020002D02*
G01*
X136988614Y-46073658D01*
X137000000Y-46126000D01*
X137000000Y-51128000D01*
X136979998Y-51196121D01*
X136926342Y-51242614D01*
X136874000Y-51254000D01*
X132126000Y-51254000D01*
X132057879Y-51233998D01*
X132011386Y-51180342D01*
X132000000Y-51128000D01*
X132000000Y-51018115D01*
X131995525Y-51002876D01*
X131994135Y-51001671D01*
X131986452Y-51000000D01*
X93018115Y-51000000D01*
X93002876Y-51004475D01*
X93001671Y-51005865D01*
X93000000Y-51013548D01*
X93000000Y-51128000D01*
X92979998Y-51196121D01*
X92926342Y-51242614D01*
X92874000Y-51254000D01*
X90126000Y-51254000D01*
X90057879Y-51233998D01*
X90011386Y-51180342D01*
X90000000Y-51128000D01*
X90000000Y-46126000D01*
X90020002Y-46057879D01*
X90073658Y-46011386D01*
X90126000Y-46000000D01*
X136874000Y-46000000D01*
X136942121Y-46020002D01*
G37*
G36*
X136942121Y-46020002D02*
G01*
X136988614Y-46073658D01*
X137000000Y-46126000D01*
X137000000Y-143874000D01*
X136979998Y-143942121D01*
X136926342Y-143988614D01*
X136874000Y-144000000D01*
X131872000Y-144000000D01*
X131803879Y-143979998D01*
X131757386Y-143926342D01*
X131746000Y-143874000D01*
X131746000Y-140126000D01*
X131766002Y-140057879D01*
X131819658Y-140011386D01*
X131872000Y-140000000D01*
X131981885Y-140000000D01*
X131997124Y-139995525D01*
X131998329Y-139994135D01*
X132000000Y-139986452D01*
X132000000Y-51018115D01*
X131995525Y-51002876D01*
X131994135Y-51001671D01*
X131986452Y-51000000D01*
X131872000Y-51000000D01*
X131803879Y-50979998D01*
X131757386Y-50926342D01*
X131746000Y-50874000D01*
X131746000Y-46126000D01*
X131766002Y-46057879D01*
X131819658Y-46011386D01*
X131872000Y-46000000D01*
X136874000Y-46000000D01*
X136942121Y-46020002D01*
G37*
G36*
X92942121Y-139766002D02*
G01*
X92988614Y-139819658D01*
X93000000Y-139872000D01*
X93000000Y-139981885D01*
X93004475Y-139997124D01*
X93005865Y-139998329D01*
X93013548Y-140000000D01*
X131981885Y-140000000D01*
X131997124Y-139995525D01*
X131998329Y-139994135D01*
X132000000Y-139986452D01*
X132000000Y-139872000D01*
X132020002Y-139803879D01*
X132073658Y-139757386D01*
X132126000Y-139746000D01*
X136874000Y-139746000D01*
X136942121Y-139766002D01*
X136988614Y-139819658D01*
X137000000Y-139872000D01*
X137000000Y-143874000D01*
X136979998Y-143942121D01*
X136926342Y-143988614D01*
X136874000Y-144000000D01*
X90126000Y-144000000D01*
X90057879Y-143979998D01*
X90011386Y-143926342D01*
X90000000Y-143874000D01*
X90000000Y-139872000D01*
X90020002Y-139803879D01*
X90073658Y-139757386D01*
X90126000Y-139746000D01*
X92874000Y-139746000D01*
X92942121Y-139766002D01*
G37*
G36*
X92942121Y-106266002D02*
G01*
X92988614Y-106319658D01*
X93000000Y-106372000D01*
X93000000Y-106481885D01*
X93004475Y-106497124D01*
X93005865Y-106498329D01*
X93013548Y-106500000D01*
X131981885Y-106500000D01*
X131997124Y-106495525D01*
X131998329Y-106494135D01*
X132000000Y-106486452D01*
X132000000Y-106372000D01*
X132020002Y-106303879D01*
X132073658Y-106257386D01*
X132126000Y-106246000D01*
X136874000Y-106246000D01*
X136942121Y-106266002D01*
X136988614Y-106319658D01*
X137000000Y-106372000D01*
X137000000Y-115128000D01*
X136979998Y-115196121D01*
X136926342Y-115242614D01*
X136874000Y-115254000D01*
X132126000Y-115254000D01*
X132057879Y-115233998D01*
X132011386Y-115180342D01*
X132000000Y-115128000D01*
X132000000Y-115018115D01*
X131995525Y-115002876D01*
X131994135Y-115001671D01*
X131986452Y-115000000D01*
X93018115Y-115000000D01*
X93002876Y-115004475D01*
X93001671Y-115005865D01*
X93000000Y-115013548D01*
X93000000Y-115128000D01*
X92979998Y-115196121D01*
X92926342Y-115242614D01*
X92874000Y-115254000D01*
X90126000Y-115254000D01*
X90057879Y-115233998D01*
X90011386Y-115180342D01*
X90000000Y-115128000D01*
X90000000Y-106372000D01*
X90020002Y-106303879D01*
X90073658Y-106257386D01*
X90126000Y-106246000D01*
X92874000Y-106246000D01*
X92942121Y-106266002D01*
G37*
G36*
X93196121Y-46020002D02*
G01*
X93242614Y-46073658D01*
X93254000Y-46126000D01*
X93254000Y-50874000D01*
X93233998Y-50942121D01*
X93180342Y-50988614D01*
X93128000Y-51000000D01*
X93018115Y-51000000D01*
X93002876Y-51004475D01*
X93001671Y-51005865D01*
X93000000Y-51013548D01*
X93000000Y-139981885D01*
X93004475Y-139997124D01*
X93005865Y-139998329D01*
X93013548Y-140000000D01*
X93128000Y-140000000D01*
X93196121Y-140020002D01*
X93242614Y-140073658D01*
X93254000Y-140126000D01*
X93254000Y-143874000D01*
X93233998Y-143942121D01*
X93180342Y-143988614D01*
X93128000Y-144000000D01*
X90126000Y-144000000D01*
X90057879Y-143979998D01*
X90011386Y-143926342D01*
X90000000Y-143874000D01*
X90000000Y-46126000D01*
X90020002Y-46057879D01*
X90073658Y-46011386D01*
X90126000Y-46000000D01*
X93128000Y-46000000D01*
X93196121Y-46020002D01*
G37*
M02*
