%TF.GenerationSoftware,KiCad,Pcbnew,(6.0.11)*%
%TF.CreationDate,2023-07-15T23:52:58-05:00*%
%TF.ProjectId,SchottkyNoiseSource,5363686f-7474-46b7-994e-6f697365536f,rev?*%
%TF.SameCoordinates,Original*%
%TF.FileFunction,Copper,L2,Bot*%
%TF.FilePolarity,Positive*%
%FSLAX46Y46*%
G04 Gerber Fmt 4.6, Leading zero omitted, Abs format (unit mm)*
G04 Created by KiCad (PCBNEW (6.0.11)) date 2023-07-15 23:52:58*
%MOMM*%
%LPD*%
G01*
G04 APERTURE LIST*
%TA.AperFunction,ComponentPad*%
%ADD10C,1.440000*%
%TD*%
%TA.AperFunction,ComponentPad*%
%ADD11R,1.700000X1.700000*%
%TD*%
%TA.AperFunction,ComponentPad*%
%ADD12O,1.700000X1.700000*%
%TD*%
%TA.AperFunction,SMDPad,CuDef*%
%ADD13R,5.080000X1.500000*%
%TD*%
%TA.AperFunction,ComponentPad*%
%ADD14R,3.000000X3.000000*%
%TD*%
%TA.AperFunction,ComponentPad*%
%ADD15C,3.000000*%
%TD*%
%TA.AperFunction,ViaPad*%
%ADD16C,0.800000*%
%TD*%
%TA.AperFunction,Conductor*%
%ADD17C,0.250000*%
%TD*%
G04 APERTURE END LIST*
D10*
%TO.P,RV1,1,1*%
%TO.N,Net-(C2-Pad1)*%
X114770000Y-61800000D03*
%TO.P,RV1,2,2*%
%TO.N,Net-(C1-Pad1)*%
X112230000Y-61800000D03*
%TO.P,RV1,3,3*%
X109690000Y-61800000D03*
%TD*%
D11*
%TO.P,J12,1,Pin_1*%
%TO.N,GND*%
X95300800Y-137312400D03*
D12*
%TO.P,J12,2,Pin_2*%
%TO.N,Net-(C27-Pad1)*%
X97840800Y-137312400D03*
%TD*%
D11*
%TO.P,J7,1,Pin_1*%
%TO.N,GND*%
X95504000Y-66802000D03*
D12*
%TO.P,J7,2,Pin_2*%
%TO.N,Net-(C22-Pad2)*%
X98044000Y-66802000D03*
%TD*%
D10*
%TO.P,RV2,1,1*%
%TO.N,Net-(C5-Pad1)*%
X114270000Y-93600000D03*
%TO.P,RV2,2,2*%
%TO.N,Net-(C11-Pad1)*%
X111730000Y-93600000D03*
%TO.P,RV2,3,3*%
X109190000Y-93600000D03*
%TD*%
D11*
%TO.P,J8,1,Pin_1*%
%TO.N,GND*%
X96000000Y-100700000D03*
D12*
%TO.P,J8,2,Pin_2*%
%TO.N,Net-(C24-Pad2)*%
X98540000Y-100700000D03*
%TD*%
D10*
%TO.P,RV3,1,1*%
%TO.N,Net-(C8-Pad1)*%
X113692500Y-127450000D03*
%TO.P,RV3,2,2*%
%TO.N,Net-(C12-Pad1)*%
X111152500Y-127450000D03*
%TO.P,RV3,3,3*%
X108612500Y-127450000D03*
%TD*%
D11*
%TO.P,J9,1,Pin_1*%
%TO.N,GND*%
X95300800Y-133451600D03*
D12*
%TO.P,J9,2,Pin_2*%
%TO.N,Net-(C23-Pad2)*%
X97840800Y-133451600D03*
%TD*%
D11*
%TO.P,J11,1,Pin_1*%
%TO.N,GND*%
X96000000Y-104575000D03*
D12*
%TO.P,J11,2,Pin_2*%
%TO.N,Net-(C26-Pad1)*%
X98540000Y-104575000D03*
%TD*%
D13*
%TO.P,J1,2,Ext*%
%TO.N,GND*%
X134290000Y-53910000D03*
X134290000Y-62410000D03*
%TD*%
D14*
%TO.P,J3,1,Pin_1*%
%TO.N,Net-(C11-Pad1)*%
X98410000Y-89590000D03*
D15*
%TO.P,J3,2,Pin_2*%
%TO.N,GND*%
X98410000Y-94670000D03*
%TD*%
D14*
%TO.P,J2,1,Pin_1*%
%TO.N,Net-(C1-Pad1)*%
X99000000Y-56780000D03*
D15*
%TO.P,J2,2,Pin_2*%
%TO.N,GND*%
X99000000Y-61860000D03*
%TD*%
D13*
%TO.P,J6,2,Ext*%
%TO.N,GND*%
X134000000Y-119500000D03*
X134000000Y-128000000D03*
%TD*%
%TO.P,J4,2,Ext*%
%TO.N,GND*%
X133637500Y-94250000D03*
X133637500Y-85750000D03*
%TD*%
D11*
%TO.P,J10,1,Pin_1*%
%TO.N,GND*%
X95504000Y-70612000D03*
D12*
%TO.P,J10,2,Pin_2*%
%TO.N,Net-(C25-Pad1)*%
X98044000Y-70612000D03*
%TD*%
D14*
%TO.P,J5,1,Pin_1*%
%TO.N,Net-(C12-Pad1)*%
X98782500Y-122210000D03*
D15*
%TO.P,J5,2,Pin_2*%
%TO.N,GND*%
X98782500Y-127290000D03*
%TD*%
D16*
%TO.N,GND*%
X123350000Y-55150000D03*
X110500000Y-141500000D03*
X109200000Y-64900000D03*
X133637500Y-85750000D03*
X103782500Y-117500000D03*
X133500000Y-114000000D03*
X133637500Y-94250000D03*
X103782500Y-128960000D03*
X104500000Y-99500000D03*
X104782500Y-125960000D03*
X92000000Y-136000000D03*
X130000000Y-49000000D03*
X92000000Y-64000000D03*
X102500000Y-99000000D03*
X117760000Y-87540000D03*
X112000000Y-107000000D03*
X118500000Y-114000000D03*
X102717600Y-132994400D03*
X123500000Y-74000000D03*
X132500000Y-138000000D03*
X106000000Y-114000000D03*
X111000000Y-81000000D03*
X92000000Y-114000000D03*
X115332500Y-121160000D03*
X111000000Y-49000000D03*
X101500000Y-69000000D03*
X106000000Y-51000000D03*
X127932500Y-119210000D03*
X125210000Y-85040000D03*
X116660000Y-87440000D03*
X135000000Y-67000000D03*
X108000000Y-73500000D03*
X116500000Y-141000000D03*
X129700000Y-52800000D03*
X110382500Y-120660000D03*
X129810000Y-84590000D03*
X111500000Y-114000000D03*
X122990000Y-100160000D03*
X93532500Y-141000000D03*
X92000000Y-58000000D03*
X113000000Y-81000000D03*
X91500000Y-130500000D03*
X103000000Y-102400500D03*
X105000000Y-55000000D03*
X116000000Y-74000000D03*
X134000000Y-128000000D03*
X128500000Y-141500000D03*
X108500000Y-114000000D03*
X108000000Y-107000000D03*
X130282500Y-119110000D03*
X92000000Y-133000000D03*
X97000000Y-114000000D03*
X130000000Y-114000000D03*
X101500000Y-141000000D03*
X100000000Y-49000000D03*
X92000000Y-117500000D03*
X123510000Y-68080000D03*
X105000000Y-62992000D03*
X122982500Y-118910000D03*
X92000000Y-55620000D03*
X92410000Y-82590000D03*
X104500000Y-107000000D03*
X133000000Y-136000000D03*
X115000000Y-81000000D03*
X117000000Y-81000000D03*
X105000000Y-53000000D03*
X134000000Y-49000000D03*
X130000000Y-74000000D03*
X104500000Y-105125000D03*
X102000000Y-65000000D03*
X124500000Y-141000000D03*
X124000000Y-107000000D03*
X107500000Y-141000000D03*
X127500000Y-114000000D03*
X92000000Y-74000000D03*
X120682500Y-120360000D03*
X134000000Y-119500000D03*
X132500000Y-101000000D03*
X102160000Y-80000000D03*
X114600000Y-97800000D03*
X123000000Y-114000000D03*
X126500000Y-74000000D03*
X105000000Y-69244000D03*
X91660000Y-98340000D03*
X104500000Y-96590000D03*
X97000000Y-49000000D03*
X115800000Y-64000000D03*
X110710000Y-86990000D03*
X125200000Y-52850000D03*
X105000000Y-61566000D03*
X133410000Y-82090000D03*
X125000000Y-49000000D03*
X135000000Y-64000000D03*
X92000000Y-68000000D03*
X134000000Y-79500000D03*
X133500000Y-134000000D03*
X112000000Y-73500000D03*
X126282500Y-119060000D03*
X133282500Y-116710000D03*
X115970000Y-131530000D03*
X105000000Y-80000000D03*
X92000000Y-103000000D03*
X117900000Y-55450000D03*
X101000000Y-114000000D03*
X122670000Y-49000000D03*
X125000000Y-114000000D03*
X130500000Y-81000000D03*
X120000000Y-107000000D03*
X124000000Y-81000000D03*
X91782500Y-122710000D03*
X104500000Y-73500000D03*
X135000000Y-66000000D03*
X128000000Y-81000000D03*
X119000000Y-74000000D03*
X132660000Y-97840000D03*
X117050000Y-55400000D03*
X122810000Y-132930000D03*
X101000000Y-74000000D03*
X118380000Y-49000000D03*
X116000000Y-114000000D03*
X92000000Y-107000000D03*
X106000000Y-49000000D03*
X103782500Y-130960000D03*
X108000000Y-81000000D03*
X104000000Y-136000000D03*
X91910000Y-87590000D03*
X105000000Y-60000000D03*
X98000000Y-74500000D03*
X104410000Y-92590000D03*
X99660000Y-80000000D03*
X93000000Y-80000000D03*
X134290000Y-62410000D03*
X104500000Y-141000000D03*
X104410000Y-82590000D03*
X104410000Y-84590000D03*
X103000000Y-49000000D03*
X119000000Y-81000000D03*
X97000000Y-107000000D03*
X126000000Y-81000000D03*
X109030000Y-130170000D03*
X114000000Y-114000000D03*
X108000000Y-49000000D03*
X121000000Y-114000000D03*
X116932500Y-121360000D03*
X103410000Y-87590000D03*
X97000000Y-80000000D03*
X133532500Y-131210000D03*
X124582500Y-118960000D03*
X104000000Y-91500000D03*
X98500000Y-141000000D03*
X102819200Y-136448800D03*
X104000000Y-114500000D03*
X127000000Y-107000000D03*
X127000000Y-49000000D03*
X109100000Y-96800000D03*
X92000000Y-100500000D03*
X120000000Y-49000000D03*
X122000000Y-81000000D03*
X132000000Y-72000000D03*
X92500000Y-139500000D03*
X104500000Y-94590000D03*
X91282500Y-127960000D03*
X113500000Y-141500000D03*
X114000000Y-49000000D03*
X105000000Y-64516000D03*
X116000000Y-107000000D03*
X131000000Y-107000000D03*
X134290000Y-53910000D03*
X123310000Y-87190000D03*
X132500000Y-103500000D03*
X119000000Y-141000000D03*
X91532500Y-124960000D03*
X135000000Y-70000000D03*
X103782500Y-120960000D03*
X104500000Y-139000000D03*
X131500000Y-140000000D03*
X111400000Y-55100000D03*
X104500000Y-98110000D03*
X122000000Y-141000000D03*
X92000000Y-70000000D03*
X92000000Y-51000000D03*
X100000000Y-107000000D03*
X121500000Y-74000000D03*
X117000000Y-49000000D03*
%TD*%
D17*
%TO.N,GND*%
X131160000Y-80340000D02*
X133160000Y-80340000D01*
X99660000Y-80000000D02*
X97000000Y-80000000D01*
X104500000Y-73500000D02*
X105000000Y-73000000D01*
X133500000Y-114000000D02*
X133500000Y-116492500D01*
X103782500Y-124960000D02*
X104782500Y-125960000D01*
X92000000Y-107000000D02*
X93000000Y-106000000D01*
X103782500Y-117500000D02*
X103782500Y-114717500D01*
X105000000Y-60000000D02*
X105000000Y-55000000D01*
X93000000Y-99680000D02*
X91660000Y-98340000D01*
X119000000Y-81000000D02*
X117000000Y-81000000D01*
X104410000Y-84590000D02*
X104410000Y-82590000D01*
X122670000Y-49000000D02*
X125000000Y-49000000D01*
X132500000Y-138000000D02*
X132500000Y-136500000D01*
X92410000Y-80590000D02*
X92410000Y-82590000D01*
X92000000Y-51000000D02*
X92000000Y-55620000D01*
X124000000Y-81000000D02*
X122000000Y-81000000D01*
X133532500Y-131210000D02*
X133532500Y-128467500D01*
X104425000Y-105050000D02*
X104425000Y-99575000D01*
X108000000Y-73500000D02*
X112000000Y-73500000D01*
X114000000Y-49000000D02*
X117000000Y-49000000D01*
X114000000Y-141000000D02*
X113500000Y-141500000D01*
X119000000Y-74000000D02*
X116000000Y-74000000D01*
X131000000Y-107000000D02*
X127000000Y-107000000D01*
X111000000Y-81000000D02*
X108000000Y-81000000D01*
X130000000Y-141500000D02*
X131500000Y-140000000D01*
X98500000Y-141000000D02*
X93532500Y-141000000D01*
X133000000Y-72000000D02*
X135000000Y-70000000D01*
X97500000Y-74000000D02*
X92000000Y-74000000D01*
X124000000Y-107000000D02*
X120000000Y-107000000D01*
X134000000Y-49000000D02*
X134000000Y-53620000D01*
X123500000Y-74000000D02*
X121500000Y-74000000D01*
X128000000Y-81000000D02*
X126000000Y-81000000D01*
X108500000Y-114000000D02*
X111500000Y-114000000D01*
X104000000Y-74000000D02*
X104500000Y-73500000D01*
X101000000Y-114000000D02*
X106000000Y-114000000D01*
X104000000Y-91500000D02*
X103410000Y-90910000D01*
X128500000Y-141500000D02*
X130000000Y-141500000D01*
X132000000Y-72000000D02*
X133000000Y-72000000D01*
X103782500Y-114717500D02*
X104000000Y-114500000D01*
X103782500Y-120960000D02*
X103782500Y-124960000D01*
X135000000Y-66000000D02*
X135000000Y-63120000D01*
X92000000Y-100500000D02*
X92000000Y-103000000D01*
X118380000Y-49000000D02*
X120000000Y-49000000D01*
X104425000Y-99575000D02*
X104500000Y-99500000D01*
X128500000Y-141500000D02*
X128000000Y-141000000D01*
X106000000Y-49000000D02*
X103000000Y-49000000D01*
X104500000Y-105125000D02*
X104425000Y-105050000D01*
X111000000Y-49000000D02*
X108000000Y-49000000D01*
X105000000Y-69244000D02*
X105000000Y-64516000D01*
X133160000Y-80340000D02*
X134000000Y-79500000D01*
X108000000Y-107000000D02*
X104500000Y-107000000D01*
X128000000Y-141000000D02*
X124500000Y-141000000D01*
X113000000Y-81000000D02*
X115000000Y-81000000D01*
X135000000Y-63120000D02*
X134290000Y-62410000D01*
X105000000Y-80000000D02*
X102160000Y-80000000D01*
X105000000Y-73000000D02*
X105000000Y-69244000D01*
X127000000Y-49000000D02*
X130000000Y-49000000D01*
X121000000Y-114000000D02*
X118500000Y-114000000D01*
X116500000Y-141000000D02*
X114000000Y-141000000D01*
X104500000Y-141000000D02*
X101500000Y-141000000D01*
X103410000Y-90910000D02*
X103410000Y-87590000D01*
X132500000Y-136500000D02*
X133000000Y-136000000D01*
X110500000Y-141500000D02*
X110000000Y-141000000D01*
X116000000Y-107000000D02*
X112000000Y-107000000D01*
X104000000Y-138500000D02*
X104500000Y-139000000D01*
X105000000Y-62992000D02*
X105000000Y-61566000D01*
X122000000Y-141000000D02*
X119000000Y-141000000D01*
X135000000Y-67000000D02*
X135000000Y-64000000D01*
X105000000Y-52000000D02*
X106000000Y-51000000D01*
X100000000Y-49000000D02*
X97000000Y-49000000D01*
X123000000Y-114000000D02*
X125000000Y-114000000D01*
X91500000Y-130500000D02*
X91282500Y-130282500D01*
X93000000Y-80000000D02*
X92410000Y-80590000D01*
X103782500Y-135782500D02*
X103782500Y-130960000D01*
X104000000Y-136000000D02*
X104000000Y-138500000D01*
X92000000Y-114000000D02*
X97000000Y-114000000D01*
X93532500Y-141000000D02*
X93532500Y-140532500D01*
X133532500Y-128467500D02*
X134000000Y-128000000D01*
X104410000Y-94500000D02*
X104410000Y-92590000D01*
X104500000Y-96590000D02*
X104500000Y-98110000D01*
X98000000Y-74500000D02*
X97500000Y-74000000D01*
X100000000Y-107000000D02*
X97000000Y-107000000D01*
X132660000Y-97840000D02*
X132660000Y-95227500D01*
X127500000Y-114000000D02*
X130000000Y-114000000D01*
X93532500Y-140532500D02*
X92500000Y-139500000D01*
X105000000Y-53000000D02*
X105000000Y-52000000D01*
X133500000Y-116492500D02*
X133282500Y-116710000D01*
X93000000Y-106000000D02*
X93000000Y-99680000D01*
X130500000Y-81000000D02*
X131160000Y-80340000D01*
X92000000Y-136000000D02*
X92000000Y-133000000D01*
X92000000Y-122492500D02*
X91782500Y-122710000D01*
X92000000Y-68000000D02*
X92000000Y-70000000D01*
X105000000Y-64516000D02*
X105000000Y-62992000D01*
X132660000Y-95227500D02*
X133637500Y-94250000D01*
X116000000Y-114000000D02*
X114000000Y-114000000D01*
X133500000Y-131242500D02*
X133532500Y-131210000D01*
X104500000Y-94590000D02*
X104410000Y-94500000D01*
X103782500Y-128960000D02*
X103782500Y-130960000D01*
X110000000Y-141000000D02*
X107500000Y-141000000D01*
X101000000Y-74000000D02*
X104000000Y-74000000D01*
X104000000Y-136000000D02*
X103782500Y-135782500D01*
X134000000Y-53620000D02*
X134290000Y-53910000D01*
X130000000Y-74000000D02*
X126500000Y-74000000D01*
X132500000Y-103500000D02*
X132500000Y-101000000D01*
X92000000Y-117500000D02*
X92000000Y-122492500D01*
X133500000Y-134000000D02*
X133500000Y-131242500D01*
X91282500Y-130282500D02*
X91282500Y-127960000D01*
%TD*%
%TA.AperFunction,Conductor*%
%TO.N,GND*%
G36*
X136433621Y-46528502D02*
G01*
X136480114Y-46582158D01*
X136491500Y-46634500D01*
X136491500Y-52526000D01*
X136471498Y-52594121D01*
X136417842Y-52640614D01*
X136365500Y-52652000D01*
X134562115Y-52652000D01*
X134546876Y-52656475D01*
X134545671Y-52657865D01*
X134544000Y-52665548D01*
X134544000Y-55149884D01*
X134548475Y-55165123D01*
X134549865Y-55166328D01*
X134557548Y-55167999D01*
X136365500Y-55167999D01*
X136433621Y-55188001D01*
X136480114Y-55241657D01*
X136491500Y-55293999D01*
X136491500Y-61026000D01*
X136471498Y-61094121D01*
X136417842Y-61140614D01*
X136365500Y-61152000D01*
X134562115Y-61152000D01*
X134546876Y-61156475D01*
X134545671Y-61157865D01*
X134544000Y-61165548D01*
X134544000Y-63649884D01*
X134548475Y-63665123D01*
X134549865Y-63666328D01*
X134557548Y-63667999D01*
X136365500Y-63667999D01*
X136433621Y-63688001D01*
X136480114Y-63741657D01*
X136491500Y-63793999D01*
X136491500Y-84393348D01*
X136471498Y-84461469D01*
X136417842Y-84507962D01*
X136347568Y-84518066D01*
X136321271Y-84511330D01*
X136295109Y-84501522D01*
X136279851Y-84497895D01*
X136228986Y-84492369D01*
X136222172Y-84492000D01*
X133909615Y-84492000D01*
X133894376Y-84496475D01*
X133893171Y-84497865D01*
X133891500Y-84505548D01*
X133891500Y-86989884D01*
X133895975Y-87005123D01*
X133897365Y-87006328D01*
X133905048Y-87007999D01*
X136222169Y-87007999D01*
X136228990Y-87007629D01*
X136279852Y-87002105D01*
X136295107Y-86998478D01*
X136321271Y-86988670D01*
X136392078Y-86983487D01*
X136454447Y-87017408D01*
X136488576Y-87079664D01*
X136491500Y-87106652D01*
X136491500Y-92893348D01*
X136471498Y-92961469D01*
X136417842Y-93007962D01*
X136347568Y-93018066D01*
X136321271Y-93011330D01*
X136295109Y-93001522D01*
X136279851Y-92997895D01*
X136228986Y-92992369D01*
X136222172Y-92992000D01*
X133909615Y-92992000D01*
X133894376Y-92996475D01*
X133893171Y-92997865D01*
X133891500Y-93005548D01*
X133891500Y-95489884D01*
X133895975Y-95505123D01*
X133897365Y-95506328D01*
X133905048Y-95507999D01*
X136222169Y-95507999D01*
X136228990Y-95507629D01*
X136279852Y-95502105D01*
X136295107Y-95498478D01*
X136321271Y-95488670D01*
X136392078Y-95483487D01*
X136454447Y-95517408D01*
X136488576Y-95579664D01*
X136491500Y-95606652D01*
X136491500Y-118116000D01*
X136471498Y-118184121D01*
X136417842Y-118230614D01*
X136365500Y-118242000D01*
X134272115Y-118242000D01*
X134256876Y-118246475D01*
X134255671Y-118247865D01*
X134254000Y-118255548D01*
X134254000Y-120739884D01*
X134258475Y-120755123D01*
X134259865Y-120756328D01*
X134267548Y-120757999D01*
X136365500Y-120757999D01*
X136433621Y-120778001D01*
X136480114Y-120831657D01*
X136491500Y-120883999D01*
X136491500Y-126616000D01*
X136471498Y-126684121D01*
X136417842Y-126730614D01*
X136365500Y-126742000D01*
X134272115Y-126742000D01*
X134256876Y-126746475D01*
X134255671Y-126747865D01*
X134254000Y-126755548D01*
X134254000Y-129239884D01*
X134258475Y-129255123D01*
X134259865Y-129256328D01*
X134267548Y-129257999D01*
X136365500Y-129257999D01*
X136433621Y-129278001D01*
X136480114Y-129331657D01*
X136491500Y-129383999D01*
X136491500Y-143365500D01*
X136471498Y-143433621D01*
X136417842Y-143480114D01*
X136365500Y-143491500D01*
X90634500Y-143491500D01*
X90566379Y-143471498D01*
X90519886Y-143417842D01*
X90508500Y-143365500D01*
X90508500Y-138207069D01*
X93942801Y-138207069D01*
X93943171Y-138213890D01*
X93948695Y-138264752D01*
X93952321Y-138280004D01*
X93997476Y-138400454D01*
X94006014Y-138416049D01*
X94082515Y-138518124D01*
X94095076Y-138530685D01*
X94197151Y-138607186D01*
X94212746Y-138615724D01*
X94333194Y-138660878D01*
X94348449Y-138664505D01*
X94399314Y-138670031D01*
X94406128Y-138670400D01*
X95028685Y-138670400D01*
X95043924Y-138665925D01*
X95045129Y-138664535D01*
X95046800Y-138656852D01*
X95046800Y-138652284D01*
X95554800Y-138652284D01*
X95559275Y-138667523D01*
X95560665Y-138668728D01*
X95568348Y-138670399D01*
X96195469Y-138670399D01*
X96202290Y-138670029D01*
X96253152Y-138664505D01*
X96268404Y-138660879D01*
X96388854Y-138615724D01*
X96404449Y-138607186D01*
X96506524Y-138530685D01*
X96519085Y-138518124D01*
X96595586Y-138416049D01*
X96604124Y-138400454D01*
X96645025Y-138291352D01*
X96687667Y-138234588D01*
X96754228Y-138209888D01*
X96823577Y-138225096D01*
X96858244Y-138253084D01*
X96883665Y-138282431D01*
X96883669Y-138282435D01*
X96887050Y-138286338D01*
X97058926Y-138429032D01*
X97251800Y-138541738D01*
X97460492Y-138621430D01*
X97465560Y-138622461D01*
X97465563Y-138622462D01*
X97572817Y-138644283D01*
X97679397Y-138665967D01*
X97684572Y-138666157D01*
X97684574Y-138666157D01*
X97897473Y-138673964D01*
X97897477Y-138673964D01*
X97902637Y-138674153D01*
X97907757Y-138673497D01*
X97907759Y-138673497D01*
X98119088Y-138646425D01*
X98119089Y-138646425D01*
X98124216Y-138645768D01*
X98129166Y-138644283D01*
X98333229Y-138583061D01*
X98333234Y-138583059D01*
X98338184Y-138581574D01*
X98538794Y-138483296D01*
X98720660Y-138353573D01*
X98878896Y-138195889D01*
X99009253Y-138014477D01*
X99108230Y-137814211D01*
X99173170Y-137600469D01*
X99202329Y-137378990D01*
X99203956Y-137312400D01*
X99185652Y-137089761D01*
X99131231Y-136873102D01*
X99042154Y-136668240D01*
X98920814Y-136480677D01*
X98770470Y-136315451D01*
X98766419Y-136312252D01*
X98766415Y-136312248D01*
X98599214Y-136180200D01*
X98599210Y-136180198D01*
X98595159Y-136176998D01*
X98399589Y-136069038D01*
X98394720Y-136067314D01*
X98394716Y-136067312D01*
X98193887Y-135996195D01*
X98193883Y-135996194D01*
X98189012Y-135994469D01*
X98183919Y-135993562D01*
X98183916Y-135993561D01*
X97974173Y-135956200D01*
X97974167Y-135956199D01*
X97969084Y-135955294D01*
X97895252Y-135954392D01*
X97750881Y-135952628D01*
X97750879Y-135952628D01*
X97745711Y-135952565D01*
X97524891Y-135986355D01*
X97312556Y-136055757D01*
X97114407Y-136158907D01*
X97110274Y-136162010D01*
X97110271Y-136162012D01*
X97027250Y-136224346D01*
X96935765Y-136293035D01*
X96932193Y-136296773D01*
X96854698Y-136377866D01*
X96793174Y-136413295D01*
X96722262Y-136409838D01*
X96664476Y-136368592D01*
X96645623Y-136335044D01*
X96604124Y-136224346D01*
X96595586Y-136208751D01*
X96519085Y-136106676D01*
X96506524Y-136094115D01*
X96404449Y-136017614D01*
X96388854Y-136009076D01*
X96268406Y-135963922D01*
X96253151Y-135960295D01*
X96202286Y-135954769D01*
X96195472Y-135954400D01*
X95572915Y-135954400D01*
X95557676Y-135958875D01*
X95556471Y-135960265D01*
X95554800Y-135967948D01*
X95554800Y-138652284D01*
X95046800Y-138652284D01*
X95046800Y-137584515D01*
X95042325Y-137569276D01*
X95040935Y-137568071D01*
X95033252Y-137566400D01*
X93960916Y-137566400D01*
X93945677Y-137570875D01*
X93944472Y-137572265D01*
X93942801Y-137579948D01*
X93942801Y-138207069D01*
X90508500Y-138207069D01*
X90508500Y-137040285D01*
X93942800Y-137040285D01*
X93947275Y-137055524D01*
X93948665Y-137056729D01*
X93956348Y-137058400D01*
X95028685Y-137058400D01*
X95043924Y-137053925D01*
X95045129Y-137052535D01*
X95046800Y-137044852D01*
X95046800Y-135972516D01*
X95042325Y-135957277D01*
X95040935Y-135956072D01*
X95033252Y-135954401D01*
X94406131Y-135954401D01*
X94399310Y-135954771D01*
X94348448Y-135960295D01*
X94333196Y-135963921D01*
X94212746Y-136009076D01*
X94197151Y-136017614D01*
X94095076Y-136094115D01*
X94082515Y-136106676D01*
X94006014Y-136208751D01*
X93997476Y-136224346D01*
X93952322Y-136344794D01*
X93948695Y-136360049D01*
X93943169Y-136410914D01*
X93942800Y-136417728D01*
X93942800Y-137040285D01*
X90508500Y-137040285D01*
X90508500Y-134346269D01*
X93942801Y-134346269D01*
X93943171Y-134353090D01*
X93948695Y-134403952D01*
X93952321Y-134419204D01*
X93997476Y-134539654D01*
X94006014Y-134555249D01*
X94082515Y-134657324D01*
X94095076Y-134669885D01*
X94197151Y-134746386D01*
X94212746Y-134754924D01*
X94333194Y-134800078D01*
X94348449Y-134803705D01*
X94399314Y-134809231D01*
X94406128Y-134809600D01*
X95028685Y-134809600D01*
X95043924Y-134805125D01*
X95045129Y-134803735D01*
X95046800Y-134796052D01*
X95046800Y-134791484D01*
X95554800Y-134791484D01*
X95559275Y-134806723D01*
X95560665Y-134807928D01*
X95568348Y-134809599D01*
X96195469Y-134809599D01*
X96202290Y-134809229D01*
X96253152Y-134803705D01*
X96268404Y-134800079D01*
X96388854Y-134754924D01*
X96404449Y-134746386D01*
X96506524Y-134669885D01*
X96519085Y-134657324D01*
X96595586Y-134555249D01*
X96604124Y-134539654D01*
X96645025Y-134430552D01*
X96687667Y-134373788D01*
X96754228Y-134349088D01*
X96823577Y-134364296D01*
X96858244Y-134392284D01*
X96883665Y-134421631D01*
X96883669Y-134421635D01*
X96887050Y-134425538D01*
X97058926Y-134568232D01*
X97251800Y-134680938D01*
X97460492Y-134760630D01*
X97465560Y-134761661D01*
X97465563Y-134761662D01*
X97572817Y-134783483D01*
X97679397Y-134805167D01*
X97684572Y-134805357D01*
X97684574Y-134805357D01*
X97897473Y-134813164D01*
X97897477Y-134813164D01*
X97902637Y-134813353D01*
X97907757Y-134812697D01*
X97907759Y-134812697D01*
X98119088Y-134785625D01*
X98119089Y-134785625D01*
X98124216Y-134784968D01*
X98129166Y-134783483D01*
X98333229Y-134722261D01*
X98333234Y-134722259D01*
X98338184Y-134720774D01*
X98538794Y-134622496D01*
X98720660Y-134492773D01*
X98878896Y-134335089D01*
X99009253Y-134153677D01*
X99108230Y-133953411D01*
X99173170Y-133739669D01*
X99202329Y-133518190D01*
X99203956Y-133451600D01*
X99185652Y-133228961D01*
X99131231Y-133012302D01*
X99042154Y-132807440D01*
X98920814Y-132619877D01*
X98770470Y-132454651D01*
X98766419Y-132451452D01*
X98766415Y-132451448D01*
X98599214Y-132319400D01*
X98599210Y-132319398D01*
X98595159Y-132316198D01*
X98399589Y-132208238D01*
X98394720Y-132206514D01*
X98394716Y-132206512D01*
X98193887Y-132135395D01*
X98193883Y-132135394D01*
X98189012Y-132133669D01*
X98183919Y-132132762D01*
X98183916Y-132132761D01*
X97974173Y-132095400D01*
X97974167Y-132095399D01*
X97969084Y-132094494D01*
X97895252Y-132093592D01*
X97750881Y-132091828D01*
X97750879Y-132091828D01*
X97745711Y-132091765D01*
X97524891Y-132125555D01*
X97312556Y-132194957D01*
X97114407Y-132298107D01*
X97110274Y-132301210D01*
X97110271Y-132301212D01*
X97027250Y-132363546D01*
X96935765Y-132432235D01*
X96932193Y-132435973D01*
X96854698Y-132517066D01*
X96793174Y-132552495D01*
X96722262Y-132549038D01*
X96664476Y-132507792D01*
X96645623Y-132474244D01*
X96604124Y-132363546D01*
X96595586Y-132347951D01*
X96519085Y-132245876D01*
X96506524Y-132233315D01*
X96404449Y-132156814D01*
X96388854Y-132148276D01*
X96268406Y-132103122D01*
X96253151Y-132099495D01*
X96202286Y-132093969D01*
X96195472Y-132093600D01*
X95572915Y-132093600D01*
X95557676Y-132098075D01*
X95556471Y-132099465D01*
X95554800Y-132107148D01*
X95554800Y-134791484D01*
X95046800Y-134791484D01*
X95046800Y-133723715D01*
X95042325Y-133708476D01*
X95040935Y-133707271D01*
X95033252Y-133705600D01*
X93960916Y-133705600D01*
X93945677Y-133710075D01*
X93944472Y-133711465D01*
X93942801Y-133719148D01*
X93942801Y-134346269D01*
X90508500Y-134346269D01*
X90508500Y-133179485D01*
X93942800Y-133179485D01*
X93947275Y-133194724D01*
X93948665Y-133195929D01*
X93956348Y-133197600D01*
X95028685Y-133197600D01*
X95043924Y-133193125D01*
X95045129Y-133191735D01*
X95046800Y-133184052D01*
X95046800Y-132111716D01*
X95042325Y-132096477D01*
X95040935Y-132095272D01*
X95033252Y-132093601D01*
X94406131Y-132093601D01*
X94399310Y-132093971D01*
X94348448Y-132099495D01*
X94333196Y-132103121D01*
X94212746Y-132148276D01*
X94197151Y-132156814D01*
X94095076Y-132233315D01*
X94082515Y-132245876D01*
X94006014Y-132347951D01*
X93997476Y-132363546D01*
X93952322Y-132483994D01*
X93948695Y-132499249D01*
X93943169Y-132550114D01*
X93942800Y-132556928D01*
X93942800Y-133179485D01*
X90508500Y-133179485D01*
X90508500Y-128879654D01*
X97558118Y-128879654D01*
X97565173Y-128889627D01*
X97596179Y-128915551D01*
X97603098Y-128920579D01*
X97827772Y-129061515D01*
X97835307Y-129065556D01*
X98077020Y-129174694D01*
X98085051Y-129177680D01*
X98339332Y-129253002D01*
X98347684Y-129254869D01*
X98609840Y-129294984D01*
X98618374Y-129295700D01*
X98883545Y-129299867D01*
X98892096Y-129299418D01*
X99155383Y-129267557D01*
X99163784Y-129265955D01*
X99420324Y-129198653D01*
X99428426Y-129195926D01*
X99673449Y-129094434D01*
X99681117Y-129090628D01*
X99910098Y-128956822D01*
X99917179Y-128952009D01*
X99997155Y-128889301D01*
X100005625Y-128877442D01*
X99999108Y-128865818D01*
X99927959Y-128794669D01*
X130952001Y-128794669D01*
X130952371Y-128801490D01*
X130957895Y-128852352D01*
X130961521Y-128867604D01*
X131006676Y-128988054D01*
X131015214Y-129003649D01*
X131091715Y-129105724D01*
X131104276Y-129118285D01*
X131206351Y-129194786D01*
X131221946Y-129203324D01*
X131342394Y-129248478D01*
X131357649Y-129252105D01*
X131408514Y-129257631D01*
X131415328Y-129258000D01*
X133727885Y-129258000D01*
X133743124Y-129253525D01*
X133744329Y-129252135D01*
X133746000Y-129244452D01*
X133746000Y-128272115D01*
X133741525Y-128256876D01*
X133740135Y-128255671D01*
X133732452Y-128254000D01*
X130970116Y-128254000D01*
X130954877Y-128258475D01*
X130953672Y-128259865D01*
X130952001Y-128267548D01*
X130952001Y-128794669D01*
X99927959Y-128794669D01*
X98795312Y-127662022D01*
X98781368Y-127654408D01*
X98779535Y-127654539D01*
X98772920Y-127658790D01*
X97565410Y-128866300D01*
X97558118Y-128879654D01*
X90508500Y-128879654D01*
X90508500Y-127273204D01*
X96770165Y-127273204D01*
X96785432Y-127537969D01*
X96786505Y-127546470D01*
X96837565Y-127806722D01*
X96839776Y-127814974D01*
X96925684Y-128065894D01*
X96928999Y-128073779D01*
X97048164Y-128310713D01*
X97052520Y-128318079D01*
X97181847Y-128506250D01*
X97192101Y-128514594D01*
X97205842Y-128507448D01*
X98410478Y-127302812D01*
X98416856Y-127291132D01*
X99146908Y-127291132D01*
X99147039Y-127292965D01*
X99151290Y-127299580D01*
X100358230Y-128506520D01*
X100370439Y-128513187D01*
X100381939Y-128504497D01*
X100479331Y-128371913D01*
X100483918Y-128364685D01*
X100610462Y-128131621D01*
X100614030Y-128123827D01*
X100707771Y-127875750D01*
X100710248Y-127867544D01*
X100769454Y-127609038D01*
X100770794Y-127600577D01*
X100784233Y-127450000D01*
X107379307Y-127450000D01*
X107398042Y-127664142D01*
X107399466Y-127669455D01*
X107399466Y-127669457D01*
X107441424Y-127826043D01*
X107453678Y-127871777D01*
X107544524Y-128066596D01*
X107667819Y-128242681D01*
X107819819Y-128394681D01*
X107995903Y-128517976D01*
X108000881Y-128520297D01*
X108000884Y-128520299D01*
X108185741Y-128606499D01*
X108190723Y-128608822D01*
X108196031Y-128610244D01*
X108196033Y-128610245D01*
X108393043Y-128663034D01*
X108393045Y-128663034D01*
X108398358Y-128664458D01*
X108612500Y-128683193D01*
X108826642Y-128664458D01*
X108831955Y-128663034D01*
X108831957Y-128663034D01*
X109028967Y-128610245D01*
X109028969Y-128610244D01*
X109034277Y-128608822D01*
X109039259Y-128606499D01*
X109224116Y-128520299D01*
X109224119Y-128520297D01*
X109229097Y-128517976D01*
X109405181Y-128394681D01*
X109557181Y-128242681D01*
X109680476Y-128066596D01*
X109768305Y-127878247D01*
X109815223Y-127824962D01*
X109883500Y-127805501D01*
X109951460Y-127826043D01*
X109996695Y-127878247D01*
X110084524Y-128066596D01*
X110207819Y-128242681D01*
X110359819Y-128394681D01*
X110535903Y-128517976D01*
X110540881Y-128520297D01*
X110540884Y-128520299D01*
X110725741Y-128606499D01*
X110730723Y-128608822D01*
X110736031Y-128610244D01*
X110736033Y-128610245D01*
X110933043Y-128663034D01*
X110933045Y-128663034D01*
X110938358Y-128664458D01*
X111152500Y-128683193D01*
X111366642Y-128664458D01*
X111371955Y-128663034D01*
X111371957Y-128663034D01*
X111568967Y-128610245D01*
X111568969Y-128610244D01*
X111574277Y-128608822D01*
X111579259Y-128606499D01*
X111764116Y-128520299D01*
X111764119Y-128520297D01*
X111769097Y-128517976D01*
X111945181Y-128394681D01*
X112097181Y-128242681D01*
X112220476Y-128066596D01*
X112308305Y-127878247D01*
X112355223Y-127824962D01*
X112423500Y-127805501D01*
X112491460Y-127826043D01*
X112536695Y-127878247D01*
X112624524Y-128066596D01*
X112747819Y-128242681D01*
X112899819Y-128394681D01*
X113075903Y-128517976D01*
X113080881Y-128520297D01*
X113080884Y-128520299D01*
X113265741Y-128606499D01*
X113270723Y-128608822D01*
X113276031Y-128610244D01*
X113276033Y-128610245D01*
X113473043Y-128663034D01*
X113473045Y-128663034D01*
X113478358Y-128664458D01*
X113692500Y-128683193D01*
X113906642Y-128664458D01*
X113911955Y-128663034D01*
X113911957Y-128663034D01*
X114108967Y-128610245D01*
X114108969Y-128610244D01*
X114114277Y-128608822D01*
X114119259Y-128606499D01*
X114304116Y-128520299D01*
X114304119Y-128520297D01*
X114309097Y-128517976D01*
X114485181Y-128394681D01*
X114637181Y-128242681D01*
X114760476Y-128066596D01*
X114851322Y-127871777D01*
X114863577Y-127826043D01*
X114889878Y-127727885D01*
X130952000Y-127727885D01*
X130956475Y-127743124D01*
X130957865Y-127744329D01*
X130965548Y-127746000D01*
X133727885Y-127746000D01*
X133743124Y-127741525D01*
X133744329Y-127740135D01*
X133746000Y-127732452D01*
X133746000Y-126760116D01*
X133741525Y-126744877D01*
X133740135Y-126743672D01*
X133732452Y-126742001D01*
X131415331Y-126742001D01*
X131408510Y-126742371D01*
X131357648Y-126747895D01*
X131342396Y-126751521D01*
X131221946Y-126796676D01*
X131206351Y-126805214D01*
X131104276Y-126881715D01*
X131091715Y-126894276D01*
X131015214Y-126996351D01*
X131006676Y-127011946D01*
X130961522Y-127132394D01*
X130957895Y-127147649D01*
X130952369Y-127198514D01*
X130952000Y-127205328D01*
X130952000Y-127727885D01*
X114889878Y-127727885D01*
X114905534Y-127669457D01*
X114905534Y-127669455D01*
X114906958Y-127664142D01*
X114925693Y-127450000D01*
X114906958Y-127235858D01*
X114905534Y-127230543D01*
X114852745Y-127033533D01*
X114852744Y-127033531D01*
X114851322Y-127028223D01*
X114760476Y-126833404D01*
X114637181Y-126657319D01*
X114485181Y-126505319D01*
X114309097Y-126382024D01*
X114304119Y-126379703D01*
X114304116Y-126379701D01*
X114119259Y-126293501D01*
X114119258Y-126293500D01*
X114114277Y-126291178D01*
X114108969Y-126289756D01*
X114108967Y-126289755D01*
X113911957Y-126236966D01*
X113911955Y-126236966D01*
X113906642Y-126235542D01*
X113692500Y-126216807D01*
X113478358Y-126235542D01*
X113473045Y-126236966D01*
X113473043Y-126236966D01*
X113276033Y-126289755D01*
X113276031Y-126289756D01*
X113270723Y-126291178D01*
X113265743Y-126293500D01*
X113265741Y-126293501D01*
X113080885Y-126379701D01*
X113080882Y-126379703D01*
X113075904Y-126382024D01*
X112899819Y-126505319D01*
X112747819Y-126657319D01*
X112624524Y-126833404D01*
X112622203Y-126838382D01*
X112622201Y-126838385D01*
X112536695Y-127021753D01*
X112489777Y-127075038D01*
X112421500Y-127094499D01*
X112353540Y-127073957D01*
X112308305Y-127021753D01*
X112222799Y-126838385D01*
X112222797Y-126838382D01*
X112220476Y-126833404D01*
X112097181Y-126657319D01*
X111945181Y-126505319D01*
X111769097Y-126382024D01*
X111764119Y-126379703D01*
X111764116Y-126379701D01*
X111579259Y-126293501D01*
X111579258Y-126293500D01*
X111574277Y-126291178D01*
X111568969Y-126289756D01*
X111568967Y-126289755D01*
X111371957Y-126236966D01*
X111371955Y-126236966D01*
X111366642Y-126235542D01*
X111152500Y-126216807D01*
X110938358Y-126235542D01*
X110933045Y-126236966D01*
X110933043Y-126236966D01*
X110736033Y-126289755D01*
X110736031Y-126289756D01*
X110730723Y-126291178D01*
X110725743Y-126293500D01*
X110725741Y-126293501D01*
X110540885Y-126379701D01*
X110540882Y-126379703D01*
X110535904Y-126382024D01*
X110359819Y-126505319D01*
X110207819Y-126657319D01*
X110084524Y-126833404D01*
X110082203Y-126838382D01*
X110082201Y-126838385D01*
X109996695Y-127021753D01*
X109949777Y-127075038D01*
X109881500Y-127094499D01*
X109813540Y-127073957D01*
X109768305Y-127021753D01*
X109682799Y-126838385D01*
X109682797Y-126838382D01*
X109680476Y-126833404D01*
X109557181Y-126657319D01*
X109405181Y-126505319D01*
X109229097Y-126382024D01*
X109224119Y-126379703D01*
X109224116Y-126379701D01*
X109039259Y-126293501D01*
X109039258Y-126293500D01*
X109034277Y-126291178D01*
X109028969Y-126289756D01*
X109028967Y-126289755D01*
X108831957Y-126236966D01*
X108831955Y-126236966D01*
X108826642Y-126235542D01*
X108612500Y-126216807D01*
X108398358Y-126235542D01*
X108393045Y-126236966D01*
X108393043Y-126236966D01*
X108196033Y-126289755D01*
X108196031Y-126289756D01*
X108190723Y-126291178D01*
X108185743Y-126293500D01*
X108185741Y-126293501D01*
X108000885Y-126379701D01*
X108000882Y-126379703D01*
X107995904Y-126382024D01*
X107819819Y-126505319D01*
X107667819Y-126657319D01*
X107544524Y-126833404D01*
X107453678Y-127028223D01*
X107452256Y-127033531D01*
X107452255Y-127033533D01*
X107399466Y-127230543D01*
X107398042Y-127235858D01*
X107379307Y-127450000D01*
X100784233Y-127450000D01*
X100794531Y-127334616D01*
X100794777Y-127329677D01*
X100795166Y-127292485D01*
X100795023Y-127287519D01*
X100776862Y-127021123D01*
X100775701Y-127012649D01*
X100721919Y-126752944D01*
X100719620Y-126744709D01*
X100631088Y-126494705D01*
X100627691Y-126486854D01*
X100506050Y-126251178D01*
X100501622Y-126243866D01*
X100382531Y-126074417D01*
X100372009Y-126066037D01*
X100358621Y-126073089D01*
X99154522Y-127277188D01*
X99146908Y-127291132D01*
X98416856Y-127291132D01*
X98418092Y-127288868D01*
X98417961Y-127287035D01*
X98413710Y-127280420D01*
X97206314Y-126073024D01*
X97194304Y-126066466D01*
X97182564Y-126075434D01*
X97074435Y-126225911D01*
X97069918Y-126233196D01*
X96945825Y-126467567D01*
X96942339Y-126475395D01*
X96851200Y-126724446D01*
X96848811Y-126732670D01*
X96792312Y-126991795D01*
X96791063Y-127000250D01*
X96770254Y-127264653D01*
X96770165Y-127273204D01*
X90508500Y-127273204D01*
X90508500Y-125702500D01*
X97559084Y-125702500D01*
X97565480Y-125713770D01*
X98769688Y-126917978D01*
X98783632Y-126925592D01*
X98785465Y-126925461D01*
X98792080Y-126921210D01*
X99999104Y-125714186D01*
X100006295Y-125701017D01*
X99998973Y-125690780D01*
X99951733Y-125652115D01*
X99944761Y-125647160D01*
X99718622Y-125508582D01*
X99711052Y-125504624D01*
X99468204Y-125398022D01*
X99460144Y-125395120D01*
X99205092Y-125322467D01*
X99196714Y-125320685D01*
X98934156Y-125283318D01*
X98925611Y-125282691D01*
X98660408Y-125281302D01*
X98651874Y-125281839D01*
X98388933Y-125316456D01*
X98380535Y-125318149D01*
X98124738Y-125388127D01*
X98116643Y-125390946D01*
X97872699Y-125494997D01*
X97865077Y-125498881D01*
X97637513Y-125635075D01*
X97630481Y-125639962D01*
X97567553Y-125690377D01*
X97559084Y-125702500D01*
X90508500Y-125702500D01*
X90508500Y-123758134D01*
X96774000Y-123758134D01*
X96780755Y-123820316D01*
X96831885Y-123956705D01*
X96919239Y-124073261D01*
X97035795Y-124160615D01*
X97172184Y-124211745D01*
X97234366Y-124218500D01*
X100330634Y-124218500D01*
X100392816Y-124211745D01*
X100529205Y-124160615D01*
X100645761Y-124073261D01*
X100733115Y-123956705D01*
X100784245Y-123820316D01*
X100791000Y-123758134D01*
X100791000Y-120661866D01*
X100784245Y-120599684D01*
X100733115Y-120463295D01*
X100645761Y-120346739D01*
X100576284Y-120294669D01*
X130952001Y-120294669D01*
X130952371Y-120301490D01*
X130957895Y-120352352D01*
X130961521Y-120367604D01*
X131006676Y-120488054D01*
X131015214Y-120503649D01*
X131091715Y-120605724D01*
X131104276Y-120618285D01*
X131206351Y-120694786D01*
X131221946Y-120703324D01*
X131342394Y-120748478D01*
X131357649Y-120752105D01*
X131408514Y-120757631D01*
X131415328Y-120758000D01*
X133727885Y-120758000D01*
X133743124Y-120753525D01*
X133744329Y-120752135D01*
X133746000Y-120744452D01*
X133746000Y-119772115D01*
X133741525Y-119756876D01*
X133740135Y-119755671D01*
X133732452Y-119754000D01*
X130970116Y-119754000D01*
X130954877Y-119758475D01*
X130953672Y-119759865D01*
X130952001Y-119767548D01*
X130952001Y-120294669D01*
X100576284Y-120294669D01*
X100529205Y-120259385D01*
X100392816Y-120208255D01*
X100330634Y-120201500D01*
X97234366Y-120201500D01*
X97172184Y-120208255D01*
X97035795Y-120259385D01*
X96919239Y-120346739D01*
X96831885Y-120463295D01*
X96780755Y-120599684D01*
X96774000Y-120661866D01*
X96774000Y-123758134D01*
X90508500Y-123758134D01*
X90508500Y-119227885D01*
X130952000Y-119227885D01*
X130956475Y-119243124D01*
X130957865Y-119244329D01*
X130965548Y-119246000D01*
X133727885Y-119246000D01*
X133743124Y-119241525D01*
X133744329Y-119240135D01*
X133746000Y-119232452D01*
X133746000Y-118260116D01*
X133741525Y-118244877D01*
X133740135Y-118243672D01*
X133732452Y-118242001D01*
X131415331Y-118242001D01*
X131408510Y-118242371D01*
X131357648Y-118247895D01*
X131342396Y-118251521D01*
X131221946Y-118296676D01*
X131206351Y-118305214D01*
X131104276Y-118381715D01*
X131091715Y-118394276D01*
X131015214Y-118496351D01*
X131006676Y-118511946D01*
X130961522Y-118632394D01*
X130957895Y-118647649D01*
X130952369Y-118698514D01*
X130952000Y-118705328D01*
X130952000Y-119227885D01*
X90508500Y-119227885D01*
X90508500Y-105469669D01*
X94642001Y-105469669D01*
X94642371Y-105476490D01*
X94647895Y-105527352D01*
X94651521Y-105542604D01*
X94696676Y-105663054D01*
X94705214Y-105678649D01*
X94781715Y-105780724D01*
X94794276Y-105793285D01*
X94896351Y-105869786D01*
X94911946Y-105878324D01*
X95032394Y-105923478D01*
X95047649Y-105927105D01*
X95098514Y-105932631D01*
X95105328Y-105933000D01*
X95727885Y-105933000D01*
X95743124Y-105928525D01*
X95744329Y-105927135D01*
X95746000Y-105919452D01*
X95746000Y-105914884D01*
X96254000Y-105914884D01*
X96258475Y-105930123D01*
X96259865Y-105931328D01*
X96267548Y-105932999D01*
X96894669Y-105932999D01*
X96901490Y-105932629D01*
X96952352Y-105927105D01*
X96967604Y-105923479D01*
X97088054Y-105878324D01*
X97103649Y-105869786D01*
X97205724Y-105793285D01*
X97218285Y-105780724D01*
X97294786Y-105678649D01*
X97303324Y-105663054D01*
X97344225Y-105553952D01*
X97386867Y-105497188D01*
X97453428Y-105472488D01*
X97522777Y-105487696D01*
X97557444Y-105515684D01*
X97582865Y-105545031D01*
X97582869Y-105545035D01*
X97586250Y-105548938D01*
X97758126Y-105691632D01*
X97951000Y-105804338D01*
X98159692Y-105884030D01*
X98164760Y-105885061D01*
X98164763Y-105885062D01*
X98272017Y-105906883D01*
X98378597Y-105928567D01*
X98383772Y-105928757D01*
X98383774Y-105928757D01*
X98596673Y-105936564D01*
X98596677Y-105936564D01*
X98601837Y-105936753D01*
X98606957Y-105936097D01*
X98606959Y-105936097D01*
X98818288Y-105909025D01*
X98818289Y-105909025D01*
X98823416Y-105908368D01*
X98828366Y-105906883D01*
X99032429Y-105845661D01*
X99032434Y-105845659D01*
X99037384Y-105844174D01*
X99237994Y-105745896D01*
X99419860Y-105616173D01*
X99578096Y-105458489D01*
X99708453Y-105277077D01*
X99807430Y-105076811D01*
X99872370Y-104863069D01*
X99901529Y-104641590D01*
X99903156Y-104575000D01*
X99884852Y-104352361D01*
X99830431Y-104135702D01*
X99741354Y-103930840D01*
X99620014Y-103743277D01*
X99469670Y-103578051D01*
X99465619Y-103574852D01*
X99465615Y-103574848D01*
X99298414Y-103442800D01*
X99298410Y-103442798D01*
X99294359Y-103439598D01*
X99098789Y-103331638D01*
X99093920Y-103329914D01*
X99093916Y-103329912D01*
X98893087Y-103258795D01*
X98893083Y-103258794D01*
X98888212Y-103257069D01*
X98883119Y-103256162D01*
X98883116Y-103256161D01*
X98673373Y-103218800D01*
X98673367Y-103218799D01*
X98668284Y-103217894D01*
X98594452Y-103216992D01*
X98450081Y-103215228D01*
X98450079Y-103215228D01*
X98444911Y-103215165D01*
X98224091Y-103248955D01*
X98011756Y-103318357D01*
X97813607Y-103421507D01*
X97809474Y-103424610D01*
X97809471Y-103424612D01*
X97726450Y-103486946D01*
X97634965Y-103555635D01*
X97631393Y-103559373D01*
X97553898Y-103640466D01*
X97492374Y-103675895D01*
X97421462Y-103672438D01*
X97363676Y-103631192D01*
X97344823Y-103597644D01*
X97303324Y-103486946D01*
X97294786Y-103471351D01*
X97218285Y-103369276D01*
X97205724Y-103356715D01*
X97103649Y-103280214D01*
X97088054Y-103271676D01*
X96967606Y-103226522D01*
X96952351Y-103222895D01*
X96901486Y-103217369D01*
X96894672Y-103217000D01*
X96272115Y-103217000D01*
X96256876Y-103221475D01*
X96255671Y-103222865D01*
X96254000Y-103230548D01*
X96254000Y-105914884D01*
X95746000Y-105914884D01*
X95746000Y-104847115D01*
X95741525Y-104831876D01*
X95740135Y-104830671D01*
X95732452Y-104829000D01*
X94660116Y-104829000D01*
X94644877Y-104833475D01*
X94643672Y-104834865D01*
X94642001Y-104842548D01*
X94642001Y-105469669D01*
X90508500Y-105469669D01*
X90508500Y-104302885D01*
X94642000Y-104302885D01*
X94646475Y-104318124D01*
X94647865Y-104319329D01*
X94655548Y-104321000D01*
X95727885Y-104321000D01*
X95743124Y-104316525D01*
X95744329Y-104315135D01*
X95746000Y-104307452D01*
X95746000Y-103235116D01*
X95741525Y-103219877D01*
X95740135Y-103218672D01*
X95732452Y-103217001D01*
X95105331Y-103217001D01*
X95098510Y-103217371D01*
X95047648Y-103222895D01*
X95032396Y-103226521D01*
X94911946Y-103271676D01*
X94896351Y-103280214D01*
X94794276Y-103356715D01*
X94781715Y-103369276D01*
X94705214Y-103471351D01*
X94696676Y-103486946D01*
X94651522Y-103607394D01*
X94647895Y-103622649D01*
X94642369Y-103673514D01*
X94642000Y-103680328D01*
X94642000Y-104302885D01*
X90508500Y-104302885D01*
X90508500Y-101594669D01*
X94642001Y-101594669D01*
X94642371Y-101601490D01*
X94647895Y-101652352D01*
X94651521Y-101667604D01*
X94696676Y-101788054D01*
X94705214Y-101803649D01*
X94781715Y-101905724D01*
X94794276Y-101918285D01*
X94896351Y-101994786D01*
X94911946Y-102003324D01*
X95032394Y-102048478D01*
X95047649Y-102052105D01*
X95098514Y-102057631D01*
X95105328Y-102058000D01*
X95727885Y-102058000D01*
X95743124Y-102053525D01*
X95744329Y-102052135D01*
X95746000Y-102044452D01*
X95746000Y-102039884D01*
X96254000Y-102039884D01*
X96258475Y-102055123D01*
X96259865Y-102056328D01*
X96267548Y-102057999D01*
X96894669Y-102057999D01*
X96901490Y-102057629D01*
X96952352Y-102052105D01*
X96967604Y-102048479D01*
X97088054Y-102003324D01*
X97103649Y-101994786D01*
X97205724Y-101918285D01*
X97218285Y-101905724D01*
X97294786Y-101803649D01*
X97303324Y-101788054D01*
X97344225Y-101678952D01*
X97386867Y-101622188D01*
X97453428Y-101597488D01*
X97522777Y-101612696D01*
X97557444Y-101640684D01*
X97582865Y-101670031D01*
X97582869Y-101670035D01*
X97586250Y-101673938D01*
X97758126Y-101816632D01*
X97951000Y-101929338D01*
X98159692Y-102009030D01*
X98164760Y-102010061D01*
X98164763Y-102010062D01*
X98272017Y-102031883D01*
X98378597Y-102053567D01*
X98383772Y-102053757D01*
X98383774Y-102053757D01*
X98596673Y-102061564D01*
X98596677Y-102061564D01*
X98601837Y-102061753D01*
X98606957Y-102061097D01*
X98606959Y-102061097D01*
X98818288Y-102034025D01*
X98818289Y-102034025D01*
X98823416Y-102033368D01*
X98828366Y-102031883D01*
X99032429Y-101970661D01*
X99032434Y-101970659D01*
X99037384Y-101969174D01*
X99237994Y-101870896D01*
X99419860Y-101741173D01*
X99578096Y-101583489D01*
X99708453Y-101402077D01*
X99807430Y-101201811D01*
X99872370Y-100988069D01*
X99901529Y-100766590D01*
X99903156Y-100700000D01*
X99884852Y-100477361D01*
X99830431Y-100260702D01*
X99741354Y-100055840D01*
X99620014Y-99868277D01*
X99469670Y-99703051D01*
X99465619Y-99699852D01*
X99465615Y-99699848D01*
X99298414Y-99567800D01*
X99298410Y-99567798D01*
X99294359Y-99564598D01*
X99098789Y-99456638D01*
X99093920Y-99454914D01*
X99093916Y-99454912D01*
X98893087Y-99383795D01*
X98893083Y-99383794D01*
X98888212Y-99382069D01*
X98883119Y-99381162D01*
X98883116Y-99381161D01*
X98673373Y-99343800D01*
X98673367Y-99343799D01*
X98668284Y-99342894D01*
X98594452Y-99341992D01*
X98450081Y-99340228D01*
X98450079Y-99340228D01*
X98444911Y-99340165D01*
X98224091Y-99373955D01*
X98011756Y-99443357D01*
X97813607Y-99546507D01*
X97809474Y-99549610D01*
X97809471Y-99549612D01*
X97726450Y-99611946D01*
X97634965Y-99680635D01*
X97631393Y-99684373D01*
X97553898Y-99765466D01*
X97492374Y-99800895D01*
X97421462Y-99797438D01*
X97363676Y-99756192D01*
X97344823Y-99722644D01*
X97303324Y-99611946D01*
X97294786Y-99596351D01*
X97218285Y-99494276D01*
X97205724Y-99481715D01*
X97103649Y-99405214D01*
X97088054Y-99396676D01*
X96967606Y-99351522D01*
X96952351Y-99347895D01*
X96901486Y-99342369D01*
X96894672Y-99342000D01*
X96272115Y-99342000D01*
X96256876Y-99346475D01*
X96255671Y-99347865D01*
X96254000Y-99355548D01*
X96254000Y-102039884D01*
X95746000Y-102039884D01*
X95746000Y-100972115D01*
X95741525Y-100956876D01*
X95740135Y-100955671D01*
X95732452Y-100954000D01*
X94660116Y-100954000D01*
X94644877Y-100958475D01*
X94643672Y-100959865D01*
X94642001Y-100967548D01*
X94642001Y-101594669D01*
X90508500Y-101594669D01*
X90508500Y-100427885D01*
X94642000Y-100427885D01*
X94646475Y-100443124D01*
X94647865Y-100444329D01*
X94655548Y-100446000D01*
X95727885Y-100446000D01*
X95743124Y-100441525D01*
X95744329Y-100440135D01*
X95746000Y-100432452D01*
X95746000Y-99360116D01*
X95741525Y-99344877D01*
X95740135Y-99343672D01*
X95732452Y-99342001D01*
X95105331Y-99342001D01*
X95098510Y-99342371D01*
X95047648Y-99347895D01*
X95032396Y-99351521D01*
X94911946Y-99396676D01*
X94896351Y-99405214D01*
X94794276Y-99481715D01*
X94781715Y-99494276D01*
X94705214Y-99596351D01*
X94696676Y-99611946D01*
X94651522Y-99732394D01*
X94647895Y-99747649D01*
X94642369Y-99798514D01*
X94642000Y-99805328D01*
X94642000Y-100427885D01*
X90508500Y-100427885D01*
X90508500Y-96259654D01*
X97185618Y-96259654D01*
X97192673Y-96269627D01*
X97223679Y-96295551D01*
X97230598Y-96300579D01*
X97455272Y-96441515D01*
X97462807Y-96445556D01*
X97704520Y-96554694D01*
X97712551Y-96557680D01*
X97966832Y-96633002D01*
X97975184Y-96634869D01*
X98237340Y-96674984D01*
X98245874Y-96675700D01*
X98511045Y-96679867D01*
X98519596Y-96679418D01*
X98782883Y-96647557D01*
X98791284Y-96645955D01*
X99047824Y-96578653D01*
X99055926Y-96575926D01*
X99300949Y-96474434D01*
X99308617Y-96470628D01*
X99537598Y-96336822D01*
X99544679Y-96332009D01*
X99624655Y-96269301D01*
X99633125Y-96257442D01*
X99626608Y-96245818D01*
X98422812Y-95042022D01*
X98408868Y-95034408D01*
X98407035Y-95034539D01*
X98400420Y-95038790D01*
X97192910Y-96246300D01*
X97185618Y-96259654D01*
X90508500Y-96259654D01*
X90508500Y-94653204D01*
X96397665Y-94653204D01*
X96412932Y-94917969D01*
X96414005Y-94926470D01*
X96465065Y-95186722D01*
X96467276Y-95194974D01*
X96553184Y-95445894D01*
X96556499Y-95453779D01*
X96675664Y-95690713D01*
X96680020Y-95698079D01*
X96809347Y-95886250D01*
X96819601Y-95894594D01*
X96833342Y-95887448D01*
X98037978Y-94682812D01*
X98044356Y-94671132D01*
X98774408Y-94671132D01*
X98774539Y-94672965D01*
X98778790Y-94679580D01*
X99985730Y-95886520D01*
X99997939Y-95893187D01*
X100009439Y-95884497D01*
X100106831Y-95751913D01*
X100111418Y-95744685D01*
X100237962Y-95511621D01*
X100241530Y-95503827D01*
X100335271Y-95255750D01*
X100337748Y-95247544D01*
X100384213Y-95044669D01*
X130589501Y-95044669D01*
X130589871Y-95051490D01*
X130595395Y-95102352D01*
X130599021Y-95117604D01*
X130644176Y-95238054D01*
X130652714Y-95253649D01*
X130729215Y-95355724D01*
X130741776Y-95368285D01*
X130843851Y-95444786D01*
X130859446Y-95453324D01*
X130979894Y-95498478D01*
X130995149Y-95502105D01*
X131046014Y-95507631D01*
X131052828Y-95508000D01*
X133365385Y-95508000D01*
X133380624Y-95503525D01*
X133381829Y-95502135D01*
X133383500Y-95494452D01*
X133383500Y-94522115D01*
X133379025Y-94506876D01*
X133377635Y-94505671D01*
X133369952Y-94504000D01*
X130607616Y-94504000D01*
X130592377Y-94508475D01*
X130591172Y-94509865D01*
X130589501Y-94517548D01*
X130589501Y-95044669D01*
X100384213Y-95044669D01*
X100396954Y-94989038D01*
X100398294Y-94980577D01*
X100422031Y-94714616D01*
X100422277Y-94709677D01*
X100422666Y-94672485D01*
X100422523Y-94667519D01*
X100404362Y-94401123D01*
X100403201Y-94392649D01*
X100349419Y-94132944D01*
X100347120Y-94124709D01*
X100258588Y-93874705D01*
X100255191Y-93866854D01*
X100133550Y-93631178D01*
X100129122Y-93623866D01*
X100112349Y-93600000D01*
X107956807Y-93600000D01*
X107975542Y-93814142D01*
X107976966Y-93819455D01*
X107976966Y-93819457D01*
X108018924Y-93976043D01*
X108031178Y-94021777D01*
X108122024Y-94216596D01*
X108245319Y-94392681D01*
X108397319Y-94544681D01*
X108573403Y-94667976D01*
X108578381Y-94670297D01*
X108578384Y-94670299D01*
X108763241Y-94756499D01*
X108768223Y-94758822D01*
X108773531Y-94760244D01*
X108773533Y-94760245D01*
X108970543Y-94813034D01*
X108970545Y-94813034D01*
X108975858Y-94814458D01*
X109190000Y-94833193D01*
X109404142Y-94814458D01*
X109409455Y-94813034D01*
X109409457Y-94813034D01*
X109606467Y-94760245D01*
X109606469Y-94760244D01*
X109611777Y-94758822D01*
X109616759Y-94756499D01*
X109801616Y-94670299D01*
X109801619Y-94670297D01*
X109806597Y-94667976D01*
X109982681Y-94544681D01*
X110134681Y-94392681D01*
X110257976Y-94216596D01*
X110345805Y-94028247D01*
X110392723Y-93974962D01*
X110461000Y-93955501D01*
X110528960Y-93976043D01*
X110574195Y-94028247D01*
X110662024Y-94216596D01*
X110785319Y-94392681D01*
X110937319Y-94544681D01*
X111113403Y-94667976D01*
X111118381Y-94670297D01*
X111118384Y-94670299D01*
X111303241Y-94756499D01*
X111308223Y-94758822D01*
X111313531Y-94760244D01*
X111313533Y-94760245D01*
X111510543Y-94813034D01*
X111510545Y-94813034D01*
X111515858Y-94814458D01*
X111730000Y-94833193D01*
X111944142Y-94814458D01*
X111949455Y-94813034D01*
X111949457Y-94813034D01*
X112146467Y-94760245D01*
X112146469Y-94760244D01*
X112151777Y-94758822D01*
X112156759Y-94756499D01*
X112341616Y-94670299D01*
X112341619Y-94670297D01*
X112346597Y-94667976D01*
X112522681Y-94544681D01*
X112674681Y-94392681D01*
X112797976Y-94216596D01*
X112885805Y-94028247D01*
X112932723Y-93974962D01*
X113001000Y-93955501D01*
X113068960Y-93976043D01*
X113114195Y-94028247D01*
X113202024Y-94216596D01*
X113325319Y-94392681D01*
X113477319Y-94544681D01*
X113653403Y-94667976D01*
X113658381Y-94670297D01*
X113658384Y-94670299D01*
X113843241Y-94756499D01*
X113848223Y-94758822D01*
X113853531Y-94760244D01*
X113853533Y-94760245D01*
X114050543Y-94813034D01*
X114050545Y-94813034D01*
X114055858Y-94814458D01*
X114270000Y-94833193D01*
X114484142Y-94814458D01*
X114489455Y-94813034D01*
X114489457Y-94813034D01*
X114686467Y-94760245D01*
X114686469Y-94760244D01*
X114691777Y-94758822D01*
X114696759Y-94756499D01*
X114881616Y-94670299D01*
X114881619Y-94670297D01*
X114886597Y-94667976D01*
X115062681Y-94544681D01*
X115214681Y-94392681D01*
X115337976Y-94216596D01*
X115428822Y-94021777D01*
X115440583Y-93977885D01*
X130589500Y-93977885D01*
X130593975Y-93993124D01*
X130595365Y-93994329D01*
X130603048Y-93996000D01*
X133365385Y-93996000D01*
X133380624Y-93991525D01*
X133381829Y-93990135D01*
X133383500Y-93982452D01*
X133383500Y-93010116D01*
X133379025Y-92994877D01*
X133377635Y-92993672D01*
X133369952Y-92992001D01*
X131052831Y-92992001D01*
X131046010Y-92992371D01*
X130995148Y-92997895D01*
X130979896Y-93001521D01*
X130859446Y-93046676D01*
X130843851Y-93055214D01*
X130741776Y-93131715D01*
X130729215Y-93144276D01*
X130652714Y-93246351D01*
X130644176Y-93261946D01*
X130599022Y-93382394D01*
X130595395Y-93397649D01*
X130589869Y-93448514D01*
X130589500Y-93455328D01*
X130589500Y-93977885D01*
X115440583Y-93977885D01*
X115441077Y-93976043D01*
X115483034Y-93819457D01*
X115483034Y-93819455D01*
X115484458Y-93814142D01*
X115503193Y-93600000D01*
X115484458Y-93385858D01*
X115441366Y-93225038D01*
X115430245Y-93183533D01*
X115430244Y-93183531D01*
X115428822Y-93178223D01*
X115389441Y-93093770D01*
X115340299Y-92988385D01*
X115340297Y-92988382D01*
X115337976Y-92983404D01*
X115214681Y-92807319D01*
X115062681Y-92655319D01*
X114886597Y-92532024D01*
X114881619Y-92529703D01*
X114881616Y-92529701D01*
X114696759Y-92443501D01*
X114696758Y-92443500D01*
X114691777Y-92441178D01*
X114686469Y-92439756D01*
X114686467Y-92439755D01*
X114489457Y-92386966D01*
X114489455Y-92386966D01*
X114484142Y-92385542D01*
X114270000Y-92366807D01*
X114055858Y-92385542D01*
X114050545Y-92386966D01*
X114050543Y-92386966D01*
X113853533Y-92439755D01*
X113853531Y-92439756D01*
X113848223Y-92441178D01*
X113843243Y-92443500D01*
X113843241Y-92443501D01*
X113658385Y-92529701D01*
X113658382Y-92529703D01*
X113653404Y-92532024D01*
X113477319Y-92655319D01*
X113325319Y-92807319D01*
X113202024Y-92983404D01*
X113199703Y-92988382D01*
X113199701Y-92988385D01*
X113114195Y-93171753D01*
X113067277Y-93225038D01*
X112999000Y-93244499D01*
X112931040Y-93223957D01*
X112885805Y-93171753D01*
X112800299Y-92988385D01*
X112800297Y-92988382D01*
X112797976Y-92983404D01*
X112674681Y-92807319D01*
X112522681Y-92655319D01*
X112346597Y-92532024D01*
X112341619Y-92529703D01*
X112341616Y-92529701D01*
X112156759Y-92443501D01*
X112156758Y-92443500D01*
X112151777Y-92441178D01*
X112146469Y-92439756D01*
X112146467Y-92439755D01*
X111949457Y-92386966D01*
X111949455Y-92386966D01*
X111944142Y-92385542D01*
X111730000Y-92366807D01*
X111515858Y-92385542D01*
X111510545Y-92386966D01*
X111510543Y-92386966D01*
X111313533Y-92439755D01*
X111313531Y-92439756D01*
X111308223Y-92441178D01*
X111303243Y-92443500D01*
X111303241Y-92443501D01*
X111118385Y-92529701D01*
X111118382Y-92529703D01*
X111113404Y-92532024D01*
X110937319Y-92655319D01*
X110785319Y-92807319D01*
X110662024Y-92983404D01*
X110659703Y-92988382D01*
X110659701Y-92988385D01*
X110574195Y-93171753D01*
X110527277Y-93225038D01*
X110459000Y-93244499D01*
X110391040Y-93223957D01*
X110345805Y-93171753D01*
X110260299Y-92988385D01*
X110260297Y-92988382D01*
X110257976Y-92983404D01*
X110134681Y-92807319D01*
X109982681Y-92655319D01*
X109806597Y-92532024D01*
X109801619Y-92529703D01*
X109801616Y-92529701D01*
X109616759Y-92443501D01*
X109616758Y-92443500D01*
X109611777Y-92441178D01*
X109606469Y-92439756D01*
X109606467Y-92439755D01*
X109409457Y-92386966D01*
X109409455Y-92386966D01*
X109404142Y-92385542D01*
X109190000Y-92366807D01*
X108975858Y-92385542D01*
X108970545Y-92386966D01*
X108970543Y-92386966D01*
X108773533Y-92439755D01*
X108773531Y-92439756D01*
X108768223Y-92441178D01*
X108763243Y-92443500D01*
X108763241Y-92443501D01*
X108578385Y-92529701D01*
X108578382Y-92529703D01*
X108573404Y-92532024D01*
X108397319Y-92655319D01*
X108245319Y-92807319D01*
X108122024Y-92983404D01*
X108119703Y-92988382D01*
X108119701Y-92988385D01*
X108070559Y-93093770D01*
X108031178Y-93178223D01*
X108029756Y-93183531D01*
X108029755Y-93183533D01*
X108018634Y-93225038D01*
X107975542Y-93385858D01*
X107956807Y-93600000D01*
X100112349Y-93600000D01*
X100010031Y-93454417D01*
X99999509Y-93446037D01*
X99986121Y-93453089D01*
X98782022Y-94657188D01*
X98774408Y-94671132D01*
X98044356Y-94671132D01*
X98045592Y-94668868D01*
X98045461Y-94667035D01*
X98041210Y-94660420D01*
X96833814Y-93453024D01*
X96821804Y-93446466D01*
X96810064Y-93455434D01*
X96701935Y-93605911D01*
X96697418Y-93613196D01*
X96573325Y-93847567D01*
X96569839Y-93855395D01*
X96478700Y-94104446D01*
X96476311Y-94112670D01*
X96419812Y-94371795D01*
X96418563Y-94380250D01*
X96397754Y-94644653D01*
X96397665Y-94653204D01*
X90508500Y-94653204D01*
X90508500Y-93082500D01*
X97186584Y-93082500D01*
X97192980Y-93093770D01*
X98397188Y-94297978D01*
X98411132Y-94305592D01*
X98412965Y-94305461D01*
X98419580Y-94301210D01*
X99626604Y-93094186D01*
X99633795Y-93081017D01*
X99626473Y-93070780D01*
X99579233Y-93032115D01*
X99572261Y-93027160D01*
X99346122Y-92888582D01*
X99338552Y-92884624D01*
X99095704Y-92778022D01*
X99087644Y-92775120D01*
X98832592Y-92702467D01*
X98824214Y-92700685D01*
X98561656Y-92663318D01*
X98553111Y-92662691D01*
X98287908Y-92661302D01*
X98279374Y-92661839D01*
X98016433Y-92696456D01*
X98008035Y-92698149D01*
X97752238Y-92768127D01*
X97744143Y-92770946D01*
X97500199Y-92874997D01*
X97492577Y-92878881D01*
X97265013Y-93015075D01*
X97257981Y-93019962D01*
X97195053Y-93070377D01*
X97186584Y-93082500D01*
X90508500Y-93082500D01*
X90508500Y-91138134D01*
X96401500Y-91138134D01*
X96408255Y-91200316D01*
X96459385Y-91336705D01*
X96546739Y-91453261D01*
X96663295Y-91540615D01*
X96799684Y-91591745D01*
X96861866Y-91598500D01*
X99958134Y-91598500D01*
X100020316Y-91591745D01*
X100156705Y-91540615D01*
X100273261Y-91453261D01*
X100360615Y-91336705D01*
X100411745Y-91200316D01*
X100418500Y-91138134D01*
X100418500Y-88041866D01*
X100411745Y-87979684D01*
X100360615Y-87843295D01*
X100273261Y-87726739D01*
X100156705Y-87639385D01*
X100020316Y-87588255D01*
X99958134Y-87581500D01*
X96861866Y-87581500D01*
X96799684Y-87588255D01*
X96663295Y-87639385D01*
X96546739Y-87726739D01*
X96459385Y-87843295D01*
X96408255Y-87979684D01*
X96401500Y-88041866D01*
X96401500Y-91138134D01*
X90508500Y-91138134D01*
X90508500Y-86544669D01*
X130589501Y-86544669D01*
X130589871Y-86551490D01*
X130595395Y-86602352D01*
X130599021Y-86617604D01*
X130644176Y-86738054D01*
X130652714Y-86753649D01*
X130729215Y-86855724D01*
X130741776Y-86868285D01*
X130843851Y-86944786D01*
X130859446Y-86953324D01*
X130979894Y-86998478D01*
X130995149Y-87002105D01*
X131046014Y-87007631D01*
X131052828Y-87008000D01*
X133365385Y-87008000D01*
X133380624Y-87003525D01*
X133381829Y-87002135D01*
X133383500Y-86994452D01*
X133383500Y-86022115D01*
X133379025Y-86006876D01*
X133377635Y-86005671D01*
X133369952Y-86004000D01*
X130607616Y-86004000D01*
X130592377Y-86008475D01*
X130591172Y-86009865D01*
X130589501Y-86017548D01*
X130589501Y-86544669D01*
X90508500Y-86544669D01*
X90508500Y-85477885D01*
X130589500Y-85477885D01*
X130593975Y-85493124D01*
X130595365Y-85494329D01*
X130603048Y-85496000D01*
X133365385Y-85496000D01*
X133380624Y-85491525D01*
X133381829Y-85490135D01*
X133383500Y-85482452D01*
X133383500Y-84510116D01*
X133379025Y-84494877D01*
X133377635Y-84493672D01*
X133369952Y-84492001D01*
X131052831Y-84492001D01*
X131046010Y-84492371D01*
X130995148Y-84497895D01*
X130979896Y-84501521D01*
X130859446Y-84546676D01*
X130843851Y-84555214D01*
X130741776Y-84631715D01*
X130729215Y-84644276D01*
X130652714Y-84746351D01*
X130644176Y-84761946D01*
X130599022Y-84882394D01*
X130595395Y-84897649D01*
X130589869Y-84948514D01*
X130589500Y-84955328D01*
X130589500Y-85477885D01*
X90508500Y-85477885D01*
X90508500Y-71506669D01*
X94146001Y-71506669D01*
X94146371Y-71513490D01*
X94151895Y-71564352D01*
X94155521Y-71579604D01*
X94200676Y-71700054D01*
X94209214Y-71715649D01*
X94285715Y-71817724D01*
X94298276Y-71830285D01*
X94400351Y-71906786D01*
X94415946Y-71915324D01*
X94536394Y-71960478D01*
X94551649Y-71964105D01*
X94602514Y-71969631D01*
X94609328Y-71970000D01*
X95231885Y-71970000D01*
X95247124Y-71965525D01*
X95248329Y-71964135D01*
X95250000Y-71956452D01*
X95250000Y-71951884D01*
X95758000Y-71951884D01*
X95762475Y-71967123D01*
X95763865Y-71968328D01*
X95771548Y-71969999D01*
X96398669Y-71969999D01*
X96405490Y-71969629D01*
X96456352Y-71964105D01*
X96471604Y-71960479D01*
X96592054Y-71915324D01*
X96607649Y-71906786D01*
X96709724Y-71830285D01*
X96722285Y-71817724D01*
X96798786Y-71715649D01*
X96807324Y-71700054D01*
X96848225Y-71590952D01*
X96890867Y-71534188D01*
X96957428Y-71509488D01*
X97026777Y-71524696D01*
X97061444Y-71552684D01*
X97086865Y-71582031D01*
X97086869Y-71582035D01*
X97090250Y-71585938D01*
X97262126Y-71728632D01*
X97455000Y-71841338D01*
X97663692Y-71921030D01*
X97668760Y-71922061D01*
X97668763Y-71922062D01*
X97776017Y-71943883D01*
X97882597Y-71965567D01*
X97887772Y-71965757D01*
X97887774Y-71965757D01*
X98100673Y-71973564D01*
X98100677Y-71973564D01*
X98105837Y-71973753D01*
X98110957Y-71973097D01*
X98110959Y-71973097D01*
X98322288Y-71946025D01*
X98322289Y-71946025D01*
X98327416Y-71945368D01*
X98332366Y-71943883D01*
X98536429Y-71882661D01*
X98536434Y-71882659D01*
X98541384Y-71881174D01*
X98741994Y-71782896D01*
X98923860Y-71653173D01*
X99082096Y-71495489D01*
X99212453Y-71314077D01*
X99311430Y-71113811D01*
X99376370Y-70900069D01*
X99405529Y-70678590D01*
X99407156Y-70612000D01*
X99388852Y-70389361D01*
X99334431Y-70172702D01*
X99245354Y-69967840D01*
X99124014Y-69780277D01*
X98973670Y-69615051D01*
X98969619Y-69611852D01*
X98969615Y-69611848D01*
X98802414Y-69479800D01*
X98802410Y-69479798D01*
X98798359Y-69476598D01*
X98602789Y-69368638D01*
X98597920Y-69366914D01*
X98597916Y-69366912D01*
X98397087Y-69295795D01*
X98397083Y-69295794D01*
X98392212Y-69294069D01*
X98387119Y-69293162D01*
X98387116Y-69293161D01*
X98177373Y-69255800D01*
X98177367Y-69255799D01*
X98172284Y-69254894D01*
X98098452Y-69253992D01*
X97954081Y-69252228D01*
X97954079Y-69252228D01*
X97948911Y-69252165D01*
X97728091Y-69285955D01*
X97515756Y-69355357D01*
X97317607Y-69458507D01*
X97313474Y-69461610D01*
X97313471Y-69461612D01*
X97230450Y-69523946D01*
X97138965Y-69592635D01*
X97135393Y-69596373D01*
X97057898Y-69677466D01*
X96996374Y-69712895D01*
X96925462Y-69709438D01*
X96867676Y-69668192D01*
X96848823Y-69634644D01*
X96807324Y-69523946D01*
X96798786Y-69508351D01*
X96722285Y-69406276D01*
X96709724Y-69393715D01*
X96607649Y-69317214D01*
X96592054Y-69308676D01*
X96471606Y-69263522D01*
X96456351Y-69259895D01*
X96405486Y-69254369D01*
X96398672Y-69254000D01*
X95776115Y-69254000D01*
X95760876Y-69258475D01*
X95759671Y-69259865D01*
X95758000Y-69267548D01*
X95758000Y-71951884D01*
X95250000Y-71951884D01*
X95250000Y-70884115D01*
X95245525Y-70868876D01*
X95244135Y-70867671D01*
X95236452Y-70866000D01*
X94164116Y-70866000D01*
X94148877Y-70870475D01*
X94147672Y-70871865D01*
X94146001Y-70879548D01*
X94146001Y-71506669D01*
X90508500Y-71506669D01*
X90508500Y-70339885D01*
X94146000Y-70339885D01*
X94150475Y-70355124D01*
X94151865Y-70356329D01*
X94159548Y-70358000D01*
X95231885Y-70358000D01*
X95247124Y-70353525D01*
X95248329Y-70352135D01*
X95250000Y-70344452D01*
X95250000Y-69272116D01*
X95245525Y-69256877D01*
X95244135Y-69255672D01*
X95236452Y-69254001D01*
X94609331Y-69254001D01*
X94602510Y-69254371D01*
X94551648Y-69259895D01*
X94536396Y-69263521D01*
X94415946Y-69308676D01*
X94400351Y-69317214D01*
X94298276Y-69393715D01*
X94285715Y-69406276D01*
X94209214Y-69508351D01*
X94200676Y-69523946D01*
X94155522Y-69644394D01*
X94151895Y-69659649D01*
X94146369Y-69710514D01*
X94146000Y-69717328D01*
X94146000Y-70339885D01*
X90508500Y-70339885D01*
X90508500Y-67696669D01*
X94146001Y-67696669D01*
X94146371Y-67703490D01*
X94151895Y-67754352D01*
X94155521Y-67769604D01*
X94200676Y-67890054D01*
X94209214Y-67905649D01*
X94285715Y-68007724D01*
X94298276Y-68020285D01*
X94400351Y-68096786D01*
X94415946Y-68105324D01*
X94536394Y-68150478D01*
X94551649Y-68154105D01*
X94602514Y-68159631D01*
X94609328Y-68160000D01*
X95231885Y-68160000D01*
X95247124Y-68155525D01*
X95248329Y-68154135D01*
X95250000Y-68146452D01*
X95250000Y-68141884D01*
X95758000Y-68141884D01*
X95762475Y-68157123D01*
X95763865Y-68158328D01*
X95771548Y-68159999D01*
X96398669Y-68159999D01*
X96405490Y-68159629D01*
X96456352Y-68154105D01*
X96471604Y-68150479D01*
X96592054Y-68105324D01*
X96607649Y-68096786D01*
X96709724Y-68020285D01*
X96722285Y-68007724D01*
X96798786Y-67905649D01*
X96807324Y-67890054D01*
X96848225Y-67780952D01*
X96890867Y-67724188D01*
X96957428Y-67699488D01*
X97026777Y-67714696D01*
X97061444Y-67742684D01*
X97086865Y-67772031D01*
X97086869Y-67772035D01*
X97090250Y-67775938D01*
X97262126Y-67918632D01*
X97455000Y-68031338D01*
X97663692Y-68111030D01*
X97668760Y-68112061D01*
X97668763Y-68112062D01*
X97776017Y-68133883D01*
X97882597Y-68155567D01*
X97887772Y-68155757D01*
X97887774Y-68155757D01*
X98100673Y-68163564D01*
X98100677Y-68163564D01*
X98105837Y-68163753D01*
X98110957Y-68163097D01*
X98110959Y-68163097D01*
X98322288Y-68136025D01*
X98322289Y-68136025D01*
X98327416Y-68135368D01*
X98332366Y-68133883D01*
X98536429Y-68072661D01*
X98536434Y-68072659D01*
X98541384Y-68071174D01*
X98741994Y-67972896D01*
X98923860Y-67843173D01*
X99082096Y-67685489D01*
X99212453Y-67504077D01*
X99311430Y-67303811D01*
X99376370Y-67090069D01*
X99405529Y-66868590D01*
X99407156Y-66802000D01*
X99388852Y-66579361D01*
X99334431Y-66362702D01*
X99245354Y-66157840D01*
X99124014Y-65970277D01*
X98973670Y-65805051D01*
X98969619Y-65801852D01*
X98969615Y-65801848D01*
X98802414Y-65669800D01*
X98802410Y-65669798D01*
X98798359Y-65666598D01*
X98602789Y-65558638D01*
X98597920Y-65556914D01*
X98597916Y-65556912D01*
X98397087Y-65485795D01*
X98397083Y-65485794D01*
X98392212Y-65484069D01*
X98387119Y-65483162D01*
X98387116Y-65483161D01*
X98177373Y-65445800D01*
X98177367Y-65445799D01*
X98172284Y-65444894D01*
X98098452Y-65443992D01*
X97954081Y-65442228D01*
X97954079Y-65442228D01*
X97948911Y-65442165D01*
X97728091Y-65475955D01*
X97515756Y-65545357D01*
X97317607Y-65648507D01*
X97313474Y-65651610D01*
X97313471Y-65651612D01*
X97230450Y-65713946D01*
X97138965Y-65782635D01*
X97135393Y-65786373D01*
X97057898Y-65867466D01*
X96996374Y-65902895D01*
X96925462Y-65899438D01*
X96867676Y-65858192D01*
X96848823Y-65824644D01*
X96807324Y-65713946D01*
X96798786Y-65698351D01*
X96722285Y-65596276D01*
X96709724Y-65583715D01*
X96607649Y-65507214D01*
X96592054Y-65498676D01*
X96471606Y-65453522D01*
X96456351Y-65449895D01*
X96405486Y-65444369D01*
X96398672Y-65444000D01*
X95776115Y-65444000D01*
X95760876Y-65448475D01*
X95759671Y-65449865D01*
X95758000Y-65457548D01*
X95758000Y-68141884D01*
X95250000Y-68141884D01*
X95250000Y-67074115D01*
X95245525Y-67058876D01*
X95244135Y-67057671D01*
X95236452Y-67056000D01*
X94164116Y-67056000D01*
X94148877Y-67060475D01*
X94147672Y-67061865D01*
X94146001Y-67069548D01*
X94146001Y-67696669D01*
X90508500Y-67696669D01*
X90508500Y-66529885D01*
X94146000Y-66529885D01*
X94150475Y-66545124D01*
X94151865Y-66546329D01*
X94159548Y-66548000D01*
X95231885Y-66548000D01*
X95247124Y-66543525D01*
X95248329Y-66542135D01*
X95250000Y-66534452D01*
X95250000Y-65462116D01*
X95245525Y-65446877D01*
X95244135Y-65445672D01*
X95236452Y-65444001D01*
X94609331Y-65444001D01*
X94602510Y-65444371D01*
X94551648Y-65449895D01*
X94536396Y-65453521D01*
X94415946Y-65498676D01*
X94400351Y-65507214D01*
X94298276Y-65583715D01*
X94285715Y-65596276D01*
X94209214Y-65698351D01*
X94200676Y-65713946D01*
X94155522Y-65834394D01*
X94151895Y-65849649D01*
X94146369Y-65900514D01*
X94146000Y-65907328D01*
X94146000Y-66529885D01*
X90508500Y-66529885D01*
X90508500Y-63449654D01*
X97775618Y-63449654D01*
X97782673Y-63459627D01*
X97813679Y-63485551D01*
X97820598Y-63490579D01*
X98045272Y-63631515D01*
X98052807Y-63635556D01*
X98294520Y-63744694D01*
X98302551Y-63747680D01*
X98556832Y-63823002D01*
X98565184Y-63824869D01*
X98827340Y-63864984D01*
X98835874Y-63865700D01*
X99101045Y-63869867D01*
X99109596Y-63869418D01*
X99372883Y-63837557D01*
X99381284Y-63835955D01*
X99637824Y-63768653D01*
X99645926Y-63765926D01*
X99890949Y-63664434D01*
X99898617Y-63660628D01*
X100127598Y-63526822D01*
X100134679Y-63522009D01*
X100214655Y-63459301D01*
X100223125Y-63447442D01*
X100216608Y-63435818D01*
X99985459Y-63204669D01*
X131242001Y-63204669D01*
X131242371Y-63211490D01*
X131247895Y-63262352D01*
X131251521Y-63277604D01*
X131296676Y-63398054D01*
X131305214Y-63413649D01*
X131381715Y-63515724D01*
X131394276Y-63528285D01*
X131496351Y-63604786D01*
X131511946Y-63613324D01*
X131632394Y-63658478D01*
X131647649Y-63662105D01*
X131698514Y-63667631D01*
X131705328Y-63668000D01*
X134017885Y-63668000D01*
X134033124Y-63663525D01*
X134034329Y-63662135D01*
X134036000Y-63654452D01*
X134036000Y-62682115D01*
X134031525Y-62666876D01*
X134030135Y-62665671D01*
X134022452Y-62664000D01*
X131260116Y-62664000D01*
X131244877Y-62668475D01*
X131243672Y-62669865D01*
X131242001Y-62677548D01*
X131242001Y-63204669D01*
X99985459Y-63204669D01*
X99012812Y-62232022D01*
X98998868Y-62224408D01*
X98997035Y-62224539D01*
X98990420Y-62228790D01*
X97782910Y-63436300D01*
X97775618Y-63449654D01*
X90508500Y-63449654D01*
X90508500Y-61843204D01*
X96987665Y-61843204D01*
X97002932Y-62107969D01*
X97004005Y-62116470D01*
X97055065Y-62376722D01*
X97057276Y-62384974D01*
X97143184Y-62635894D01*
X97146499Y-62643779D01*
X97265664Y-62880713D01*
X97270020Y-62888079D01*
X97399347Y-63076250D01*
X97409601Y-63084594D01*
X97423342Y-63077448D01*
X98627978Y-61872812D01*
X98634356Y-61861132D01*
X99364408Y-61861132D01*
X99364539Y-61862965D01*
X99368790Y-61869580D01*
X100575730Y-63076520D01*
X100587939Y-63083187D01*
X100599439Y-63074497D01*
X100696831Y-62941913D01*
X100701418Y-62934685D01*
X100827962Y-62701621D01*
X100831530Y-62693827D01*
X100925271Y-62445750D01*
X100927748Y-62437544D01*
X100986954Y-62179038D01*
X100988294Y-62170577D01*
X101012031Y-61904616D01*
X101012277Y-61899677D01*
X101012666Y-61862485D01*
X101012523Y-61857519D01*
X101008602Y-61800000D01*
X108456807Y-61800000D01*
X108475542Y-62014142D01*
X108476966Y-62019455D01*
X108476966Y-62019457D01*
X108518924Y-62176043D01*
X108531178Y-62221777D01*
X108622024Y-62416596D01*
X108745319Y-62592681D01*
X108897319Y-62744681D01*
X109073403Y-62867976D01*
X109078381Y-62870297D01*
X109078384Y-62870299D01*
X109263241Y-62956499D01*
X109268223Y-62958822D01*
X109273531Y-62960244D01*
X109273533Y-62960245D01*
X109470543Y-63013034D01*
X109470545Y-63013034D01*
X109475858Y-63014458D01*
X109690000Y-63033193D01*
X109904142Y-63014458D01*
X109909455Y-63013034D01*
X109909457Y-63013034D01*
X110106467Y-62960245D01*
X110106469Y-62960244D01*
X110111777Y-62958822D01*
X110116759Y-62956499D01*
X110301616Y-62870299D01*
X110301619Y-62870297D01*
X110306597Y-62867976D01*
X110482681Y-62744681D01*
X110634681Y-62592681D01*
X110757976Y-62416596D01*
X110845805Y-62228247D01*
X110892723Y-62174962D01*
X110961000Y-62155501D01*
X111028960Y-62176043D01*
X111074195Y-62228247D01*
X111162024Y-62416596D01*
X111285319Y-62592681D01*
X111437319Y-62744681D01*
X111613403Y-62867976D01*
X111618381Y-62870297D01*
X111618384Y-62870299D01*
X111803241Y-62956499D01*
X111808223Y-62958822D01*
X111813531Y-62960244D01*
X111813533Y-62960245D01*
X112010543Y-63013034D01*
X112010545Y-63013034D01*
X112015858Y-63014458D01*
X112230000Y-63033193D01*
X112444142Y-63014458D01*
X112449455Y-63013034D01*
X112449457Y-63013034D01*
X112646467Y-62960245D01*
X112646469Y-62960244D01*
X112651777Y-62958822D01*
X112656759Y-62956499D01*
X112841616Y-62870299D01*
X112841619Y-62870297D01*
X112846597Y-62867976D01*
X113022681Y-62744681D01*
X113174681Y-62592681D01*
X113297976Y-62416596D01*
X113385805Y-62228247D01*
X113432723Y-62174962D01*
X113501000Y-62155501D01*
X113568960Y-62176043D01*
X113614195Y-62228247D01*
X113702024Y-62416596D01*
X113825319Y-62592681D01*
X113977319Y-62744681D01*
X114153403Y-62867976D01*
X114158381Y-62870297D01*
X114158384Y-62870299D01*
X114343241Y-62956499D01*
X114348223Y-62958822D01*
X114353531Y-62960244D01*
X114353533Y-62960245D01*
X114550543Y-63013034D01*
X114550545Y-63013034D01*
X114555858Y-63014458D01*
X114770000Y-63033193D01*
X114984142Y-63014458D01*
X114989455Y-63013034D01*
X114989457Y-63013034D01*
X115186467Y-62960245D01*
X115186469Y-62960244D01*
X115191777Y-62958822D01*
X115196759Y-62956499D01*
X115381616Y-62870299D01*
X115381619Y-62870297D01*
X115386597Y-62867976D01*
X115562681Y-62744681D01*
X115714681Y-62592681D01*
X115837976Y-62416596D01*
X115928822Y-62221777D01*
X115941077Y-62176043D01*
X115951301Y-62137885D01*
X131242000Y-62137885D01*
X131246475Y-62153124D01*
X131247865Y-62154329D01*
X131255548Y-62156000D01*
X134017885Y-62156000D01*
X134033124Y-62151525D01*
X134034329Y-62150135D01*
X134036000Y-62142452D01*
X134036000Y-61170116D01*
X134031525Y-61154877D01*
X134030135Y-61153672D01*
X134022452Y-61152001D01*
X131705331Y-61152001D01*
X131698510Y-61152371D01*
X131647648Y-61157895D01*
X131632396Y-61161521D01*
X131511946Y-61206676D01*
X131496351Y-61215214D01*
X131394276Y-61291715D01*
X131381715Y-61304276D01*
X131305214Y-61406351D01*
X131296676Y-61421946D01*
X131251522Y-61542394D01*
X131247895Y-61557649D01*
X131242369Y-61608514D01*
X131242000Y-61615328D01*
X131242000Y-62137885D01*
X115951301Y-62137885D01*
X115983034Y-62019457D01*
X115983034Y-62019455D01*
X115984458Y-62014142D01*
X116003193Y-61800000D01*
X115984458Y-61585858D01*
X115978010Y-61561795D01*
X115930245Y-61383533D01*
X115930244Y-61383531D01*
X115928822Y-61378223D01*
X115889756Y-61294446D01*
X115840299Y-61188385D01*
X115840297Y-61188382D01*
X115837976Y-61183404D01*
X115714681Y-61007319D01*
X115562681Y-60855319D01*
X115386597Y-60732024D01*
X115381619Y-60729703D01*
X115381616Y-60729701D01*
X115196759Y-60643501D01*
X115196758Y-60643500D01*
X115191777Y-60641178D01*
X115186469Y-60639756D01*
X115186467Y-60639755D01*
X114989457Y-60586966D01*
X114989455Y-60586966D01*
X114984142Y-60585542D01*
X114770000Y-60566807D01*
X114555858Y-60585542D01*
X114550545Y-60586966D01*
X114550543Y-60586966D01*
X114353533Y-60639755D01*
X114353531Y-60639756D01*
X114348223Y-60641178D01*
X114343243Y-60643500D01*
X114343241Y-60643501D01*
X114158385Y-60729701D01*
X114158382Y-60729703D01*
X114153404Y-60732024D01*
X113977319Y-60855319D01*
X113825319Y-61007319D01*
X113702024Y-61183404D01*
X113699703Y-61188382D01*
X113699701Y-61188385D01*
X113614195Y-61371753D01*
X113567277Y-61425038D01*
X113499000Y-61444499D01*
X113431040Y-61423957D01*
X113385805Y-61371753D01*
X113300299Y-61188385D01*
X113300297Y-61188382D01*
X113297976Y-61183404D01*
X113174681Y-61007319D01*
X113022681Y-60855319D01*
X112846597Y-60732024D01*
X112841619Y-60729703D01*
X112841616Y-60729701D01*
X112656759Y-60643501D01*
X112656758Y-60643500D01*
X112651777Y-60641178D01*
X112646469Y-60639756D01*
X112646467Y-60639755D01*
X112449457Y-60586966D01*
X112449455Y-60586966D01*
X112444142Y-60585542D01*
X112230000Y-60566807D01*
X112015858Y-60585542D01*
X112010545Y-60586966D01*
X112010543Y-60586966D01*
X111813533Y-60639755D01*
X111813531Y-60639756D01*
X111808223Y-60641178D01*
X111803243Y-60643500D01*
X111803241Y-60643501D01*
X111618385Y-60729701D01*
X111618382Y-60729703D01*
X111613404Y-60732024D01*
X111437319Y-60855319D01*
X111285319Y-61007319D01*
X111162024Y-61183404D01*
X111159703Y-61188382D01*
X111159701Y-61188385D01*
X111074195Y-61371753D01*
X111027277Y-61425038D01*
X110959000Y-61444499D01*
X110891040Y-61423957D01*
X110845805Y-61371753D01*
X110760299Y-61188385D01*
X110760297Y-61188382D01*
X110757976Y-61183404D01*
X110634681Y-61007319D01*
X110482681Y-60855319D01*
X110306597Y-60732024D01*
X110301619Y-60729703D01*
X110301616Y-60729701D01*
X110116759Y-60643501D01*
X110116758Y-60643500D01*
X110111777Y-60641178D01*
X110106469Y-60639756D01*
X110106467Y-60639755D01*
X109909457Y-60586966D01*
X109909455Y-60586966D01*
X109904142Y-60585542D01*
X109690000Y-60566807D01*
X109475858Y-60585542D01*
X109470545Y-60586966D01*
X109470543Y-60586966D01*
X109273533Y-60639755D01*
X109273531Y-60639756D01*
X109268223Y-60641178D01*
X109263243Y-60643500D01*
X109263241Y-60643501D01*
X109078385Y-60729701D01*
X109078382Y-60729703D01*
X109073404Y-60732024D01*
X108897319Y-60855319D01*
X108745319Y-61007319D01*
X108622024Y-61183404D01*
X108619703Y-61188382D01*
X108619701Y-61188385D01*
X108570244Y-61294446D01*
X108531178Y-61378223D01*
X108529756Y-61383531D01*
X108529755Y-61383533D01*
X108481990Y-61561795D01*
X108475542Y-61585858D01*
X108456807Y-61800000D01*
X101008602Y-61800000D01*
X100994362Y-61591123D01*
X100993201Y-61582649D01*
X100939419Y-61322944D01*
X100937120Y-61314709D01*
X100848588Y-61064705D01*
X100845191Y-61056854D01*
X100723550Y-60821178D01*
X100719122Y-60813866D01*
X100600031Y-60644417D01*
X100589509Y-60636037D01*
X100576121Y-60643089D01*
X99372022Y-61847188D01*
X99364408Y-61861132D01*
X98634356Y-61861132D01*
X98635592Y-61858868D01*
X98635461Y-61857035D01*
X98631210Y-61850420D01*
X97423814Y-60643024D01*
X97411804Y-60636466D01*
X97400064Y-60645434D01*
X97291935Y-60795911D01*
X97287418Y-60803196D01*
X97163325Y-61037567D01*
X97159839Y-61045395D01*
X97068700Y-61294446D01*
X97066311Y-61302670D01*
X97009812Y-61561795D01*
X97008563Y-61570250D01*
X96987754Y-61834653D01*
X96987665Y-61843204D01*
X90508500Y-61843204D01*
X90508500Y-60272500D01*
X97776584Y-60272500D01*
X97782980Y-60283770D01*
X98987188Y-61487978D01*
X99001132Y-61495592D01*
X99002965Y-61495461D01*
X99009580Y-61491210D01*
X100216604Y-60284186D01*
X100223795Y-60271017D01*
X100216473Y-60260780D01*
X100169233Y-60222115D01*
X100162261Y-60217160D01*
X99936122Y-60078582D01*
X99928552Y-60074624D01*
X99685704Y-59968022D01*
X99677644Y-59965120D01*
X99422592Y-59892467D01*
X99414214Y-59890685D01*
X99151656Y-59853318D01*
X99143111Y-59852691D01*
X98877908Y-59851302D01*
X98869374Y-59851839D01*
X98606433Y-59886456D01*
X98598035Y-59888149D01*
X98342238Y-59958127D01*
X98334143Y-59960946D01*
X98090199Y-60064997D01*
X98082577Y-60068881D01*
X97855013Y-60205075D01*
X97847981Y-60209962D01*
X97785053Y-60260377D01*
X97776584Y-60272500D01*
X90508500Y-60272500D01*
X90508500Y-58328134D01*
X96991500Y-58328134D01*
X96998255Y-58390316D01*
X97049385Y-58526705D01*
X97136739Y-58643261D01*
X97253295Y-58730615D01*
X97389684Y-58781745D01*
X97451866Y-58788500D01*
X100548134Y-58788500D01*
X100610316Y-58781745D01*
X100746705Y-58730615D01*
X100863261Y-58643261D01*
X100950615Y-58526705D01*
X101001745Y-58390316D01*
X101008500Y-58328134D01*
X101008500Y-55231866D01*
X101001745Y-55169684D01*
X100950615Y-55033295D01*
X100863261Y-54916739D01*
X100746705Y-54829385D01*
X100610316Y-54778255D01*
X100548134Y-54771500D01*
X97451866Y-54771500D01*
X97389684Y-54778255D01*
X97253295Y-54829385D01*
X97136739Y-54916739D01*
X97049385Y-55033295D01*
X96998255Y-55169684D01*
X96991500Y-55231866D01*
X96991500Y-58328134D01*
X90508500Y-58328134D01*
X90508500Y-54704669D01*
X131242001Y-54704669D01*
X131242371Y-54711490D01*
X131247895Y-54762352D01*
X131251521Y-54777604D01*
X131296676Y-54898054D01*
X131305214Y-54913649D01*
X131381715Y-55015724D01*
X131394276Y-55028285D01*
X131496351Y-55104786D01*
X131511946Y-55113324D01*
X131632394Y-55158478D01*
X131647649Y-55162105D01*
X131698514Y-55167631D01*
X131705328Y-55168000D01*
X134017885Y-55168000D01*
X134033124Y-55163525D01*
X134034329Y-55162135D01*
X134036000Y-55154452D01*
X134036000Y-54182115D01*
X134031525Y-54166876D01*
X134030135Y-54165671D01*
X134022452Y-54164000D01*
X131260116Y-54164000D01*
X131244877Y-54168475D01*
X131243672Y-54169865D01*
X131242001Y-54177548D01*
X131242001Y-54704669D01*
X90508500Y-54704669D01*
X90508500Y-53637885D01*
X131242000Y-53637885D01*
X131246475Y-53653124D01*
X131247865Y-53654329D01*
X131255548Y-53656000D01*
X134017885Y-53656000D01*
X134033124Y-53651525D01*
X134034329Y-53650135D01*
X134036000Y-53642452D01*
X134036000Y-52670116D01*
X134031525Y-52654877D01*
X134030135Y-52653672D01*
X134022452Y-52652001D01*
X131705331Y-52652001D01*
X131698510Y-52652371D01*
X131647648Y-52657895D01*
X131632396Y-52661521D01*
X131511946Y-52706676D01*
X131496351Y-52715214D01*
X131394276Y-52791715D01*
X131381715Y-52804276D01*
X131305214Y-52906351D01*
X131296676Y-52921946D01*
X131251522Y-53042394D01*
X131247895Y-53057649D01*
X131242369Y-53108514D01*
X131242000Y-53115328D01*
X131242000Y-53637885D01*
X90508500Y-53637885D01*
X90508500Y-46634500D01*
X90528502Y-46566379D01*
X90582158Y-46519886D01*
X90634500Y-46508500D01*
X136365500Y-46508500D01*
X136433621Y-46528502D01*
G37*
%TD.AperFunction*%
%TD*%
M02*
