%TF.GenerationSoftware,KiCad,Pcbnew,(6.0.11)*%
%TF.CreationDate,2023-07-10T20:07:27-05:00*%
%TF.ProjectId,SchottkyNoiseSource,5363686f-7474-46b7-994e-6f697365536f,rev?*%
%TF.SameCoordinates,Original*%
%TF.FileFunction,Soldermask,Top*%
%TF.FilePolarity,Negative*%
%FSLAX46Y46*%
G04 Gerber Fmt 4.6, Leading zero omitted, Abs format (unit mm)*
G04 Created by KiCad (PCBNEW (6.0.11)) date 2023-07-10 20:07:27*
%MOMM*%
%LPD*%
G01*
G04 APERTURE LIST*
G04 Aperture macros list*
%AMRoundRect*
0 Rectangle with rounded corners*
0 $1 Rounding radius*
0 $2 $3 $4 $5 $6 $7 $8 $9 X,Y pos of 4 corners*
0 Add a 4 corners polygon primitive as box body*
4,1,4,$2,$3,$4,$5,$6,$7,$8,$9,$2,$3,0*
0 Add four circle primitives for the rounded corners*
1,1,$1+$1,$2,$3*
1,1,$1+$1,$4,$5*
1,1,$1+$1,$6,$7*
1,1,$1+$1,$8,$9*
0 Add four rect primitives between the rounded corners*
20,1,$1+$1,$2,$3,$4,$5,0*
20,1,$1+$1,$4,$5,$6,$7,0*
20,1,$1+$1,$6,$7,$8,$9,0*
20,1,$1+$1,$8,$9,$2,$3,0*%
G04 Aperture macros list end*
%ADD10RoundRect,0.237500X-0.250000X-0.237500X0.250000X-0.237500X0.250000X0.237500X-0.250000X0.237500X0*%
%ADD11RoundRect,0.155000X-0.212500X-0.155000X0.212500X-0.155000X0.212500X0.155000X-0.212500X0.155000X0*%
%ADD12RoundRect,0.250000X0.350000X0.450000X-0.350000X0.450000X-0.350000X-0.450000X0.350000X-0.450000X0*%
%ADD13C,1.440000*%
%ADD14RoundRect,0.237500X0.237500X-0.250000X0.237500X0.250000X-0.237500X0.250000X-0.237500X-0.250000X0*%
%ADD15RoundRect,0.155000X0.155000X-0.212500X0.155000X0.212500X-0.155000X0.212500X-0.155000X-0.212500X0*%
%ADD16RoundRect,0.150000X-0.587500X-0.150000X0.587500X-0.150000X0.587500X0.150000X-0.587500X0.150000X0*%
%ADD17R,5.080000X1.500000*%
%ADD18RoundRect,0.237500X0.250000X0.237500X-0.250000X0.237500X-0.250000X-0.237500X0.250000X-0.237500X0*%
%ADD19R,3.000000X3.000000*%
%ADD20C,3.000000*%
G04 APERTURE END LIST*
D10*
%TO.C,R11*%
X126557500Y-110650000D03*
X128382500Y-110650000D03*
%TD*%
D11*
%TO.C,C6*%
X121992500Y-108900000D03*
X123127500Y-108900000D03*
%TD*%
D12*
%TO.C,R1*%
X110820000Y-89900000D03*
X108820000Y-89900000D03*
%TD*%
D13*
%TO.C,RV1*%
X114110000Y-93860000D03*
X111570000Y-93860000D03*
X109030000Y-93860000D03*
%TD*%
%TO.C,RV2*%
X114320000Y-112610000D03*
X111780000Y-112610000D03*
X109240000Y-112610000D03*
%TD*%
D14*
%TO.C,R15*%
X121680000Y-126982500D03*
X121680000Y-125157500D03*
%TD*%
%TO.C,R19*%
X126800000Y-127092500D03*
X126800000Y-125267500D03*
%TD*%
D13*
%TO.C,RV3*%
X113330000Y-132240000D03*
X110790000Y-132240000D03*
X108250000Y-132240000D03*
%TD*%
D14*
%TO.C,R6*%
X127790000Y-89982500D03*
X127790000Y-88157500D03*
%TD*%
D15*
%TO.C,C1*%
X108770000Y-88187500D03*
X108770000Y-87052500D03*
%TD*%
D14*
%TO.C,R9*%
X124640000Y-108835000D03*
X124640000Y-107010000D03*
%TD*%
D16*
%TO.C,D3*%
X117182500Y-127720000D03*
X117182500Y-129620000D03*
X119057500Y-128670000D03*
%TD*%
D14*
%TO.C,R10*%
X126510000Y-108912500D03*
X126510000Y-107087500D03*
%TD*%
D15*
%TO.C,C2*%
X113950000Y-88677500D03*
X113950000Y-87542500D03*
%TD*%
D10*
%TO.C,R17*%
X123327500Y-128700000D03*
X125152500Y-128700000D03*
%TD*%
D14*
%TO.C,R21*%
X128710000Y-127192500D03*
X128710000Y-125367500D03*
%TD*%
D10*
%TO.C,R5*%
X125947500Y-91670000D03*
X127772500Y-91670000D03*
%TD*%
D17*
%TO.C,J1*%
X133630000Y-90220000D03*
X133630000Y-85970000D03*
X133630000Y-94470000D03*
%TD*%
D15*
%TO.C,C4*%
X108900000Y-106785000D03*
X108900000Y-105650000D03*
%TD*%
D14*
%TO.C,R4*%
X125890000Y-89962500D03*
X125890000Y-88137500D03*
%TD*%
%TO.C,R3*%
X123990000Y-89982500D03*
X123990000Y-88157500D03*
%TD*%
%TO.C,R18*%
X125110000Y-127082500D03*
X125110000Y-125257500D03*
%TD*%
%TO.C,R12*%
X128540000Y-108925000D03*
X128540000Y-107100000D03*
%TD*%
D12*
%TO.C,R7*%
X110960000Y-108600000D03*
X108960000Y-108600000D03*
%TD*%
D18*
%TO.C,R14*%
X115312500Y-128690000D03*
X113487500Y-128690000D03*
%TD*%
D19*
%TO.C,J3*%
X100120000Y-108260000D03*
D20*
X100120000Y-113340000D03*
%TD*%
D12*
%TO.C,R13*%
X109990000Y-128360000D03*
X107990000Y-128360000D03*
%TD*%
D19*
%TO.C,J2*%
X99580000Y-88840000D03*
D20*
X99580000Y-93920000D03*
%TD*%
D18*
%TO.C,R8*%
X116452500Y-108950000D03*
X114627500Y-108950000D03*
%TD*%
D17*
%TO.C,J6*%
X133637500Y-128540000D03*
X133637500Y-124290000D03*
X133637500Y-132790000D03*
%TD*%
D15*
%TO.C,C5*%
X114500000Y-107457500D03*
X114500000Y-106322500D03*
%TD*%
D18*
%TO.C,R2*%
X115982500Y-90100000D03*
X114157500Y-90100000D03*
%TD*%
D10*
%TO.C,R20*%
X126827500Y-128680000D03*
X128652500Y-128680000D03*
%TD*%
D11*
%TO.C,C8*%
X113252500Y-127320000D03*
X114387500Y-127320000D03*
%TD*%
D16*
%TO.C,D2*%
X118402500Y-107950000D03*
X118402500Y-109850000D03*
X120277500Y-108900000D03*
%TD*%
D11*
%TO.C,C3*%
X121412500Y-90070000D03*
X122547500Y-90070000D03*
%TD*%
D17*
%TO.C,J4*%
X133687500Y-109010000D03*
X133687500Y-104760000D03*
X133687500Y-113260000D03*
%TD*%
D11*
%TO.C,C9*%
X120692500Y-128660000D03*
X121827500Y-128660000D03*
%TD*%
D16*
%TO.C,D1*%
X117822500Y-89110000D03*
X117822500Y-91010000D03*
X119697500Y-90060000D03*
%TD*%
D11*
%TO.C,C7*%
X107952500Y-126610000D03*
X109087500Y-126610000D03*
%TD*%
D14*
%TO.C,R16*%
X123390000Y-127012500D03*
X123390000Y-125187500D03*
%TD*%
D19*
%TO.C,J5*%
X100000000Y-127000000D03*
D20*
X100000000Y-132080000D03*
%TD*%
M02*
