M48
; DRILL file {KiCad (6.0.11)} date Mon Jul 10 20:07:27 2023
; FORMAT={-:-/ absolute / inch / decimal}
; #@! TF.CreationDate,2023-07-10T20:07:27-05:00
; #@! TF.GenerationSoftware,Kicad,Pcbnew,(6.0.11)
; #@! TF.FileFunction,Plated,1,2,PTH
FMAT,2
INCH
; #@! TA.AperFunction,Plated,PTH,ViaDrill
T1C0.0157
; #@! TA.AperFunction,Plated,PTH,ComponentDrill
T2C0.0315
; #@! TA.AperFunction,Plated,PTH,ComponentDrill
T3C0.0598
%
G90
G05
T1
X3.7618Y-3.5482
X3.7726Y-3.6486
X3.7736Y-3.4685
X3.7795Y-4.9596
X3.7795Y-5.0659
X3.7963Y-4.3327
X3.8002Y-3.3878
X3.8022Y-4.2165
X3.8022Y-5.1762
X3.8051Y-4.8622
X3.8159Y-4.4094
X3.8268Y-4.0994
X3.9419Y-3.3533
X3.9429Y-4.8278
X3.9872Y-4.0492
X3.9941Y-5.2953
X4.0167Y-4.5551
X4.0217Y-3.7972
X4.0571Y-5.3396
X4.065Y-3.3494
X4.0689Y-4.0423
X4.0719Y-4.8337
X4.1043Y-3.8022
X4.1348Y-4.0335
X4.1703Y-4.5748
X4.1919Y-3.811
X4.1959Y-5.3356
X4.1969Y-4.8435
X4.2028Y-3.3337
X4.249Y-4.0472
X4.2795Y-5.3474
X4.2864Y-4.5709
X4.2884Y-3.8179
X4.3041Y-4.8406
X4.3248Y-3.3228
X4.3474Y-4.0512
X4.375Y-5.3504
X4.3878Y-3.815
X4.4045Y-4.8465
X4.4341Y-3.3258
X4.4341Y-4.5748
X4.4498Y-5.3445
X4.4793Y-3.8179
X4.4882Y-4.0512
X4.5049Y-4.8337
X4.5325Y-5.3425
X4.5482Y-3.3287
X4.5699Y-4.5797
X4.5837Y-4.8406
X4.5896Y-3.815
X4.6211Y-4.5551
X4.6398Y-4.0581
X4.6634Y-3.3337
X4.6634Y-5.3169
X4.687Y-3.811
X4.7126Y-4.5354
X4.7234Y-4.0817
X4.753Y-4.7756
X4.7579Y-3.3376
X4.7657Y-5.3169
X4.7835Y-3.812
X4.7963Y-4.5354
X4.8228Y-4.0846
X4.8307Y-4.7657
X4.8671Y-4.5226
X4.8789Y-3.3396
X4.8789Y-3.811
X4.9134Y-5.2953
X4.9183Y-4.7677
X4.9321Y-4.0935
X4.9675Y-3.8041
X4.9803Y-4.7677
X4.9941Y-4.5157
X5.0079Y-3.3366
X5.0177Y-4.0955
X5.0246Y-5.2933
X5.0541Y-3.7992
X5.0659Y-4.7657
X5.0758Y-4.501
X5.0994Y-4.0758
X5.1142Y-3.3406
X5.1309Y-3.7904
X5.1585Y-4.7746
X5.2441Y-4.8022
X5.261Y-3.3846
X5.261Y-3.7193
X5.2613Y-4.8933
X5.2613Y-5.228
X5.2633Y-4.1244
X5.2633Y-4.4591
T2
X4.2618Y-5.2063
X4.2925Y-3.6953
X4.3008Y-4.4335
X4.3618Y-5.2063
X4.3925Y-3.6953
X4.4008Y-4.4335
X4.4618Y-5.2063
X4.4925Y-3.6953
X4.5008Y-4.4335
T3
X3.9205Y-3.4976
X3.9205Y-3.6976
X3.937Y-5.0
X3.937Y-5.2
X3.9417Y-4.2622
X3.9417Y-4.4622
T0
M30
